<svg width="95" height="41" viewBox="0 0 95 41" fill="none" xmlns="http://www.w3.org/2000/svg">
<g clip-path="url(#clip0_5715_10941)">
<path d="M17.7679 40.3416C19.5468 40.3416 20.9889 39.0376 20.9889 37.4291C20.9889 35.8206 19.5468 34.5166 17.7679 34.5166C15.989 34.5166 14.5469 35.8206 14.5469 37.4291C14.5469 39.0376 15.989 40.3416 17.7679 40.3416Z" fill="#4B4B4B"/>
<path d="M36.3803 40.3411H29.32L18.4043 15.8783L7.38518 40.3411H0.316406L14.8867 7.99475L18.4336 0.121094L21.9512 8.00464L36.3803 40.3411Z" fill="#4B4B4B"/>
<path d="M51.4129 28.7789V28.9825H47.4356L43.3569 22.9767H41.9889V28.9825H38.3916V12.492H43.8889C45.3414 12.492 46.5489 12.7211 47.5116 13.1791C48.4912 13.6202 49.2174 14.231 49.6903 15.0114C50.1632 15.7748 50.3996 16.6486 50.3996 17.6326C50.3996 18.7862 50.1125 19.7872 49.5383 20.6355C48.964 21.4668 48.1196 22.086 47.0049 22.4932L51.4129 28.7789ZM41.9889 20.2537H43.5343C44.5476 20.2537 45.3245 20.0586 45.8649 19.6684C46.4223 19.2782 46.7009 18.6335 46.7009 17.7344C46.7009 16.9539 46.456 16.3686 45.9663 15.9784C45.4765 15.5882 44.7925 15.3931 43.9143 15.3931H41.9889V20.2537ZM66.0605 29.3388C64.4054 29.3388 63.0459 29.0334 61.9819 28.4226C60.9179 27.7949 60.141 26.9551 59.6512 25.9033C59.1783 24.8344 58.9419 23.6214 58.9419 22.2642V12.492H62.5392V21.8315C62.5392 23.2566 62.8179 24.3679 63.3752 25.1653C63.9325 25.9457 64.9036 26.3359 66.2885 26.3359C67.6059 26.3359 68.5347 25.9457 69.0752 25.1653C69.6156 24.3679 69.8859 23.3415 69.8859 22.086V12.492H73.4832V22.1878C73.4832 23.8674 73.1623 25.2416 72.5205 26.3104C71.8787 27.3623 71.0005 28.1342 69.8859 28.6262C68.7881 29.1013 67.513 29.3388 66.0605 29.3388ZM87.5706 29.3388C85.0373 29.3388 82.884 28.6771 81.1106 27.3538L82.732 24.8344C84.3026 25.8354 85.8395 26.3359 87.3426 26.3359C88.3053 26.3359 89.0569 26.1832 89.5973 25.8778C90.1546 25.5724 90.4333 25.1144 90.4333 24.5036C90.4333 24.1304 90.3404 23.825 90.1546 23.5875C89.9857 23.333 89.6733 23.0955 89.2173 22.8749C88.7782 22.6374 88.1111 22.3405 87.216 21.9842L86.6333 21.7552C85.5524 21.3311 84.6826 20.9239 84.024 20.5337C83.3653 20.1435 82.8417 19.643 82.4533 19.0322C82.0649 18.4215 81.8706 17.6495 81.8706 16.7164C81.8706 15.6815 82.1662 14.8248 82.7573 14.1462C83.3484 13.4506 84.1084 12.9416 85.0373 12.6193C85.9662 12.2969 86.9542 12.1357 88.0013 12.1357C88.9471 12.1357 89.9182 12.2969 90.9146 12.6193C91.928 12.9246 92.8906 13.3827 93.8026 13.9935L92.156 16.4874C91.3453 15.9954 90.6275 15.6391 90.0026 15.4186C89.3778 15.198 88.7022 15.0877 87.976 15.0877C87.1653 15.0877 86.5489 15.2235 86.1266 15.4949C85.7213 15.7664 85.5186 16.1311 85.5186 16.5892C85.5186 16.8776 85.6031 17.1406 85.772 17.3781C85.9409 17.5986 86.2449 17.8277 86.684 18.0652C87.1231 18.2857 87.7564 18.5487 88.584 18.8541L89.1413 19.0577C90.2222 19.4648 91.092 19.8466 91.7506 20.2028C92.4262 20.5591 92.992 21.0681 93.448 21.7297C93.904 22.3914 94.132 23.2482 94.132 24.3C94.132 25.4028 93.8449 26.3359 93.2706 27.0993C92.6964 27.8458 91.9111 28.4057 90.9146 28.7789C89.9351 29.1522 88.8204 29.3388 87.5706 29.3388Z" fill="#4B4B4B"/>
</g>
<defs>
<clipPath id="clip0_5715_10941">
<rect width="95" height="41" fill="white"/>
</clipPath>
</defs>
</svg>
