<svg xmlns="http://www.w3.org/2000/svg" width="72" height="72" viewBox="0 0 72 72" fill="none">
  <g clip-path="url(#clip0_1149_8163)">
    <path d="M72 36C72 46.0727 67.8629 55.1787 61.1959 61.7123C60.6097 62.2867 60.0031 62.8415 59.3785 63.3751C58.2344 64.3552 57.0275 65.2631 55.7656 66.0934C50.0921 69.8279 43.2995 72 36 72C28.7005 72 21.9079 69.8279 16.2344 66.0934C14.9725 65.2631 13.7656 64.3552 12.6215 63.3751C11.9969 62.8415 11.3903 62.2859 10.8041 61.7123C4.13706 55.1779 0 46.0727 0 36C0 16.1174 16.1174 0 36 0C55.8826 0 72 16.1174 72 36Z" fill="#D9D9D9"/>
    <path d="M61.1956 61.712C60.6094 62.2864 60.0028 62.8412 59.3781 63.3748C58.234 64.3549 57.0271 65.2628 55.7653 66.0931C50.0917 69.8276 43.2991 71.9997 35.9996 71.9997C28.7001 71.9997 21.9076 69.8276 16.234 66.0931C14.9722 65.2628 13.7653 64.3549 12.6211 63.3748C11.9965 62.8412 11.3899 62.2856 10.8037 61.712C12.2421 57.6283 15.5262 54.3363 19.8194 52.9827L30.5843 49.5825V47.8059C29.2408 47.0157 28.0284 46.1062 27.0326 45.4235C25.1806 44.1773 23.9455 42.2178 23.5774 40.0183L23.003 36.5859C21.2052 36.5859 19.7543 35.1349 19.7543 33.3363V25.7551C19.7543 21.2712 21.5733 17.2103 24.5081 14.2644C27.4548 11.3288 31.5047 9.50977 35.9996 9.50977C44.9675 9.50977 52.245 16.7881 52.245 25.7551V33.3363C52.245 35.1349 50.794 36.5859 48.9962 36.5859L48.4218 40.0183C48.0538 42.2178 46.8084 44.1773 44.9565 45.4235C43.9599 46.0944 42.7679 47.0149 41.415 47.8059V49.5825L52.1697 52.9827C56.4699 54.3363 59.7564 57.6283 61.1956 61.712Z" fill="#9E9E9E"/>
  </g>
  <defs>
    <clipPath id="clip0_1149_8163">
      <rect width="72" height="72" fill="white"/>
    </clipPath>
  </defs>
</svg>