<svg width="63" height="245" viewBox="0 0 63 245" fill="none" xmlns="http://www.w3.org/2000/svg">
<line x1="32" y1="245" x2="32" y2="62" stroke="#64ABAC" stroke-width="4"/>
<circle cx="31.5" cy="31.5" r="29.5" stroke="#64ABAC" stroke-width="4"/>
<path d="M21.9587 41.5368C24.0268 43.8798 26.8354 45.4433 29.9165 45.9666C32.9975 46.4899 36.1648 45.9414 38.8905 44.4126C41.6162 42.8838 43.7356 40.467 44.8954 37.565C46.0553 34.6631 46.1856 31.4513 45.2645 28.4649C44.3434 25.4786 42.4267 22.8981 39.8337 21.1536C37.2408 19.4091 34.1283 18.606 31.015 18.8781C27.9017 19.1502 24.9757 20.4811 22.7247 22.6489C20.4737 24.8167 19.0336 27.6906 18.6445 30.7914" stroke="#64ABAC" stroke-width="2" stroke-linecap="round" stroke-linejoin="round"/>
<path d="M15.125 22.25L18.5417 30.7917L27.0833 27.375" stroke="#64ABAC" stroke-width="2" stroke-linecap="round" stroke-linejoin="round"/>
</svg>
