<svg width="63" height="245" viewBox="0 0 63 245" fill="none" xmlns="http://www.w3.org/2000/svg">
<line x1="33" y1="245" x2="33" y2="61" stroke="#64ABAC" stroke-width="4"/>
<path d="M42 19H25C23.9391 19 22.9217 19.4214 22.1716 20.1716C21.4214 20.9217 21 21.9391 21 23V44C21 44.2652 21.1054 44.5196 21.2929 44.7071C21.4804 44.8946 21.7348 45 22 45H40C40.2652 45 40.5196 44.8946 40.7071 44.7071C40.8946 44.5196 41 44.2652 41 44C41 43.7348 40.8946 43.4804 40.7071 43.2929C40.5196 43.1054 40.2652 43 40 43H23C23 42.4696 23.2107 41.9609 23.5858 41.5858C23.9609 41.2107 24.4696 41 25 41H42C42.2652 41 42.5196 40.8946 42.7071 40.7071C42.8946 40.5196 43 40.2652 43 40V20C43 19.7348 42.8946 19.4804 42.7071 19.2929C42.5196 19.1054 42.2652 19 42 19ZM41 39H25C24.2977 38.999 23.6076 39.1841 23 39.5362V23C23 22.4696 23.2107 21.9609 23.5858 21.5858C23.9609 21.2107 24.4696 21 25 21H41V39Z" fill="#64ABAC"/>
<circle cx="31.5" cy="31.5" r="29.5" stroke="#64ABAC" stroke-width="4"/>
</svg>
