<svg width="63" height="255" viewBox="0 0 63 255" fill="none" xmlns="http://www.w3.org/2000/svg">
<line x1="33" y1="255" x2="33" y2="62" stroke="#64ABAC" stroke-width="4"/>
<circle cx="31.5" cy="31.5" r="29.5" stroke="#64ABAC" stroke-width="4"/>
<g clip-path="url(#clip0_1149_6857)">
<path d="M50.2676 32.749V25.7207L49.1924 26.0844V32.749H50.2676Z" fill="#64ABAC"/>
<path d="M43.1542 39.3332H42.9668L43.1238 40.1087C43.1095 40.1307 43.0863 40.1626 43.0495 40.2046C42.9354 40.3349 42.7421 40.5019 42.4555 40.6941C41.8857 41.0762 41.0305 41.5021 39.9423 41.9002C37.7702 42.6949 34.7509 43.3496 31.4107 43.3496C28.0703 43.3496 25.0472 42.6949 22.8712 41.9001C21.781 41.5019 20.9239 41.0759 20.3525 40.6937C20.0652 40.5015 19.8714 40.3344 19.7569 40.204C19.7194 40.1614 19.696 40.1292 19.6818 40.1071L19.8329 39.3332H19.6812V30.8067L30.8616 34.5918C30.8622 34.592 30.8629 34.5923 30.8636 34.5925C31.0455 34.655 31.2347 34.6839 31.4177 34.6839C31.6013 34.6839 31.7894 34.6548 31.9707 34.5925C31.9714 34.5923 31.9721 34.592 31.9728 34.5918L43.1538 30.8067L43.1542 39.3332Z" stroke="#64ABAC" stroke-width="1.3"/>
<path d="M14.0331 25.5301L31.4175 19.6858L48.8005 25.53L43.5951 27.293L43.595 27.2931L31.4175 31.4156L19.2389 27.2931L19.2388 27.293L14.0331 25.5301Z" stroke="#64ABAC" stroke-width="1.3"/>
<path d="M48.6609 38.4984V34.395C48.6609 34.1324 48.7566 33.8919 48.915 33.7059H50.5471C50.7049 33.8918 50.8003 34.1323 50.8003 34.395V38.4984C50.8003 39.0876 50.3225 39.5658 49.7308 39.5658C49.139 39.5658 48.6609 39.0879 48.6609 38.4984Z" fill="#64ABAC" stroke="#64ABAC" stroke-width="0.4"/>
<path d="M48.6641 32.748V33.5054H48.8261H50.6344H50.7955V32.748H50.2676H49.1924H48.6641Z" fill="#64ABAC"/>
</g>
<defs>
<clipPath id="clip0_1149_6857">
<rect width="100%" height="100%" fill="white" transform="translate(12 19)"/>
</clipPath>
</defs>
</svg>
