<svg width="236" height="161" viewBox="0 0 236 161" fill="none" xmlns="http://www.w3.org/2000/svg">
<g clip-path="url(#clip0_1009_8461)">
<path d="M187.276 159.021H45.7878C45.2438 159.021 44.7998 159.477 44.7998 160.044C44.7998 160.607 45.2398 161.066 45.7878 161.066H187.272C187.816 161.066 188.26 160.611 188.26 160.044C188.26 159.481 187.82 159.021 187.272 159.021H187.276Z" fill="#CED8D6"/>
<path d="M217.388 26.4307H166.828V61.8548H217.388V26.4307Z" fill="#FDD449"/>
<path d="M204.444 56.7933H179.772V33.7773H180.644V55.8869H204.444V56.7933Z" fill="white"/>
<path d="M202.228 40.7392L201.96 38.707L199.996 38.9843L199.276 39.9652L200.66 39.7666L195.756 46.4425L190.808 41.8153L183.912 52.1085L184.592 52.5969L190.952 43.1025L195.872 47.7007L201.32 40.2839L201.508 41.7201L202.228 40.7392Z" fill="white"/>
<path d="M217.388 26.4307H166.828V30.9089H217.388V26.4307Z" fill="#FC694C"/>
<path d="M214.072 29.5641C214.576 29.5641 214.984 29.1416 214.984 28.6204C214.984 28.0992 214.576 27.6768 214.072 27.6768C213.568 27.6768 213.16 28.0992 213.16 28.6204C213.16 29.1416 213.568 29.5641 214.072 29.5641Z" fill="white"/>
<path d="M211.088 29.5641C211.591 29.5641 212 29.1416 212 28.6204C212 28.0992 211.591 27.6768 211.088 27.6768C210.584 27.6768 210.176 28.0992 210.176 28.6204C210.176 29.1416 210.584 29.5641 211.088 29.5641Z" fill="white"/>
<path d="M209.02 28.6204C209.02 29.1419 208.612 29.5641 208.108 29.5641C207.604 29.5641 207.196 29.1419 207.196 28.6204C207.196 28.0989 207.604 27.6768 208.108 27.6768C208.612 27.6768 209.02 28.0989 209.02 28.6204Z" fill="white"/>
<path d="M60.7564 51.3047H19.0164C17.3882 51.3047 16.0684 52.6704 16.0684 54.355V84.4194C16.0684 86.104 17.3882 87.4697 19.0164 87.4697H60.7564C62.3845 87.4697 63.7044 86.104 63.7044 84.4194V54.355C63.7044 52.6704 62.3845 51.3047 60.7564 51.3047Z" fill="white" stroke="#444C72" stroke-width="2.76" stroke-miterlimit="10"/>
<path d="M26.1522 54.5H19.3242V64.5408H26.1522V54.5Z" fill="#FC694C"/>
<path d="M23.4718 55.7457C23.4718 56.1637 23.1438 56.5031 22.7398 56.5031C22.3358 56.5031 22.0078 56.1637 22.0078 55.7457C22.0078 55.3277 22.3358 54.9883 22.7398 54.9883C23.1438 54.9883 23.4718 55.3277 23.4718 55.7457Z" fill="#FDD449"/>
<path d="M35.6005 65.8281H28.7725V75.8689H35.6005V65.8281Z" fill="#FC694C"/>
<path d="M32.921 67.0777C32.921 67.4957 32.593 67.8351 32.189 67.8351C31.785 67.8351 31.457 67.4957 31.457 67.0777C31.457 66.6597 31.785 66.3203 32.189 66.3203C32.593 66.3203 32.921 66.6597 32.921 67.0777Z" fill="#19888E"/>
<path d="M47.4286 55.6543H40.6006V65.6951H47.4286V55.6543Z" fill="#FDD449"/>
<path d="M44.7482 56.9C44.7482 57.318 44.4202 57.6574 44.0162 57.6574C43.6122 57.6574 43.2842 57.318 43.2842 56.9C43.2842 56.482 43.6122 56.1426 44.0162 56.1426C44.4202 56.1426 44.7482 56.482 44.7482 56.9Z" fill="#FC694C"/>
<path d="M47.4286 74.2217H40.6006V84.2624H47.4286V74.2217Z" fill="#19888E"/>
<path d="M44.7482 75.4713C44.7482 75.8893 44.4202 76.2287 44.0162 76.2287C43.6122 76.2287 43.2842 75.8893 43.2842 75.4713C43.2842 75.0533 43.6122 74.7139 44.0162 74.7139C44.4202 74.7139 44.7482 75.0533 44.7482 75.4713Z" fill="#FC694C"/>
<path d="M134.999 161.062H119.979C119.979 161.062 120.351 158.976 121.607 157.676C122.859 156.377 127.859 155.259 128.623 154.539L128.579 153.43L128.559 152.966L128.475 150.769L134.539 151.77L134.775 153.96L134.791 154.113L135.003 156.041C135.003 156.041 135.623 158.972 135.003 161.058L134.999 161.062Z" fill="#F6B68E"/>
<path d="M134.788 154.117C132.66 154.82 130.012 154.001 128.576 153.43L128.556 152.966L128.472 150.769L134.536 151.77L134.772 153.96L134.788 154.113V154.117Z" fill="#C4764B"/>
<path d="M119.979 161.062H134.999C135.619 158.976 134.999 156.045 134.999 156.045C134.999 156.045 130.371 156.935 128.623 154.543C127.859 155.259 122.859 156.376 121.607 157.676C120.351 158.976 119.979 161.062 119.979 161.062Z" fill="#444C72"/>
<path d="M116.372 158.823H101.352C101.352 158.823 101.724 156.737 102.98 155.437C104.232 154.137 109.232 153.02 109.996 152.3L109.948 151.062L109.932 150.727L109.848 148.529L115.912 149.531L116.148 151.72L116.164 151.84L116.376 153.802C116.376 153.802 116.996 156.732 116.376 158.818L116.372 158.823Z" fill="#F6B68E"/>
<path d="M116.164 151.848C115.668 151.993 115.008 152.105 114.132 152.126C112 152.184 110.636 151.526 109.948 151.066L109.932 150.731L109.848 148.533L115.912 149.535L116.148 151.724L116.164 151.844V151.848Z" fill="#C4764B"/>
<path d="M101.352 158.827H116.372C116.992 156.741 116.372 153.811 116.372 153.811C116.372 153.811 111.744 154.701 109.996 152.309C109.232 153.025 104.232 154.142 102.98 155.442C101.724 156.741 101.352 158.827 101.352 158.827Z" fill="#444C72"/>
<path d="M134.64 96.6328L133.496 122.724L135.732 152.3C135.732 152.3 131.98 153.794 127.364 152.3L123.18 123.022L121.36 105.415L119.092 123.941L116.668 150.706C116.668 150.706 113.228 152.101 108.996 149.912L110.052 122.252L111.988 96.757L134.636 96.6328H134.64Z" fill="#444C72"/>
<path d="M101.352 73.7415L100.088 76.9988C100.088 76.9988 99.0635 76.7049 97.9755 76.3283C96.9155 75.9641 95.7915 75.5088 95.5275 75.1735C94.9875 74.4989 94.5595 73.6711 94.1195 72.9841C93.6755 72.2929 93.8155 71.3534 93.6075 70.9188C93.3995 70.4884 93.1115 69.5944 93.4395 69.404C93.7675 69.2136 95.0355 70.745 95.5835 71.0016C96.1275 71.2541 97.7195 71.7466 97.7195 71.7466L97.2835 71.2086C97.2835 71.2086 96.5595 70.476 96.5075 70.1449C96.4515 69.8138 96.7675 69.7227 96.7675 69.7227C96.7675 69.7227 99.0875 70.745 99.6115 71.3617C99.8435 71.6307 100.2 72.115 100.536 72.5785C100.964 73.1828 101.352 73.7415 101.352 73.7415Z" fill="#F6B68E"/>
<path d="M101.352 73.7411L100.088 76.9984C100.088 76.9984 99.0636 76.7045 97.9756 76.3279C99.5116 75.1318 100.232 73.5218 100.54 72.5781C100.968 73.1824 101.356 73.7411 101.356 73.7411H101.352Z" fill="#C4764B"/>
<path d="M115.779 64.1396L109.531 76.7589L100.947 72.8312L99.2314 77.4832L111.067 83.0044L116.215 77.4832L115.779 64.1396Z" fill="#FC694C"/>
<path d="M135.284 96.8609C135.284 96.8609 134.132 97.3907 132.12 97.9453C127.98 99.0835 120.22 100.321 111.516 97.2375L112.772 87.4741L113.348 83.0083L115.776 64.1394L120.708 61.0519L126.592 59.8682L132.016 63.5848C132.016 63.5848 132.644 66.4986 133.36 70.8526C134.512 77.8472 135.892 88.5667 135.28 96.8651L135.284 96.8609Z" fill="#FC694C"/>
<path d="M135.283 96.8611C135.283 96.8611 134.131 97.3909 132.119 97.9455L131.319 90.5618H123.891L119.779 90.0403L112.775 87.4743L113.351 83.0085L131.759 81.3861L131.219 70.8693C131.219 70.8693 132.091 70.8569 133.363 70.8486C134.515 77.8432 135.895 88.5628 135.283 96.8611Z" fill="#D64F38"/>
<path d="M122.796 42.5138C122.796 42.5138 121.388 38.884 125.252 38.5322C125.252 38.5322 126.912 36.3594 129.048 37.5845C131.184 38.8095 130.708 41.1273 130.708 41.1273C130.708 41.1273 132.336 42.0378 131.96 44.0038C131.588 45.9656 129.148 46.8099 129.148 46.8099L122.796 42.5179V42.5138Z" fill="#222850"/>
<path d="M125.252 42.7371C125.252 42.7371 125.964 41.959 126.98 42.3149C127.996 42.6667 129.012 44.2477 128.2 45.2617C128.2 45.2617 126.436 44.6326 125.252 42.7371Z" fill="#FC694C"/>
<path d="M117.183 51.4004C117.183 51.4004 115.999 50.9121 115.795 48.913C115.591 46.914 116.915 44.1782 119.287 43.9009C121.659 43.6236 122.979 41.4135 125.251 42.742C127.523 44.0747 128.199 45.2667 128.199 45.2667C128.199 45.2667 130.267 46.8809 130.267 48.3501C130.267 49.8194 129.623 50.523 129.927 51.8226C130.231 53.1222 128.611 56.9465 126.195 57.7866L117.183 51.4004Z" fill="#222850"/>
<path d="M117.255 50.0672C117.255 50.0672 116.375 58.0551 120.711 58.4814V62.1319C120.711 62.1319 122.875 64.3586 126.875 61.3414L125.659 54.9759C125.659 54.9759 127.015 54.9758 127.287 53.221C127.559 51.4661 125.391 50.4149 124.643 52.029C124.643 52.029 124.035 50.6963 122.815 50.5556C121.595 50.4149 119.459 50.241 119.123 48.6973C119.123 48.6973 118.783 49.7154 117.259 50.0631L117.255 50.0672Z" fill="#F6B68E"/>
<path d="M132.019 63.584C132.019 63.584 137.183 65.2271 138.987 85.9046C138.987 85.9046 134.019 88.9632 124.531 88.8432V84.7996L134.019 82.4611C134.019 82.4611 131.939 74.5146 131.219 70.8683C130.495 67.222 132.019 63.584 132.019 63.584Z" fill="#FC694C"/>
<path d="M124.531 85.1271V88.285C124.531 88.285 123.835 88.3016 122.911 88.2726C121.855 88.2436 120.499 88.1567 119.559 87.9332C117.795 87.5111 115.179 85.1975 115.775 85.1271C116.239 85.0733 121.235 85.1023 123.463 85.1147C124.111 85.123 124.523 85.1271 124.523 85.1271H124.531Z" fill="#F6B68E"/>
<path d="M124.531 85.1267V88.2846C124.531 88.2846 123.835 88.3011 122.911 88.2722C123.355 87.0264 123.451 85.7392 123.467 85.1143C124.115 85.1225 124.527 85.1267 124.527 85.1267H124.531Z" fill="#C4764B"/>
<path d="M124.532 85.1274H107.092L104.176 69.8428H122.248L124.532 85.1274Z" fill="#FDD449"/>
<path d="M115.768 76.3076C115.528 77.5492 113.976 78.3894 113.976 78.3894C113.976 78.3894 112.424 77.5492 112.184 76.3076C111.94 75.0618 113.124 74.5651 113.976 75.4839C114.828 74.5651 116.012 75.0618 115.768 76.3076Z" fill="white"/>
<path d="M124.532 85.1274L132.98 83.3022V82.0771L125.492 83.6002L123.476 69.8428H122.248L124.532 85.1274Z" fill="#E59A38"/>
<path d="M121.36 105.42L118.196 103.992L120.924 109L121.36 105.42Z" fill="#222850"/>
<path d="M120.711 58.4772C120.711 58.4772 123.507 58.6675 124.659 55.8076C124.659 55.8076 125.179 60.0623 120.711 60.6086V58.4772Z" fill="#C4764B"/>
<path d="M162.532 45.6136C162.532 45.6136 160.24 44.1071 161.396 41.6445C162.548 39.1819 165.364 37.7995 167.384 38.5859C167.384 38.5859 168.576 37.1663 170.592 38.0644C172.612 38.9584 172.972 41.0857 172.972 41.0857C172.972 41.0857 175.208 40.3408 176.072 42.5054C176.936 44.67 175.604 46.5738 175.604 46.5738C175.604 46.5738 177.444 47.5051 176.868 49.9304C176.292 52.3557 175.172 52.7655 175.172 52.7655C175.172 52.7655 175.312 55.1908 174.432 55.8986C173.548 56.6063 172.544 56.4987 172.544 56.4987L162.532 45.6178V45.6136Z" fill="#222850"/>
<path d="M160.673 61.8545L155.841 79.5231C155.841 79.5231 155.513 86.7412 157.797 97.738L159.709 93.5951L160.669 61.8545H160.673Z" fill="#0A5B5B"/>
<path d="M179.461 161.062H164.441C164.441 161.062 164.813 158.976 166.069 157.676C167.321 156.377 172.321 155.259 173.085 154.539L173.041 153.471L173.021 152.966L172.937 150.769L179.001 151.77L179.205 153.666L179.237 153.96L179.461 156.041C179.461 156.041 180.081 158.972 179.461 161.058V161.062Z" fill="#F6B68E"/>
<path d="M164.441 161.062H179.461C180.081 158.976 179.461 156.045 179.461 156.045C179.461 156.045 174.833 156.935 173.085 154.543C172.321 155.259 167.321 156.376 166.069 157.676C164.813 158.976 164.441 161.062 164.441 161.062Z" fill="#444C72"/>
<path d="M160.832 158.823H145.812C145.812 158.823 146.185 156.737 147.441 155.437C148.693 154.137 153.693 153.02 154.457 152.3L154.417 151.327L154.393 150.727L154.308 148.529L160.372 149.531L160.608 151.72L160.632 151.973L160.832 153.802C160.832 153.802 161.452 156.732 160.832 158.818V158.823Z" fill="#F6B68E"/>
<path d="M160.609 151.724L160.633 151.977C158.453 152.879 155.845 151.977 154.413 151.327L154.389 150.727L154.305 148.529L160.369 149.531L160.605 151.72L160.609 151.724Z" fill="#C4764B"/>
<path d="M179.205 153.67C178.553 153.835 177.745 153.951 176.761 153.968C175.013 153.993 173.805 153.736 173.041 153.471L173.021 152.966L172.937 150.769L179.001 151.77L179.205 153.666V153.67Z" fill="#C4764B"/>
<path d="M145.812 158.827H160.832C161.452 156.741 160.832 153.811 160.832 153.811C160.832 153.811 156.205 154.701 154.457 152.309C153.693 153.025 148.693 154.142 147.441 155.442C146.185 156.741 145.812 158.827 145.812 158.827Z" fill="#444C72"/>
<path d="M178.52 96.6292L177.96 122.724L180.196 152.3C180.196 152.3 176.444 153.795 171.828 152.3L167.644 123.022L165.824 105.416L163.556 123.941L161.132 150.707C161.132 150.707 157.692 152.102 153.46 149.912L154.516 122.253L158.02 96.0498L178.512 96.6334L178.52 96.6292Z" fill="#444C72"/>
<path d="M179.137 96.4797C177.529 96.8894 175.973 97.1791 174.489 97.3778C164.333 98.7395 157.309 95.7844 157.309 95.7844L160.677 61.8585L166.477 59.1227L172.589 58.9199L178.965 62.6614L179.009 71.0715L179.137 96.4838V96.4797Z" fill="#19888E"/>
<path d="M174.488 97.378L174.74 89.2908L164.624 88.8479L159.872 88.2892L159.932 86.3812L175.388 83.3557L175.74 70.248C175.74 70.248 177.152 70.5916 179.008 71.0675L179.136 96.4799C177.528 96.8896 175.972 97.1793 174.488 97.378Z" fill="#0A5B5B"/>
<path d="M162.741 44.3926C162.741 44.3926 160.193 56.4324 166.733 57.0284L166.397 59.7641C166.397 59.7641 168.321 61.8046 172.601 59.7641L172.505 53.796C172.505 53.796 173.129 53.5973 173.661 52.604C174.189 51.6107 175.105 49.6199 173.661 49.2226C172.217 48.8253 171.785 50.4684 171.785 50.4684L171.161 50.369C171.161 50.369 171.545 47.4843 170.873 47.2856C170.201 47.0869 169.261 48.0554 167.557 47.1118C165.849 46.1681 166.113 44.9223 164.889 44.7733C163.661 44.6244 162.749 44.4009 162.749 44.4009L162.741 44.3926Z" fill="#F6B68E"/>
<path d="M178.965 62.6611C178.965 62.6611 180.821 64.2422 181.829 68.5714C182.837 72.9006 182.965 83.1731 182.869 84.6672C182.773 86.1613 173.393 87.8996 164.833 87.6513C164.833 87.6513 163.857 87.0884 164.581 83.6532L177.121 80.6609C177.121 80.6609 175.485 71.0091 175.725 68.5714C175.965 66.1336 177.397 63.4682 178.965 62.6611Z" fill="#19888E"/>
<path d="M162.524 79.2412L156.9 79.3902L157.704 87.4692L161.716 87.3698L162.524 79.2412Z" fill="white"/>
<path d="M164.625 87.3992C164.625 87.3992 163.849 87.5275 162.861 87.5151C162.125 87.5068 161.269 87.4158 160.529 87.1302C158.797 86.4597 158.433 86.0541 158.345 85.8968C157.373 84.0882 157.653 82.4202 157.821 82.2216C157.989 82.0229 159.833 82.7762 160.433 82.8796C161.033 82.9831 162.165 82.892 162.165 82.892L162.313 81.3896C162.785 81.6007 163.697 82.7141 164.193 83.3597C164.405 83.637 164.545 83.8274 164.545 83.8274L164.621 87.4034L164.625 87.3992Z" fill="#F6B68E"/>
<path d="M162.857 87.515C164.417 85.6898 164.193 83.3555 164.193 83.3555C164.405 83.6328 164.545 83.8232 164.545 83.8232L164.621 87.3991C164.621 87.3991 163.845 87.5274 162.857 87.515Z" fill="#C4764B"/>
<path d="M159.712 79.9244C161.265 79.9244 162.524 79.6187 162.524 79.2415C162.524 78.8643 161.265 78.5586 159.712 78.5586C158.159 78.5586 156.9 78.8643 156.9 79.2415C156.9 79.6187 158.159 79.9244 159.712 79.9244Z" fill="#CED8D6"/>
<path d="M165.825 105.42L163.393 102.8L165.273 109.927L165.825 105.42Z" fill="#222850"/>
<path d="M166.732 57.0322C166.732 57.0322 169.148 57.2764 171.024 54.4785C171.024 54.4785 170.936 58.4269 166.528 58.6918L166.732 57.0322Z" fill="#C4764B"/>
<path d="M68.1276 161.063H53.1076C52.4876 158.977 53.1076 156.046 53.1076 156.046L53.3316 153.964L53.3436 153.861L53.5676 151.775L59.6316 150.773L59.5476 152.971L59.5316 153.385L59.4836 154.544C60.2476 155.26 65.2436 156.377 66.4996 157.681C67.7556 158.981 68.1276 161.067 68.1276 161.067V161.063Z" fill="#F6B68E"/>
<path d="M68.1247 161.062H53.1047C52.4847 158.976 53.1047 156.045 53.1047 156.045C53.1047 156.045 57.7327 156.935 59.4807 154.543C60.2447 155.259 65.2447 156.376 66.4967 157.676C67.7527 158.976 68.1247 161.062 68.1247 161.062Z" fill="#444C72"/>
<path d="M86.7565 158.823H71.7365C71.1165 156.737 71.7365 153.807 71.7365 153.807L71.8965 152.334L71.9645 151.725L72.2005 149.536L78.2645 148.534L78.1805 150.732V150.856L78.1165 152.301C78.8805 153.017 83.8765 154.134 85.1325 155.438C86.3885 156.737 86.7605 158.823 86.7605 158.823H86.7565Z" fill="#F6B68E"/>
<path d="M53.5638 151.775L59.6278 150.773L59.5438 152.971L59.5278 153.385C56.5198 154.56 54.2918 154.155 53.3398 153.865L53.5638 151.779V151.775Z" fill="#C4764B"/>
<path d="M78.2605 148.534L78.1765 150.732V150.856C76.1565 152.408 73.0325 152.396 71.8965 152.338L71.9645 151.729L72.2005 149.54L78.2645 148.538L78.2605 148.534Z" fill="#C4764B"/>
<path d="M86.7526 158.827H71.7326C71.1126 156.741 71.7326 153.811 71.7326 153.811C71.7326 153.811 76.3606 154.701 78.1086 152.309C78.8726 153.025 83.8726 154.142 85.1246 155.442C86.3806 156.741 86.7526 158.827 86.7526 158.827Z" fill="#444C72"/>
<path d="M69.8282 44.393C69.8282 44.393 72.1362 42.7499 71.8962 39.2153C71.6562 35.6849 67.8082 35.4821 66.1762 36.0823C64.5442 36.6824 63.8201 39.2153 62.7161 39.6127C61.6121 40.01 57.7642 40.9081 57.8122 43.0934C57.8122 43.0934 55.3601 43.3914 55.5041 45.4815C55.6481 47.5716 55.3442 53.933 60.0402 55.8286L69.8322 44.393H69.8282Z" fill="#222850"/>
<path d="M54.0481 96.6292L54.6081 122.724L52.3721 152.3C52.3721 152.3 56.1241 153.795 60.7401 152.3L64.9241 123.022L66.7441 105.416L69.0121 123.941L71.4361 150.707C71.4361 150.707 74.8761 152.102 79.1081 149.912L78.0521 122.253L74.5481 96.0498L54.0521 96.6334L54.0481 96.6292Z" fill="#444C72"/>
<path d="M93.6802 55.3564C93.6562 55.9524 92.5522 57.6452 91.7562 58.7958C91.3002 59.4539 90.9442 59.934 90.9442 59.934L87.8522 58.0053C87.8522 58.0053 87.8442 57.8066 87.8362 57.5045C87.8242 56.7802 87.8082 55.4516 87.8522 54.8349C87.9122 53.9575 89.2442 51.5529 89.2442 51.5529C89.2442 51.5529 89.5682 51.4246 89.7322 51.7391C89.8962 52.0537 89.7322 53.1587 89.7322 53.1587L89.7002 53.9037C89.7002 53.9037 90.7442 52.4303 91.0482 51.8509C91.3562 51.2756 91.4842 49.1275 91.8762 49.0696C92.2762 49.0158 92.5802 49.9677 92.6722 50.4685C92.7602 50.9734 93.4642 51.6812 93.5162 52.5586C93.5722 53.436 93.7162 54.4252 93.6802 55.3564Z" fill="#F6B68E"/>
<path d="M91.7559 58.7957C91.2999 59.4538 90.9439 59.9339 90.9439 59.9339L87.8519 58.0052C87.8519 58.0052 87.8439 57.8066 87.8359 57.5044C87.8359 57.5044 90.7319 57.4382 91.7519 58.7957H91.7559Z" fill="#C4764B"/>
<path d="M71.8966 61.8544L80.6006 69.5651L87.5006 57.9102C87.5006 57.9102 89.5326 58.502 91.1526 60.0706C91.1526 60.0706 85.4566 72.8347 81.7046 76.2327L73.1526 74.5399L71.8926 61.8544H71.8966Z" fill="#FDD449"/>
<path d="M75.2606 95.7844C75.2606 95.7844 69.3606 98.2677 60.5606 97.6344C58.3526 97.4771 55.9606 97.1253 53.4326 96.4838L53.5646 70.5872L53.6046 62.6614L59.9846 58.9199L66.0926 59.1227L71.8966 61.8585L74.5526 88.6532L75.2606 95.7844Z" fill="#FDD449"/>
<path d="M68.5726 89.1052L59.8846 89.7053L60.5606 97.6353C58.3526 97.478 55.9606 97.1262 53.4326 96.4847L53.5646 70.5881L56.8486 68.5684L58.9646 84.3993L74.2286 85.8976L74.5526 88.6499L68.5726 89.1052Z" fill="#E59A38"/>
<path d="M69.8286 44.3926C69.8286 44.3926 72.3766 56.4324 65.8366 57.0284L66.1726 59.7641C66.1726 59.7641 64.2486 61.8046 59.9686 59.7641L60.0646 53.796C60.0646 53.796 59.4406 53.5973 58.9126 52.604C58.3846 51.6107 57.4686 49.6199 58.9126 49.2226C60.3566 48.8253 60.7886 50.4684 60.7886 50.4684L61.4126 50.369C61.4126 50.369 61.0286 47.4843 61.7006 47.2856C62.3726 47.0869 63.3126 48.0554 65.0166 47.1118C66.7246 46.1681 66.4606 44.9223 67.6846 44.7733C68.9126 44.6244 69.8246 44.4009 69.8246 44.4009L69.8286 44.3926Z" fill="#F6B68E"/>
<path d="M70.0439 79.2412L75.6679 79.3902L74.8639 87.4692L70.8479 87.3698L70.0439 79.2412Z" fill="#FC694C"/>
<path d="M74.2282 85.8971C74.1442 86.0543 73.7762 86.4558 72.0442 87.1304C70.9562 87.5526 69.6202 87.5484 68.7762 87.4946C68.2762 87.4615 67.9482 87.4036 67.9482 87.4036L68.0242 83.8276C68.0242 83.8276 69.5842 81.6837 70.2562 81.3857L70.4042 82.8881C70.4042 82.8881 71.5322 82.9792 72.1322 82.8757C72.7322 82.7722 74.5802 82.0231 74.7482 82.2176C74.9122 82.4163 75.1962 84.0884 74.2242 85.8929L74.2282 85.8971Z" fill="#F6B68E"/>
<path d="M68.7762 87.4902C68.2762 87.4571 67.9482 87.3992 67.9482 87.3992L68.0242 83.8232C68.0242 83.8232 68.8522 85.6816 68.7762 87.4902Z" fill="#C4764B"/>
<path d="M72.8559 79.9244C74.409 79.9244 75.6679 79.6187 75.6679 79.2415C75.6679 78.8643 74.409 78.5586 72.8559 78.5586C71.3029 78.5586 70.0439 78.8643 70.0439 79.2415C70.0439 79.6187 71.3029 79.9244 72.8559 79.9244Z" fill="#222850"/>
<path d="M66.7441 105.42L70.0441 103.619L67.3281 110.208L66.7441 105.42Z" fill="#222850"/>
<path d="M73.1516 74.5403L72.6836 69.8428L75.6676 75.037L73.1516 74.5403Z" fill="#E59A38"/>
<path d="M65.8358 57.0329C65.8358 57.0329 63.3558 57.1281 61.3838 54.293C61.3838 54.293 61.9278 58.5973 66.0678 58.9202L65.8358 57.0329Z" fill="#C4764B"/>
<path d="M53.6041 62.6621C53.6041 62.6621 51.7481 64.2431 50.7401 68.5723C49.7321 72.9015 49.6041 83.1741 49.7001 84.6682C49.7961 86.1623 59.1761 87.9006 67.7361 87.6523C67.7361 87.6523 68.7121 87.0894 67.9881 83.6542L55.4481 80.6618C55.4481 80.6618 57.0841 71.0101 56.8441 68.5723C56.6041 66.1346 55.1721 63.4692 53.6041 62.6621Z" fill="#FDD449"/>
<path d="M228.908 85.0942C228.908 95.462 220.788 103.872 210.768 103.872C200.748 103.872 192.62 95.4661 192.62 85.0942C192.62 74.7223 200.744 66.3164 210.768 66.3164C220.792 66.3164 228.908 74.7223 228.908 85.0942Z" fill="white"/>
<path d="M226.332 85.0946C226.332 93.9889 219.364 101.203 210.768 101.203C202.172 101.203 195.2 93.9889 195.2 85.0946C195.2 76.2003 202.172 68.9863 210.768 68.9863C219.364 68.9863 226.332 76.2003 226.332 85.0946Z" fill="#FDD449"/>
<path d="M226.332 85.0946H210.768V68.9863C219.364 68.9863 226.332 76.2003 226.332 85.0946Z" fill="#FC694C"/>
<path d="M28.3755 105.474C28.3755 105.474 28.9835 101.327 26.9635 98.2932C24.9435 95.2594 20.4235 93.8646 17.1555 93.07C13.8875 92.2753 7.73149 96.4514 4.94349 95.4581C2.15549 94.4648 4.27149 98.4422 6.57949 100.036C8.88749 101.629 9.27149 104.108 13.3115 104.51C17.3515 104.911 17.2555 106.902 20.7155 107.2C24.1755 107.498 27.0955 106.538 28.3795 105.478L28.3755 105.474Z" fill="#19888E"/>
<path d="M28.4637 119.351C28.4637 119.351 26.9677 113.565 20.9077 111.376C14.8477 109.186 11.8677 113.267 8.79168 113.863C5.71568 114.459 3.02368 113.735 3.11968 115.042C3.21568 116.35 6.67968 117.774 8.98768 118.805C11.2957 119.835 10.4317 120.034 13.4117 120.829C16.3917 121.623 19.9517 121.325 20.6237 121.524C21.2957 121.723 27.2717 121.454 28.4677 119.347L28.4637 119.351Z" fill="#19888E"/>
<path d="M36.5592 112.038C36.5592 112.038 34.4632 108.582 35.2352 104.51C36.0032 100.433 42.9352 95.2594 46.2992 94.8621C49.6632 94.4648 46.3912 98.0987 45.3352 100.114C44.2792 102.126 44.0832 104.613 43.1232 106.306C42.1632 107.999 41.7032 108.297 41.3552 109.489C41.0072 110.681 37.5032 111.707 36.5632 112.042L36.5592 112.038Z" fill="#19888E"/>
<path d="M36.5281 124.228C36.5281 124.228 34.5961 117.448 38.0161 114.365C41.4361 111.281 47.752 109.684 48.072 110.135C48.396 110.586 47.3041 114.116 46.5801 115.259C45.8601 116.401 44.4641 118.491 43.6961 119.24C42.9281 119.989 42.6881 122.075 41.4841 122.622C40.2801 123.168 38.3001 124.588 36.5241 124.228H36.5281Z" fill="#19888E"/>
<path d="M33.4637 138.899C33.5517 138.291 33.6077 137.587 33.6437 136.925C33.6757 136.251 33.6917 135.572 33.6837 134.893C33.6717 133.536 33.5757 132.178 33.3837 130.837C33.0077 128.155 32.2237 125.519 30.8997 123.18C29.5997 120.825 27.6517 118.868 25.3277 117.535C22.9917 116.215 20.3277 115.519 17.6357 115.263C20.3357 115.329 23.0677 115.83 25.5757 117.022C28.0677 118.23 30.2797 120.155 31.8317 122.564C33.4077 124.956 34.4277 127.712 35.0157 130.527C35.3117 131.938 35.5117 133.366 35.6197 134.806C35.6757 135.526 35.7037 136.247 35.7197 136.971C35.7237 137.703 35.7197 138.403 35.6637 139.185L33.4677 138.908L33.4637 138.899Z" fill="#0A5B5B"/>
<path d="M33.5877 136.83C33.7957 134.984 33.8877 133.035 33.9157 131.127C33.9437 129.206 33.8957 127.286 33.7677 125.37C33.6397 123.453 33.4277 121.541 33.1197 119.65C32.8037 117.758 32.3877 115.884 31.8477 114.046C31.3197 112.208 30.6397 110.412 29.8037 108.703L29.4917 108.057C29.3837 107.846 29.2597 107.643 29.1477 107.432C28.9077 107.022 28.6997 106.588 28.4317 106.199L27.6517 105.007L26.7877 103.877C25.5917 102.408 24.2157 101.091 22.6797 99.9863C21.1197 98.9185 19.4157 98.0825 17.6357 97.4492C19.4437 97.9914 21.1957 98.7405 22.8277 99.7463C24.4357 100.789 25.9037 102.056 27.1997 103.5L28.1397 104.614L28.9997 105.797C29.2957 106.186 29.5277 106.617 29.7957 107.026C29.9237 107.233 30.0597 107.44 30.1797 107.651L30.5317 108.297C31.4757 110.015 32.2597 111.823 32.8957 113.686C33.5357 115.544 34.0597 117.448 34.4757 119.373C34.8797 121.301 35.1917 123.251 35.4157 125.208C35.6397 127.166 35.7837 129.136 35.8477 131.11C35.9077 133.093 35.9117 135.042 35.7837 137.07L33.5837 136.834L33.5877 136.83Z" fill="#0A5B5B"/>
<path d="M33.7875 140.009C33.7715 138.846 33.8155 137.749 33.8795 136.627C33.9435 135.514 34.0395 134.401 34.1675 133.296C34.4235 131.081 34.7955 128.884 35.3435 126.727C35.6115 125.647 35.9315 124.583 36.3035 123.54C36.6715 122.493 37.0915 121.467 37.5915 120.482C38.5675 118.503 39.8595 116.678 41.4875 115.263C39.9835 116.819 38.8795 118.714 38.0955 120.722C37.6915 121.723 37.3675 122.754 37.0955 123.801C36.8195 124.844 36.5995 125.904 36.4275 126.971C36.0715 129.103 35.8915 131.268 35.8235 133.428C35.7915 134.508 35.7875 135.588 35.8155 136.669C35.8435 137.741 35.8955 138.842 35.9955 139.868L33.7875 140.017V140.009Z" fill="#0A5B5B"/>
<path d="M33.6437 136.259C33.6237 133.134 33.7477 130.076 33.9637 126.992C34.1837 123.917 34.5157 120.855 35.0077 117.813C35.4997 114.775 36.1517 111.757 37.1037 108.831C37.5877 107.374 38.1477 105.942 38.8357 104.577C39.5237 103.215 40.3357 101.907 41.3597 100.798C40.4077 101.969 39.6797 103.314 39.0837 104.701C38.4877 106.091 38.0237 107.536 37.6317 109.001C36.8717 111.935 36.4077 114.944 36.1037 117.966C35.8037 120.987 35.6557 124.029 35.6237 127.067C35.5917 130.097 35.6557 133.159 35.8557 136.152L33.6477 136.259H33.6437Z" fill="#0A5B5B"/>
<path d="M43.6997 135.654V149.863C43.6997 149.863 42.7517 155.363 34.5637 155.363C26.3757 155.363 25.4277 149.863 25.4277 149.863V135.654H43.6997Z" fill="#FC694C"/>
<path d="M96.9964 97.7463L95.5244 97.6511C95.3404 96.4343 94.8804 95.3169 94.2084 94.3691L95.1844 93.2226C95.3404 93.0364 95.3324 92.7591 95.1644 92.5852L94.3084 91.6954C94.1404 91.5216 93.8684 91.5133 93.6924 91.6747L92.5844 92.6887C91.6644 91.9975 90.5844 91.5174 89.4124 91.3229L89.3204 89.7998C89.3084 89.5556 89.1124 89.3652 88.8724 89.3652H87.6604C87.4204 89.3652 87.2284 89.5556 87.2084 89.7998L87.1164 91.3229C85.9444 91.5133 84.8644 91.9934 83.9444 92.6887L82.8364 91.6747C82.6564 91.5133 82.3884 91.5216 82.2204 91.6954L81.3644 92.5852C81.1964 92.7591 81.1884 93.0364 81.3444 93.2226L82.3204 94.3691C81.6524 95.321 81.1884 96.4385 81.0044 97.6511L79.5324 97.7463C79.2924 97.7588 79.1084 97.9657 79.1084 98.2099V99.4681C79.1084 99.7123 79.2924 99.9151 79.5324 99.9316L81.0044 100.027C81.1844 101.244 81.6484 102.361 82.3204 103.309L81.3444 104.455C81.1884 104.637 81.1964 104.915 81.3644 105.089L82.2204 105.978C82.3884 106.152 82.6564 106.161 82.8364 105.999L83.9444 104.989C84.8644 105.68 85.9444 106.161 87.1164 106.351L87.2084 107.874C87.2244 108.118 87.4204 108.309 87.6604 108.309H88.8724C89.1124 108.309 89.3044 108.118 89.3204 107.874L89.4124 106.351C90.5884 106.161 91.6644 105.68 92.5844 104.989L93.6924 105.999C93.8684 106.161 94.1404 106.152 94.3084 105.978L95.1644 105.089C95.3324 104.915 95.3404 104.637 95.1844 104.455L94.2084 103.309C94.8764 102.357 95.3404 101.239 95.5244 100.027L96.9964 99.9316C97.2324 99.9192 97.4164 99.7123 97.4164 99.4681V98.2099C97.4164 97.9657 97.2324 97.7588 96.9964 97.7463ZM88.2644 101.558C86.8124 101.558 85.6404 100.341 85.6404 98.839C85.6404 97.3366 86.8164 96.1239 88.2644 96.1239C89.7124 96.1239 90.8924 97.3407 90.8924 98.839C90.8924 100.337 89.7164 101.558 88.2644 101.558Z" fill="#CED8D6"/>
<path d="M105.733 106.93L104.833 106.872C104.721 106.131 104.437 105.448 104.029 104.865L104.625 104.165C104.721 104.054 104.717 103.884 104.613 103.776L104.089 103.234C103.985 103.126 103.821 103.122 103.713 103.222L103.037 103.842C102.477 103.42 101.817 103.126 101.097 103.011L101.041 102.079C101.033 101.93 100.913 101.814 100.769 101.814H100.029C99.8848 101.814 99.7648 101.93 99.7528 102.079L99.6968 103.011C98.9808 103.126 98.3208 103.42 97.7568 103.842L97.0808 103.222C96.9728 103.122 96.8088 103.126 96.7048 103.234L96.1808 103.776C96.0768 103.884 96.0728 104.054 96.1688 104.165L96.7648 104.865C96.3568 105.444 96.0728 106.127 95.9608 106.872L95.0608 106.93C94.9168 106.938 94.8008 107.062 94.8008 107.211V107.981C94.8008 108.13 94.9128 108.254 95.0608 108.263L95.9608 108.321C96.0728 109.062 96.3568 109.744 96.7648 110.328L96.1688 111.027C96.0728 111.139 96.0768 111.309 96.1808 111.417L96.7048 111.959C96.8088 112.066 96.9728 112.07 97.0808 111.971L97.7568 111.354C98.3168 111.777 98.9808 112.07 99.6968 112.186L99.7528 113.118C99.7608 113.267 99.8808 113.382 100.029 113.382H100.769C100.913 113.382 101.033 113.267 101.041 113.118L101.097 112.186C101.813 112.07 102.473 111.777 103.037 111.354L103.713 111.971C103.821 112.07 103.985 112.066 104.089 111.959L104.613 111.417C104.717 111.309 104.721 111.139 104.625 111.027L104.029 110.328C104.437 109.749 104.721 109.066 104.833 108.321L105.733 108.263C105.877 108.254 105.989 108.13 105.989 107.981V107.211C105.989 107.062 105.877 106.938 105.733 106.93ZM100.397 109.256C99.5088 109.256 98.7928 108.511 98.7928 107.596C98.7928 106.682 99.5088 105.937 100.397 105.937C101.285 105.937 102.001 106.678 102.001 107.596C102.001 108.515 101.281 109.256 100.397 109.256Z" fill="#CED8D6"/>
<path d="M132.852 35.2345L134.096 35.3132C134.252 36.3396 134.64 37.2832 135.208 38.0903L134.384 39.0588C134.252 39.2161 134.256 39.452 134.4 39.5968L135.124 40.3501C135.268 40.4991 135.496 40.5032 135.644 40.3667L136.58 39.5099C137.356 40.0976 138.268 40.5032 139.264 40.6647L139.34 41.9518C139.352 42.1588 139.516 42.3202 139.72 42.3202H140.744C140.944 42.3202 141.112 42.1588 141.124 41.9518L141.2 40.6647C142.192 40.5032 143.104 40.0976 143.884 39.5099L144.82 40.3667C144.972 40.5032 145.2 40.4991 145.34 40.3501L146.064 39.5968C146.208 39.4479 146.212 39.2161 146.08 39.0588L145.256 38.0903C145.824 37.2874 146.216 36.3437 146.368 35.3132L147.612 35.2345C147.812 35.2221 147.968 35.0483 147.968 34.8413V33.7777C147.968 33.5707 147.812 33.3969 147.612 33.3845L146.368 33.3058C146.216 32.2794 145.824 31.3358 145.256 30.5287L146.08 29.5602C146.212 29.4071 146.208 29.1712 146.064 29.0222L145.34 28.2689C145.196 28.1199 144.972 28.1158 144.82 28.2524L143.884 29.1049C143.108 28.5214 142.192 28.1158 141.2 27.9544L141.124 26.6672C141.112 26.4602 140.944 26.2988 140.744 26.2988H139.72C139.52 26.2988 139.352 26.4602 139.34 26.6672L139.264 27.9544C138.272 28.1158 137.36 28.5214 136.58 29.1049L135.644 28.2524C135.496 28.1158 135.264 28.1199 135.124 28.2689L134.4 29.0222C134.256 29.1712 134.252 29.4029 134.384 29.5602L135.208 30.5287C134.64 31.3316 134.252 32.2753 134.096 33.3058L132.852 33.3845C132.652 33.3969 132.496 33.5707 132.496 33.7777V34.8413C132.496 35.0483 132.652 35.2221 132.852 35.2345ZM140.232 32.0145C141.46 32.0145 142.452 33.0451 142.452 34.3116C142.452 35.5781 141.46 36.6086 140.232 36.6086C139.004 36.6086 138.012 35.5822 138.012 34.3116C138.012 33.041 139.008 32.0145 140.232 32.0145Z" fill="#CED8D6"/>
<path d="M125.472 27.4696L126.232 27.5193C126.328 28.1484 126.564 28.7237 126.912 29.2162L126.408 29.808C126.328 29.9032 126.332 30.0481 126.416 30.135L126.86 30.5944C126.948 30.6855 127.088 30.6896 127.176 30.6027L127.748 30.0812C128.224 30.4371 128.78 30.6855 129.388 30.7848L129.436 31.5712C129.444 31.6953 129.544 31.7947 129.668 31.7947H130.292C130.416 31.7947 130.516 31.6953 130.524 31.5712L130.572 30.7848C131.176 30.6855 131.736 30.4371 132.212 30.0812L132.784 30.6027C132.876 30.6855 133.016 30.6813 133.1 30.5944L133.544 30.135C133.632 30.044 133.636 29.9032 133.552 29.808L133.048 29.2162C133.392 28.7237 133.632 28.1484 133.728 27.5193L134.488 27.4696C134.612 27.4613 134.708 27.3579 134.708 27.2296V26.5798C134.708 26.4556 134.612 26.348 134.488 26.3397L133.728 26.29C133.636 25.6609 133.396 25.0857 133.048 24.5931L133.552 24.0013C133.632 23.9061 133.628 23.7654 133.544 23.6743L133.1 23.2149C133.012 23.1239 132.876 23.1197 132.784 23.2066L132.212 23.7281C131.736 23.3722 131.18 23.1239 130.572 23.0245L130.524 22.2381C130.516 22.114 130.416 22.0146 130.292 22.0146H129.668C129.544 22.0146 129.444 22.114 129.436 22.2381L129.388 23.0245C128.78 23.1239 128.224 23.3722 127.748 23.7281L127.176 23.2066C127.084 23.1239 126.944 23.128 126.86 23.2149L126.416 23.6743C126.328 23.7654 126.324 23.9061 126.408 24.0013L126.912 24.5931C126.568 25.0857 126.328 25.6609 126.232 26.29L125.472 26.3397C125.352 26.348 125.256 26.4515 125.256 26.5798V27.2296C125.256 27.3537 125.352 27.4613 125.472 27.4696ZM129.98 25.5037C130.728 25.5037 131.336 26.1328 131.336 26.9067C131.336 27.6807 130.728 28.3098 129.98 28.3098C129.232 28.3098 128.624 27.6807 128.624 26.9067C128.624 26.1328 129.232 25.5037 129.98 25.5037Z" fill="#CED8D6"/>
<path d="M200.104 116.859L198.915 116.78C198.767 115.8 198.396 114.901 197.856 114.136L198.643 113.213C198.771 113.064 198.764 112.84 198.628 112.7L197.935 111.984C197.799 111.843 197.584 111.835 197.44 111.967L196.547 112.782C195.807 112.224 194.936 111.839 193.992 111.686L193.916 110.456C193.904 110.258 193.748 110.104 193.556 110.104H192.58C192.388 110.104 192.232 110.258 192.216 110.456L192.14 111.686C191.196 111.839 190.323 112.228 189.583 112.782L188.692 111.967C188.548 111.835 188.331 111.843 188.195 111.984L187.504 112.7C187.368 112.84 187.363 113.064 187.488 113.213L188.276 114.136C187.736 114.901 187.364 115.804 187.216 116.78L186.028 116.859C185.836 116.871 185.688 117.037 185.688 117.232V118.246C185.688 118.444 185.836 118.606 186.028 118.618L187.216 118.697C187.364 119.678 187.736 120.576 188.276 121.341L187.488 122.264C187.36 122.413 187.368 122.637 187.504 122.773L188.195 123.489C188.331 123.63 188.548 123.638 188.692 123.506L189.583 122.691C190.323 123.245 191.196 123.634 192.14 123.787L192.216 125.017C192.228 125.215 192.388 125.368 192.58 125.368H193.556C193.748 125.368 193.904 125.215 193.916 125.017L193.992 123.787C194.94 123.634 195.807 123.245 196.547 122.691L197.44 123.506C197.584 123.638 197.799 123.63 197.935 123.489L198.628 122.773C198.764 122.633 198.771 122.409 198.643 122.264L197.856 121.341C198.396 120.576 198.767 119.673 198.915 118.697L200.104 118.618C200.296 118.606 200.443 118.44 200.443 118.246V117.232C200.443 117.033 200.296 116.871 200.104 116.859ZM193.068 119.93C191.9 119.93 190.952 118.949 190.952 117.741C190.952 116.532 191.9 115.551 193.068 115.551C194.236 115.551 195.183 116.532 195.183 117.741C195.183 118.949 194.236 119.93 193.068 119.93Z" fill="#CED8D6"/>
<path d="M85.7246 17.7021V36.1116H110.909L115.261 41.3058V36.1116H118.281V17.7021H85.7246Z" fill="#19888E"/>
<path d="M115.772 23.1487H88.2324C87.9804 23.1487 87.7764 22.9376 87.7764 22.6769C87.7764 22.4162 87.9804 22.2051 88.2324 22.2051H115.772C116.024 22.2051 116.228 22.4162 116.228 22.6769C116.228 22.9376 116.024 23.1487 115.772 23.1487Z" fill="white"/>
<path d="M115.772 27.3792H88.2324C87.9804 27.3792 87.7764 27.1681 87.7764 26.9074C87.7764 26.6466 87.9804 26.4355 88.2324 26.4355H115.772C116.024 26.4355 116.228 26.6466 116.228 26.9074C116.228 27.1681 116.024 27.3792 115.772 27.3792Z" fill="white"/>
<path d="M115.772 31.6087H88.2324C87.9804 31.6087 87.7764 31.3976 87.7764 31.1369C87.7764 30.8761 87.9804 30.665 88.2324 30.665H115.772C116.024 30.665 116.228 30.8761 116.228 31.1369C116.228 31.3976 116.024 31.6087 115.772 31.6087Z" fill="white"/>
<path d="M185.332 10.7607H148.324V27.5768H185.332V10.7607Z" fill="#19888E"/>
<path d="M153.248 27.5771L158.248 35.1884V27.5771H153.248Z" fill="#19888E"/>
<path d="M182.132 15.4124H151.524C151.272 15.4124 151.068 15.2013 151.068 14.9406C151.068 14.6798 151.272 14.4688 151.524 14.4688H182.132C182.384 14.4688 182.588 14.6798 182.588 14.9406C182.588 15.2013 182.384 15.4124 182.132 15.4124Z" fill="white"/>
<path d="M182.132 19.639H151.524C151.272 19.639 151.068 19.4279 151.068 19.1671C151.068 18.9064 151.272 18.6953 151.524 18.6953H182.132C182.384 18.6953 182.588 18.9064 182.588 19.1671C182.588 19.4279 182.384 19.639 182.132 19.639Z" fill="white"/>
<path d="M182.132 23.8685H151.524C151.272 23.8685 151.068 23.6574 151.068 23.3966C151.068 23.1359 151.272 22.9248 151.524 22.9248H182.132C182.384 22.9248 182.588 23.1359 182.588 23.3966C182.588 23.6574 182.384 23.8685 182.132 23.8685Z" fill="white"/>
<path d="M55.9485 32.9617C57.2245 31.2441 57.9925 29.0961 57.9925 26.7618C57.9925 21.1288 53.5765 16.5596 48.1325 16.5596C42.6885 16.5596 38.2725 21.1288 38.2725 26.7618C38.2725 32.3947 42.6885 36.9639 48.1325 36.9639C49.6405 36.9639 51.0605 36.6039 52.3405 35.9789L57.2885 38.2014L55.9485 32.9617Z" fill="#FC694C"/>
<path d="M52.5159 23.4129C52.5159 24.2738 52.3079 25.0395 51.9999 25.6975C51.4479 26.8647 50.5799 27.6842 49.9959 28.0815C49.0799 28.7023 49.4119 29.9771 49.4119 29.9771H46.8599C46.8599 29.9771 47.1919 28.7023 46.2759 28.0815C45.7119 27.6966 44.8839 26.9226 44.3319 25.8217C43.9919 25.1388 43.7559 24.3317 43.7559 23.4129C43.7559 21.0207 45.3639 19.0713 48.1399 19.0713C50.9159 19.0713 52.5239 21.0207 52.5239 23.4129H52.5159Z" fill="#FDD449"/>
<path d="M49.9437 29.9775H46.3237C46.1757 29.9775 46.0557 30.1017 46.0557 30.2548V30.9212C46.0557 31.0743 46.1757 31.1985 46.3237 31.1985H49.9437C50.0917 31.1985 50.2117 31.0743 50.2117 30.9212V30.2548C50.2117 30.1017 50.0917 29.9775 49.9437 29.9775Z" fill="#444C72"/>
<path d="M49.8161 31.1982V33.4415C49.8161 33.7685 49.5601 34.0292 49.2481 34.0292H47.0201C46.7041 34.0292 46.4521 33.7643 46.4521 33.4415V31.1982H49.8201H49.8161Z" fill="#444C72"/>
<path d="M48.5638 34.7412H47.6958C47.3158 34.7412 47.0078 34.4225 47.0078 34.0293H49.2478C49.2478 34.4225 48.9398 34.7412 48.5598 34.7412H48.5638Z" fill="#444C72"/>
<path d="M48.9796 25.9131C48.6276 25.9131 48.3396 26.2111 48.3396 26.5753V27.1423H47.9196V26.5753C47.9196 26.2111 47.6316 25.9131 47.2796 25.9131C46.9276 25.9131 46.6396 26.2111 46.6396 26.5753V26.8402C46.6396 27.2044 46.9276 27.5024 47.2796 27.5024H47.5716V29.9815H47.9156V27.5024H48.3356V29.9815H48.6796V27.5024H48.9716C49.3236 27.5024 49.6116 27.2044 49.6116 26.8402V26.5753C49.6116 26.2111 49.3236 25.9131 48.9716 25.9131H48.9796ZM47.5756 27.1423H47.2836C47.1236 27.1423 46.9916 27.0057 46.9916 26.8402V26.5753C46.9916 26.4097 47.1236 26.2732 47.2836 26.2732C47.4436 26.2732 47.5756 26.4097 47.5756 26.5753V27.1423ZM49.2716 26.8402C49.2716 27.0057 49.1396 27.1423 48.9796 27.1423H48.6876V26.5753C48.6876 26.4097 48.8196 26.2732 48.9796 26.2732C49.1396 26.2732 49.2716 26.4097 49.2716 26.5753V26.8402Z" fill="white"/>
<path d="M71.0076 21.0376L70.9556 20.3422C70.7996 18.8978 71.2636 17.325 72.5556 15.7192C73.7196 14.3037 74.3636 13.2607 74.3636 12.0605C74.3636 10.6988 73.5356 9.78825 71.9116 9.76342C70.9836 9.76342 69.9476 10.0862 69.3036 10.5912L68.6836 8.90668C69.5356 8.26517 71.0076 7.83887 72.3756 7.83887C75.3436 7.83887 76.6876 9.73445 76.6876 11.7666C76.6876 13.5835 75.7076 14.8914 74.4676 16.4145C73.3316 17.8051 72.9196 18.9806 72.9956 20.3422L73.0236 21.0376H71.0116H71.0076ZM70.4396 24.779C70.4396 23.7899 71.0836 23.0945 71.9876 23.0945C72.8916 23.0945 73.5116 23.7899 73.5116 24.779C73.5116 25.7144 72.9196 26.4346 71.9636 26.4346C71.0596 26.4346 70.4396 25.7144 70.4396 24.779Z" fill="white"/>
<path d="M213.048 131.784L212.988 130.981C212.808 129.317 213.344 127.496 214.836 125.646C216.176 124.011 216.924 122.807 216.924 121.42C216.924 119.848 215.972 118.801 214.092 118.767C213.02 118.767 211.828 119.136 211.08 119.724L210.364 117.778C211.348 117.037 213.048 116.545 214.628 116.545C218.056 116.545 219.608 118.734 219.608 121.081C219.608 123.179 218.476 124.69 217.044 126.449C215.732 128.055 215.256 129.408 215.344 130.985L215.376 131.788H213.052L213.048 131.784ZM212.392 136.101C212.392 134.959 213.136 134.156 214.18 134.156C215.224 134.156 215.94 134.959 215.94 136.101C215.94 137.181 215.256 138.013 214.152 138.013C213.108 138.013 212.392 137.181 212.392 136.101Z" fill="white"/>
</g>
<defs>
<clipPath id="clip0_1009_8461">
<rect width="236" height="161" fill="white"/>
</clipPath>
</defs>
</svg>
