<svg width="419" height="310" viewBox="0 0 419 310" fill="none" xmlns="http://www.w3.org/2000/svg">
<g clip-path="url(#clip0_2478_3566)">
<g opacity="0.46">
<path d="M306.521 64.12H141.983C140.25 64.12 138.992 62.491 139.429 60.8238L154.791 1.97316C155.098 0.810677 156.148 0 157.345 0H321.883C323.616 0 324.874 1.629 324.437 3.29625L309.075 62.1468C308.769 63.3093 307.718 64.12 306.521 64.12Z" fill="#BFD9FF"/>
<path d="M164.555 12.5884H221.806" stroke="#A9C2FF" stroke-width="3.45" stroke-linecap="round" stroke-linejoin="round"/>
<path d="M160.145 38.9431H217.404" stroke="#A9C2FF" stroke-width="3.45" stroke-linecap="round" stroke-linejoin="round"/>
<path d="M184.227 28.9856H241.478" stroke="#A9C2FF" stroke-width="3.45" stroke-linecap="round" stroke-linejoin="round"/>
<path d="M163.082 21.3757H180.261" stroke="#A9C2FF" stroke-width="3.45" stroke-linecap="round" stroke-linejoin="round"/>
<path d="M160.735 28.9856H177.915" stroke="#A9C2FF" stroke-width="3.45" stroke-linecap="round" stroke-linejoin="round"/>
<path d="M230.91 12.5884H251.311" stroke="#A9C2FF" stroke-width="3.45" stroke-linecap="round" stroke-linejoin="round"/>
<path d="M240.911 51.3021H210.441C210.287 51.3021 210.172 51.1568 210.211 51.0115L211.576 45.788C211.606 45.6885 211.698 45.6121 211.806 45.6121H242.276C242.43 45.6121 242.545 45.7574 242.506 45.9027L241.141 51.1262C241.11 51.2256 241.018 51.3021 240.911 51.3021Z" stroke="#84AEE5" stroke-width="1.15" stroke-miterlimit="10"/>
<path d="M203.031 51.3021H172.561C172.407 51.3021 172.292 51.1568 172.331 51.0115L173.696 45.788C173.726 45.6885 173.819 45.6121 173.926 45.6121H204.396C204.55 45.6121 204.665 45.7574 204.626 45.9027L203.261 51.1262C203.231 51.2256 203.138 51.3021 203.031 51.3021Z" stroke="#84AEE5" stroke-width="1.15" stroke-miterlimit="10"/>
<path d="M294.466 43.7307C292.901 41.6581 286.566 40.1438 284.818 38.0712C283.92 37.0082 283.92 35.0427 284.135 33.3678C284.756 32.9701 285.278 32.5724 285.585 32.2053C286.114 31.4405 286.704 30.3698 287.295 29.192C287.471 29.3679 287.717 29.5056 288.023 29.4979C288.852 29.475 292.019 25.1769 291.206 24.175C290.738 23.609 289.987 24.0985 289.427 24.6262C290.263 22.7142 290.853 21.2458 290.853 21.2458H290.823C290.899 21.0011 290.976 20.764 291.038 20.5116C292.295 15.487 289.228 11.4106 284.189 11.4106C279.15 11.4106 274.042 15.487 272.784 20.5116C272.723 20.7564 272.677 21.0011 272.631 21.2458H272.6C272.6 21.2458 272.455 22.7142 272.34 24.6262C272.041 24.0985 271.534 23.6014 270.783 24.175C269.471 25.1692 270.484 29.4673 271.304 29.4979C271.611 29.5056 271.918 29.3679 272.186 29.192C272.186 30.3698 272.248 31.4405 272.393 32.2053C272.547 32.6565 272.984 33.1536 273.559 33.6354C272.93 35.2492 271.979 37.0694 270.629 38.0712C267.838 40.1438 260.751 41.6581 258.151 43.7307C255.812 45.5968 253.726 51.0497 253.335 52.1204H295.087C295.233 51.0421 295.869 45.5968 294.466 43.7307Z" fill="#8DBCF8"/>
</g>
<path d="M277.899 110.971H113.361C111.628 110.971 110.37 109.342 110.807 107.675L126.169 48.8242C126.476 47.6618 127.526 46.8511 128.723 46.8511H293.261C294.994 46.8511 296.252 48.4801 295.815 50.1473L280.453 108.998C280.147 110.16 279.096 110.971 277.899 110.971Z" stroke="#7094D8" stroke-width="1.15" stroke-miterlimit="10"/>
<path d="M274.816 106.574H110.278C108.545 106.574 107.287 104.945 107.724 103.277L123.086 44.4268C123.393 43.2643 124.443 42.4536 125.64 42.4536H290.178C291.911 42.4536 293.169 44.0826 292.732 45.7499L277.37 104.6C277.064 105.763 276.013 106.574 274.816 106.574Z" fill="#A5C5FF"/>
<path d="M161.908 106.574H244.269" stroke="#7094D8" stroke-width="1.15" stroke-miterlimit="10"/>
<path d="M139.008 42.4536H208.592" stroke="#7094D8" stroke-width="1.15" stroke-miterlimit="10"/>
<path d="M261.533 97.7937H224.536C222.834 97.7937 221.798 96.4171 222.22 94.7193L231.554 57.3899C231.976 55.6921 233.701 54.3154 235.404 54.3154H272.401C274.103 54.3154 275.139 55.6921 274.717 57.3899L265.383 94.7193C264.961 96.4171 263.236 97.7937 261.533 97.7937Z" fill="#B7DEFF"/>
<path d="M243.372 97.939L246.609 84.9911L241.302 82.7502C241.302 82.7502 231.408 86.3601 230.564 87.2319C229.859 87.9661 226.308 95.5146 225.173 97.939H243.365H243.372Z" fill="#023F61"/>
<path d="M261.695 97.939C261.779 95.5146 262.002 87.9585 261.664 87.2319C261.258 86.3601 253.174 82.7502 253.174 82.7502L246.747 84.9911L243.511 97.939H261.702H261.695Z" fill="#023F61"/>
<path d="M246.724 97.939L251.793 86.7349L240.903 87.3543L239.837 97.939H246.724Z" fill="#BEBECF"/>
<path d="M243.273 80.3794L240.895 81.8784L239.338 85.6106L238.939 90.7194L242.276 89.3504L244.868 92.4631L248.334 89.5952L250.459 91.5913L253.665 84.7387L253.105 80.5095L251.763 79.8823L243.273 80.3794Z" fill="#DEE0E8"/>
<path d="M244.001 70.5825C244.001 70.5825 243.204 68.7776 241.57 69.9783C239.936 71.179 241.846 75.8137 243.035 74.4217C244.216 73.0298 244.001 70.5825 244.001 70.5825Z" fill="#FB8E74"/>
<path d="M255.643 70.4831C255.643 70.4831 257.192 68.5712 258.365 69.6419C259.539 70.7126 255.689 75.6149 255.052 74.3071C254.416 72.9993 255.643 70.4831 255.643 70.4831Z" fill="#FB8E74"/>
<path d="M252 83.997L253.672 75.156L244.001 75.9896L241.869 84.2876C241.869 84.2876 243.556 88.2186 245.374 89.9623C245.374 89.9623 250.996 85.1136 252.008 83.9893L252 83.997Z" fill="#FB8877"/>
<path d="M259.846 66.9192C259.486 67.9975 258.596 68.2652 258.535 68.8923C258.466 69.5195 258.067 71.1332 257.453 71.7603C256.84 72.3874 256.525 72.5633 256.525 72.5633C256.525 72.5633 248.227 74.8959 244.017 71.6685C244.017 71.6685 243.741 70.4449 244.032 68.9841C244.316 67.5387 243.61 67.2786 244.431 66.5674C245.251 65.8561 245.497 65.2214 245.512 64.4183C245.528 63.6153 245.597 62.6287 246.433 61.818C247.276 61.015 248.028 61.2827 248.848 60.5638C248.848 60.5638 250.06 58.5371 251.655 58.3076C253.251 58.0782 256.625 57.2293 258.627 59.6919C260.629 62.1469 259.708 64.3036 260.283 65.0684C260.859 65.8332 259.846 66.9268 259.846 66.9268V66.9192Z" fill="#713336"/>
<path d="M243.932 69.0605C243.932 69.0605 240.013 79.8135 247.391 80.6242C253.91 80.7771 256.219 72.8463 257.154 68.7776C258.09 64.7089 257.507 60.4567 252.292 60.5943C247.077 60.732 244.5 66.6515 243.932 69.0605Z" fill="#FBA990"/>
<path d="M245.98 65.1984C245.98 65.1984 246.463 66.0626 246.018 66.9268C245.573 67.7987 244.354 68.1275 244.177 69.2747C243.993 70.4219 243.464 72.808 243.134 72.9151C242.805 73.0222 243.042 70.5825 243.096 69.7489C243.15 68.9152 243.771 65.4661 245.512 63.2711C247.253 61.0762 248.327 60.1508 251.425 59.6536C254.523 59.1489 256.87 60.449 257.729 62.3381C258.588 64.2194 257.215 69.0223 257.215 69.0223C257.215 69.0223 257.422 66.7432 256.655 66.2079C255.889 65.6725 255.26 65.2749 255.382 64.9613C255.513 64.6477 252.928 65.7796 250.351 64.9613C247.774 64.1353 246.938 64.5101 246.517 64.7777C246.087 65.0454 245.987 65.206 245.987 65.206L245.98 65.1984Z" fill="#713336"/>
<path d="M238.686 85.7329C238.624 85.9853 235.089 94.3827 235.089 94.3827L238.195 95.9352L237.321 97.6789" stroke="#022755" stroke-width="0.49" stroke-miterlimit="10"/>
<path d="M253.979 85.7329C253.918 85.9853 253.251 94.3827 253.251 94.3827L249.362 95.9352V97.6789" stroke="#022755" stroke-width="0.49" stroke-miterlimit="10"/>
<path d="M261.533 97.7937H224.536C222.834 97.7937 221.798 96.4171 222.22 94.7193L231.554 57.3899C231.976 55.6921 233.701 54.3154 235.404 54.3154H272.401C274.103 54.3154 275.139 55.6921 274.717 57.3899L265.383 94.7193C264.961 96.4171 263.236 97.7937 261.533 97.7937Z" stroke="white" stroke-width="1.15" stroke-miterlimit="10"/>
<path d="M132.841 56.5105H190.093" stroke="#73A5FF" stroke-width="3.45" stroke-linecap="round" stroke-linejoin="round"/>
<path d="M128.439 82.8574H185.691" stroke="#73A5FF" stroke-width="3.45" stroke-linecap="round" stroke-linejoin="round"/>
<path d="M152.513 72.9075H209.764" stroke="#73A5FF" stroke-width="3.45" stroke-linecap="round" stroke-linejoin="round"/>
<path d="M131.376 65.2903H148.548" stroke="#73A5FF" stroke-width="3.45" stroke-linecap="round" stroke-linejoin="round"/>
<path d="M129.021 72.9075H146.201" stroke="#73A5FF" stroke-width="3.45" stroke-linecap="round" stroke-linejoin="round"/>
<path d="M199.196 56.5105H219.604" stroke="#73A5FF" stroke-width="3.45" stroke-linecap="round" stroke-linejoin="round"/>
<path d="M209.197 95.2242H178.727C178.573 95.2242 178.458 95.0789 178.497 94.9336L179.862 89.7101C179.893 89.6107 179.985 89.5342 180.092 89.5342H210.562C210.716 89.5342 210.831 89.6795 210.792 89.8248L209.427 95.0483C209.397 95.1477 209.304 95.2242 209.197 95.2242Z" stroke="#7094D8" stroke-width="1.15" stroke-miterlimit="10"/>
<path d="M171.318 95.2242H140.848C140.694 95.2242 140.579 95.0789 140.618 94.9336L141.983 89.7101C142.014 89.6107 142.106 89.5342 142.213 89.5342H172.683C172.837 89.5342 172.952 89.6795 172.913 89.8248L171.548 95.0483C171.525 95.1477 171.426 95.2242 171.318 95.2242Z" stroke="#7094D8" stroke-width="1.15" stroke-miterlimit="10"/>
<path d="M206.391 35.8687H242.068" stroke="#7094D8" stroke-width="1.15" stroke-miterlimit="10"/>
<path d="M276.58 190.609H112.042C110.308 190.609 109.051 188.98 109.488 187.312L124.849 128.462C125.156 127.299 126.207 126.489 127.403 126.489H291.942C293.675 126.489 294.933 128.118 294.496 129.785L279.134 188.635C278.827 189.798 277.776 190.609 276.58 190.609Z" fill="#BFD9FF"/>
<path d="M134.605 139.077H191.857" stroke="#A9C2FF" stroke-width="3.45" stroke-linecap="round" stroke-linejoin="round"/>
<path d="M130.195 165.424H187.455" stroke="#A9C2FF" stroke-width="3.45" stroke-linecap="round" stroke-linejoin="round"/>
<path d="M154.277 155.474H211.529" stroke="#A9C2FF" stroke-width="3.45" stroke-linecap="round" stroke-linejoin="round"/>
<path d="M133.133 147.857H150.312" stroke="#A9C2FF" stroke-width="3.45" stroke-linecap="round" stroke-linejoin="round"/>
<path d="M130.786 155.474H147.965" stroke="#A9C2FF" stroke-width="3.45" stroke-linecap="round" stroke-linejoin="round"/>
<path d="M200.961 139.077H221.369" stroke="#A9C2FF" stroke-width="3.45" stroke-linecap="round" stroke-linejoin="round"/>
<path d="M210.962 177.791H180.491C180.338 177.791 180.223 177.645 180.261 177.5L181.626 172.276C181.657 172.177 181.749 172.101 181.857 172.101H212.327C212.48 172.101 212.595 172.246 212.557 172.391L211.192 177.615C211.169 177.714 211.069 177.791 210.962 177.791Z" stroke="#84AEE5" stroke-width="1.15" stroke-miterlimit="10"/>
<path d="M173.082 177.791H142.612C142.458 177.791 142.343 177.645 142.381 177.5L143.747 172.276C143.777 172.177 143.869 172.101 143.977 172.101H174.447C174.6 172.101 174.715 172.246 174.677 172.391L173.312 177.615C173.281 177.714 173.189 177.791 173.082 177.791Z" stroke="#84AEE5" stroke-width="1.15" stroke-miterlimit="10"/>
<path d="M264.517 170.212C262.952 168.139 256.617 166.625 254.868 164.552C253.971 163.489 253.971 161.524 254.186 159.849C254.807 159.451 255.329 159.053 255.635 158.686C256.165 157.921 256.755 156.851 257.346 155.673C257.522 155.849 257.767 155.987 258.074 155.979C258.903 155.956 262.07 151.658 261.257 150.656C260.789 150.09 260.038 150.579 259.478 151.107C260.314 149.195 260.904 147.727 260.904 147.727H260.874C260.95 147.482 261.027 147.245 261.088 146.993C262.346 141.968 259.278 137.892 254.24 137.892C249.201 137.892 244.093 141.968 242.835 146.993C242.774 147.237 242.728 147.482 242.682 147.727H242.651C242.651 147.727 242.505 149.195 242.39 151.107C242.091 150.579 241.585 150.082 240.834 150.656C239.522 151.65 240.534 155.948 241.355 155.979C241.662 155.987 241.969 155.849 242.237 155.673C242.237 156.851 242.298 157.921 242.444 158.686C242.597 159.137 243.035 159.635 243.61 160.116C242.981 161.73 242.03 163.55 240.68 164.552C237.889 166.625 230.802 168.139 228.202 170.212C225.863 172.078 223.777 177.531 223.386 178.601H265.138C265.283 177.523 265.92 172.078 264.517 170.212Z" fill="#8DBCF8"/>
<g opacity="0.46">
<path d="M259.547 269.076H95.0085C93.2752 269.076 92.0174 267.447 92.4546 265.78L107.816 206.929C108.123 205.767 109.174 204.956 110.37 204.956H274.909C276.642 204.956 277.9 206.585 277.462 208.252L262.101 267.103C261.794 268.265 260.743 269.076 259.547 269.076Z" fill="#BFD9FF"/>
<path d="M117.572 217.544H174.832" stroke="#A9C2FF" stroke-width="3.45" stroke-linecap="round" stroke-linejoin="round"/>
<path d="M113.17 243.891H170.422" stroke="#A9C2FF" stroke-width="3.45" stroke-linecap="round" stroke-linejoin="round"/>
<path d="M137.244 233.942H194.504" stroke="#A9C2FF" stroke-width="3.45" stroke-linecap="round" stroke-linejoin="round"/>
<path d="M116.107 226.324H133.279" stroke="#A9C2FF" stroke-width="3.45" stroke-linecap="round" stroke-linejoin="round"/>
<path d="M113.761 233.942H130.932" stroke="#A9C2FF" stroke-width="3.45" stroke-linecap="round" stroke-linejoin="round"/>
<path d="M183.928 217.544H204.336" stroke="#A9C2FF" stroke-width="3.45" stroke-linecap="round" stroke-linejoin="round"/>
<path d="M193.929 256.258H163.458C163.305 256.258 163.19 256.113 163.228 255.968L164.593 250.744C164.624 250.645 164.716 250.568 164.823 250.568H195.294C195.447 250.568 195.562 250.713 195.524 250.859L194.159 256.082C194.136 256.182 194.036 256.258 193.929 256.258Z" stroke="#84AEE5" stroke-width="1.15" stroke-miterlimit="10"/>
<path d="M156.056 256.258H125.586C125.433 256.258 125.318 256.113 125.356 255.968L126.721 250.744C126.752 250.645 126.844 250.568 126.951 250.568H157.422C157.575 250.568 157.69 250.713 157.652 250.859L156.287 256.082C156.264 256.182 156.164 256.258 156.056 256.258Z" stroke="#84AEE5" stroke-width="1.15" stroke-miterlimit="10"/>
<path d="M247.483 248.679C245.919 246.607 239.584 245.092 237.835 243.02C236.938 241.957 236.938 239.991 237.153 238.316C237.774 237.919 238.295 237.521 238.602 237.154C239.131 236.389 239.722 235.318 240.312 234.141C240.489 234.316 240.734 234.454 241.041 234.446C241.869 234.423 245.037 230.125 244.224 229.123C243.756 228.558 243.004 229.047 242.445 229.575C243.28 227.663 243.871 226.194 243.871 226.194H243.84C243.917 225.95 243.994 225.713 244.055 225.46C245.313 220.435 242.245 216.359 237.206 216.359C232.168 216.359 227.06 220.435 225.802 225.46C225.741 225.705 225.695 225.95 225.649 226.194H225.618C225.618 226.194 225.472 227.663 225.357 229.575C225.058 229.047 224.552 228.55 223.8 229.123C222.489 230.118 223.501 234.416 224.322 234.446C224.629 234.454 224.935 234.316 225.204 234.141C225.204 235.318 225.265 236.389 225.411 237.154C225.564 237.605 226.001 238.102 226.577 238.584C225.948 240.198 224.997 242.018 223.647 243.02C220.855 245.092 213.769 246.607 211.169 248.679C208.83 250.545 206.744 255.998 206.353 257.069H248.105C248.25 255.991 248.887 250.545 247.483 248.679Z" fill="#8DBCF8"/>
</g>
<path d="M226.652 269.367H256.011" stroke="#7094D8" stroke-width="1.15" stroke-miterlimit="10"/>
<path d="M126.82 190.899H196.704" stroke="#7094D8" stroke-width="1.15" stroke-miterlimit="10"/>
<path d="M212.702 190.899H229.736" stroke="#7094D8" stroke-width="1.15" stroke-miterlimit="10"/>
<path d="M286.251 126.779H292.156C293.89 126.779 295.132 128.454 294.618 130.106L292.126 138.198" stroke="#7094D8" stroke-width="1.15" stroke-miterlimit="10"/>
<path d="M99.3108 23.3032H96.2968C95.5375 23.3032 95.0773 22.6914 95.2691 21.9419L96.0207 18.9363C96.2124 18.1791 96.9717 17.575 97.7309 17.575H100.745C101.504 17.575 101.964 18.1868 101.773 18.9363L101.021 21.9419C100.829 22.699 100.07 23.3032 99.3108 23.3032Z" fill="#BFD9FF"/>
<path d="M97.1097 32.106H94.0956C93.3363 32.106 92.8762 31.4941 93.0679 30.7446L93.8195 27.739C94.0112 26.9819 94.7705 26.3777 95.5298 26.3777H98.5438C99.3031 26.3777 99.7633 26.9895 99.5715 27.739L98.8199 30.7446C98.6282 31.5018 97.8689 32.106 97.1097 32.106Z" fill="#EDF4FF"/>
<path d="M106.689 32.106H103.675C102.915 32.106 102.455 31.4941 102.647 30.7446L103.399 27.739C103.59 26.9819 104.35 26.3777 105.109 26.3777H108.123C108.882 26.3777 109.342 26.9895 109.151 27.739L108.399 30.7446C108.207 31.5018 107.448 32.106 106.689 32.106Z" fill="#BFD9FF"/>
<path d="M116.268 32.106H113.254C112.495 32.106 112.034 31.4941 112.226 30.7446L112.978 27.739C113.169 26.9819 113.929 26.3777 114.688 26.3777H117.702C118.461 26.3777 118.921 26.9895 118.73 27.739L117.978 30.7446C117.786 31.5018 117.027 32.106 116.268 32.106Z" fill="#EDF4FF"/>
<path d="M94.8548 41.1152H91.8407C91.0814 41.1152 90.6213 40.5034 90.813 39.7539L91.5646 36.7483C91.7563 35.9911 92.5156 35.387 93.2749 35.387H96.2889C97.0482 35.387 97.5084 35.9988 97.3166 36.7483L96.565 39.7539C96.3733 40.5111 95.614 41.1152 94.8548 41.1152Z" fill="#EDF4FF"/>
<path d="M92.4466 50.7363H89.4325C88.6732 50.7363 88.2131 50.1245 88.4048 49.375L89.1564 46.3694C89.3482 45.6122 90.1074 45.0081 90.8667 45.0081H93.8807C94.64 45.0081 95.1002 45.6199 94.9084 46.3694L94.1568 49.375C93.9651 50.1321 93.2058 50.7363 92.4466 50.7363Z" fill="#EDF4FF"/>
<path d="M104.434 41.1152H101.42C100.661 41.1152 100.2 40.5034 100.392 39.7539L101.144 36.7483C101.335 35.9911 102.095 35.387 102.854 35.387H105.868C106.627 35.387 107.087 35.9988 106.896 36.7483L106.144 39.7539C105.952 40.5111 105.193 41.1152 104.434 41.1152Z" fill="#EDF4FF"/>
<path d="M100.239 57.9023H97.2245C96.4652 57.9023 96.0051 57.2905 96.1968 56.541L96.9484 53.5354C97.1401 52.7783 97.8994 52.1741 98.6587 52.1741H101.673C102.432 52.1741 102.892 52.7859 102.7 53.5354L101.949 56.541C101.757 57.2982 100.998 57.9023 100.239 57.9023Z" fill="#BFD9FF"/>
<path d="M147.605 5.82006C147.605 5.82006 147.574 5.82006 147.559 5.82006C147.513 5.82006 147.467 5.81241 147.421 5.80476C147.114 5.78947 146.799 5.77417 146.477 5.77417C137.55 5.77417 128.516 12.9097 126.138 21.7736L126.031 22.1942C126.023 22.2401 126.015 22.286 126 22.3242L125.931 22.5919H125.939C123.983 31.5782 129.758 38.729 139.015 38.3542C147.451 38.0101 155.964 31.2952 158.503 22.9667C161.248 13.9345 156.248 6.40895 147.605 5.80476V5.82006ZM153.763 22.676C151.984 28.5955 145.894 33.3754 139.912 33.559C133.478 33.7655 129.459 28.7791 130.786 22.5154L130.97 21.7736C132.68 15.5635 139.023 10.5847 145.289 10.5847C145.611 10.5847 145.933 10.6 146.24 10.6306C152.222 11.1353 155.665 16.3895 153.771 22.676H153.763Z" fill="#EBEDFC"/>
<path d="M146.722 8.59633C146.446 9.70527 146.96 10.6613 147.972 10.9289C152.85 12.2138 155.458 17.032 153.755 22.6761C151.976 28.5956 145.886 33.3755 139.904 33.5591C134.03 33.7426 130.172 29.6204 130.548 24.1369C130.624 23.005 129.819 22.1943 128.669 22.1943C127.173 22.1943 125.685 23.5403 125.586 25.0011C125.056 32.8172 130.601 38.6985 139.015 38.3543C147.451 38.0102 155.964 31.2953 158.503 22.9667C160.949 14.9288 157.26 8.07627 150.319 6.24078C148.885 5.85838 147.121 7.00557 146.722 8.57338V8.59633Z" fill="#A5C5FF"/>
<path d="M188.267 4.17569C188.267 4.17569 188.237 4.17569 188.221 4.17569C188.168 4.17569 188.106 4.17569 188.053 4.16804C187.754 4.15275 187.447 4.13745 187.14 4.13745C178.113 4.13745 168.964 11.4335 166.717 20.4428C164.462 29.4444 169.961 36.7481 178.988 36.7481C179.294 36.7481 179.601 36.7328 179.915 36.7175C179.977 36.7175 180.031 36.7175 180.092 36.7099C180.107 36.7099 180.123 36.7099 180.138 36.7099C188.735 36.1286 197.164 29.1461 199.38 20.5881C199.396 20.5422 199.411 20.4963 199.419 20.4428C201.574 11.8236 196.627 4.76458 188.267 4.18334V4.17569ZM181.005 31.8917C181.005 31.8917 180.974 31.8917 180.959 31.8917C180.767 31.907 180.575 31.9146 180.391 31.9146C180.322 31.9146 180.261 31.9146 180.192 31.9146C173.826 31.9146 169.953 26.7676 171.541 20.4198C173.128 14.0721 179.57 8.92504 185.936 8.92504C186.005 8.92504 186.066 8.92504 186.128 8.92504C186.319 8.92504 186.503 8.93269 186.688 8.94798C186.703 8.94798 186.718 8.94798 186.734 8.94798C192.616 9.36097 196.098 14.3321 194.579 20.4045C194.564 20.4504 194.556 20.4963 194.541 20.5498C192.961 26.5611 187.04 31.4634 180.997 31.8687L181.005 31.8917Z" fill="white"/>
<path d="M193.851 22.5841C191.826 27.1958 187.278 30.8285 182.446 31.7157C181.235 31.9375 180.146 32.9164 179.854 34.0865C179.478 35.6008 180.583 36.7327 182.14 36.4497C189.034 35.2031 195.515 30.0178 198.391 23.4406C199.043 21.9569 198.253 20.5803 196.734 20.5803C195.553 20.5803 194.365 21.4292 193.851 22.5841Z" fill="#BFD9FF"/>
<path d="M144.897 61.5504H114.427C114.274 61.5504 114.159 61.4051 114.197 61.2598L115.562 56.0362C115.593 55.9368 115.685 55.8604 115.792 55.8604H146.262C146.416 55.8604 146.531 56.0057 146.493 56.151L145.127 61.3745C145.097 61.4739 145.005 61.5504 144.897 61.5504Z" fill="#EDF4FF"/>
<path d="M286.227 85.7744C292.57 80.188 294.171 71.6607 289.802 66.7282C285.434 61.7958 276.75 62.3259 270.407 67.9124C264.064 73.4989 262.463 82.0261 266.832 86.9586C271.2 91.8911 279.884 91.3609 286.227 85.7744Z" fill="#73A5FF"/>
<path d="M298.323 91.3465C297.817 93.3885 295.738 95.0405 293.698 95.0405C291.658 95.0405 290.408 93.3885 290.922 91.3465C291.428 89.3045 293.507 87.6526 295.547 87.6526C297.587 87.6526 298.837 89.3045 298.323 91.3465Z" fill="#73A5FF"/>
<path d="M274.84 83.7139C274.418 83.7139 274.027 83.5533 273.781 83.2244L270.284 78.5821C269.793 77.9321 270.062 76.8843 270.867 76.2342C271.68 75.5842 272.731 75.5842 273.222 76.2342L275.837 79.7064L285.17 72.2573C285.983 71.6073 287.034 71.6073 287.525 72.2573C288.016 72.9074 287.747 73.9552 286.942 74.6052L276.136 83.2321C275.729 83.5533 275.262 83.7215 274.84 83.7215V83.7139Z" fill="white"/>
<path d="M366.411 50.0709C366.411 50.0709 364.946 53 364.064 59.4396C363.182 65.8791 365.529 103.063 365.529 103.063L390.777 100.425L379.326 51.8223L366.411 50.0632V50.0709Z" fill="#263238"/>
<path d="M351.433 207.151L342.621 250.629L359.8 251.065C359.8 251.065 364.203 212.42 362.446 212.42C360.69 212.42 351.433 207.151 351.433 207.151Z" fill="#45242C"/>
<path d="M391.367 300.991C391.367 300.991 384.91 307.729 382.264 309.189C382.854 310.359 392.249 310.359 395.769 308.6C399.29 306.841 401.936 302.742 401.936 302.742L401.644 307.132H403.408C403.408 307.132 405.172 300.983 405.172 299.522C405.172 298.062 403.408 296.012 403.408 296.012L391.367 300.991Z" fill="#713336"/>
<path d="M388.722 214.325L395.179 293.381L402.81 292.792C402.81 292.792 411.622 234.821 408.094 214.914C404.574 195.006 388.714 214.325 388.714 214.325H388.722Z" fill="#FFBF9D"/>
<path d="M395.178 293.373C395.178 293.373 392.832 299.522 389.603 302.452C386.374 305.381 394.596 305.381 398.116 302.452C401.636 299.522 401.935 297.763 403.109 297.182C404.282 296.593 402.817 292.792 402.817 292.792L395.186 293.381L395.178 293.373Z" fill="#FFBF9D"/>
<path d="M338.35 299.66C338.35 299.66 330.841 305.212 327.996 306.214C328.38 307.469 337.636 309.044 341.41 307.904C345.183 306.765 348.481 303.17 348.481 303.17L347.446 307.453L349.179 307.752C349.179 307.752 351.955 301.985 352.201 300.547C352.446 299.102 351.058 296.784 351.058 296.784L338.35 299.668V299.66Z" fill="#713336"/>
<path d="M350.391 213.789L343.396 292.8L351.02 293.503C351.02 293.503 369.503 237.842 369.396 217.621C369.288 197.408 350.391 213.789 350.391 213.789Z" fill="#FFBF9D"/>
<path d="M343.396 292.8C343.396 292.8 340.044 298.467 336.363 300.807C332.682 303.147 340.788 304.532 344.753 302.237C348.718 299.943 349.309 298.26 350.567 297.878C351.824 297.496 351.019 293.503 351.019 293.503L343.396 292.8Z" fill="#FFBF9D"/>
<path d="M323.34 88.1878L308.163 85.2051C308.163 85.2051 307.933 87.27 309.313 87.7289L310.694 88.1878C310.694 88.1878 314.145 96.4475 315.755 97.3576C317.366 98.2753 327.029 102.252 327.029 102.252L329.553 92.5394L323.34 88.1801V88.1878Z" fill="#FFBF9D"/>
<path d="M334.261 100.424C334.261 100.424 334.116 99.3997 332.083 95.2927C329.829 90.7422 329.322 88.8685 329.322 88.8685C329.322 88.8685 322.19 86.1153 321.039 84.7386C319.889 83.362 319.199 83.1326 319.199 83.1326C319.199 83.1326 317.818 85.6564 319.889 87.4919C321.96 89.3274 323.8 90.704 323.8 90.704C323.8 90.704 323.57 95.981 324.261 98.5049C324.951 101.029 327.022 102.252 327.022 102.252L334.254 100.424H334.261Z" fill="#FFBF9D"/>
<path d="M357.891 108.921C357.891 108.921 347.614 125.318 347.322 123.85C347.031 122.382 334.108 99.8433 334.108 99.8433L327.021 102.252C327.021 102.252 337.628 135.268 344.385 140.538C344.385 140.538 344.975 141.417 347.031 141.127C349.086 140.836 364.939 124.439 364.939 124.439L357.891 108.921Z" fill="#FFBF9D"/>
<path d="M367.509 89.4497C367.509 89.4497 362.002 91.6447 359.364 95.4533C356.718 99.262 349.087 116.531 349.087 116.531C349.087 116.531 353.198 123.85 362.593 126.488L375.508 102.772L367.509 89.4497Z" fill="#008183"/>
<path d="M360.683 145.662C360.683 145.662 361.12 152.69 361.12 155.321C361.12 155.321 350.551 206.264 350.107 218.126C349.669 229.98 358.474 254.14 358.474 254.14C358.474 254.14 396.353 253.26 408.677 250.629L409.997 225.154C409.997 225.154 411.761 180.796 409.997 168.063C408.233 155.329 400.747 148.736 400.747 148.736L398.546 142.587L360.667 145.662H360.683Z" fill="#263238"/>
<path d="M393.055 86.3752C393.055 86.3752 402.964 90.9869 406.047 95.8204C409.13 100.654 418.379 126.779 418.379 126.779C418.379 126.779 408.033 130.511 398.998 130.511C398.998 130.511 399.88 138.855 400.762 141.494C401.644 144.132 398.561 145.226 398.561 145.226C398.561 145.226 376.98 151.153 360.905 147.643C360.905 147.643 358.926 147.207 358.926 146.327C358.926 145.448 359.148 143.253 359.148 143.253C359.148 143.253 357.607 128.324 357.17 125.685C356.733 123.047 351.886 115.881 352.323 113.021C352.76 110.168 360.253 96.9141 360.253 96.9141C360.253 96.9141 365.315 90.9869 367.523 89.4497C369.732 87.9125 375.231 87.9125 375.231 87.9125L393.07 86.3752H393.055Z" fill="#008183"/>
<path d="M374.273 78.4674C374.281 78.8115 375.539 86.2683 371.397 91.5377C367.256 96.9294 383.584 96.7 387.38 91.1935C390.831 86.2606 390.486 85.4576 390.486 85.4576C390.486 85.4576 387.725 76.5172 388.53 70.6665C388.3 65.3895 374.043 68.6016 374.273 78.4674Z" fill="#FFBF9D"/>
<path d="M374.173 47.3633C374.173 47.3633 369.41 48.5793 366.718 55.8678C364.018 63.1562 365.821 78.6432 367.615 80.4711C369.41 82.2913 374.878 81.5953 382.448 79.1021C390.447 76.4712 393.154 68.1732 394.581 62.6973C397.319 52.2197 388.184 41.4362 374.173 47.3556V47.3633Z" fill="#FFBF9D"/>
<path d="M364.939 55.6308C364.939 55.6308 369.341 66.1696 386.076 66.7585L389.964 85.3888C389.964 85.3888 397.089 88.7997 399.873 90.3293C399.873 90.3293 403.102 56.5103 395.471 48.3117C387.84 40.1132 374.334 42.1628 369.042 46.851C363.758 51.5392 364.931 55.6384 364.931 55.6384L364.939 55.6308Z" fill="#263238"/>
<path d="M393.055 86.3754L389.312 82.865C389.312 82.865 386.007 92.3101 374.342 92.9679C374.342 92.9679 372.8 90.5511 373.682 87.0407L371.703 88.578C371.703 88.578 367.516 94.5051 367.961 96.2641C368.398 98.0231 373.981 94.9487 373.981 94.9487C373.981 94.9487 380.585 98.9026 383.231 99.1244C385.876 99.3462 392.625 87.0484 393.063 86.3907L393.055 86.3754Z" fill="white"/>
<path d="M386.344 66.4833C386.344 66.4833 388.108 63.5771 389.872 64.6478C391.636 65.7185 388.745 72.288 386.344 72.441C383.936 72.5939 385.217 68.1658 386.344 66.4833Z" fill="#FFBF9D"/>
<path d="M319.728 90.7653L310.693 88.188C310.693 88.188 311.506 90.1841 312.089 90.7653C312.68 91.3542 318.992 93.5492 318.992 93.5492" stroke="#E66657" stroke-width="1.03" stroke-miterlimit="10"/>
<path d="M312.089 90.7654C312.089 90.7654 312.971 93.4039 313.408 93.8398C313.845 94.2758 319.428 95.8895 319.428 95.8895" stroke="#E66657" stroke-width="1.03" stroke-miterlimit="10"/>
<path d="M321.047 88.5703L323.8 90.7117L325.894 90.1764" stroke="#E66657" stroke-width="1.03" stroke-miterlimit="10"/>
<path d="M375.216 80.9532C375.216 80.9532 380.791 79.7831 383.729 74.5137" stroke="#E66657" stroke-width="1.03" stroke-miterlimit="10"/>
<path d="M370.369 68.074L369.341 73.634L371.251 74.0776" stroke="#E66657" stroke-width="1.03" stroke-miterlimit="10"/>
<path d="M370.077 76.5632C370.077 76.5632 372.869 77.152 375.806 75.5383" stroke="#E66657" stroke-width="1.03" stroke-miterlimit="10"/>
<path d="M375.216 67.271C375.216 67.6381 374.917 67.9287 374.556 67.9287C374.196 67.9287 373.896 67.6305 373.896 67.271C373.896 66.9115 374.196 66.6133 374.556 66.6133C374.917 66.6133 375.216 66.9115 375.216 67.271Z" fill="#024470"/>
<path d="M368.098 67.271C368.098 67.6381 367.799 67.9287 367.439 67.9287C367.078 67.9287 366.779 67.6305 366.779 67.271C366.779 66.9115 367.078 66.6133 367.439 66.6133C367.799 66.6133 368.098 66.9115 368.098 67.271Z" fill="#024470"/>
<path d="M364.347 154.964L341.081 168.36L358.916 199.164L382.183 185.769L364.347 154.964Z" fill="white"/>
<path d="M386.375 166.892C386.375 166.892 382.701 170.915 381.605 171.795C380.5 172.674 373.015 173.332 373.015 173.332C373.015 173.332 369.709 178.823 368.827 178.601C367.946 178.379 368.168 177.722 368.168 177.722C368.168 177.722 367.946 167.841 368.605 166.739C369.265 165.638 380.055 162.564 380.055 162.564L381.375 161.026L386.367 166.885" fill="#FFBF9D"/>
<path d="M415.15 127.804C415.442 128.683 417.796 135.567 418.969 139.077C420.143 142.587 393.722 161.034 389.611 164.254L386.382 166.892L381.39 161.034L404.582 137.907L401.207 130.297L415.15 127.812V127.804Z" fill="#FFBF9D"/>
<path d="M369.794 178.601L370.868 172.452" stroke="#E66657" stroke-width="1.03" stroke-miterlimit="10"/>
<path d="M369.173 173.041L370.415 169.523" stroke="#E66657" stroke-width="1.03" stroke-miterlimit="10"/>
<path d="M369.625 166.747L369.173 178.601H370.645L373.015 173.332" stroke="#E66657" stroke-width="1.03" stroke-miterlimit="10"/>
<path d="M46.1928 291.744C46.1928 291.744 47.4199 289.129 51.9601 289.825C56.5004 290.521 57.0296 291.393 57.5588 293.664C58.0803 295.928 59.6602 298.375 60.7032 298.895C61.7539 299.415 65.5963 302.031 68.7484 302.559C71.8928 303.079 72.2456 304.998 71.5477 305.87C70.8498 306.742 58.9546 307.438 56.3317 307.094C56.3317 307.094 47.4122 306.918 45.3185 306.222C43.2171 305.526 46.0164 292.624 46.1928 291.752V291.744Z" fill="#2D2737"/>
<path d="M41.1465 230.447C41.1465 230.447 39.8197 223.227 47.4661 220.802C55.1124 218.378 56.5619 221.904 58.8781 228.489C61.1942 235.073 56.8917 291.339 56.8917 291.339C56.8917 291.339 48.0873 292.838 45.8248 291.507C45.8248 291.507 39.1141 254.882 39.582 244.832C40.0498 234.783 41.1542 230.447 41.1542 230.447H41.1465Z" fill="#263238"/>
<path d="M44.8818 289.297C44.8818 289.297 54.852 288.425 57.9964 287.905L57.82 292.44C57.82 292.44 49.9513 293.832 45.0582 293.136L44.8818 289.297Z" fill="#51598D"/>
<path d="M42.4349 89.4727C42.4349 89.4727 36.1383 89.8245 32.296 104.118C28.446 118.42 25.9994 135.85 27.4029 140.385C28.7988 144.92 43.8384 157.126 49.437 157.126C55.0356 157.126 55.3807 152.943 54.33 149.455C53.2793 145.968 42.4425 136.553 42.4425 136.553C42.4425 136.553 51.1856 108.654 50.8328 101.335C50.48 94.0155 46.2849 89.4803 42.4425 89.4803L42.4349 89.4727Z" fill="#008183"/>
<path d="M121.253 85.2128L120.21 85.3198L122.549 80.7005C122.549 80.7005 128.501 80.3257 129.452 82.8343L126.721 88.8685L121.253 85.2204V85.2128Z" fill="#FFBF9D"/>
<path d="M124.597 72.0813C124.597 72.0813 124.366 67.3626 126.046 66.6896C127.733 66.0166 129.62 67.3244 129.62 67.3244C129.62 67.3244 132.343 67.049 133.217 68.2039C134.091 69.3587 134.015 71.1177 134.015 71.1177C134.015 71.1177 135.548 71.4619 135.955 72.915C136.354 74.3757 135.64 77.1901 135.64 77.1901C135.64 77.1901 133.861 79.3698 131.798 78.8268C129.743 78.2838 124.597 72.0661 124.597 72.0661V72.0813Z" fill="#FFBF9D"/>
<path d="M121.483 75.8977C121.483 75.8977 120.854 69.7182 121.522 68.8999C122.189 68.0816 129.015 58.667 129.015 58.667C129.015 58.667 130.433 60.273 129.613 62.1009C128.8 63.9287 125.586 69.4888 125.586 69.4888L125.571 74.2381C125.571 74.2381 123.47 75.6989 121.483 75.9054V75.8977Z" fill="#FFBF9D"/>
<path d="M121.989 80.8382C121.989 80.8382 120.356 70.9189 121.468 69.5499C122.58 68.1886 128.04 68.9839 129.076 69.374C130.119 69.764 133.003 73.4733 133.401 74.9264C133.8 76.3795 131.085 81.6565 129.452 82.819C127.818 83.9815 122.933 82.7349 121.989 80.8305V80.8382Z" fill="#FFBF9D"/>
<path d="M118.146 87.3847L120.248 83.5455C120.248 83.5455 125.141 82.6736 127.595 86.5129C128.293 87.9048 127.948 87.9048 127.948 87.9048L126.376 91.0404L118.154 87.3771L118.146 87.3847Z" fill="#DEE0E8"/>
<path d="M68.3345 45.4054C68.3345 45.4054 73.5113 46.7285 76.441 54.6441C79.3707 62.5673 77.4151 79.4003 75.467 81.3811C73.519 83.3619 67.5753 82.6048 59.346 79.8974C50.649 77.0371 47.7116 68.0203 46.1547 62.0778C43.179 50.6901 53.1109 38.9735 68.3345 45.4131V45.4054Z" fill="#FFBF9D"/>
<path d="M49.7821 89.1286L53.9772 74.131C53.9772 74.131 62.3675 71.6913 67.6133 77.2667L69.362 79.7063V89.4727C69.362 89.4727 60.6189 91.2164 49.7744 89.1209L49.7821 89.1286Z" fill="#FFBF9D"/>
<path d="M38.0635 169.86C38.0635 169.86 34.9191 188.169 38.0635 209.094C41.208 230.018 47.5045 232.114 53.2795 232.114C59.0546 232.114 60.6268 215.372 61.6698 208.053C62.7205 200.727 66.9157 175.619 59.0469 169.867C51.1781 164.116 42.2587 163.589 38.0635 169.867V169.86Z" fill="#263238"/>
<path d="M60.0974 194.448C60.0974 194.448 53.8008 177.706 64.8217 170.387C75.8349 163.061 84.2328 164.109 86.8558 176.139C89.4787 188.169 90.0002 229.498 86.3342 237.865C82.6606 246.232 69.546 233.154 60.105 194.448H60.0974Z" fill="#263238"/>
<path d="M78.4271 46.1167C78.4271 46.1167 80.9119 49.3365 79.4164 53.0457C77.9285 56.7626 72.468 58.2463 72.468 58.2463C72.468 58.2463 74.2089 60.7242 72.468 64.1887L71.2255 66.1695C71.2255 66.1695 72.9665 70.1311 72.468 71.1177C71.9695 72.1043 70.2362 71.8596 70.2362 71.8596C70.2362 71.8596 68.2498 66.4143 67.5059 66.9114C66.762 67.4085 64.7756 69.8788 64.7756 72.1119C64.7756 74.3451 65.5195 76.0736 65.021 77.5573C64.5225 79.0409 56.8301 79.0409 53.6013 78.5438C50.3725 78.0467 45.4105 68.1503 44.168 63.6916C44.168 63.6916 42.4271 57.5045 44.912 52.3039C44.912 52.3039 44.4135 47.8452 48.6393 43.3941C52.8574 38.9354 66.2635 40.4267 68.4952 42.1551C68.4952 42.1551 68.2498 39.6772 70.727 40.1743C73.2119 40.6714 76.9315 42.897 78.4194 46.1167H78.4271Z" fill="#263238"/>
<path d="M70.9804 68.6476C70.9804 68.6476 70.2365 65.4278 67.5062 66.9115C64.7759 68.3952 68.0047 76.0737 70.2365 75.5766C72.4683 75.0794 71.4789 69.8865 70.9804 68.6476Z" fill="#FF7759"/>
<path d="M47.5576 89.0445C47.5576 89.0445 48.731 84.9376 49.7817 84.5934C50.8324 84.2416 63.7706 82.8497 70.7651 87.0331C73.9095 89.4728 73.5644 91.2165 73.5644 91.2165C73.5644 91.2165 52.6884 87.2243 47.5653 89.0445H47.5576Z" fill="#DEE0E8"/>
<path d="M44.8817 88.0807C44.8817 88.0807 66.563 86.6887 81.9477 93.3118C88.9422 96.7993 104.94 112.577 104.94 112.577L117.534 86.4211C117.534 86.4211 124.612 83.8896 127.412 90.5203C127.412 90.5203 119.459 121.38 112.809 131.146C108.614 134.633 88.5894 123.299 88.5894 123.299C88.5894 123.299 91.7338 163.749 90.6908 181.89C89.295 185.377 62.0151 187.121 57.122 186.769C52.229 186.417 35.088 180.842 34.7428 179.794C34.3901 178.747 37.1894 136.897 36.4915 132.018C35.7936 127.138 33.6921 103.071 34.3901 99.5831C35.088 96.0957 38.2401 89.4726 44.8817 88.073V88.0807Z" fill="#008183"/>
<path d="M67.9658 292.784C67.9658 292.784 69.1929 290.169 73.7332 290.865C78.2811 291.561 78.8026 292.433 79.3318 294.704C79.861 296.976 81.4332 299.415 82.4763 299.935C83.5193 300.455 87.3693 303.071 90.5214 303.599C93.6659 304.119 94.0186 306.038 93.3207 306.91C92.6228 307.782 80.7276 308.478 78.1047 308.134C78.1047 308.134 69.1853 307.958 67.0915 307.262C64.9978 306.566 67.7894 293.664 67.9658 292.792V292.784Z" fill="#3E3343"/>
<path d="M70.0595 231.586C70.0595 231.586 69.538 224.259 77.4068 222.691C85.2755 221.124 86.3262 224.787 87.8985 231.586C89.4707 238.385 78.979 293.832 78.979 293.832C78.979 293.832 70.0595 294.352 67.9658 292.784C67.9658 292.784 65.3429 255.646 66.9151 245.704C68.4873 235.762 70.0595 231.578 70.0595 231.578V231.586Z" fill="#263238"/>
<path d="M67.2682 293.656C67.2682 293.656 74.0862 295.576 79.8613 294.528L80.3828 290.521L67.0918 289.649L67.2682 293.656Z" fill="#51598D"/>
<path d="M78.1055 189.217C78.1055 189.217 84.0492 192.704 86.4957 187.121" stroke="#2A2E59" stroke-width="1.03" stroke-miterlimit="10"/>
<path d="M65.9951 77.9243C65.9951 77.9243 67.8281 82.6354 73.9943 81.8477" stroke="#E66657" stroke-width="1.03" stroke-miterlimit="10"/>
<path d="M125.363 68.2497L127.419 66.4219C127.419 66.4219 128.861 66.4219 129.627 67.332" stroke="#E66657" stroke-width="1.03" stroke-miterlimit="10"/>
<path d="M127.811 68.5479C127.811 68.4179 130.74 66.8501 130.74 66.8501C130.74 66.8501 133.409 67.5002 133.8 68.8997C134.191 70.2916 133.885 71.0335 133.885 71.0335" stroke="#E66657" stroke-width="1.03" stroke-miterlimit="10"/>
<path d="M131.262 71.0795C131.392 71.0336 134.974 71.2554 134.974 71.2554C134.974 71.2554 136.285 72.1273 136.239 73.8251C136.193 75.5229 135.633 77.2055 135.633 77.2055C135.633 77.2055 134.36 79.018 132.174 78.9721" stroke="#E66657" stroke-width="1.03" stroke-miterlimit="10"/>
<path d="M133.317 74.7429C133.317 74.7429 133.754 75.4389 133.186 76.7008C132.619 77.9627 131.928 81.2742 129.451 82.8268" stroke="#E66657" stroke-width="1.03" stroke-miterlimit="10"/>
</g>
<defs>
<clipPath id="clip0_2478_3566">
<rect width="419" height="310" fill="white"/>
</clipPath>
</defs>
</svg>
