<svg width="188" height="186" viewBox="0 0 188 186" fill="none" xmlns="http://www.w3.org/2000/svg">
<g clip-path="url(#clip0_1009_7991)">
<path d="M176.755 47.1777H150.388V82.8486H176.755V47.1777Z" fill="#24ADB2"/>
<path d="M174.04 47.1777H147.673V82.8486H174.04V47.1777Z" fill="#008183"/>
<path d="M167.447 43.5576H141.08V82.8428H167.447V43.5576Z" fill="#FF9978"/>
<path d="M164.732 43.5576H134.486V82.8428H164.732V43.5576Z" fill="#FFCAB9"/>
<path d="M164.737 43.5576H159.564V82.8428H164.737V43.5576Z" fill="#FEB299"/>
<path d="M13.7682 53.3809C13.7682 53.3809 9.63233 55.4485 7.82221 61.3937C6.01209 67.3388 15.8361 83.3644 15.8361 82.5911C15.8361 81.8178 25.6601 77.4192 25.6601 77.4192L20.7508 59.326L13.7737 53.3809H13.7682Z" fill="#008183"/>
<path d="M117.076 84.7573L111.618 70.3223H97.96L103.423 84.7573" fill="#4F57A0"/>
<path d="M67.5342 73.1857H145.166L146.521 65.9023H68.8945" fill="#DDDDDD"/>
<path d="M75.7616 29.0574L68.8887 65.902H146.521L153.235 29.9075C153.503 28.476 152.401 27.1543 150.947 27.1543H78.049C76.93 27.1543 75.9646 27.955 75.7616 29.0519V29.0574Z" fill="#3D3F46"/>
<path d="M114.005 79.5531L134.553 64.235L114.389 63.0723L95.3887 77.8035L114.005 79.5531Z" fill="white"/>
<path d="M108.252 74.5726L113.424 71.7317C113.424 71.7317 118.416 69.6641 118.564 69.6641C118.712 69.6641 119.145 70.1467 118.613 71.1668C118.081 72.1869 116.677 72.4282 116.677 72.4282L115.755 74.995L120.538 74.3149L121.635 74.0571C121.635 74.0571 120.862 75.9931 120.538 76.4483C120.215 76.8981 118.405 78.0662 118.405 78.0662C118.405 78.0662 114.982 80.9072 113.753 81.2308C112.525 81.5544 108.263 81.7463 108.263 81.7463L105.547 81.6805L103.03 82.196C103.03 82.196 101.735 79.8048 101.933 76.4428L108.268 74.5672L108.252 74.5726Z" fill="#FFCAB9"/>
<path d="M138.886 86.4628L153.877 184.168H157.497L147.673 85.9473L138.886 86.4628Z" fill="#DDDDDD"/>
<path d="M169.389 86.4628L184.38 184.168H188L178.176 85.9473L169.389 86.4628Z" fill="#DDDDDD"/>
<path d="M81.4931 86.4628L66.5021 184.168H62.8818L72.7058 85.9473L81.4931 86.4628Z" fill="#DDDDDD"/>
<path d="M50.9902 86.4628L35.9991 184.168H32.3789L42.2029 85.9473L50.9902 86.4628Z" fill="#DDDDDD"/>
<path d="M180.243 85.4316H45.3018V90.0825H180.243V85.4316Z" fill="#DDDDDD"/>
<path d="M182.827 87.4994H49.438C48.0119 87.4994 46.8545 86.3421 46.8545 84.9162C46.8545 83.4902 48.0119 82.333 49.438 82.333H182.827C184.253 82.333 185.411 83.4902 185.411 84.9162C185.411 86.3421 184.253 87.4994 182.827 87.4994Z" fill="#3D3F46"/>
<path d="M53.909 174.346C53.909 174.346 54.7592 172.268 58.3026 172.64C61.8461 173.008 62.2849 173.666 62.7786 175.405C63.2722 177.143 64.5832 178.981 65.4115 179.342C66.2397 179.704 69.3169 181.591 71.7743 181.882C74.2317 182.167 74.5718 183.642 74.0671 184.344C73.557 185.046 64.3857 186.039 62.3398 185.869C62.3398 185.869 55.4339 186.072 53.7828 185.611C52.1318 185.151 53.8103 175.032 53.909 174.346Z" fill="#3D3F46"/>
<path d="M54.8464 159.462L53.7822 175.663C53.7822 175.663 56.3054 176.474 58.2307 177.884C61.0721 179.968 63.3978 177.445 63.3978 177.445L64.0396 167.249L54.8464 159.456V159.462Z" fill="#FFCAB9"/>
<path d="M75.422 130.921L64.9507 175.893C64.9507 175.893 59.5204 176.667 52.9326 173.568C52.9326 173.568 58.7469 131.31 59.1364 128.595C59.5258 125.881 74.6486 128.595 75.422 130.921Z" fill="#3D3F46"/>
<path d="M32.9826 14.5677C32.9826 14.5677 37.283 15.3684 40.1079 21.6974C42.9328 28.0265 42.2526 41.9186 40.7661 43.6462C39.2796 45.3738 34.3868 45.0777 27.5193 43.3062C20.2624 41.436 17.3717 34.2075 15.7755 29.425C12.7257 20.2605 20.1966 10.1252 32.9881 14.5677H32.9826Z" fill="#FFCAB9"/>
<path d="M21.0469 51.6095L23.5207 39.7686C23.5207 39.7686 29.8835 37.4432 34.2278 41.5017L35.7033 43.3061L36.208 50.8746C36.208 50.8746 29.538 52.6735 21.0469 51.6095Z" fill="#FFCAB9"/>
<path d="M20.9093 124.427C20.9093 124.427 34.7649 128.48 51.1931 127.92C67.6268 127.361 69.7989 122.705 70.3091 118.262C70.8192 113.82 58.0387 111.121 52.4821 109.657C46.9201 108.198 27.9139 102.73 22.7743 108.275C17.6346 113.82 16.4389 120.637 20.9093 124.427Z" fill="#201360"/>
<path d="M92.2938 174.346C92.2938 174.346 93.144 172.268 96.6874 172.64C100.231 173.008 100.67 173.666 101.163 175.405C101.657 177.143 102.968 178.981 103.796 179.342C104.63 179.71 107.702 181.591 110.159 181.882C112.616 182.167 112.957 183.642 112.452 184.344C111.942 185.046 102.771 186.039 100.725 185.869C100.725 185.869 93.8187 186.072 92.1676 185.611C90.5166 185.151 92.195 175.032 92.2938 174.346Z" fill="#3D3F46"/>
<path d="M88.2188 160.646L92.0968 176.414C92.0968 176.414 95.2014 175.641 97.0061 177.188C98.8162 178.74 102.179 177.703 102.179 177.703L99.3373 165.297L88.2242 160.646H88.2188Z" fill="#FFCAB9"/>
<path d="M56.1623 107.919C56.9357 107.919 83.3031 116.705 88.4756 120.583C93.6482 124.718 101.92 170.793 102.435 171.824C102.951 172.86 94.9372 175.701 89.7701 174.928C89.5123 173.891 77.3626 135.062 77.3626 132.473C77.3626 132.473 56.6834 131.436 47.8906 129.89C39.1033 128.338 33.1573 128.08 29.5371 118.515C25.9168 108.95 47.1172 108.177 47.1172 108.177L56.1623 107.919Z" fill="#3D3F46"/>
<path d="M101.273 73.9318C101.273 73.9318 106.314 73.8002 106.704 74.3212C107.093 74.8368 108.903 79.4931 107.219 81.4291L105.799 82.4656H101.405L101.273 73.9373V73.9318Z" fill="#E2E7FF"/>
<path d="M20.1641 49.8926L21.5189 46.4045C21.5189 46.4045 29.6644 43.8817 36.6416 46.9859C38.3859 48.7299 39.3568 51.4447 39.3568 51.4447L20.1641 49.8926Z" fill="#E2E7FF"/>
<path d="M18.4195 50.2774C18.4195 50.2774 19.4562 48.4676 21.2608 48.2098C23.0709 47.952 31.3426 46.9155 36.773 48.4676C38.8409 49.2409 39.8776 50.2774 39.8776 50.2774C39.8776 50.2774 47.6337 52.8606 50.2172 54.4127C52.8008 55.9648 53.5797 67.8551 54.0953 71.7326C54.6109 75.6101 53.0586 79.7454 53.0586 79.7454C53.0586 79.7454 59.2623 105.078 59.2623 108.692C59.2623 112.307 57.1944 116.447 49.9539 119.031C42.7135 121.614 23.0709 120.583 16.3461 116.447C14.2781 112.312 11.1735 63.2043 10.6579 58.548C10.1423 53.8972 18.414 50.2774 18.414 50.2774H18.4195Z" fill="#008183"/>
<path d="M45.9498 53.3817C45.9498 53.3817 47.8861 52.219 52.543 55.3177C57.1945 58.4219 69.9915 70.0489 71.5438 70.8277C73.0961 71.601 102.952 73.1531 102.952 73.1531C102.952 73.1531 107.22 78.5827 102.563 82.8442C102.563 82.8442 73.7379 84.0069 68.313 83.6175C62.8826 83.2281 44.7869 72.7637 44.7869 72.7637C44.7869 72.7637 37.4203 61.91 45.9498 53.3762V53.3817Z" fill="#008183"/>
<path d="M39.7344 70.4863C39.7344 70.4863 63.9077 83.1774 66.7271 83.5777C69.5465 83.9781 80.2262 83.5777 80.2262 83.5777" stroke="#E7F0F1" stroke-width="0.83" stroke-miterlimit="10"/>
<path d="M72.3715 73.7109C72.3715 73.7109 73.1778 78.1424 70.3584 80.7585" stroke="#E7F0F1" stroke-width="0.83" stroke-miterlimit="10"/>
<path d="M74.1816 72.499C74.1816 72.499 76.6006 76.3272 75.3884 79.1462" stroke="#E7F0F1" stroke-width="0.83" stroke-miterlimit="10"/>
<path d="M39.5317 65.4514C39.5317 65.4514 37.5186 58.4039 44.5671 53.7695" stroke="#E7F0F1" stroke-width="0.83" stroke-miterlimit="10"/>
<path d="M13.5484 58.8047C13.5484 58.8047 12.1387 71.2928 12.1387 77.1337" stroke="#E7F0F1" stroke-width="0.83" stroke-miterlimit="10"/>
<path d="M20.7998 50.5448C20.7998 50.5448 30.0643 49.7386 37.7217 50.5448" stroke="#E7F0F1" stroke-width="0.83" stroke-miterlimit="10"/>
<path d="M81.4336 131.721C81.4336 131.721 85.8656 130.311 87.4783 123.461" stroke="#E7F0F1" stroke-width="0.83" stroke-miterlimit="10"/>
<path d="M84.4561 132.323C84.4561 132.323 87.0725 131.517 88.2847 127.892" stroke="#E7F0F1" stroke-width="0.83" stroke-miterlimit="10"/>
<path d="M68.3405 140.178L61.6924 173.414" stroke="#E7F0F1" stroke-width="0.83" stroke-miterlimit="10"/>
<path d="M39.165 22.9477C39.165 22.9477 39.9385 26.4358 36.8393 28.7612L37.0313 32.6387C37.0313 32.6387 38.1942 36.1269 37.4207 36.5162C36.6473 36.9056 36.4499 36.3243 36.4499 36.3243C36.4499 36.3243 33.9322 32.2548 33.1533 32.0574C32.3798 31.8654 34.8976 37.487 34.8976 37.487C34.8976 37.487 32.3798 41.3645 27.7229 41.9459L28.6938 40.5912C28.6938 40.5912 26.56 41.9459 23.2634 41.7539C19.9668 41.5619 17.4491 36.5217 17.4491 36.5217C17.4491 36.5217 18.0305 37.8764 17.4491 38.4577C16.8677 39.0391 13.5711 33.9989 13.3791 27.604L12.4082 29.54C12.4082 29.54 12.6002 25.0812 14.3445 20.0409C16.0888 15.0007 23.8449 11.3152 28.1124 11.3152C32.3798 11.3152 36.6418 11.7046 37.8047 11.3152C38.9676 10.9258 38.3861 14.2219 38.3861 14.2219C38.3861 14.2219 38.9676 12.8673 39.1596 11.6991C39.933 11.1177 41.0958 15.7686 40.7119 17.5126L40.3224 19.2567C40.3224 19.2567 41.6773 17.5126 41.8747 16.5419C42.6481 16.3499 42.4562 20.6113 39.1596 22.9367L39.165 22.9477Z" fill="#141414"/>
<path d="M36.3504 32.6052C36.3504 32.6052 35.566 30.011 33.4158 31.3767C31.2656 32.7423 34.3209 38.852 36.12 38.3255C37.9192 37.799 36.8221 33.5924 36.3504 32.6052Z" fill="#FFCAB9"/>
<path d="M115.036 77.5448L120.532 76.4479L121.629 74.0566" stroke="#FFCBBA" stroke-width="1.28" stroke-miterlimit="10"/>
<path d="M120.335 76.5801C120.335 76.5801 117.554 78.9055 117.17 79.0974C116.78 79.2894 115.036 79.7446 115.036 79.7446" stroke="#FFCBBA" stroke-width="1.28" stroke-miterlimit="10"/>
<path d="M141.469 59.5834H100.105L105.278 32.7041H146.642L141.469 59.5834Z" fill="#387AB6"/>
<path d="M86.8206 42.0058C86.6725 42.7736 87.265 43.4921 88.0493 43.4921H133.077C133.675 43.4921 134.191 43.0643 134.306 42.4774L134.97 39.0332H87.3966L86.8261 42.0058H86.8206Z" fill="#26C6F8"/>
<path d="M138.54 12.5762H93.5121C92.9142 12.5762 92.3986 13.004 92.2834 13.5908L87.3906 39.0387H134.964L139.769 14.0625C139.917 13.2946 139.325 12.5762 138.54 12.5762Z" fill="#CAE5FF"/>
<path d="M107.752 43.5141C108.344 41.8797 108.712 40.7115 108.712 40.7115C108.712 40.7115 110.072 33.6147 104.022 35.4355C104.022 35.4355 101.921 37.0095 100.934 40.3441C100.626 41.3806 100.259 42.483 99.9023 43.5196H107.752V43.5141Z" fill="#387AB6"/>
<path d="M120.285 43.514C120.175 40.0149 119.956 37.2069 119.577 36.45C118.464 34.4153 113.928 32.5615 113.928 32.5615L107.724 33.4884C107.724 33.4884 105.129 34.2288 104.296 36.0825C104.016 36.7023 103.336 39.7297 102.617 43.514H120.285Z" fill="#DCE4FF"/>
<path d="M108.783 28.3606C108.783 28.3606 108.41 31.1357 107.581 33.1595C107.581 33.1595 107.356 34.7335 110.659 34.0589C113.961 33.3844 113.511 31.7335 113.511 31.7335V25.207L108.788 28.3551L108.783 28.3606Z" fill="#FF8D68"/>
<path d="M104.153 21.4987C104.153 21.4987 104.191 27.7016 105.968 30.6906C107.186 31.9466 111.327 29.9722 113.072 27.3067C114.816 24.6413 114.783 20.6266 113.401 18.3945C112.019 16.1623 107.477 16.8314 106.144 17.6047C104.811 18.378 104.076 20.5115 104.147 21.4987H104.153Z" fill="#FF8D68"/>
<path d="M112.524 25.0028C112.524 25.0028 113.692 23.1984 114.476 24.2734C115.261 25.3483 112.551 27.5421 112.343 26.7085C112.134 25.8749 112.524 25.0028 112.524 25.0028Z" fill="#FBA894"/>
<path d="M104.154 21.4991C104.154 21.4991 101.976 19.585 104.604 17.1115C106.101 15.9872 106.853 16.8099 108.427 16.5137C110.001 16.2121 112.853 16.5137 113.901 18.1645C114.949 19.8153 114.576 23.638 114.274 24.011C113.972 24.3839 113.073 24.6088 113.073 25.2833C113.073 25.9579 112.925 26.4844 112.7 26.4844C112.475 26.4844 112.475 25.3601 112.475 24.532C112.475 23.7038 112.327 22.1298 111.948 21.0055C111.575 19.8812 109.847 19.9579 109.173 20.106C108.498 20.2541 108.048 21.9817 104.148 21.4936L104.154 21.4991Z" fill="#713336"/>
<path opacity="0.53" d="M112.327 23.3643C112.327 23.3643 112.377 23.3368 112.454 23.3092V23.3037L112.333 23.3643H112.327Z" fill="#505E83"/>
<path d="M112.447 23.3089C112.464 23.4296 112.853 27.0219 111.427 28.0255C109.946 29.0127 109.885 27.7458 108.712 27.5649C107.538 27.3839 106.583 27.4387 106.057 28.212C105.596 28.9853 105.684 29.3254 105.256 29.106C105.163 29.3528 105.81 30.8665 106.797 31.2669C107.785 31.6672 110.132 30.4332 111.18 29.5064C112.228 28.5795 112.875 27.9926 113.061 27.1919C113.248 26.3912 113.155 24.8446 113.369 23.7641C113.495 22.9469 112.743 23.1828 112.442 23.3089H112.447ZM107.044 29.9396C105.623 29.6325 105.81 28.5192 107.258 28.0585C107.258 28.0585 108.799 27.351 109.326 28.4314C109.54 29.1389 108.459 30.2522 107.044 29.9451V29.9396Z" fill="#713336"/>
<path d="M113.511 31.2666C113.511 31.2666 111.706 33.5372 108.744 33.8114C108.141 33.581 107.817 32.4677 107.817 32.4677L107.356 33.1642C107.356 33.1642 107.126 34.5518 107.356 35.1112C107.636 35.1551 108.651 34.464 108.651 34.464C108.651 34.464 109.347 35.4348 109.852 35.6213C110.362 35.8077 113.604 33.6304 113.928 32.5664C113.928 32.5664 113.906 31.8041 113.511 31.2721V31.2666Z" fill="white"/>
<path d="M120.756 43.514C120.597 40.0643 120.389 37.4262 120.197 36.8833C119.456 35.1557 116.681 32.9345 113.933 32.5615C113.933 32.5615 112.901 37.322 111.887 43.514H120.762H120.756Z" fill="#387AB6"/>
<path d="M104.773 43.5139C106.227 37.3384 107.351 33.6748 107.351 33.6748C106.517 33.768 105.036 34.4152 104.016 35.4353C103.462 36.5432 102.606 39.7187 101.718 43.5139H104.773Z" fill="#387AB6"/>
<path d="M120.203 43.5141C120.302 40.2124 120.121 37.1576 119.578 36.4501C117.817 34.9693 115.968 35.0625 115.041 36.7298C114.537 37.6402 113.862 40.8212 113.357 43.5141H120.203Z" fill="#387AB6"/>
<path d="M108.651 34.459C108.124 36.5979 107.691 38.7588 107.296 40.9252" stroke="#87B8EB" stroke-width="0.36" stroke-miterlimit="10"/>
<path d="M142.637 17.2963C147.002 13.3434 148.103 7.3091 145.097 3.81834C142.09 0.327572 136.116 0.702215 131.752 4.65512C127.387 8.60803 126.286 14.6423 129.293 18.1331C132.299 21.6239 138.273 21.2492 142.637 17.2963Z" fill="#008183"/>
<path d="M148.397 21.2372C148.046 22.683 146.62 23.8475 145.215 23.8475C143.811 23.8475 142.95 22.6773 143.301 21.2372C143.652 19.7914 145.078 18.627 146.482 18.627C147.887 18.627 148.748 19.7971 148.397 21.2372Z" fill="#6787FF"/>
<path d="M134.794 15.8315C134.503 15.8315 134.235 15.719 134.07 15.4884L131.662 12.203C131.327 11.7474 131.508 10.9992 132.068 10.5435C132.627 10.0822 133.351 10.0822 133.686 10.5435L135.485 13.0019L141.908 7.73074C142.468 7.26944 143.192 7.26944 143.527 7.73074C143.861 8.18641 143.68 8.9346 143.121 9.39027L135.683 15.494C135.403 15.7246 135.085 15.8371 134.789 15.8371L134.794 15.8315Z" fill="white"/>
<path opacity="0.9" d="M160.974 61.4042H124.223C123.839 61.4042 123.554 61.0367 123.653 60.6638L127.081 47.4847C127.147 47.2269 127.382 47.0459 127.651 47.0459H164.402C164.786 47.0459 165.071 47.4134 164.973 47.7863L161.544 60.9655C161.479 61.2232 161.243 61.4042 160.974 61.4042Z" fill="#BFD9FF"/>
<path d="M129.264 49.8652H142.05" stroke="#A9C2FF" stroke-width="1.08" stroke-linecap="round" stroke-linejoin="round"/>
<path d="M128.276 55.7666H141.068" stroke="#A9C2FF" stroke-width="1.08" stroke-linecap="round" stroke-linejoin="round"/>
<path d="M133.657 53.5342H146.443" stroke="#A9C2FF" stroke-width="1.08" stroke-linecap="round" stroke-linejoin="round"/>
<path d="M128.935 51.8281H132.769" stroke="#A9C2FF" stroke-width="1.08" stroke-linecap="round" stroke-linejoin="round"/>
<path d="M128.408 53.5342H132.248" stroke="#A9C2FF" stroke-width="1.08" stroke-linecap="round" stroke-linejoin="round"/>
<path d="M144.079 49.8652H148.637" stroke="#A9C2FF" stroke-width="1.08" stroke-linecap="round" stroke-linejoin="round"/>
<path d="M146.318 58.5312H139.511C139.478 58.5312 139.45 58.4983 139.461 58.4654L139.769 57.2972C139.769 57.2972 139.796 57.2588 139.818 57.2588H146.625C146.658 57.2588 146.685 57.2917 146.674 57.3246L146.367 58.4928C146.367 58.4928 146.34 58.5312 146.318 58.5312Z" stroke="#84AEE5" stroke-width="0.36" stroke-miterlimit="10"/>
<path d="M137.854 58.5312H131.047C131.014 58.5312 130.987 58.4983 130.998 58.4654L131.305 57.2972C131.305 57.2972 131.332 57.2588 131.354 57.2588H138.161C138.194 57.2588 138.222 57.2917 138.211 57.3246L137.903 58.4928C137.903 58.4928 137.876 58.5312 137.854 58.5312Z" stroke="#84AEE5" stroke-width="0.36" stroke-miterlimit="10"/>
<path d="M158.275 56.8358C157.924 56.3696 156.509 56.0351 156.12 55.5689C155.922 55.333 155.922 54.8888 155.966 54.5159C156.103 54.4281 156.218 54.3404 156.29 54.2526C156.405 54.0826 156.542 53.8413 156.674 53.578C156.712 53.6164 156.767 53.6493 156.838 53.6438C157.025 53.6383 157.732 52.6731 157.551 52.4537C157.447 52.3276 157.277 52.4373 157.151 52.5524C157.337 52.1246 157.469 51.7956 157.469 51.7956H157.464C157.48 51.7407 157.496 51.6859 157.513 51.631C157.793 50.5067 157.107 49.5908 155.983 49.5908C154.858 49.5908 153.717 50.5012 153.437 51.631C153.421 51.6859 153.415 51.7407 153.405 51.7956H153.399C153.399 51.7956 153.366 52.1246 153.339 52.5524C153.273 52.4318 153.158 52.3221 152.993 52.4537C152.697 52.6786 152.927 53.6383 153.108 53.6438C153.174 53.6438 153.245 53.6164 153.306 53.578C153.306 53.8413 153.322 54.0826 153.35 54.2526C153.383 54.3513 153.481 54.4665 153.613 54.5707C153.47 54.9327 153.262 55.3385 152.96 55.5634C152.335 56.0296 150.755 56.3641 150.174 56.8303C149.653 57.2471 149.186 58.4702 149.099 58.7115H158.423C158.456 58.4702 158.599 57.2526 158.286 56.8303L158.275 56.8358Z" fill="#387AB6"/>
<path d="M111.142 56.704H80.984C78.3347 56.704 76.7275 54.5596 77.3857 51.9106C78.0439 49.2616 80.7262 47.1172 83.3756 47.1172H113.533C116.183 47.1172 117.79 49.2616 117.132 51.9106C116.473 54.5596 113.791 56.704 111.142 56.704Z" fill="white"/>
<path d="M84.1874 53.1611L82.8929 53.7644C82.7722 53.8193 82.668 53.7315 82.7173 53.6109L83.2549 52.3385C83.2768 52.2891 83.2713 52.2397 83.2439 52.2068L82.5418 51.3074C82.476 51.2251 82.5583 51.077 82.6844 51.0551L84.0063 50.8686C84.0557 50.8631 84.1051 50.8302 84.138 50.7864L84.9992 49.6291C85.0815 49.5195 85.235 49.5195 85.2625 49.6291L85.5477 50.7864C85.5587 50.8302 85.5916 50.8577 85.6355 50.8686L86.8696 51.0551C86.9848 51.0716 86.9958 51.2196 86.8861 51.3074L85.7342 52.2068C85.6903 52.2397 85.6629 52.2891 85.6574 52.3385L85.5587 53.6109C85.5477 53.7315 85.3996 53.8248 85.3063 53.7644L84.3135 53.1611C84.2751 53.1392 84.2258 53.1392 84.1764 53.1611H84.1874Z" fill="#FFA402"/>
<path d="M90.5506 53.1611L89.2561 53.7644C89.1355 53.8193 89.0312 53.7315 89.0806 53.6109L89.6182 52.3385C89.6401 52.2891 89.6346 52.2397 89.6072 52.2068L88.9051 51.3074C88.8393 51.2251 88.9215 51.077 89.0477 51.0551L90.3696 50.8686C90.419 50.8631 90.4684 50.8302 90.5013 50.7864L91.3625 49.6291C91.4447 49.5195 91.5983 49.5195 91.6257 49.6291L91.911 50.7864C91.9219 50.8302 91.9549 50.8577 91.9987 50.8686L93.2329 51.0551C93.3481 51.0716 93.3591 51.2196 93.2494 51.3074L92.0975 52.2068C92.0536 52.2397 92.0262 52.2891 92.0207 52.3385L91.9219 53.6109C91.911 53.7315 91.7629 53.8248 91.6696 53.7644L90.6768 53.1611C90.6384 53.1392 90.589 53.1392 90.5397 53.1611H90.5506Z" fill="#FFA402"/>
<path d="M96.9188 53.1611L95.6243 53.7644C95.5036 53.8193 95.3994 53.7315 95.4488 53.6109L95.9863 52.3385C96.0083 52.2891 96.0028 52.2397 95.9754 52.2068L95.2732 51.3074C95.2074 51.2251 95.2897 51.077 95.4159 51.0551L96.7378 50.8686C96.7872 50.8631 96.8365 50.8302 96.8694 50.7864L97.7306 49.6291C97.8129 49.5195 97.9665 49.5195 97.9939 49.6291L98.2791 50.7864C98.2901 50.8302 98.323 50.8577 98.3669 50.8686L99.6011 51.0551C99.7163 51.0716 99.7272 51.2196 99.6175 51.3074L98.4656 52.2068C98.4217 52.2397 98.3943 52.2891 98.3888 52.3385L98.2901 53.6109C98.2791 53.7315 98.131 53.8248 98.0378 53.7644L97.045 53.1611C97.0066 53.1392 96.9572 53.1392 96.9078 53.1611H96.9188Z" fill="#FFA402"/>
<path d="M103.287 53.1611L101.992 53.7644C101.872 53.8193 101.768 53.7315 101.817 53.6109L102.354 52.3385C102.376 52.2891 102.371 52.2397 102.344 52.2068L101.641 51.3074C101.576 51.2251 101.658 51.077 101.784 51.0551L103.106 50.8686C103.155 50.8631 103.205 50.8302 103.238 50.7864L104.099 49.6291C104.181 49.5195 104.335 49.5195 104.362 49.6291L104.647 50.7864C104.658 50.8302 104.691 50.8577 104.735 50.8686L105.969 51.0551C106.084 51.0716 106.095 51.2196 105.986 51.3074L104.834 52.2068C104.79 52.2397 104.762 52.2891 104.757 52.3385L104.658 53.6109C104.647 53.7315 104.499 53.8248 104.406 53.7644L103.413 53.1611C103.375 53.1392 103.325 53.1392 103.276 53.1611H103.287Z" fill="#FFA402"/>
<path d="M109.655 53.1611L108.361 53.7644C108.24 53.8193 108.136 53.7315 108.185 53.6109L108.723 52.3385C108.745 52.2891 108.739 52.2397 108.712 52.2068L108.01 51.3074C107.944 51.2251 108.026 51.077 108.152 51.0551L109.474 50.8686C109.523 50.8631 109.573 50.8302 109.606 50.7864L110.467 49.6291C110.549 49.5195 110.703 49.5195 110.73 49.6291L111.015 50.7864C111.026 50.8302 111.059 50.8577 111.103 50.8686L112.337 51.0551C112.453 51.0716 112.464 51.2196 112.354 51.3074L111.202 52.2068C111.158 52.2397 111.131 52.2891 111.125 52.3385L111.026 53.6109C111.015 53.7315 110.867 53.8248 110.774 53.7644L109.781 53.1611C109.743 53.1392 109.694 53.1392 109.644 53.1611H109.655Z" fill="#C2D4D9"/>
<path d="M36.9922 38.2111C38.3676 38.2111 39.4825 36.6544 39.4825 34.734C39.4825 32.8136 38.3676 31.2568 36.9922 31.2568C35.6169 31.2568 34.502 32.8136 34.502 34.734C34.502 36.6544 35.6169 38.2111 36.9922 38.2111Z" fill="#387AB6"/>
<path d="M37.3701 35.0352C37.3701 35.0352 44.3199 42.7408 44.3199 43.9474C44.3199 45.154 42.0545 45.0059 42.0545 45.0059" stroke="#387AB6" stroke-width="1.1" stroke-miterlimit="10"/>
<path d="M42.5826 45.0065C42.5826 45.5056 42.1767 45.9114 41.6775 45.9114C41.1784 45.9114 40.7725 45.5056 40.7725 45.0065C40.7725 44.5074 41.1784 44.1016 41.6775 44.1016C42.1767 44.1016 42.5826 44.5074 42.5826 45.0065Z" fill="#387AB6"/>
<path d="M25.0127 135.187C27.481 139.442 35.2262 142.552 44.4029 142.552C53.5797 142.552 61.3248 139.442 63.7931 135.187H25.0127Z" fill="#A3A3A9"/>
<path d="M77.3577 113.348L72.7062 134.797H69.8594L72.4484 113.863L77.3577 113.348Z" fill="#DDDDDD"/>
<path d="M44.2383 109.985H81.7571C84.0389 109.985 85.8929 111.839 85.8929 114.121V115.157H44.2383V109.985Z" fill="#DDDDDD"/>
<path d="M10.1479 132.472L0.0660796 83.9947C-0.334341 82.0696 1.1357 80.2598 3.10488 80.2598H36.4659C38.3035 80.2598 39.8887 81.5486 40.2617 83.3475L50.4751 132.472" fill="#DDDDDD"/>
<path d="M78.6583 137.792H15.3042C13.1649 137.792 11.2835 136.382 10.6856 134.331L10.1426 132.478H78.6528V137.797L78.6583 137.792Z" fill="#DDDDDD"/>
<path d="M47.5028 140.227H42.4619V185.199H47.5028V140.227Z" fill="#A3A3A9"/>
<path d="M47.5028 148.563L42.4619 152.632V140.227H47.5028V148.563Z" fill="#A3A3A9"/>
<path d="M47.3486 178.497H45.5056H45.0449H43.1963L24.2998 186H66.2452L47.3486 178.497Z" fill="#A3A3A9"/>
<path d="M4.50977 83.5781H34.4974" stroke="#A3A3A9" stroke-miterlimit="10"/>
<path d="M37.6025 87.0498L42.7257 112.827" stroke="#A3A3A9" stroke-miterlimit="10"/>
<path d="M43.6357 117.4L44.7328 124.892" stroke="#A3A3A9" stroke-miterlimit="10"/>
<path d="M180.573 45.9495H156.427C155.182 45.9495 154.233 44.8361 154.425 43.6076L154.606 42.4504C154.76 41.4632 155.61 40.7393 156.608 40.7393H180.754C181.999 40.7393 182.948 41.8526 182.756 43.0811L182.575 44.2383C182.422 45.2255 181.571 45.9495 180.573 45.9495Z" fill="#CAE5FF"/>
<path d="M157.436 43.3936H178.279" stroke="white" stroke-width="2" stroke-miterlimit="10"/>
<path d="M92.6226 15.9707H86.0403C82.9083 15.9707 79.8311 18.51 79.1674 21.6361C78.5036 24.7678 80.5003 27.3016 83.6323 27.3016H85.0585C86.6547 31.0804 90.4285 30.5923 90.4285 30.5923C89.7154 29.1718 89.5618 28.0365 89.5673 27.3016H90.2146C93.3466 27.3016 96.4238 24.7623 97.0875 21.6361C97.7512 18.5045 95.7546 15.9707 92.6226 15.9707Z" fill="#FF634D"/>
<path d="M83.2373 20.5391H89.4575" stroke="white" stroke-width="2" stroke-miterlimit="10"/>
<path d="M82.7158 23.0078H92.8141" stroke="white" stroke-width="2" stroke-miterlimit="10"/>
<path d="M156.816 166.443C156.816 166.443 155.319 147.379 160.93 134.672C163.173 131.683 164.671 132.802 164.671 132.802C164.671 132.802 165.417 140.65 163.552 148.125C161.681 155.601 160.563 170.178 160.563 170.178L156.822 166.438L156.816 166.443Z" fill="#61A27D"/>
<path d="M155.698 164.946C155.698 164.946 155.325 155.973 145.978 148.125C136.631 140.277 134.761 140.277 134.761 140.277C134.761 140.277 142.237 139.904 147.47 143.266C152.703 146.628 154.573 155.973 154.946 157.471C155.319 158.968 157.563 164.946 157.563 164.946H155.692H155.698Z" fill="#578B71"/>
<path d="M161.76 166.323C161.76 166.323 163.509 157.515 173.953 151.202C184.397 144.884 186.246 145.175 186.246 145.175C186.246 145.175 178.917 143.656 173.224 146.173C167.536 148.691 164.244 157.636 163.647 159.056C163.049 160.477 159.911 166.038 159.911 166.038L161.76 166.329V166.323Z" fill="#578B71"/>
<path d="M157.568 164.946C157.568 164.946 147.848 132.796 139.247 125.321C139.62 124.202 149.713 127.564 152.708 135.785C155.697 144.007 156.449 156.347 157.568 159.709C158.687 163.071 160.184 166.065 160.184 166.065" fill="#7CC97D"/>
<path d="M156.816 166.443C156.816 166.443 160.557 148.876 170.277 142.893C171.023 145.136 160.184 163.454 161.303 171.675C162.422 179.896 156.816 166.443 156.816 166.443Z" fill="#7CC97D"/>
<path d="M151.479 186.243H165.856C166.739 180.248 167.485 174.857 167.622 172.795C167.907 168.55 166.476 164.946 165.763 163.449H151.572C150.859 164.946 149.428 168.544 149.713 172.795C149.85 174.857 150.596 180.248 151.479 186.243Z" fill="#FFCAB9"/>
</g>
<defs>
<clipPath id="clip0_1009_7991">
<rect width="188" height="186" fill="white"/>
</clipPath>
</defs>
</svg>
