<svg width="263" height="64" viewBox="0 0 263 64" fill="none" xmlns="http://www.w3.org/2000/svg">
<path d="M16.3223 13.4082V16.4753H3.77212V26.2052H13.9604V29.2723H3.77212V42.2808H0V13.4082H16.3223Z" fill="white"/>
<path d="M39.0673 42.2808L32.1929 30.4797H27.6364V42.2808H23.8643V13.4082H33.18C35.3657 13.4082 37.2077 13.7784 38.706 14.5275C40.213 15.2767 41.3323 16.2814 42.0815 17.5505C42.8306 18.8196 43.2008 20.2738 43.2008 21.8955C43.2008 23.8873 42.6279 25.6412 41.4822 27.1571C40.3364 28.673 38.6178 29.6865 36.3264 30.18L43.5797 42.272H39.0673V42.2808ZM27.6364 27.4479H33.1888C35.2335 27.4479 36.767 26.9455 37.7894 25.9408C38.8117 24.9361 39.3229 23.5876 39.3229 21.9043C39.3229 20.2209 38.8205 18.8637 37.807 17.9295C36.8023 16.9864 35.2599 16.5193 33.1888 16.5193H27.6364V27.4567V27.4479Z" fill="white"/>
<path d="M55.7975 16.4773V26.1279H66.3206V29.239H55.7975V39.1805H67.5633V42.2916H52.0342V13.375H67.5633V16.4773H55.7975Z" fill="white"/>
<path d="M80.2986 41.5592C78.7915 40.8805 77.6105 39.9463 76.7556 38.7389C75.9007 37.5403 75.46 36.1478 75.4336 34.579H79.4525C79.5935 35.9362 80.1487 37.0732 81.127 37.9986C82.1053 38.924 83.5331 39.3823 85.4103 39.3823C87.2876 39.3823 88.6184 38.9328 89.6584 38.0338C90.6895 37.1348 91.2095 35.9803 91.2095 34.579C91.2095 33.4773 90.901 32.5783 90.3017 31.8909C89.6936 31.2035 88.9357 30.6747 88.0279 30.3133C87.1201 29.952 85.8862 29.5642 84.3439 29.15C82.4402 28.6564 80.9155 28.154 79.7698 27.6605C78.624 27.1669 77.6457 26.3826 76.8261 25.3161C76.0153 24.2497 75.601 22.822 75.601 21.024C75.601 19.4464 75.9977 18.0539 76.7997 16.8377C77.6017 15.6214 78.7298 14.6872 80.1752 14.0174C81.6206 13.3476 83.2863 13.0215 85.1635 13.0215C87.8692 13.0215 90.0814 13.7001 91.8088 15.0486C93.5362 16.4058 94.5057 18.1949 94.726 20.4335H90.5838C90.4427 19.3319 89.8699 18.3536 88.8475 17.5163C87.8252 16.6702 86.4679 16.256 84.7846 16.256C83.207 16.256 81.929 16.6614 80.9331 17.4811C79.9372 18.2919 79.4437 19.4376 79.4437 20.9006C79.4437 21.9494 79.7433 22.8043 80.3338 23.4653C80.9243 24.1263 81.6558 24.6287 82.5284 24.9812C83.4009 25.3249 84.6171 25.7215 86.1947 26.1622C88.0984 26.691 89.6319 27.2022 90.7953 27.7134C91.9586 28.2245 92.9457 29.0089 93.7742 30.0753C94.6027 31.1418 95.0169 32.5783 95.0169 34.4027C95.0169 35.8128 94.6467 37.1349 93.8976 38.3775C93.1484 39.6202 92.0468 40.6249 90.5838 41.4005C89.1207 42.1761 87.3933 42.5639 85.4015 42.5639C83.4097 42.5639 81.788 42.229 80.2898 41.5504L80.2986 41.5592Z" fill="white"/>
<path d="M125.8 13.4082V42.2808H122.028V29.1929H107.318V42.2808H103.546V13.4082H107.318V26.0818H122.028V13.4082H125.8Z" fill="white"/>
<path d="M135.249 20.0187C136.491 17.7713 138.228 16.0175 140.449 14.7571C142.67 13.4968 145.19 12.8711 148.011 12.8711C151.465 12.8711 154.418 13.7789 156.877 15.6032C159.336 17.4276 160.975 19.913 161.803 23.0593H154.012C153.431 21.8431 152.611 20.9177 151.545 20.2831C150.478 19.6486 149.271 19.3313 147.922 19.3313C145.737 19.3313 143.974 20.0892 142.617 21.6051C141.26 23.121 140.59 25.1569 140.59 27.6952C140.59 30.2334 141.268 32.2693 142.617 33.7852C143.965 35.3011 145.737 36.059 147.922 36.059C149.28 36.059 150.487 35.7418 151.545 35.1072C152.611 34.4727 153.431 33.5472 154.012 32.331H161.803C160.975 35.4774 159.336 37.9539 156.877 39.7695C154.418 41.5762 151.465 42.484 148.011 42.484C145.19 42.484 142.67 41.8582 140.449 40.5979C138.228 39.3376 136.491 37.5926 135.249 35.354C134.006 33.1154 133.38 30.5595 133.38 27.6864C133.38 24.8132 134.006 22.2573 135.249 20.0011V20.0187Z" fill="white"/>
<path d="M234.398 13.207V18.8828H226.695V42.2823H219.609V18.8828H211.906V13.207H234.398Z" fill="white"/>
<path d="M245.749 41.5333C244.066 40.8459 242.718 39.8236 241.713 38.4663C240.708 37.1179 240.171 35.4874 240.118 33.5749H247.653C247.759 34.6501 248.138 35.4698 248.772 36.0426C249.407 36.6155 250.235 36.8887 251.258 36.8887C252.28 36.8887 253.135 36.6507 253.743 36.166C254.351 35.6813 254.651 35.0114 254.651 34.1565C254.651 33.4427 254.413 32.8434 253.928 32.3763C253.443 31.9092 252.853 31.5214 252.148 31.2129C251.443 30.9132 250.438 30.5607 249.143 30.1817C247.265 29.6 245.732 29.0183 244.542 28.4455C243.352 27.8638 242.33 27.0089 241.475 25.8808C240.62 24.7527 240.188 23.2721 240.188 21.4477C240.188 18.742 241.166 16.618 243.132 15.0932C245.088 13.5597 247.644 12.793 250.791 12.793C253.937 12.793 256.572 13.5597 258.538 15.0932C260.503 16.6268 261.552 18.7596 261.684 21.4918H254.016C253.963 20.5487 253.62 19.8172 252.985 19.2796C252.351 18.742 251.54 18.4688 250.544 18.4688C249.689 18.4688 248.993 18.6979 248.473 19.1562C247.944 19.6145 247.688 20.2667 247.688 21.1216C247.688 22.0646 248.129 22.7961 249.01 23.3161C249.892 23.8449 251.275 24.409 253.153 25.0171C255.03 25.6517 256.555 26.2598 257.727 26.8415C258.899 27.4232 259.912 28.2604 260.767 29.3709C261.622 30.4726 262.054 31.9003 262.054 33.6366C262.054 35.3728 261.631 36.8006 260.794 38.149C259.948 39.5063 258.731 40.5815 257.127 41.3835C255.523 42.1855 253.637 42.5821 251.452 42.5821C249.266 42.5821 247.415 42.2384 245.732 41.551L245.749 41.5333Z" fill="white"/>
<g clip-path="url(#clip0_3612_4315)">
<path d="M183.73 41.2871C193.152 43.0756 202.239 36.888 204.027 27.4669C205.816 18.0457 199.628 8.95844 190.207 7.16997C180.786 5.38149 171.699 11.569 169.91 20.9902C168.122 30.4114 174.309 39.4986 183.73 41.2871Z" stroke="white" stroke-width="4.58129" stroke-miterlimit="10"/>
<path d="M199.752 38.0458C199.752 38.0458 200.778 40.1885 200.531 40.5381C200.531 40.5381 214.755 53.6319 214.627 53.865C214.627 53.865 214.814 60.6137 214.14 60.938C214.14 60.938 209.855 60.7575 206.776 58.9834L197.705 42.8888C197.705 42.8888 197.435 43.1783 195.229 41.2361" fill="white"/>
</g>
<defs>
<clipPath id="clip0_3612_4315">
<rect width="57.0283" height="54.3166" fill="white" transform="translate(170.574) rotate(10.7489)"/>
</clipPath>
</defs>
</svg>
