<svg width="181" height="167" viewBox="0 0 181 167" fill="none" xmlns="http://www.w3.org/2000/svg">
<g clip-path="url(#clip0_976_6019)">
<path d="M93.0683 0.999029C90.9124 -0.01457 88.5152 -0.128886 86.9912 0.103556C85.5629 0.320756 83.4989 0.86185 81.7603 2.21459C80.6805 3.05671 79.8763 4.10461 79.3709 5.32778C78.7735 6.77959 78.5897 8.49052 78.8271 10.4148C78.8616 10.7044 79.0109 10.9597 79.2445 11.135C79.4781 11.3103 79.7691 11.3865 80.0601 11.3408L83.8014 10.773C84.3298 10.693 84.7242 10.2319 84.7166 9.70226C84.7051 8.50957 85.0995 6.43665 87.8911 5.96414C90.0202 5.60595 91.1345 7.00822 91.5136 7.62934C92.1339 8.63913 92.2144 9.93471 91.728 11.0969C90.9813 12.8802 89.1892 13.4099 88.1859 13.5623C87.0333 13.7414 86.2368 14.816 86.413 15.9553L87.0256 19.964C87.1137 20.5508 87.6651 20.9509 88.2549 20.8633L91.9004 20.3108C92.4901 20.2231 92.8922 19.6744 92.8041 19.0876L92.6739 18.2455C92.6739 18.2264 92.6815 18.2074 92.7007 18.1959C93.4819 17.7844 94.9753 16.8432 96.2007 15.197C97.763 13.0974 98.3374 10.6054 97.9047 7.78938C97.2882 3.76166 94.9293 1.86783 93.0606 0.991408L93.0683 0.999029Z" fill="#EBEBEB"/>
<path d="M90.4184 21.5723L90.1006 21.6219C88.5765 21.8543 87.5235 23.2756 87.7571 24.7922C87.9906 26.3088 89.419 27.3567 90.943 27.1243L91.2609 27.0747C92.7849 26.8423 93.838 25.421 93.6044 23.9044C93.3708 22.3878 91.9425 21.3399 90.4184 21.5723Z" fill="#EBEBEB"/>
<path d="M17.9677 65.6786C16.884 64.3297 15.3562 63.4952 14.2878 63.1598C13.2845 62.8474 11.7604 62.5425 10.1904 62.8741C9.21394 63.0798 8.35235 63.5104 7.62861 64.1506C6.77084 64.9089 6.10071 65.9682 5.6412 67.3019C5.57227 67.5 5.58758 67.7172 5.68332 67.9039C5.77905 68.0945 5.94371 68.2355 6.15049 68.2964L8.7774 69.1157C9.14884 69.23 9.55475 69.0547 9.71941 68.708C10.0947 67.923 11.0175 66.696 12.9973 67.279C14.5022 67.721 14.7818 68.9938 14.8315 69.5196C14.912 70.377 14.5482 71.2496 13.8589 71.8517C12.7982 72.7814 11.4579 72.5528 10.7533 72.3356C9.94151 72.0841 9.07609 72.5337 8.82335 73.3339L7.93495 76.1461C7.80476 76.5576 8.03451 76.9959 8.44808 77.1254L11.0061 77.9256C11.4196 78.0552 11.86 77.8266 11.9902 77.415L12.1778 76.8244C12.1778 76.8244 12.197 76.8015 12.2085 76.8015C12.8518 76.7787 14.1308 76.6415 15.4595 75.9556C17.1559 75.0792 18.3315 73.635 18.9557 71.6573C19.8479 68.8299 18.9136 66.8408 17.9754 65.671L17.9677 65.6786Z" fill="#EBEBEB"/>
<path d="M9.62427 78.2798L9.40217 78.2113C8.32997 77.8759 7.18883 78.4704 6.85185 79.5373C6.51487 80.6043 7.11225 81.7398 8.18445 82.0751L8.40655 82.1437C9.47876 82.479 10.6199 81.8846 10.9569 80.8177C11.2939 79.7507 10.6965 78.6152 9.62427 78.2798Z" fill="#EBEBEB"/>
<path d="M131.461 156.979C140.781 156.575 152.603 153.614 159.832 147.563C149.853 147.818 139.759 151.168 131.461 156.979Z" fill="#EBEBEB"/>
<path d="M137.943 146.008C147.264 145.604 159.085 142.643 166.315 136.592C156.336 136.848 146.241 140.197 137.943 146.008Z" fill="#EBEBEB"/>
<path d="M144.913 135.559C154.234 135.155 166.055 132.195 173.284 126.144C163.305 126.399 153.211 129.748 144.913 135.559Z" fill="#EBEBEB"/>
<path d="M152.69 124.783C161.961 123.248 173.388 118.888 179.802 112.056C169.85 113.531 160.207 118.058 152.69 124.783Z" fill="#EBEBEB"/>
<path d="M159.529 116.831C167.762 112.144 176.934 104.146 180.349 95.7017C171.442 100.575 164.036 108.09 159.529 116.831Z" fill="#EBEBEB"/>
<path d="M156.213 120.592C158.748 111.393 159.537 99.0243 155.815 90.2524C152.928 100.053 153.07 110.845 156.213 120.592Z" fill="#EBEBEB"/>
<path d="M149.619 129.383C151.415 119.624 151.097 106.707 146.403 97.8813C144.293 108.292 145.438 119.498 149.619 129.383Z" fill="#EBEBEB"/>
<path d="M141.762 140.166C143.558 130.407 143.24 117.49 138.545 108.665C136.435 119.075 137.58 130.282 141.762 140.166Z" fill="#EBEBEB"/>
<path d="M133.383 153.827C135.179 144.069 134.861 131.151 130.166 122.326C128.056 132.736 129.201 143.943 133.383 153.827Z" fill="#EBEBEB"/>
<path d="M130.189 158.868C128.837 161.349 127.781 163.376 127.084 164.79C126.743 165.476 126.475 166.021 126.279 166.421C126.199 166.592 126.134 166.733 126.076 166.848C126.034 166.947 126.015 166.996 126.019 167C126.023 167 126.054 166.958 126.107 166.867C126.168 166.756 126.245 166.619 126.341 166.455C126.551 166.063 126.839 165.529 127.202 164.855C127.938 163.46 129.029 161.452 130.407 158.99C131.778 156.525 133.471 153.621 135.397 150.424C137.338 147.239 139.533 143.771 141.922 140.189C146.713 133.033 151.4 126.791 154.9 122.364C156.65 120.146 158.086 118.37 159.089 117.151C159.571 116.556 159.954 116.084 160.234 115.737C160.353 115.588 160.448 115.463 160.525 115.364C160.59 115.28 160.621 115.234 160.617 115.23C160.613 115.226 160.571 115.265 160.498 115.341C160.414 115.436 160.307 115.55 160.18 115.691C159.885 116.027 159.487 116.484 158.982 117.063C157.944 118.256 156.477 120.012 154.701 122.211C151.147 126.605 146.422 132.831 141.623 139.999" fill="#E0E0E0"/>
<path d="M114.102 94.7184C117.502 86.3619 119.643 74.7741 117.184 65.9756C113.386 74.8541 112.291 85.0777 114.102 94.7184Z" fill="#EBEBEB"/>
<path d="M106.979 84.5904C110.379 76.234 112.52 64.6462 110.061 55.8477C106.263 64.7262 105.168 74.9498 106.979 84.5904Z" fill="#EBEBEB"/>
<path d="M100.515 74.2482C103.915 65.8917 106.056 54.3039 103.598 45.5054C99.7988 54.3839 98.7037 64.6075 100.515 74.2482Z" fill="#EBEBEB"/>
<path d="M94.0853 63.0647C96.4595 54.2928 97.1986 42.4878 93.7216 34.0933C91.0181 43.4367 91.1483 53.7403 94.0853 63.0647Z" fill="#EBEBEB"/>
<path d="M89.7811 53.847C88.9386 44.717 85.5382 33.4264 79.4189 27.0171C80.1542 36.8139 83.838 46.3555 89.7811 53.847Z" fill="#EBEBEB"/>
<path d="M91.7846 58.2746C84.6391 52.334 73.9745 46.6525 64.6846 46.3857C72.2245 52.8789 81.8629 57.1086 91.7846 58.2746Z" fill="#EBEBEB"/>
<path d="M96.9276 67.6216C88.9894 62.104 77.3904 57.1769 67.6602 57.7409C76.054 63.7958 86.4621 67.3091 96.9276 67.6216Z" fill="#EBEBEB"/>
<path d="M103.33 78.8784C95.3918 73.3608 83.7928 68.4338 74.0625 68.9977C82.4563 75.0527 92.8644 78.566 103.33 78.8784Z" fill="#EBEBEB"/>
<path d="M112.08 91.7539C104.142 86.2363 92.5428 81.3093 82.8125 81.8732C91.2063 87.9282 101.614 91.4415 112.08 91.7539Z" fill="#EBEBEB"/>
<path d="M115.273 96.5973C116.931 98.7845 118.302 100.534 119.279 101.719C119.754 102.294 120.125 102.747 120.401 103.083C120.519 103.224 120.619 103.338 120.699 103.433C120.768 103.51 120.807 103.548 120.81 103.544C120.814 103.544 120.787 103.494 120.726 103.411C120.653 103.311 120.565 103.19 120.454 103.041C120.19 102.698 119.834 102.229 119.382 101.639C118.44 100.427 117.1 98.6588 115.469 96.4563C113.83 94.2576 111.934 91.5979 109.874 88.6143C107.829 85.623 105.635 82.2964 103.418 78.7488C98.9949 71.6498 95.3456 65.0119 92.8259 60.1458C91.5622 57.7147 90.5628 55.7332 89.8888 54.3576C89.5556 53.6946 89.2914 53.1649 89.0961 52.7801C89.0119 52.6162 88.9391 52.4829 88.8817 52.3724C88.8319 52.2809 88.8051 52.2352 88.7974 52.239C88.7936 52.239 88.8089 52.2923 88.8511 52.3876C88.9008 52.5019 88.9621 52.6391 89.0349 52.8106C89.2148 53.2031 89.4599 53.7403 89.7701 54.4148C90.4096 55.8095 91.3784 57.8062 92.6114 60.2563C95.0813 65.1529 98.7 71.8213 103.131 78.9279" fill="#E0E0E0"/>
<path d="M178.982 62.0015C177.412 60.1457 175.237 59.0216 173.72 58.591C172.304 58.1871 170.151 57.8137 167.957 58.3357C166.594 58.6596 165.399 59.2922 164.404 60.2143C163.224 61.3079 162.324 62.8207 161.719 64.7107C161.627 64.9927 161.658 65.2937 161.8 65.5567C161.941 65.8196 162.179 66.0101 162.47 66.094L166.188 67.1533C166.713 67.3019 167.276 67.0428 167.498 66.5474C167.996 65.4347 169.252 63.6781 172.051 64.425C174.184 64.9965 174.616 66.7722 174.705 67.5077C174.846 68.708 174.368 69.9464 173.418 70.819C171.959 72.1603 170.067 71.8898 169.072 71.6078C167.923 71.2839 166.724 71.9431 166.399 73.0787L165.25 77.0606C165.081 77.6437 165.422 78.2495 166.004 78.4172L169.627 79.4498C170.213 79.6175 170.822 79.2784 170.99 78.6992L171.231 77.8609C171.235 77.8418 171.254 77.8266 171.277 77.8266C172.181 77.7732 173.973 77.537 175.811 76.5272C178.162 75.2392 179.763 73.1663 180.571 70.3694C181.724 66.3645 180.345 63.6057 178.982 61.9976V62.0015Z" fill="#EBEBEB"/>
<path d="M167.708 79.9914L167.39 79.9C165.874 79.4694 164.288 80.342 163.852 81.8509C163.419 83.3599 164.296 84.9375 165.812 85.3719L166.13 85.4633C167.647 85.8939 169.232 85.0213 169.665 83.5123C170.097 82.0034 169.22 80.4258 167.704 79.9914H167.708Z" fill="#EBEBEB"/>
<path d="M56.2638 94.5855C54.4563 93.2403 52.2583 92.684 50.7994 92.6116C49.4361 92.543 47.4181 92.6573 45.5494 93.5871C44.3891 94.1625 43.4432 94.9856 42.7425 96.0258C41.9115 97.2604 41.4175 98.8113 41.272 100.64C41.2491 100.915 41.341 101.181 41.5209 101.387C41.7047 101.597 41.9575 101.719 42.237 101.73L45.8136 101.909C46.3191 101.936 46.7709 101.582 46.8667 101.09C47.0811 99.9812 47.8431 98.1369 50.5236 98.2245C52.5647 98.2931 53.3305 99.8021 53.5679 100.45C53.9509 101.502 53.7786 102.717 53.1084 103.704C52.0783 105.217 50.313 105.369 49.3557 105.324C48.2529 105.274 47.3109 106.12 47.2534 107.21L47.0581 111.039C47.0313 111.599 47.464 112.076 48.0269 112.106L51.5116 112.282C52.0745 112.308 52.5532 111.878 52.5838 111.317L52.6259 110.513C52.6259 110.494 52.6413 110.479 52.6604 110.472C53.4646 110.235 55.0269 109.645 56.4744 108.353C58.3201 106.699 59.3272 104.497 59.4651 101.806C59.6604 97.9578 57.8338 95.7553 56.2676 94.5893L56.2638 94.5855Z" fill="#EBEBEB"/>
<path d="M49.8955 113.162L49.5892 113.146C48.1302 113.074 46.8857 114.194 46.8129 115.646C46.7402 117.098 47.866 118.336 49.3249 118.409L49.6313 118.424C51.0902 118.496 52.3348 117.376 52.4075 115.924C52.4803 114.472 51.3545 113.234 49.8955 113.162Z" fill="#EBEBEB"/>
<path d="M37.665 162.424H40.9736C42.9227 155.519 43.857 147.837 42.5819 141.413C39.595 147.852 37.9216 155.104 37.665 162.424Z" fill="#EBEBEB"/>
<path d="M37.0372 130.385C32.9705 139.157 31.3277 149.434 32.4038 159.334C32.442 159.41 32.4765 159.49 32.5148 159.566C36.1948 151.198 38.8523 139.519 37.0372 130.385Z" fill="#EBEBEB"/>
<path d="M28.306 118.043C25.3229 127.085 24.7715 137.195 26.7168 146.614C26.8355 146.9 26.958 147.193 27.0844 147.487C29.7764 138.654 31.0937 126.769 28.3098 118.043H28.306Z" fill="#EBEBEB"/>
<path d="M22.62 136.543C22.5894 136.444 22.5741 136.391 22.5779 136.387C22.5817 136.387 22.6085 136.433 22.6506 136.528C22.7004 136.646 22.7579 136.787 22.8306 136.958C22.8881 137.103 22.957 137.279 23.0297 137.461C23.1599 137.671 23.2863 137.888 23.4242 138.094C23.1523 128.659 20.5752 116.843 15.1299 109.881C15.2563 119.59 17.9865 129.223 22.8191 137.118C22.8038 137.077 22.7847 137.027 22.7732 136.985C22.7119 136.806 22.6621 136.661 22.6238 136.539L22.62 136.543Z" fill="#EBEBEB"/>
<path d="M24.902 142.739C24.8752 142.666 24.8484 142.598 24.8178 142.525C18.3692 136.063 8.70019 129.714 0 128.876C6.74724 135.975 15.6006 140.898 24.902 142.739Z" fill="#EBEBEB"/>
<path d="M29.4168 152.695C29.3823 152.665 29.344 152.634 29.3096 152.604C29.3211 152.631 29.3325 152.661 29.3479 152.688C29.3708 152.688 29.3938 152.695 29.4206 152.695H29.4168Z" fill="#EBEBEB"/>
<path d="M2.1718 140.731C9.69256 147.38 19.2161 151.602 28.9961 152.65C28.9272 152.49 28.8583 152.334 28.7893 152.178C21.5787 146.214 11.186 140.754 2.16797 140.731H2.1718Z" fill="#EBEBEB"/>
<path d="M7.60547 152.696C12.53 157.051 18.316 160.359 24.4736 162.424H32.0403C25.0097 157.169 15.7466 152.715 7.60547 152.696Z" fill="#EBEBEB"/>
<path d="M25.737 144.857C26.5909 147.003 27.6171 149.476 28.7927 152.173C28.8617 152.33 28.9306 152.486 28.9995 152.646C30.3283 155.679 31.8485 158.983 33.5296 162.424H33.8972C33.4224 161.46 32.9629 160.507 32.5148 159.566C32.4765 159.49 32.4421 159.41 32.4038 159.333C31.3048 157.017 30.2823 154.787 29.3442 152.688C29.3327 152.661 29.3212 152.631 29.3059 152.604C28.4979 150.786 27.755 149.072 27.0849 147.483C26.9585 147.189 26.836 146.896 26.7173 146.61C26.4492 145.97 26.1926 145.349 25.9476 144.758C24.8907 142.178 24.0521 140.083 23.4892 138.627C23.3092 138.174 23.1598 137.793 23.0258 137.461C22.953 137.278 22.8841 137.103 22.8267 136.958C22.7539 136.787 22.6965 136.642 22.6467 136.527C22.6046 136.432 22.5816 136.383 22.5739 136.386C22.5701 136.386 22.5816 136.44 22.6161 136.543C22.6582 136.661 22.7041 136.809 22.7654 136.988C22.7807 137.03 22.796 137.08 22.8114 137.122C22.953 137.522 23.1369 138.04 23.3666 138.684C23.7227 139.686 24.2129 140.986 24.8141 142.529C24.8409 142.598 24.8677 142.67 24.8983 142.742C25.1587 143.409 25.4344 144.114 25.7331 144.861L25.737 144.857Z" fill="#E0E0E0"/>
<path d="M173.709 162.275C173.709 162.332 135.922 162.378 89.3228 162.378C42.7239 162.378 4.9248 162.332 4.9248 162.275C4.9248 162.218 42.7048 162.172 89.3228 162.172C135.941 162.172 173.709 162.218 173.709 162.275Z" fill="#263238"/>
<path d="M24.8226 40.2986C31.1749 37.8506 34.3301 30.7419 31.8701 24.4208C29.41 18.0996 22.2662 14.9599 15.9139 17.4079C9.56165 19.8558 6.40638 26.9646 8.86644 33.2857C11.3265 39.6068 18.4703 42.7466 24.8226 40.2986Z" fill="white"/>
<path d="M32.7041 28.8531C32.7041 28.8531 32.6965 28.7845 32.685 28.655C32.6773 28.5178 32.662 28.3235 32.6467 28.072C32.639 27.9424 32.6314 27.8014 32.6199 27.6414C32.6046 27.4851 32.5701 27.3137 32.5433 27.127C32.5127 26.9402 32.482 26.7421 32.4476 26.5287C32.4208 26.3153 32.3404 26.0943 32.2867 25.8581C32.0685 24.9092 31.6243 23.7889 30.9197 22.6039C30.2113 21.4226 29.1888 20.1842 27.795 19.1363C27.6188 19.0067 27.4427 18.8772 27.2627 18.7438C27.0751 18.6219 26.8798 18.5114 26.6845 18.3932C26.4853 18.2827 26.2977 18.1456 26.0871 18.0503C25.8765 17.9512 25.6659 17.8483 25.4514 17.7454C25.3442 17.6959 25.237 17.6426 25.1259 17.593C25.0149 17.5511 24.9 17.5092 24.7851 17.4711C24.5554 17.3873 24.3256 17.3034 24.0959 17.2196C23.8623 17.1434 23.6172 17.0938 23.3721 17.0253C23.127 16.9681 22.8858 16.8843 22.6292 16.8576C22.1238 16.7852 21.6106 16.6823 21.0784 16.6785C20.8141 16.6709 20.5461 16.6442 20.278 16.648C20.01 16.6633 19.7381 16.6747 19.4662 16.6899C19.3284 16.6976 19.1943 16.6976 19.0565 16.7166L18.6467 16.7776C18.3749 16.8233 18.0953 16.8538 17.8234 16.9109C17.2835 17.0557 16.7206 17.1662 16.1883 17.3873C15.6369 17.5625 15.1199 17.8331 14.5877 18.0884C14.3273 18.2294 14.0822 18.3894 13.8256 18.5418C13.6993 18.6219 13.5652 18.6905 13.4465 18.7819L13.0866 19.0525C12.5888 19.3916 12.1522 19.8184 11.6965 20.2299C11.4898 20.4547 11.283 20.6834 11.0724 20.912L10.9154 21.0835L10.7737 21.2702L10.4941 21.6436L10.2108 22.017L9.9657 22.4172L9.72062 22.8211L9.59808 23.023L9.49469 23.2364C9.35684 23.5222 9.21898 23.808 9.0773 24.0976C8.96625 24.3986 8.8552 24.6997 8.74415 25.0007C8.3459 26.2239 8.12763 27.5233 8.11231 28.8493C8.13146 30.1716 8.3459 31.4748 8.74415 32.6979C8.8552 32.999 8.96625 33.3 9.0773 33.601C9.21515 33.8906 9.35684 34.1764 9.49469 34.4622L9.59808 34.6756L9.72062 34.8776L9.9657 35.2815L10.2108 35.6816L10.4941 36.0588L10.7737 36.4323L10.9154 36.619L11.0724 36.7904C11.283 37.0191 11.4898 37.2477 11.6965 37.4725C12.1522 37.8841 12.5888 38.307 13.0866 38.65L13.4465 38.9205C13.5652 39.012 13.6993 39.0806 13.8256 39.1606C14.0822 39.313 14.3311 39.4731 14.5877 39.614C15.1199 39.8693 15.6369 40.1399 16.1883 40.3152C16.7206 40.5362 17.2835 40.6467 17.8234 40.7915C18.0992 40.8487 18.3749 40.8791 18.6467 40.9249L19.0565 40.9858C19.1943 41.0049 19.3284 41.0011 19.4662 41.0125C19.7381 41.0277 20.01 41.0392 20.278 41.0544C20.5461 41.0582 20.8141 41.0316 21.0784 41.0239C21.6106 41.0239 22.1238 40.9172 22.6292 40.8448C22.8858 40.8182 23.127 40.7343 23.3721 40.6772C23.6134 40.6124 23.8623 40.5629 24.0959 40.4828C24.3294 40.399 24.5592 40.3152 24.7851 40.2313C24.9 40.1894 25.0111 40.1475 25.1259 40.1094C25.2332 40.0599 25.3442 40.0065 25.4514 39.957C25.6659 39.8541 25.8765 39.755 26.0871 39.6521C26.3015 39.5569 26.4892 39.4197 26.6845 39.3092C26.8798 39.1911 27.0751 39.0806 27.2627 38.9586C27.4427 38.8253 27.6188 38.6957 27.795 38.5661C29.1888 37.5183 30.2113 36.2836 30.9197 35.0986C31.6243 33.9097 32.0685 32.7894 32.2867 31.8444C32.3404 31.6081 32.4208 31.3909 32.4476 31.1737C32.482 30.9603 32.5127 30.7622 32.5433 30.5755C32.5701 30.3888 32.6046 30.2211 32.6199 30.0611C32.6276 29.9048 32.639 29.76 32.6467 29.6305C32.662 29.379 32.6735 29.1846 32.685 29.0475C32.6927 28.9179 32.7041 28.8493 32.7041 28.8493C32.7041 28.8493 32.7041 28.9179 32.7041 29.0475C32.7003 29.1846 32.6927 29.379 32.6812 29.6305C32.6773 29.76 32.6697 29.9048 32.662 30.0611C32.6467 30.2173 32.6161 30.3888 32.5931 30.5755C32.5663 30.7622 32.5357 30.9603 32.505 31.1775C32.482 31.3947 32.4055 31.6119 32.3519 31.852C32.1412 32.8084 31.7047 33.9364 31.0039 35.1367C30.2993 36.3332 29.2731 37.583 27.8716 38.6462C27.6954 38.7757 27.5193 38.9091 27.3393 39.0463C27.1516 39.1682 26.9525 39.2825 26.7572 39.4045C26.5581 39.5188 26.3666 39.656 26.1522 39.755C25.9416 39.8579 25.7271 39.9608 25.5089 40.0637C25.4016 40.117 25.2906 40.1666 25.1834 40.2199C25.0685 40.2618 24.9536 40.3037 24.8387 40.3457C24.609 40.4295 24.3754 40.5133 24.1418 40.601C23.9044 40.681 23.6555 40.7305 23.4104 40.7991C23.1615 40.8563 22.9203 40.9439 22.6599 40.9706C22.1467 41.043 21.6298 41.1497 21.0937 41.1535C20.8256 41.1649 20.5576 41.1916 20.2857 41.1878C20.0138 41.1764 19.7419 41.1611 19.4662 41.1459C19.3284 41.1383 19.1905 41.1383 19.0527 41.1192L18.6391 41.0582C18.3634 41.0125 18.0838 40.982 17.8043 40.9249C17.2567 40.7763 16.69 40.6696 16.15 40.4447C15.5948 40.2695 15.0702 39.9951 14.5302 39.7398C14.2698 39.5988 14.0171 39.4349 13.7567 39.2825C13.6303 39.2025 13.4925 39.1339 13.3738 39.0425L13.0062 38.7719C12.5007 38.429 12.0603 37.9984 11.597 37.583C11.3864 37.3544 11.1758 37.122 10.9651 36.8933L10.8081 36.718L10.6665 36.5313L10.3831 36.1541L10.0959 35.773L9.84699 35.3653L9.59808 34.9576L9.47172 34.7518L9.3645 34.5346C9.22281 34.245 9.08496 33.9554 8.94327 33.662C8.83222 33.3572 8.71734 33.0523 8.60629 32.7475C8.20038 31.5091 7.98211 30.1906 7.9668 28.8493C7.98594 27.508 8.20421 26.1934 8.60629 24.955C8.71734 24.6501 8.83222 24.3453 8.94327 24.0404C9.08496 23.7508 9.22664 23.4574 9.3645 23.1678L9.47172 22.9506L9.59808 22.7449L9.84699 22.3371L10.0959 21.9294L10.3831 21.5483L10.6665 21.1711L10.8081 20.9844L10.9651 20.8091C11.1758 20.5767 11.3864 20.348 11.597 20.1194C12.0603 19.7041 12.5007 19.2735 13.0062 18.9305L13.37 18.66C13.4925 18.5685 13.6265 18.4999 13.7529 18.4199C14.0133 18.2675 14.2622 18.1036 14.5264 17.9626C15.0663 17.7073 15.5871 17.433 16.1462 17.2577C16.6861 17.0329 17.2529 16.9262 17.8005 16.7776C18.08 16.7204 18.3595 16.6899 18.6353 16.6442L19.0488 16.5832C19.1867 16.5642 19.3245 16.568 19.4624 16.5566C19.7381 16.5413 20.01 16.5299 20.2819 16.5146C20.5537 16.5146 20.8218 16.5375 21.0898 16.5489C21.6259 16.5528 22.1429 16.6594 22.656 16.7318C22.9126 16.7585 23.1577 16.8462 23.4066 16.9033C23.6517 16.9719 23.9006 17.0214 24.138 17.1015C24.3716 17.1891 24.6052 17.2729 24.8349 17.3568C24.9498 17.3987 25.0647 17.4406 25.1796 17.4825C25.2906 17.5359 25.3978 17.5854 25.505 17.6388C25.7195 17.7416 25.9339 17.8445 26.1484 17.9474C26.3628 18.0465 26.5504 18.1837 26.7534 18.298C26.9487 18.4199 27.1478 18.5304 27.3355 18.6562C27.5154 18.7895 27.6954 18.9229 27.8677 19.0563C29.2693 20.1194 30.2917 21.3693 31.0001 22.5658C31.7009 23.7661 32.1412 24.8978 32.348 25.8504C32.4016 26.0905 32.4782 26.3077 32.5012 26.5249C32.5318 26.7383 32.5625 26.9402 32.5893 27.127C32.6161 27.3137 32.6467 27.4851 32.662 27.6414C32.6697 27.7976 32.6735 27.9424 32.6812 28.072C32.6888 28.3235 32.6965 28.5178 32.7041 28.655C32.708 28.7883 32.7041 28.8531 32.7041 28.8531Z" fill="#263238"/>
<path d="M15.9818 26.7496H18.3253C18.3253 26.7496 18.3253 24.791 20.3701 24.7567C21.4309 24.7376 21.9823 25.4311 22.2044 25.9608C22.4648 26.5781 22.3844 27.2792 22.0359 27.8508C21.6376 28.5024 20.7684 29.0968 19.1869 28.8187V32.2405H21.5036V30.9983C21.5036 30.9983 24.7547 30.1638 24.7547 26.601C24.7547 23.0381 21.6836 22.3979 20.3663 22.3979C19.3592 22.3979 15.9358 22.6418 15.9779 26.7534L15.9818 26.7496Z" fill="#002324"/>
<path d="M21.5377 33.1284H19.1865V35.3118H21.5377V33.1284Z" fill="#002324"/>
<path d="M33.2612 40.3342C33.2612 41.3707 32.4188 42.209 31.3772 42.209C30.3356 42.209 29.4932 41.3707 29.4932 40.3342C29.4932 39.2978 30.3356 38.4595 31.3772 38.4595C32.4188 38.4595 33.2612 39.2978 33.2612 40.3342Z" fill="white"/>
<path d="M33.2616 40.3342C33.2616 40.3342 33.2501 40.1665 33.1735 39.8846C33.097 39.6064 32.9055 39.2025 32.4843 38.89C32.0784 38.5775 31.4082 38.4023 30.7611 38.6423C30.4432 38.7566 30.1407 38.9738 29.9225 39.2711C29.7004 39.5645 29.5778 39.9455 29.574 40.3342C29.574 40.7229 29.7004 41.1001 29.9225 41.3973C30.1369 41.6946 30.4432 41.9118 30.7611 42.0261C31.4082 42.2661 32.0784 42.0908 32.4843 41.7784C32.9055 41.4659 33.097 41.062 33.1735 40.7838C33.2501 40.5019 33.2463 40.3342 33.2616 40.3342C33.2654 40.3342 33.2693 40.3761 33.2693 40.4561C33.2693 40.5362 33.2616 40.6543 33.231 40.7991C33.1697 41.0887 32.9859 41.5231 32.5494 41.866C32.1281 42.209 31.4121 42.4109 30.7113 42.1594C30.3667 42.0375 30.0335 41.8089 29.7999 41.485C29.5587 41.1649 29.4208 40.7572 29.417 40.3342C29.417 39.9112 29.5587 39.4997 29.7999 39.1834C30.0373 38.8595 30.3667 38.6309 30.7113 38.509C31.4121 38.2575 32.1281 38.4594 32.5494 38.8024C32.9859 39.1453 33.1697 39.5797 33.231 39.8693C33.2616 40.0179 33.2731 40.136 33.2693 40.2123C33.2693 40.2923 33.2654 40.3342 33.2616 40.3342Z" fill="#263238"/>
<path d="M166.618 30.3541C171.68 25.3169 171.68 17.1499 166.618 12.1127C161.556 7.07547 153.349 7.07547 148.287 12.1127C143.225 17.1499 143.225 25.3169 148.287 30.3541C153.349 35.3913 161.556 35.3913 166.618 30.3541Z" fill="white"/>
<path d="M170.411 21.2323C170.411 21.2323 170.404 21.1599 170.392 21.0228C170.385 20.878 170.369 20.676 170.354 20.4093C170.346 20.2759 170.339 20.1235 170.327 19.9596C170.308 19.7958 170.274 19.6167 170.247 19.4223C170.216 19.228 170.182 19.0184 170.147 18.7936C170.12 18.5688 170.036 18.3402 169.979 18.0887C169.749 17.0941 169.282 15.9167 168.543 14.6668C167.8 13.4246 166.724 12.1252 165.261 11.024C165.077 10.8868 164.89 10.7496 164.702 10.6086C164.507 10.4791 164.3 10.3647 164.097 10.239C163.89 10.1209 163.691 9.97606 163.469 9.87699C163.247 9.77029 163.025 9.6636 162.799 9.5569C162.688 9.50356 162.573 9.45021 162.458 9.39686C162.339 9.35495 162.221 9.30922 162.102 9.2673C161.861 9.17966 161.619 9.09202 161.378 9.00438C161.133 8.92436 160.873 8.87101 160.62 8.80242C160.363 8.74526 160.107 8.65381 159.839 8.62714C159.306 8.55093 158.766 8.44423 158.207 8.44042C157.928 8.4328 157.648 8.40232 157.369 8.40994C157.085 8.42518 156.802 8.44042 156.515 8.45566C156.373 8.46709 156.228 8.46328 156.086 8.48234L155.657 8.54712C155.37 8.59284 155.079 8.62714 154.792 8.6881C154.221 8.84053 153.635 8.95865 153.072 9.19109C152.494 9.374 151.95 9.65979 151.391 9.92652C151.119 10.0751 150.859 10.2428 150.591 10.4028C150.461 10.4867 150.319 10.5591 150.193 10.6543L149.814 10.9363C149.289 11.2945 148.833 11.7403 148.351 12.1709C148.132 12.4072 147.914 12.6472 147.696 12.8873L147.531 13.0664L147.382 13.2607L147.087 13.6532L146.792 14.0495L146.532 14.4725L146.271 14.8954L146.141 15.1088L146.03 15.3337C145.885 15.6347 145.739 15.9357 145.594 16.2368C145.479 16.553 145.36 16.8693 145.245 17.1856C144.824 18.4735 144.598 19.8377 144.579 21.2285C144.598 22.6194 144.824 23.9874 145.241 25.2715C145.36 25.5878 145.475 25.904 145.59 26.2203C145.735 26.5214 145.881 26.8262 146.026 27.1234L146.137 27.3482L146.268 27.5616L146.528 27.9846L146.788 28.4076L147.083 28.8039L147.378 29.1963L147.527 29.3907L147.692 29.5698C147.91 29.8098 148.129 30.0499 148.347 30.2862C148.826 30.7167 149.285 31.1664 149.81 31.5208L150.189 31.8027C150.315 31.898 150.457 31.9704 150.587 32.0542C150.855 32.2143 151.116 32.3857 151.391 32.5306C151.95 32.7973 152.494 33.0831 153.072 33.266C153.631 33.4984 154.221 33.6127 154.792 33.769C155.079 33.8299 155.374 33.8604 155.657 33.91L156.086 33.9747C156.228 33.9938 156.373 33.9938 156.515 34.0014C156.802 34.0167 157.085 34.0319 157.369 34.0471C157.652 34.0509 157.932 34.0243 158.207 34.0167C158.766 34.0167 159.303 33.9023 159.839 33.8299C160.107 33.8033 160.359 33.7118 160.62 33.6547C160.876 33.5861 161.133 33.5327 161.378 33.4527C161.623 33.3651 161.864 33.2774 162.106 33.1898C162.224 33.1479 162.343 33.1021 162.462 33.0602C162.577 33.0069 162.688 32.9535 162.803 32.9002C163.028 32.7935 163.251 32.6868 163.473 32.5801C163.695 32.481 163.894 32.3362 164.101 32.2181C164.304 32.0923 164.51 31.9742 164.706 31.8485C164.893 31.7075 165.081 31.5703 165.265 31.4331C166.728 30.3319 167.804 29.0325 168.547 27.7903C169.286 26.5442 169.753 25.3668 169.983 24.3684C170.04 24.1207 170.124 23.8921 170.151 23.6635C170.185 23.4386 170.22 23.2291 170.251 23.0347C170.281 22.8404 170.316 22.6613 170.331 22.4974C170.342 22.3336 170.35 22.1812 170.358 22.0478C170.373 21.7811 170.388 21.5791 170.396 21.4343C170.408 21.2971 170.415 21.2247 170.415 21.2247C170.415 21.2247 170.415 21.2971 170.415 21.4343C170.411 21.5791 170.404 21.7811 170.392 22.0478C170.388 22.185 170.381 22.3336 170.373 22.5013C170.358 22.6689 170.327 22.848 170.3 23.0423C170.27 23.2367 170.239 23.4501 170.208 23.6749C170.185 23.9035 170.101 24.1322 170.048 24.3837C169.829 25.3858 169.366 26.5747 168.631 27.836C167.888 29.0935 166.812 30.4043 165.341 31.5246C165.158 31.6618 164.97 31.8027 164.778 31.9437C164.583 32.0733 164.373 32.1914 164.17 32.321C163.959 32.4391 163.76 32.5877 163.534 32.6868C163.312 32.7935 163.086 32.904 162.86 33.0107C162.745 33.064 162.63 33.1212 162.515 33.1745C162.397 33.2164 162.274 33.2622 162.155 33.3079C161.914 33.3955 161.669 33.487 161.424 33.5746C161.175 33.6585 160.915 33.7118 160.658 33.7804C160.398 33.8414 160.141 33.9328 159.869 33.9595C159.329 34.0357 158.786 34.15 158.223 34.1538C157.943 34.1653 157.66 34.1919 157.373 34.1881C157.085 34.1729 156.798 34.1615 156.511 34.1462C156.365 34.1348 156.22 34.1386 156.074 34.1195L155.638 34.0548C155.347 34.009 155.052 33.9747 154.761 33.9138C154.187 33.7575 153.589 33.6432 153.023 33.4108C152.437 33.2241 151.885 32.9383 151.322 32.6677C151.047 32.5191 150.782 32.3476 150.51 32.1876C150.376 32.1038 150.235 32.0314 150.108 31.9361L149.725 31.6503C149.193 31.2883 148.73 30.8349 148.244 30.4005C148.021 30.1604 147.803 29.9165 147.581 29.6765L147.413 29.4936L147.263 29.2954L146.965 28.8991L146.666 28.499L146.402 28.0722L146.137 27.6416L146.007 27.4244L145.896 27.1958C145.751 26.891 145.601 26.5861 145.452 26.2813C145.333 25.9612 145.215 25.6411 145.096 25.321C144.671 24.0178 144.441 22.6346 144.422 21.2247C144.441 19.8186 144.671 18.4316 145.096 17.1284C145.215 16.8083 145.333 16.4882 145.452 16.1682C145.601 15.8633 145.747 15.5585 145.896 15.2536L146.007 15.025L146.137 14.8078L146.402 14.3772L146.666 13.9504L146.965 13.5503L147.263 13.154L147.413 12.9559L147.581 12.773C147.803 12.5291 148.025 12.289 148.244 12.049C148.73 11.6146 149.193 11.1611 149.725 10.7991L150.108 10.5133C150.235 10.4181 150.376 10.3457 150.51 10.2619C150.782 10.1018 151.047 9.93034 151.322 9.78172C151.889 9.51118 152.44 9.22539 153.023 9.04248C153.589 8.81004 154.187 8.69192 154.761 8.53949C155.052 8.47853 155.347 8.44804 155.638 8.39851L156.074 8.33373C156.22 8.31467 156.365 8.31467 156.511 8.30705C156.802 8.29181 157.089 8.28038 157.373 8.26514C157.66 8.26514 157.939 8.288 158.223 8.29943C158.786 8.30324 159.329 8.41375 159.869 8.49377C160.141 8.52425 160.398 8.6157 160.658 8.67286C160.915 8.74145 161.175 8.79861 161.424 8.87863C161.669 8.97008 161.914 9.05773 162.155 9.14537C162.278 9.19109 162.397 9.23301 162.515 9.27874C162.63 9.33208 162.745 9.38924 162.86 9.44259C163.086 9.55309 163.312 9.65979 163.534 9.76648C163.76 9.86937 163.959 10.0142 164.17 10.1323C164.376 10.258 164.583 10.38 164.778 10.5095C164.966 10.6505 165.154 10.7915 165.341 10.9287C166.812 12.0452 167.892 13.3598 168.631 14.6173C169.366 15.8786 169.829 17.0674 170.048 18.0696C170.105 18.3211 170.185 18.5497 170.208 18.7784C170.243 19.0032 170.274 19.2128 170.3 19.4109C170.327 19.6053 170.362 19.7882 170.373 19.952C170.381 20.1197 170.385 20.2683 170.392 20.4055C170.404 20.6722 170.411 20.8742 170.415 21.019C170.419 21.1561 170.415 21.2285 170.415 21.2285L170.411 21.2323Z" fill="#263238"/>
<path d="M152.843 19.0227H155.305C155.305 19.0227 155.305 16.965 157.453 16.9269C158.568 16.9079 159.146 17.6357 159.383 18.192C159.655 18.8398 159.575 19.5753 159.207 20.1773C158.79 20.8632 157.874 21.4843 156.216 21.1947V24.7919H158.652V23.4849C158.652 23.4849 162.068 22.6046 162.068 18.8627C162.068 15.1208 158.839 14.4463 157.457 14.4463C156.4 14.4463 152.801 14.7016 152.847 19.0227H152.843Z" fill="#002324"/>
<path d="M158.679 25.7251H156.209V28.0228H158.679V25.7251Z" fill="#002324"/>
<path d="M145.39 32.3441C145.39 33.4301 144.506 34.3141 143.41 34.3141C142.315 34.3141 141.431 33.4339 141.431 32.3441C141.431 31.2543 142.315 30.374 143.41 30.374C144.506 30.374 145.39 31.2543 145.39 32.3441Z" fill="white"/>
<path d="M145.391 32.3437C145.391 32.3437 145.379 32.1684 145.299 31.8712C145.218 31.5778 145.015 31.151 144.575 30.8233C144.146 30.4956 143.445 30.3127 142.764 30.5642C142.43 30.6862 142.109 30.911 141.883 31.2272C141.649 31.5359 141.519 31.9322 141.515 32.3437C141.519 32.7553 141.649 33.1516 141.883 33.4602C142.109 33.7727 142.43 34.0013 142.764 34.1232C143.445 34.3747 144.146 34.1918 144.575 33.8641C145.015 33.5364 145.218 33.1096 145.299 32.8162C145.379 32.519 145.375 32.3437 145.391 32.3437C145.394 32.3437 145.398 32.3856 145.402 32.4695C145.402 32.5533 145.394 32.6753 145.36 32.8315C145.295 33.1363 145.103 33.5936 144.644 33.9556C144.2 34.3176 143.449 34.531 142.71 34.2642C142.346 34.1385 141.998 33.8946 141.753 33.5555C141.5 33.2202 141.354 32.7896 141.351 32.3437C141.351 31.8979 141.5 31.4673 141.753 31.132C142.002 30.7928 142.346 30.549 142.71 30.4232C143.449 30.1603 144.2 30.3737 144.64 30.7319C145.099 31.0901 145.291 31.5473 145.356 31.856C145.391 32.0122 145.398 32.1342 145.398 32.218C145.398 32.3018 145.394 32.3437 145.387 32.3437H145.391Z" fill="#263238"/>
<path d="M73.3586 127.058C69.2267 116.754 66.125 109.598 66.125 109.598L28.3335 115.314C28.3335 115.314 21.5403 132.644 22.13 140.505C22.7198 148.366 25.4845 162.214 25.4845 162.214H71.218C71.218 162.214 77.498 137.362 73.3624 127.058H73.3586Z" fill="#263238"/>
<path d="M59.7185 41.1229C60.0134 38.1507 60.4614 35.1594 61.5566 32.3777C62.648 29.596 64.4401 27.0125 66.9713 25.4045L67.6222 26.0065C68.0703 24.73 69.265 23.7431 70.6091 23.5373C71.9532 23.3315 73.3892 23.9184 74.201 25.0044C75.6523 24.6157 77.3142 25.2063 78.1911 26.4181C79.0681 27.6298 79.0987 29.3865 78.2677 30.6325C79.6271 30.804 80.8257 31.8671 81.1512 33.1894C81.4767 34.5116 80.91 36.0092 79.788 36.7865C81.2852 38.0745 81.8826 40.3036 81.224 42.1593C80.5691 44.0189 78.7043 45.3869 76.7245 45.4593C77.1649 47.1702 76.2688 49.1288 74.6835 49.9176C73.0982 50.7102 70.9844 50.2529 69.8701 48.8811C70.0079 50.6606 68.5796 52.3449 66.8372 52.7678C65.0949 53.1908 63.1956 52.4897 61.9281 51.2322C60.6567 49.9747 59.9598 48.2295 59.6879 46.4652C59.416 44.701 59.5424 42.9024 59.7185 41.1267V41.1229Z" fill="#263238"/>
<path d="M67.7602 27.9536C69.4987 28.5138 69.8549 29.916 70.2148 31.0821C70.9922 33.5932 70.1191 37.3123 68.7061 39.5338C67.293 41.7553 65.7422 42.8832 63.1306 43.2605C63.0463 39.2709 62.9621 35.2851 62.874 31.2954L67.7602 27.9536Z" fill="#FF725E"/>
<path d="M68.7404 34.82C69.9275 33.2843 69.759 30.8761 68.3689 29.5195C69.131 28.5669 68.8553 27.0998 68.0817 26.1586C67.3082 25.2174 66.1594 24.6764 65.0489 24.1657C64.4401 21.3841 61.3 19.4255 58.5161 20.0923C57.0648 17.9698 53.9784 17.6383 51.5047 18.3547C50.8996 18.53 50.2946 18.7548 49.6666 18.7548C49.2032 18.7548 48.7552 18.6291 48.2957 18.5643C45.7798 18.2289 43.2793 19.9894 42.299 22.3215C42.142 22.6949 42.0118 23.0874 41.7629 23.4075C41.4374 23.8266 40.9396 24.0743 40.5184 24.3982C39.607 25.0993 39.0249 26.212 38.979 27.3552C38.9369 28.3268 39.2509 29.3595 38.8373 30.2435C38.6305 30.6856 38.2591 31.0437 38.0982 31.5048C37.6311 32.8423 39.1207 34.2065 38.845 35.5935C38.7875 35.8755 38.6611 36.1384 38.5807 36.4166C38.4199 36.9843 38.4735 37.6093 38.7301 38.1427C38.9292 38.5543 39.2509 38.9277 39.2777 39.385C39.2968 39.7317 39.1436 40.0594 39.0747 40.3986C38.9062 41.2255 40.7022 44.4225 41.4183 44.8721L62.9122 45.0627C64.5396 44.7311 65.8646 43.2641 66.0216 41.6218C66.0484 41.3474 66.0522 41.0502 66.2207 40.8368C66.3662 40.6539 66.5998 40.5662 66.8066 40.4557C68.189 39.7165 68.3574 37.8265 68.2119 36.268C68.1928 36.0508 68.1698 35.8259 68.2234 35.6164C68.3038 35.3077 68.5374 35.0677 68.7289 34.8162L68.7404 34.82Z" fill="#263238"/>
<path d="M62.5828 34.8506C62.6479 31.0667 60.2623 26.7151 56.4827 24.8632C54.1009 23.6972 52.2437 23.6895 50.9915 23.5447C48.1846 23.2209 45.9215 24.6041 45.9215 24.6041C44.7383 24.8822 40.3958 28.8376 40.1699 33.1282C39.921 37.899 39.8023 43.7291 40.4073 47.2805C41.625 54.4176 47.1431 55.2712 47.1431 55.2712C47.1431 55.2597 46.6299 67.1371 46.6299 67.1371L57.2333 75.7832L60.4729 61.5852L62.5867 34.8506H62.5828Z" fill="#FFBF9D"/>
<path d="M47.139 55.2712C47.139 55.2712 52.0099 55.5303 56.7659 52.6152C56.7659 52.6152 54.2577 57.6832 47.0586 57.0888L47.139 55.2712Z" fill="#FF9A6C"/>
<path d="M61.499 41.6411C61.4952 41.1076 62.1002 39.8463 62.6287 39.7587C64.0379 39.5262 66.5805 39.61 66.6456 43.1767C66.7299 48.0504 61.9202 46.9644 61.7824 46.991C61.0012 47.1511 61.5143 43.4815 61.499 41.6411Z" fill="#FFBF9D"/>
<path d="M63.0995 45.1846C63.1225 45.1694 63.1876 45.2418 63.3292 45.3066C63.4709 45.3675 63.7122 45.4094 63.9687 45.3066C64.4819 45.1084 64.9031 44.2853 64.9146 43.4051C64.9184 42.9593 64.8188 42.5401 64.6542 42.1934C64.4972 41.839 64.2636 41.5951 63.9994 41.5532C63.739 41.496 63.559 41.6561 63.5016 41.7933C63.4365 41.9304 63.4709 42.0295 63.4441 42.0371C63.4288 42.0486 63.3369 41.9571 63.3752 41.7551C63.3943 41.6561 63.4479 41.5418 63.5628 41.4465C63.6777 41.3512 63.85 41.2979 64.0338 41.3131C64.4129 41.3322 64.7576 41.6713 64.9375 42.0524C65.1405 42.4334 65.263 42.9059 65.2554 43.4051C65.2401 44.3882 64.7537 45.3142 64.0453 45.5314C63.7007 45.6266 63.4135 45.5314 63.2641 45.4171C63.111 45.2989 63.0842 45.1922 63.0995 45.1808V45.1846Z" fill="#FF9A6C"/>
<path d="M39.1166 32.4082C39.2737 30.6363 39.9821 28.9597 40.8398 27.4012C41.4334 26.3228 42.1188 25.2711 43.0532 24.4633C43.8344 23.7926 44.7649 23.3163 45.6992 22.8743C48.1538 21.7159 50.8918 20.7328 53.5417 21.3272C54.9623 21.6473 56.2452 22.398 57.4897 23.1525C58.4432 23.7317 59.4043 24.3223 60.2047 25.0997C60.9054 25.7817 61.4722 26.5896 61.9661 27.4317C63.1532 29.436 63.988 31.6766 64.1488 33.9972C64.3097 36.3178 66.075 38.3679 64.7079 40.2541C64.6007 40.3989 62.1691 40.9019 62.0006 40.9667C61.6062 41.1229 61.1696 40.6961 61.1735 40.2732C61.1735 39.8502 61.4683 39.4844 61.7862 39.1986C61.1811 39.1795 60.7637 38.5051 60.802 37.903C60.8403 37.3009 61.2003 36.7713 61.5602 36.2835C61.6062 36.2188 61.656 36.154 61.6675 36.074C61.6943 35.8682 61.4607 35.7424 61.2807 35.6357C60.4076 35.1213 60.3119 33.6924 61.1045 33.0675C59.9366 32.7969 59.1784 31.3984 59.5958 30.282C59.6609 30.1067 59.7528 29.9047 59.6647 29.7371C59.5843 29.5732 59.3814 29.5237 59.2052 29.4741C57.9109 29.0931 57.0416 27.6375 57.325 26.3266C56.6434 26.3609 55.9541 26.3952 55.2917 26.2352C54.6292 26.0751 53.9897 25.6903 53.6872 25.0844C53.2545 25.8618 52.4005 26.3914 51.5083 26.441C50.6161 26.4905 49.7123 26.0523 49.1992 25.3245C48.0581 25.435 46.8901 25.2521 45.8371 24.8062C45.5767 25.8656 44.7381 26.761 43.7003 27.0964C43.4974 27.1611 43.2676 27.2259 43.1681 27.4126C43.1068 27.5308 43.1144 27.6756 43.1221 27.8089C43.1566 28.491 42.6932 28.7806 42.3141 29.3484C41.9388 29.9162 41.2802 30.7659 40.6216 30.5754C40.6943 31.7338 40.0701 32.5797 39.0898 33.2046L39.1243 32.4044L39.1166 32.4082Z" fill="#263238"/>
<path d="M38.1014 31.5128C38.1014 31.5128 38.1474 31.3108 38.3618 30.9869C38.4652 30.8231 38.6107 30.6325 38.7447 30.3887C38.8788 30.1448 38.9821 29.8361 39.0128 29.4741C39.0472 29.1159 39.0128 28.7082 38.9821 28.27C38.9477 27.828 38.9094 27.3402 39.009 26.822C39.1009 26.3076 39.3076 25.7741 39.6408 25.2787C39.8054 25.0311 40.0046 24.7986 40.2382 24.5852C40.4679 24.368 40.736 24.1889 41.0079 24.006C41.2759 23.8231 41.5478 23.625 41.7469 23.362C41.946 23.0953 42.0724 22.7714 42.2026 22.4399C42.4668 21.7731 42.8574 21.1215 43.3744 20.5461C43.8913 19.9707 44.5193 19.4486 45.2584 19.0752C45.6222 18.8771 46.0243 18.7437 46.434 18.6256C46.8514 18.5303 47.2803 18.4579 47.7206 18.4693C47.9389 18.4693 48.161 18.496 48.3793 18.5151C48.5975 18.5455 48.8158 18.5913 49.0303 18.6294C49.463 18.7094 49.9033 18.7208 50.3399 18.6179C50.7764 18.5265 51.2053 18.3665 51.6572 18.2521C52.1052 18.1264 52.5724 18.0502 53.0434 17.9968C53.5144 17.9435 53.9969 17.9435 54.4794 17.9702C54.9619 18.0045 55.4444 18.0921 55.9192 18.2217C56.8574 18.4998 57.7726 19.0142 58.4006 19.8183C58.4618 19.8983 58.5231 19.9783 58.5844 20.0583L58.5078 20.0278C59.9859 19.6735 61.5368 20.0583 62.7315 20.8395C63.9378 21.6168 64.8338 22.8248 65.1249 24.1546L65.0866 24.1051C65.6801 24.3795 66.2698 24.6538 66.8136 24.993C67.3535 25.3283 67.8513 25.7322 68.2266 26.2276C68.598 26.7267 68.824 27.3136 68.8776 27.9042C68.935 28.4948 68.7857 29.1045 68.4219 29.558V29.4779C69.1226 30.1715 69.4826 31.0936 69.5668 31.97C69.6511 32.8503 69.4711 33.7114 69.0767 34.3973C68.9886 34.5726 68.8661 34.7288 68.755 34.8813C68.6363 35.0299 68.5176 35.1709 68.4219 35.3195C68.3261 35.4681 68.2649 35.6319 68.2534 35.7996C68.2381 35.9673 68.2572 36.1387 68.2725 36.3064C68.33 36.977 68.3185 37.602 68.2342 38.1583C68.15 38.7108 67.993 39.1986 67.7632 39.572C67.5411 39.9493 67.2578 40.2084 67.0089 40.3684C66.7561 40.5361 66.534 40.6047 66.4115 40.6923C66.2851 40.7761 66.2392 40.8447 66.2353 40.8409C66.2353 40.8409 66.2736 40.7685 66.4 40.6771C66.5225 40.578 66.7446 40.5056 66.9897 40.3341C67.2348 40.1703 67.5028 39.9111 67.7173 39.5415C67.9356 39.1719 68.0849 38.6918 68.1653 38.1469C68.2419 37.5982 68.2496 36.9809 68.1845 36.314C68.1691 36.1464 68.1462 35.9749 68.1615 35.792C68.173 35.6091 68.2419 35.43 68.3415 35.2699C68.441 35.1099 68.5636 34.9689 68.6784 34.8203C68.7857 34.6679 68.9005 34.5193 68.9886 34.344C69.3677 33.6733 69.54 32.835 69.452 31.9776C69.3677 31.1241 69.0116 30.2248 68.33 29.5618L68.2917 29.5237L68.3261 29.4817C68.667 29.0588 68.8048 28.4834 68.7474 27.9156C68.6938 27.3479 68.4755 26.7839 68.1155 26.3076C67.7556 25.8313 67.2693 25.4388 66.737 25.1073C66.2047 24.7758 65.6188 24.5052 65.0253 24.2308L64.9946 24.2156L64.987 24.1813C64.7036 22.8895 63.8305 21.7159 62.6511 20.9576C61.4832 20.1955 59.9706 19.8259 58.5384 20.165L58.4925 20.1765L58.4618 20.1345C58.4044 20.0583 58.3431 19.9821 58.2857 19.9059C57.6845 19.1286 56.7961 18.6256 55.8809 18.355C55.4175 18.2255 54.9465 18.1454 54.4717 18.1073C53.9969 18.0807 53.5259 18.0807 53.0625 18.1302C52.5992 18.1835 52.1397 18.2559 51.6993 18.3817C51.2551 18.496 50.8224 18.6561 50.3705 18.7475C50.1446 18.7932 49.9148 18.8237 49.6851 18.8237C49.4553 18.8237 49.2294 18.7932 49.0073 18.7551C48.789 18.717 48.5707 18.6751 48.3563 18.6408C48.1419 18.6218 47.9274 18.5913 47.713 18.5951C47.2841 18.5837 46.8667 18.6561 46.4608 18.7437C46.0625 18.858 45.6681 18.9876 45.312 19.1819C44.5844 19.5439 43.9679 20.0545 43.4586 20.6185C42.9455 21.1824 42.5626 21.8226 42.2983 22.4742C42.1643 22.8019 42.0379 23.1372 41.8235 23.4192C41.6091 23.7012 41.3257 23.9031 41.0576 24.086C40.7858 24.269 40.5215 24.4442 40.2956 24.6538C40.0697 24.8596 39.8744 25.0882 39.7097 25.3283C39.3804 25.8084 39.1774 26.3304 39.0817 26.8334C38.9821 27.3364 39.0128 27.8204 39.0434 28.2624C39.0741 28.7044 39.1047 29.1121 39.0626 29.4779C39.0319 29.8437 38.9171 30.16 38.7754 30.4077C38.6337 30.6516 38.4843 30.8383 38.3771 30.9983C38.2699 31.1546 38.1971 31.2841 38.155 31.3718C38.1129 31.4594 38.0976 31.5089 38.0938 31.5051L38.1014 31.5128Z" fill="#455A64"/>
<path d="M56.2141 19.0447C56.2141 19.0447 56.0839 18.9723 55.8465 18.858C55.6091 18.7475 55.2453 18.6065 54.7743 18.557C54.3071 18.5036 53.7327 18.5494 53.166 18.8047C52.6031 19.0562 52.0593 19.5172 51.7109 20.1383C51.6113 20.3174 51.5271 20.508 51.4735 20.6909C51.4237 20.8738 51.416 21.0719 51.5118 21.2053L51.6343 21.3691L51.4352 21.3158C50.8914 21.1672 50.3323 21.2739 49.9226 21.5063C49.5052 21.7388 49.241 22.097 49.0993 22.4132C48.9538 22.7371 48.9193 23.0229 48.9155 23.2172C48.9116 23.4116 48.927 23.5183 48.9155 23.5221C48.9116 23.5221 48.904 23.4954 48.8925 23.4459C48.881 23.3963 48.8695 23.3201 48.8657 23.2172C48.858 23.0191 48.8772 22.7181 49.015 22.3751C49.1529 22.036 49.421 21.6511 49.8613 21.3958C50.294 21.1405 50.8876 21.0186 51.4735 21.1748L51.3969 21.2853C51.259 21.0948 51.2782 20.8509 51.3318 20.649C51.3892 20.4432 51.4773 20.2527 51.5845 20.0621C51.9483 19.4105 52.5227 18.9342 53.1124 18.6789C53.7098 18.4198 54.311 18.3855 54.7896 18.4541C55.2721 18.5189 55.6397 18.6789 55.8733 18.8085C55.992 18.8732 56.0801 18.9304 56.1337 18.9761C56.1912 19.018 56.218 19.0447 56.2141 19.0485V19.0447Z" fill="#455A64"/>
<path d="M64.2068 24.5777C64.2068 24.5777 64.157 24.6501 64.0383 24.7529C63.9196 24.8558 63.7397 25.0006 63.4869 25.1416C63.2342 25.2788 62.9049 25.416 62.5104 25.4426C62.1237 25.4693 61.6603 25.3855 61.2927 25.0845L61.3999 25.0654C61.354 25.1302 61.308 25.1988 61.2583 25.2674C61.2047 25.3321 61.1472 25.3969 61.0936 25.4617C60.7375 25.8351 60.3009 26.0943 59.8759 26.2276C59.4508 26.3686 59.0449 26.4067 58.7079 26.3838C58.371 26.361 58.1106 26.281 57.9344 26.2162C57.7621 26.14 57.674 26.0904 57.6779 26.0828C57.6893 26.0523 58.057 26.2581 58.7118 26.281C59.0373 26.2924 59.424 26.2429 59.8299 26.1019C60.232 25.9647 60.6456 25.717 60.9864 25.3626C61.04 25.3017 61.0936 25.2407 61.1434 25.1797C61.1893 25.1149 61.2353 25.0502 61.2774 24.9892L61.3234 24.9206L61.3846 24.9701C61.714 25.2407 62.139 25.3283 62.5028 25.3093C62.8704 25.294 63.1921 25.1759 63.441 25.054C63.9388 24.7987 64.1915 24.5548 64.2068 24.5777Z" fill="#455A64"/>
<path d="M66.8335 29.0816C66.8335 29.0816 66.8335 29.112 66.822 29.173C66.8067 29.2302 66.7761 29.314 66.7148 29.4093C66.5961 29.5998 66.3319 29.836 65.9298 29.9389C65.5277 30.0456 65.0261 29.9694 64.5282 29.7979C64.2793 29.7103 64.019 29.6226 63.7509 29.5007C63.4905 29.3788 63.211 29.1997 63.0693 28.891C63.0578 28.8644 63.0463 28.8377 63.0386 28.811L63.1535 28.8453C62.6864 29.2149 62.2 29.5388 61.706 29.7255C61.2159 29.9199 60.7219 29.9542 60.3313 29.878C59.9369 29.8056 59.6459 29.6455 59.4812 29.5007C59.397 29.4321 59.3357 29.3673 59.3012 29.3216C59.2668 29.2759 59.2476 29.2492 59.2515 29.2492C59.2629 29.2416 59.3395 29.333 59.5119 29.4588C59.6842 29.5845 59.9675 29.7255 60.3428 29.7789C60.7181 29.836 61.1814 29.7941 61.6524 29.6036C62.1234 29.4169 62.5906 29.1006 63.0578 28.7348L63.1344 28.6738L63.1727 28.7691C63.1803 28.7881 63.188 28.811 63.1995 28.8339C63.3144 29.0854 63.5633 29.253 63.8083 29.3712C64.0572 29.4893 64.3215 29.5807 64.5665 29.6684C65.0529 29.8437 65.5239 29.9237 65.8991 29.836C66.2782 29.7522 66.5348 29.5464 66.6612 29.375C66.7914 29.2035 66.8105 29.0777 66.8258 29.0816H66.8335Z" fill="#455A64"/>
<path d="M51.0144 38.9813C50.9838 39.4577 51.3591 39.8768 51.8569 39.9187C52.3547 39.9606 52.7836 39.6101 52.818 39.1376C52.8487 38.6612 52.4734 38.2421 51.9756 38.2002C51.4778 38.1583 51.0451 38.5088 51.0144 38.9851V38.9813Z" fill="#263238"/>
<path d="M42.2332 38.7411C42.2026 39.2174 42.5778 39.6366 43.0756 39.6785C43.5735 39.7204 44.0023 39.3698 44.0368 38.8973C44.0674 38.421 43.6922 38.0019 43.1944 37.9599C42.6965 37.918 42.2638 38.2686 42.2332 38.7449V38.7411Z" fill="#263238"/>
<path d="M41.8733 35.7499C41.9805 35.8718 42.6851 35.3879 43.6578 35.4222C44.6304 35.4412 45.3312 35.9633 45.4422 35.849C45.4958 35.7994 45.3886 35.5822 45.0861 35.346C44.7874 35.1097 44.2705 34.8773 43.6616 34.8582C43.0527 34.843 42.5358 35.0487 42.2371 35.2659C41.9308 35.487 41.8197 35.6927 41.8733 35.7499Z" fill="#263238"/>
<path d="M51.5697 36.234C51.6922 36.3445 52.3394 35.792 53.312 35.7234C54.2847 35.6434 55.0314 36.0892 55.1309 35.9634C55.1769 35.9063 55.0505 35.7043 54.7212 35.4986C54.3995 35.2966 53.8634 35.1137 53.2546 35.1594C52.6495 35.2052 52.1556 35.4643 51.876 35.712C51.5926 35.9596 51.5084 36.1807 51.5658 36.2302L51.5697 36.234Z" fill="#263238"/>
<path d="M47.9357 43.5157C47.9434 43.4624 47.3383 43.3366 46.3618 43.1804C46.1129 43.1461 45.8794 43.089 45.8449 42.9213C45.7913 42.7422 45.9062 42.4755 46.0364 42.1935C46.2891 41.6029 46.5533 40.9817 46.8329 40.3301C47.9434 37.678 48.7552 35.4908 48.6441 35.4489C48.5369 35.4069 47.5489 37.5218 46.4423 40.1739C46.1742 40.8293 45.9176 41.4504 45.6764 42.0487C45.573 42.3268 45.4007 42.6431 45.5156 43.0166C45.5768 43.2033 45.7568 43.3443 45.9138 43.3938C46.0708 43.4471 46.2125 43.4548 46.335 43.4662C47.323 43.55 47.9357 43.5729 47.9395 43.5195L47.9357 43.5157Z" fill="#263238"/>
<path d="M49.4446 44.9562C49.8084 45.0057 50.176 45.1963 50.3867 45.5011C50.6011 45.806 50.7543 46.5185 50.5437 46.7929C50.3637 47.0291 49.5595 47.0291 49.0043 46.9605C48.7477 46.9301 48.5333 46.751 48.449 46.5071L48.2308 45.8822C48.1044 45.524 48.292 45.1239 48.6558 45.0134C48.9009 44.9372 49.1766 44.9219 49.4485 44.96L49.4446 44.9562Z" fill="#FF9A6C"/>
<path d="M51.126 32.6904C51.2715 32.9305 52.202 32.6218 53.3508 32.5418C54.4996 32.4351 55.4684 32.5875 55.5718 32.3246C55.6178 32.1988 55.411 31.9893 54.9974 31.8063C54.5838 31.6273 53.9597 31.5015 53.2704 31.5549C52.5811 31.612 51.9837 31.8368 51.6085 32.0845C51.2294 32.3284 51.0609 32.5723 51.126 32.6904Z" fill="#263238"/>
<path d="M42.1145 34.1575C42.3175 34.3709 43.091 34.1232 44.0253 34.0889C44.9597 34.0242 45.7562 34.1918 45.9323 33.9556C46.0089 33.8413 45.8787 33.6241 45.5264 33.4259C45.178 33.2278 44.6036 33.0715 43.9641 33.1058C43.3207 33.1401 42.7693 33.3535 42.4515 33.5898C42.126 33.826 42.0264 34.0546 42.1145 34.1613V34.1575Z" fill="#263238"/>
<path d="M75.7092 74.4425L66.5112 107.644L69.7393 117.158C57.5927 122.486 40.0353 124.177 26.1924 117.505C26.1924 117.505 30.8948 103.78 31.0518 101.105C31.2126 98.4335 30.0562 82.8218 31.3351 77.5862C32.6141 72.3505 36.2788 61.1323 36.2788 61.1323L47.0545 59.429C51.9943 62.0697 55.1573 62.4622 60.4685 59.4023L70.5052 61.582L75.7092 74.4425Z" fill="#008183"/>
<path d="M36.4435 61.1172C36.4435 61.1172 30.6574 61.7269 28.3292 66.4633C26.0278 71.1427 19.6405 91.8452 19.292 95.3052C18.9436 98.7652 21.7658 103.422 24.2242 104.062L31.6799 96.6656L37.8642 97.2143L46.0091 59.4062L36.4512 61.1172H36.4435Z" fill="#008183"/>
<path d="M53.5764 99.8246L58.6617 94.9395C59.1557 94.467 59.8296 94.2307 60.5151 94.2917C61.9664 94.4289 64.4248 94.6803 64.9303 94.8785C65.6578 95.1605 66.3433 95.5606 66.5462 95.9226C66.7492 96.2846 67.4346 98.4566 67.4767 98.7767C67.4959 98.9329 67.4499 99.3825 67.3963 99.8055C67.3312 100.305 66.7798 100.598 66.3433 100.35C66.1441 100.24 65.9642 100.091 65.8646 99.9008C65.5429 99.2987 65.5812 99.0548 65.5812 99.0548C65.5812 99.0548 65.7421 101.227 63.9653 101.265C63.9653 101.265 64.7847 103.113 62.4948 103.879C62.4948 103.879 62.5791 105.083 60.6644 105.247C58.7497 105.407 57.0151 105.247 57.0151 105.247C57.0151 105.247 53.5189 107.747 51.0528 107.907C48.5868 108.067 43.0726 106.996 43.0726 106.996L42.4062 96.8828L53.584 99.8169L53.5764 99.8246Z" fill="#FFBF9D"/>
<path d="M60.4658 96.7263C60.4658 96.7263 60.7683 96.8749 61.2815 97.0654C61.7908 97.2559 62.503 97.5074 63.3072 97.7208C63.7054 97.8351 64.1075 97.8961 64.4445 97.9875C64.7853 98.079 64.9882 98.3305 65.1376 98.5515C65.2869 98.7763 65.4018 98.9668 65.5052 99.0812C65.6048 99.1993 65.6775 99.2488 65.6813 99.2412C65.689 99.2336 65.6316 99.1726 65.5473 99.0469C65.4592 98.9249 65.3597 98.7306 65.218 98.4981C65.1452 98.38 65.061 98.2543 64.9423 98.1362C64.8236 98.018 64.6627 97.9228 64.4828 97.8656C64.1266 97.7627 63.7437 97.6979 63.3416 97.5836C62.5413 97.3702 61.8291 97.134 61.3121 96.9663C60.7951 96.7987 60.4735 96.6996 60.4658 96.7186V96.7263Z" fill="#FF9A6C"/>
<path d="M59.8105 99.8282C59.8105 99.8282 60.0212 99.9463 60.3773 100.087C60.7334 100.228 61.2312 100.415 61.7865 100.598C62.3417 100.785 62.851 100.933 63.2225 101.032C63.5939 101.131 63.8275 101.181 63.8313 101.162C63.8352 101.143 63.613 101.063 63.2493 100.941C62.8357 100.804 62.357 100.644 61.8286 100.468C61.3002 100.293 60.8215 100.133 60.4079 99.9958C60.0441 99.8777 59.8144 99.8091 59.8105 99.8244V99.8282Z" fill="#FF9A6C"/>
<path d="M58.5508 102.709C58.547 102.751 59.4354 102.843 60.4923 103.128C61.553 103.41 62.3686 103.776 62.3839 103.738C62.3916 103.723 62.1963 103.608 61.867 103.464C61.5338 103.315 61.0667 103.14 60.5306 102.995C59.9944 102.85 59.5005 102.77 59.1405 102.728C58.7806 102.69 58.5546 102.69 58.5546 102.705L58.5508 102.709Z" fill="#FF9A6C"/>
<path d="M46.9804 107.685L24.4258 104.103C24.4258 104.103 27.1369 92.8472 31.0888 92.8472C31.667 92.8472 51.702 99.3251 51.702 99.3251L46.9766 107.689L46.9804 107.685Z" fill="#008183"/>
<path d="M50.7236 102.743C50.7236 102.743 50.9342 102.568 51.252 102.263C51.6005 101.924 52.0217 101.513 52.4851 101.059C52.9637 100.587 53.3926 100.148 53.6913 99.8246C53.99 99.5007 54.1661 99.2873 54.1508 99.2759C54.1355 99.2645 53.9402 99.4512 53.6224 99.756C53.2739 100.095 52.8527 100.507 52.3893 100.96C51.9107 101.433 51.4856 101.871 51.1831 102.195C50.8844 102.519 50.7083 102.732 50.7236 102.743Z" fill="#FF9A6C"/>
<path d="M51.5004 99.2795C51.5004 99.2795 51.397 99.2718 51.2132 99.2261C50.9911 99.1689 50.7268 99.0965 50.409 99.0127C49.6661 98.7993 48.6743 98.5173 47.4719 98.1706C44.9944 97.4466 41.5786 96.4254 37.8106 95.2784C35.7236 94.6382 33.7477 94.0324 31.9939 93.4913L31.9479 93.476L31.9134 93.4303C31.2242 92.5043 30.2056 91.9404 29.2865 91.6622C28.3522 91.3802 27.4791 91.3459 26.7707 91.4069C26.0623 91.4641 25.5147 91.6203 25.147 91.7308C24.7794 91.8489 24.588 91.9328 24.5803 91.9175C24.5727 91.9023 24.7526 91.7918 25.1126 91.6432C25.4764 91.5022 26.024 91.3193 26.7515 91.2354C27.4714 91.144 28.3752 91.1554 29.3516 91.4298C30.3204 91.7118 31.3812 92.2528 32.1547 93.2703L32.0743 93.2093C33.8319 93.739 35.8117 94.3372 37.8987 94.9659C41.6667 96.1129 45.071 97.1684 47.5294 97.9496C48.7203 98.3344 49.7006 98.6507 50.4396 98.887C50.7498 98.9937 51.0102 99.0851 51.2247 99.1575C51.4046 99.2223 51.4965 99.2642 51.4927 99.2718L51.5004 99.2795Z" fill="#263238"/>
<path d="M45.5231 63.2963C45.7108 62.6714 46.7715 56.9061 47.2004 55.5648C47.8092 53.671 52.749 50.291 52.749 50.291C52.749 50.291 51.9755 48.5153 49.8694 49.4375C47.3804 50.5311 46.1473 52.3716 45.5193 51.9943C44.8913 51.6209 40.9816 47.6579 39.9132 47.7837C38.8487 47.9094 38.6112 48.9992 38.9903 49.4336C39.3656 49.8719 39.7907 50.592 39.7907 50.592C39.7907 50.592 37.5314 49.9176 37.9717 52.3754C37.9717 52.3754 35.3984 50.7788 35.6512 54.1511C35.6512 54.1511 33.9586 53.4652 33.5795 54.6503C33.2043 55.8353 34.3186 57.2109 34.8853 58.1445C35.4482 59.0819 37.2825 64.5119 37.2825 64.5119L37.3054 69.3017L46.3005 67.4612L45.527 63.2963H45.5231Z" fill="#FFBF9D"/>
<path d="M45.5233 63.2964C45.5233 63.2964 45.5539 63.3916 45.5961 63.5707C45.6382 63.7727 45.6956 64.0356 45.7645 64.3747C45.9101 65.0987 46.113 66.1314 46.3734 67.4498L46.3887 67.5222L46.316 67.5375C44.095 68.0024 41.0239 68.6501 37.3324 69.4237L37.1831 69.4542V69.3017C37.1716 67.8271 37.1601 66.2152 37.1448 64.5119L37.1524 64.5538C36.5091 62.7134 35.8428 60.7319 35.0042 58.7275C34.5945 57.7635 33.7405 56.9252 33.4342 55.7553C33.3576 55.4657 33.3231 55.1533 33.3729 54.8408C33.4189 54.5398 33.5644 54.1968 33.8592 54.0063C34.1464 53.8158 34.4911 53.7739 34.8012 53.7967C35.1152 53.8196 35.4139 53.8882 35.7126 53.9987L35.4943 54.1587C35.4829 53.831 35.4675 53.4957 35.5173 53.1489C35.5786 52.8136 35.6552 52.4364 35.9462 52.1544C36.2296 51.8572 36.6738 51.7924 37.0337 51.8572C37.4052 51.9181 37.7383 52.0477 38.06 52.2382L37.8149 52.4021C37.7536 51.9486 37.677 51.3999 37.9834 50.9007C38.1749 50.5883 38.531 50.4092 38.8603 50.3634C39.1973 50.3139 39.5189 50.3482 39.8406 50.432L39.653 50.6683C39.427 50.2949 39.1858 49.9176 38.9177 49.5861C38.7454 49.4146 38.6535 49.1136 38.665 48.8697C38.6765 48.6182 38.7646 48.3744 38.9101 48.1686C39.0556 47.9628 39.2624 47.8066 39.4921 47.7189C39.607 47.677 39.7257 47.6427 39.8444 47.6275C39.9593 47.6122 40.1201 47.6275 40.235 47.6618C40.6984 47.8104 41.0507 48.0695 41.4068 48.3172C42.8083 49.3384 44.0107 50.5082 45.2246 51.5638C45.3701 51.6819 45.5463 51.8496 45.6535 51.8762C45.7607 51.9105 45.9445 51.8267 46.0977 51.7352C46.4194 51.5371 46.7257 51.2818 47.032 51.0455C47.6447 50.5616 48.2804 50.1081 48.9467 49.7347C49.6092 49.388 50.3061 49.0031 51.0911 49.0336C51.88 49.0488 52.5577 49.5709 52.8717 50.2301L52.9177 50.3253L52.8258 50.3901C50.8997 51.7505 49.1688 53.0918 47.9473 54.536C47.6409 54.898 47.4035 55.2828 47.2695 55.6906C47.1431 56.1097 47.0474 56.5289 46.9516 56.929C46.7755 57.7292 46.6108 58.4684 46.4653 59.1315C46.1819 60.4461 45.9598 61.4826 45.8028 62.2142C45.7224 62.5686 45.6612 62.8391 45.6114 63.0182C45.5654 63.1973 45.5233 63.2887 45.5233 63.2887C45.5156 63.2887 45.5386 63.1935 45.5731 63.0106C45.6114 62.8086 45.6612 62.5381 45.7263 62.1989C45.8679 61.4635 46.0632 60.4232 46.316 59.101C46.4538 58.4303 46.607 57.6911 46.7717 56.8871C46.8597 56.4831 46.9516 56.064 47.078 55.6334C47.2159 55.1914 47.4724 54.776 47.7788 54.4064C49.0195 52.9165 50.7426 51.5638 52.6765 50.1767L52.6305 50.3368C52.3548 49.7728 51.7574 49.3156 51.0835 49.3079C50.4057 49.2774 49.7394 49.6356 49.0922 49.9824C48.4451 50.3482 47.8324 50.7902 47.2235 51.278C46.9133 51.518 46.6147 51.7733 46.2585 51.9943C46.0786 52.0896 45.8756 52.2306 45.5807 52.1696C45.305 52.0668 45.2016 51.9219 45.0293 51.7924C43.8039 50.7293 42.6015 49.567 41.2268 48.5725C40.886 48.3324 40.5222 48.0848 40.1508 47.9666C40.0589 47.9476 39.9938 47.9323 39.898 47.9438C39.8023 47.9552 39.7066 47.9857 39.6185 48.0162C39.4424 48.0848 39.2854 48.2029 39.1781 48.3591C38.9599 48.6601 38.9063 49.1174 39.1705 49.3841C39.4615 49.7423 39.7027 50.1158 39.9363 50.5082L40.1393 50.8474L39.7487 50.7445C39.2241 50.6035 38.5348 50.6187 38.2591 51.076C38.0293 51.4266 38.0753 51.9258 38.1366 52.3449L38.1863 52.6802L37.8915 52.5088C37.6158 52.3487 37.2941 52.223 36.9878 52.1734C36.6776 52.1201 36.3674 52.1734 36.176 52.3792C35.7777 52.806 35.7892 53.53 35.816 54.1321L35.8275 54.3759L35.5977 54.2921C35.0923 54.1092 34.4566 53.9987 34.0469 54.2654C33.8439 54.395 33.7367 54.6312 33.6907 54.8903C33.6486 55.1457 33.6754 55.4162 33.7443 55.6753C33.8822 56.1974 34.1579 56.6851 34.4489 57.1538C34.7361 57.6187 35.0808 58.0798 35.2914 58.6056C36.1338 60.6366 36.7886 62.6105 37.4243 64.4624L37.432 64.4852V64.5081C37.432 66.2076 37.4358 67.8233 37.4396 69.2979L37.2903 69.176C40.9894 68.4406 44.0682 67.8271 46.293 67.3851L46.2356 67.4727C46.0058 66.1428 45.822 65.1025 45.6956 64.3709C45.642 64.0318 45.5961 63.7651 45.5654 63.5669C45.5386 63.384 45.5271 63.2926 45.5348 63.2926L45.5233 63.2964Z" fill="#FF9A6C"/>
<path d="M39.8025 50.6532C39.7795 50.6836 40.285 51.1142 40.8939 51.6668C41.5027 52.2155 41.9814 52.6804 42.012 52.6537C42.0388 52.6308 41.5985 52.1202 40.9858 51.5677C40.3731 51.0114 39.8255 50.6265 39.8025 50.6532Z" fill="#FF9A6C"/>
<path d="M37.7913 52.242C37.7606 52.2572 37.9521 52.7412 38.3465 53.2403C38.7371 53.7433 39.1622 54.052 39.1813 54.0215C39.2081 53.991 38.8328 53.6481 38.4537 53.1565C38.0708 52.6688 37.8296 52.2229 37.7913 52.2382V52.242Z" fill="#FF9A6C"/>
<path d="M35.6895 54.0292C35.6588 54.052 35.8695 54.395 36.1605 54.7951C36.4515 55.199 36.7119 55.5038 36.7425 55.4848C36.7732 55.4619 36.5626 55.119 36.2715 54.7189C35.9805 54.315 35.7201 54.0101 35.6895 54.0292Z" fill="#FF9A6C"/>
<path d="M70.506 61.5858L60.8332 71.1884L50.9115 83.5954L46.9634 67.0616L36.8809 69.1231C36.8809 69.1231 37.5931 87.7984 40.6949 96.2616C41.2846 97.8735 43.0307 99.07 43.8119 99.4396C48.6866 101.745 53.4465 98.1783 53.4465 98.1783C53.4465 98.1783 73.7839 84.5938 75.9896 75.5019C77.0312 71.2074 76.6138 66.1013 74.8408 64.0017C73.2823 62.1536 70.5099 61.582 70.5099 61.582L70.506 61.5858Z" fill="#008183"/>
<path d="M75.9885 75.5055C75.9885 75.5055 75.9655 75.6046 75.9119 75.7989C75.8468 75.9894 75.797 76.2867 75.64 76.6487C75.3835 77.3917 74.8589 78.4358 74.0432 79.6856C73.2237 80.9355 72.0941 82.3797 70.6581 83.9458C69.2183 85.5043 67.4913 87.2 65.4847 88.9681C63.4858 90.74 61.215 92.5919 58.7107 94.4933C57.4585 95.4422 56.1488 96.4062 54.778 97.3703C54.4333 97.6103 54.0887 97.8504 53.7364 98.0905C53.3917 98.3267 53.028 98.5782 52.6527 98.7878C51.8983 99.2146 51.0903 99.5728 50.2364 99.8357C48.5438 100.381 46.6292 100.491 44.8332 99.9386C44.6035 99.8852 44.3967 99.7747 44.1746 99.6947C43.9563 99.6071 43.7342 99.527 43.5274 99.4051C43.11 99.1765 42.7233 98.8983 42.3518 98.5973C41.6243 97.9876 40.9618 97.2407 40.6057 96.3186C39.9624 94.501 39.499 92.5995 39.0931 90.6599C38.7217 88.7128 38.3808 86.7313 38.1205 84.7155C37.4082 79.3351 37.0061 74.0918 36.7764 69.1305V69.0505L36.853 69.0352C40.3721 68.3189 43.7457 67.6291 46.9394 66.9775L47.0236 66.9585L47.0427 67.0423C48.5323 73.3221 49.8611 78.9121 50.9678 83.58L50.8529 83.5495C54.2572 79.9028 56.9913 76.9764 58.8791 74.9568C59.8212 73.9546 60.5525 73.1773 61.0504 72.6476C61.2954 72.3885 61.4831 72.1903 61.6171 72.0532C61.7435 71.9198 61.8124 71.855 61.8124 71.855C61.8124 71.855 61.7511 71.9274 61.6286 72.0646C61.5022 72.2056 61.3184 72.4075 61.0772 72.6705C60.5832 73.2078 59.8633 73.9927 58.9328 75.0025C57.0564 77.0335 54.3376 79.9714 50.9525 83.6372L50.8644 83.7324L50.8338 83.6067C49.7156 78.9426 48.3715 73.3564 46.8666 67.0804L46.97 67.1452C43.7763 67.8006 40.4066 68.4903 36.8874 69.2143L36.964 69.1153C37.1976 74.0727 37.6035 79.3122 38.3119 84.6812C38.5685 86.697 38.9093 88.6709 39.2807 90.6142C39.6866 92.5462 40.1462 94.4438 40.7818 96.2424C41.1188 97.1188 41.7583 97.8466 42.4667 98.441C42.8267 98.7344 43.2058 99.0088 43.6079 99.2298C43.8031 99.3441 44.0252 99.4203 44.2359 99.508C44.4503 99.5842 44.6571 99.6947 44.8792 99.748C46.633 100.289 48.5055 100.186 50.1713 99.6528C51.0099 99.3937 51.8064 99.0431 52.5531 98.6239C52.9284 98.4144 53.2692 98.1781 53.6253 97.9342C53.9738 97.6942 54.3223 97.4541 54.6631 97.2179C56.034 96.2576 57.3436 95.3012 58.5958 94.3523C61.1001 92.4585 63.3748 90.618 65.3737 88.8538C67.384 87.0971 69.1149 85.4129 70.5585 83.862C71.9984 82.3073 73.1318 80.8745 73.959 79.6361C74.7784 78.3939 75.3145 77.3612 75.5826 76.6258C75.7473 76.2676 75.8009 75.9742 75.8736 75.7837C75.9349 75.5931 75.9694 75.4941 75.9694 75.4941L75.9885 75.5055Z" fill="#263238"/>
<path d="M52.7452 91.1896C52.7107 91.1819 52.8294 90.7056 52.8907 89.9207C52.929 89.5282 52.9213 89.0595 52.8945 88.5451C52.8524 88.0268 52.7643 87.4629 52.615 86.8837C52.3163 85.7215 51.8147 84.746 51.4126 84.0715C51.0028 83.4009 50.6965 83.0122 50.7233 82.9931C50.7348 82.9855 50.819 83.0732 50.9646 83.2446C51.1139 83.4123 51.3054 83.6714 51.5313 83.9991C51.9717 84.6621 52.5039 85.6491 52.8103 86.8341C52.9635 87.4248 53.0439 88.004 53.0783 88.5336C53.0975 89.0633 53.086 89.5396 53.0324 89.9359C52.9826 90.3322 52.9213 90.6485 52.8601 90.8619C52.8026 91.0753 52.7605 91.1934 52.749 91.1896H52.7452Z" fill="#263238"/>
<path d="M51.3672 46.2138C51.348 46.2672 51.1412 46.2443 50.8234 46.1796C50.5056 46.1186 50.0767 46.0195 49.6057 45.9852C49.1308 45.9471 48.7058 45.9814 48.4148 46.0576C48.1161 46.1262 47.9897 46.2481 47.9399 46.2291C47.9169 46.2177 47.9169 46.1529 47.9782 46.0652C48.0357 45.9776 48.1544 45.8785 48.3114 45.7985C48.6292 45.6346 49.1193 45.5508 49.6363 45.5927C50.1571 45.6346 50.6051 45.7833 50.9076 45.9166C51.2102 46.05 51.3825 46.1681 51.3672 46.2177V46.2138Z" fill="#263238"/>
<path d="M135.935 21.7664C137.436 21.8998 138.948 20.7681 139.232 19.2934C139.515 17.8187 138.535 16.2107 137.091 15.7801C137.999 14.8084 138.194 13.2423 137.554 12.0801C136.911 10.9141 135.483 10.2396 134.169 10.4797C134.081 9.17265 133.266 7.93423 132.094 7.33598C130.922 6.73773 129.436 6.80251 128.318 7.49602C126.832 6.28808 124.485 6.29952 123.011 7.51888C121.728 7.31312 120.349 8.02568 119.775 9.18789C119.204 10.3501 119.484 11.8705 120.434 12.7545" fill="#263238"/>
<path d="M122.42 10.5564L123.097 10.5411C129.902 10.3849 135.684 15.4491 136.393 22.1861C137.048 28.4506 137.691 35.3819 137.729 38.7504C137.806 45.7237 130.825 46.9697 130.825 46.9697L131.614 55.3338L114.596 55.2043L112.379 24.8611C111.583 17.6363 115.144 11.1546 122.423 10.5602L122.42 10.5564Z" fill="#FFBF9D"/>
<path d="M130.829 46.9658C130.829 46.9658 125.943 47.3278 121.168 44.4966C121.168 44.4966 124.013 49.5798 130.99 48.791L130.829 46.9696V46.9658Z" fill="#FF9A6C"/>
<path d="M134.25 29.7497C134.28 30.2756 133.859 30.7328 133.308 30.7785C132.756 30.8205 132.285 30.4318 132.255 29.9059C132.224 29.3801 132.645 28.919 133.193 28.8771C133.744 28.8352 134.215 29.2277 134.246 29.7497H134.25Z" fill="#263238"/>
<path d="M134.961 25.6305C134.839 25.7639 134.069 25.2228 132.993 25.2495C131.917 25.2609 131.139 25.8325 131.021 25.7029C130.963 25.6457 131.082 25.4095 131.419 25.1504C131.752 24.8951 132.323 24.6398 132.997 24.6283C133.667 24.6169 134.237 24.8493 134.567 25.0932C134.904 25.3371 135.022 25.5695 134.961 25.6305Z" fill="#263238"/>
<path d="M124.978 29.7496C125.009 30.2755 124.587 30.7327 124.036 30.7746C123.485 30.8166 123.014 30.4279 122.983 29.902C122.952 29.3762 123.374 28.9151 123.925 28.8732C124.476 28.8313 124.947 29.2238 124.978 29.7458V29.7496Z" fill="#263238"/>
<path d="M124.385 26.0763C124.262 26.2097 123.493 25.6686 122.417 25.6952C121.341 25.7067 120.563 26.2783 120.445 26.1487C120.387 26.0915 120.506 25.8553 120.847 25.5962C121.18 25.3409 121.75 25.0856 122.42 25.0741C123.091 25.0627 123.661 25.2951 123.99 25.539C124.327 25.7829 124.446 26.0153 124.385 26.0763Z" fill="#263238"/>
<path d="M128.478 33.93C128.471 33.869 129.137 33.7395 130.221 33.5756C130.496 33.5413 130.753 33.4803 130.795 33.2936C130.856 33.0955 130.734 32.8021 130.592 32.4858C130.316 31.8304 130.033 31.1407 129.73 30.4205C128.532 27.4788 127.659 25.0591 127.777 25.0134C127.896 24.9676 128.964 27.3111 130.163 30.2528C130.45 30.9768 130.73 31.6703 130.99 32.3296C131.101 32.6382 131.289 32.985 131.159 33.4003C131.09 33.6061 130.891 33.7585 130.714 33.8119C130.538 33.869 130.385 33.8766 130.247 33.8881C129.156 33.9719 128.482 33.9909 128.474 33.9338L128.478 33.93Z" fill="#263238"/>
<path d="M124.611 23.8627C124.476 24.1371 123.546 23.8627 122.409 23.8551C121.271 23.8208 120.322 24.0532 120.211 23.7751C120.161 23.6417 120.36 23.394 120.762 23.1654C121.164 22.9367 121.777 22.7576 122.458 22.7691C123.14 22.7843 123.737 22.9901 124.117 23.234C124.499 23.4778 124.672 23.7331 124.614 23.8627H124.611Z" fill="#263238"/>
<path d="M134.911 21.2103C134.689 21.4579 133.797 21.2255 132.729 21.2407C131.66 21.2217 130.76 21.4503 130.546 21.1988C130.45 21.0769 130.588 20.8292 130.979 20.5891C131.361 20.3491 132.009 20.1471 132.744 20.1509C133.479 20.1509 134.119 20.3605 134.498 20.6006C134.881 20.8406 135.011 21.0883 134.915 21.2103H134.911Z" fill="#263238"/>
<path d="M135.638 19.0041C135.638 19.0041 133.689 14.6791 131.549 13.7113C128.96 12.5376 127.922 15.3612 125.464 14.7363C123.006 14.1152 120.536 12.9873 118.085 14.923C115.404 17.0417 116.714 18.4554 116.618 21.5495C116.228 34.109 114.01 37.7061 113.218 31.8151C113.13 31.1711 111.315 30.6948 110.981 27.9664C110.553 24.4303 110.315 20.1244 111.05 17.5904C111.671 15.4527 112.85 13.959 114.995 12.2938C118.376 9.66449 123.097 9.50064 126.314 9.74451C129.531 9.9922 135.803 13.5207 135.638 18.9965V19.0041Z" fill="#263238"/>
<path d="M113.659 31.617C113.59 30.5424 112.636 29.7155 111.564 29.8413C110.262 29.9937 108.822 30.7672 108.972 33.4537C109.236 38.2168 113.988 36.9708 113.988 36.8336C113.988 36.7421 113.789 33.6137 113.659 31.6208V31.617Z" fill="#FFBF9D"/>
<path d="M112.847 35.0962C112.824 35.081 112.767 35.1572 112.629 35.2296C112.495 35.2982 112.262 35.3554 112.005 35.2753C111.488 35.1191 111.017 34.3418 110.948 33.4844C110.914 33.05 110.979 32.6346 111.117 32.2841C111.243 31.9259 111.457 31.6706 111.706 31.6134C111.955 31.541 112.147 31.682 112.212 31.8154C112.285 31.9449 112.258 32.0402 112.285 32.0478C112.3 32.0593 112.384 31.964 112.334 31.7658C112.307 31.6706 112.246 31.5639 112.128 31.4762C112.009 31.3886 111.836 31.3505 111.66 31.381C111.293 31.4267 110.979 31.7811 110.829 32.166C110.661 32.5546 110.573 33.0233 110.615 33.5111C110.699 34.4675 111.243 35.3401 111.944 35.5002C112.285 35.5688 112.56 35.4544 112.698 35.3325C112.84 35.2068 112.859 35.1001 112.844 35.0924L112.847 35.0962Z" fill="#FF9A6C"/>
<path d="M113.537 22.3802C114.169 22.7879 114.835 23.2071 115.59 23.2642C116.34 23.3214 117.187 22.8717 117.298 22.1287C117.347 21.7972 117.256 21.4123 117.47 21.1494C117.723 20.8369 118.209 20.9208 118.611 20.9551C120.009 21.0694 121.598 19.4994 121.923 18.1429C122.291 18.6649 123.072 18.8059 123.601 18.4477C124.129 18.0895 124.321 17.8876 124.73 17.3998C125.14 16.9121 125.718 16.4701 126.354 16.5425C126.71 16.5844 127.047 16.7863 127.399 16.7482C128.027 16.6796 128.318 15.9366 128.399 15.3155C128.479 14.6906 128.537 13.9666 129.061 13.616C129.548 13.2921 130.191 13.4559 130.773 13.5283C131.355 13.6007 132.098 13.4483 132.232 12.8806C132.305 12.5833 132.167 12.2747 131.998 12.0194C131.225 10.8686 129.586 10.3885 128.307 10.9372C127.801 9.37488 126.293 8.18218 124.646 8.04881C123 7.91545 121.318 8.84521 120.56 10.3085C119.526 9.41679 118.048 9.07003 116.719 9.40155C115.395 9.73688 114.257 10.7429 113.775 12.0156C112.603 11.7374 111.286 12.2175 110.57 13.1816C109.853 14.1457 109.781 15.5403 110.393 16.573C109.543 17.0836 108.827 17.9524 108.831 18.9393C108.835 19.9262 109.827 20.8865 110.776 20.6045C110.409 21.3818 110.746 22.4183 111.504 22.8298C112.262 23.2414 113.319 22.967 113.779 22.2354" fill="#263238"/>
<path d="M128.701 12.3355C128.701 12.3355 128.705 12.366 128.701 12.4232C128.698 12.4803 128.694 12.568 128.678 12.6785C128.64 12.8995 128.56 13.2272 128.353 13.6044C128.146 13.9779 127.821 14.4085 127.319 14.7552C126.825 15.1058 126.147 15.3801 125.37 15.3573L125.45 15.2506C125.607 15.6545 125.581 16.1461 125.385 16.569C125.201 16.9996 124.907 17.3845 124.593 17.7617C124.432 17.9408 124.294 18.1542 124.068 18.3219C123.85 18.4819 123.585 18.581 123.314 18.6191C122.774 18.6991 122.161 18.5467 121.759 18.1047L121.935 18.0513C121.835 19.0001 121.315 19.9642 120.468 20.5586C120.02 20.8978 119.461 21.1112 118.906 21.1074C118.351 21.115 117.834 20.9664 117.347 20.8063L117.474 20.7454C117.229 21.3436 116.846 21.858 116.375 22.2429C115.911 22.6278 115.287 22.8602 114.717 22.7345C113.579 22.5211 112.81 21.6027 112.637 20.7263L112.748 20.7758C112.193 21.0921 111.592 21.1378 111.11 21.054C110.619 20.9778 110.229 20.772 109.949 20.5701C109.67 20.3643 109.501 20.1471 109.402 19.9985C109.31 19.8423 109.268 19.7584 109.275 19.7546C109.298 19.7356 109.444 20.1128 109.999 20.5015C110.275 20.6882 110.658 20.8711 111.129 20.9359C111.596 21.0045 112.166 20.9511 112.676 20.6463L112.764 20.5929L112.787 20.692C112.959 21.5113 113.702 22.3686 114.755 22.5515C115.272 22.6582 115.82 22.4525 116.26 22.0905C116.7 21.7285 117.068 21.2331 117.294 20.6692L117.328 20.5815L117.42 20.612C117.899 20.7682 118.397 20.9092 118.91 20.9016C119.423 20.9016 119.925 20.7111 120.35 20.391C121.15 19.827 121.636 18.9277 121.736 18.0246L121.759 17.7998L121.912 17.9713C122.253 18.3524 122.8 18.4972 123.287 18.4248C123.528 18.3905 123.765 18.3066 123.953 18.1656C124.137 18.0323 124.282 17.8227 124.447 17.6398C124.761 17.2702 125.048 16.9005 125.221 16.5004C125.404 16.1041 125.431 15.6736 125.297 15.3077L125.255 15.1934H125.374C126.105 15.2315 126.76 14.98 127.242 14.6523C127.733 14.3246 128.058 13.9169 128.273 13.5625C128.694 12.8309 128.667 12.3279 128.701 12.3355Z" fill="#455A64"/>
<path d="M94.2458 54.5829C94.2458 54.5829 76.2404 60.8931 71.0326 63.4995C66.962 65.5344 64.3849 72.923 70.6458 76.0019C75.3137 78.2996 100.591 73.9099 100.591 73.9099L94.2458 54.5791V54.5829Z" fill="#FFBF9D"/>
<path d="M149.216 117.32L103.467 115.597L101.809 131.095L99.9746 162.181L123.33 162.28C123.341 162.147 126.244 144.805 126.244 144.805L127.565 144.462L127.442 162.28H149.331C150.479 147.537 151.138 135.149 151.176 133.987C151.494 124.777 149.22 117.323 149.22 117.323L149.216 117.32Z" fill="#263238"/>
<path d="M124.593 135.145C124.585 135.168 124.83 135.294 125.286 135.496C125.746 135.69 126.423 135.983 127.331 136.113C127.783 136.174 128.296 136.178 128.828 136.06C129.357 135.942 129.92 135.694 130.364 135.244C130.808 134.795 131.08 134.181 131.244 133.552C131.409 132.916 131.49 132.257 131.597 131.586C132.003 128.9 132.248 126.45 132.378 124.674C132.443 123.786 132.481 123.066 132.497 122.57C132.512 122.071 132.508 121.797 132.485 121.797C132.462 121.797 132.42 122.067 132.363 122.563C132.301 123.131 132.225 123.828 132.137 124.655C131.945 126.423 131.662 128.858 131.256 131.537C131.049 132.863 130.927 134.208 130.138 135.027C129.345 135.831 128.204 135.961 127.362 135.873C126.492 135.781 125.811 135.526 125.336 135.374C124.865 135.21 124.601 135.122 124.593 135.145Z" fill="#455A64"/>
<path d="M128.959 122.41C128.959 122.41 128.852 122.33 128.622 122.327C128.396 122.319 128.055 122.403 127.726 122.654C127.412 122.906 127.083 123.348 127.094 123.935C127.094 124.529 127.58 125.089 128.197 125.28C128.806 125.489 129.533 125.322 129.886 124.842C130.242 124.377 130.242 123.828 130.135 123.439C130.02 123.039 129.794 122.772 129.606 122.647C129.418 122.513 129.288 122.502 129.284 122.517C129.242 122.563 129.755 122.769 129.897 123.496C129.962 123.839 129.924 124.3 129.637 124.647C129.361 124.998 128.806 125.124 128.304 124.956C127.799 124.792 127.427 124.369 127.412 123.919C127.385 123.474 127.63 123.077 127.887 122.841C128.434 122.338 128.97 122.475 128.967 122.41H128.959Z" fill="#455A64"/>
<path d="M103.463 130.161C103.463 130.184 103.658 130.207 104.022 130.222C104.382 130.245 104.907 130.233 105.55 130.176C106.837 130.066 108.606 129.677 110.398 128.839C112.19 127.993 113.614 126.876 114.518 125.962C114.97 125.504 115.315 125.112 115.525 124.819C115.74 124.529 115.851 124.365 115.832 124.35C115.786 124.312 115.288 124.929 114.35 125.786C113.419 126.644 112.002 127.703 110.252 128.53C108.498 129.349 106.779 129.765 105.519 129.936C104.259 130.111 103.467 130.1 103.463 130.161Z" fill="#455A64"/>
<path d="M150.138 114.789C149.242 112.754 149.407 112.567 149.407 112.567L146.864 90.4168L144.421 68.8683L142.441 52.9213L130.995 50.4826C130.995 50.4826 129.678 54.114 124.145 54.2245C117.773 54.3502 114.12 48.6802 114.12 48.6802L95.8193 52.5898L102.701 99.5583L103.524 112.209C103.524 112.209 102.157 114.255 102.157 116.454C102.157 118.653 102.069 120.112 102.069 120.112C119.056 124.757 135.912 128.777 151.421 124.281C151.421 124.281 151.034 116.816 150.138 114.785V114.789Z" fill="#008183"/>
<path d="M138.264 52.0947C138.264 52.0947 144.862 52.8263 147.201 55.2994C149.541 57.7724 157.023 70.0042 157.023 70.0042L146.156 84.7966L141.12 77.9606L138.264 52.0947Z" fill="#008183"/>
<path d="M143.292 59.7499C143.384 59.7423 144.421 67.8701 145.612 77.907C146.803 87.9478 147.695 96.0909 147.603 96.0985C147.512 96.1061 146.474 87.9783 145.283 77.9375C144.092 67.9006 143.2 59.7575 143.292 59.7461V59.7499Z" fill="#263238"/>
<path d="M95.816 52.5938L81.165 59.064L86.4648 73.826L100.591 76.0513L95.816 52.5938Z" fill="#008183"/>
<path d="M97.8341 62.3794C97.9298 62.368 98.6306 68.1257 99.3965 75.2399C100.162 82.3542 100.702 88.1271 100.603 88.1386C100.507 88.15 99.8062 82.3923 99.0403 75.278C98.2745 68.1676 97.7345 62.3908 97.8341 62.3794Z" fill="#263238"/>
<path d="M137.019 54.2016C137.019 53.9463 137.222 44.4962 136.586 43.4673C135.951 42.4423 135.441 41.4782 135.311 40.518C135.311 40.518 135.659 39.9578 135.024 39.6035C134.392 39.2529 133.389 40.1103 133.366 41.6268C133.343 43.1434 133.519 45.7384 133.519 45.7384C133.519 45.7384 126.511 41.7831 124.593 41.6726C122.67 41.5621 119.791 41.2115 119.638 42.1336C119.484 43.0558 119.615 43.2768 120.618 43.6274C121.621 43.9779 123.214 44.2218 124.788 44.7477C126.358 45.2735 127.078 45.6355 127.078 45.6355C127.078 45.6355 123.498 44.5876 122.713 45.6355C121.928 46.6834 122.035 47.6284 122.536 48.1352C122.536 48.1352 121.468 48.5734 121.575 49.7395C121.683 50.9055 122.207 51.1913 122.207 51.1913C122.207 51.1913 121.158 51.9839 121.663 52.9936C122.165 54.0034 123.344 53.3671 124.459 54.5102C125.573 55.6534 128.342 58.336 129.414 58.9304C130.482 59.5249 132.929 59.7649 132.929 59.7649L137.015 54.2016H137.019Z" fill="#FFBF9D"/>
<path d="M137.019 54.2018C137.019 54.2018 137 54.2361 136.958 54.297C136.908 54.3656 136.843 54.4571 136.759 54.579C136.575 54.8305 136.315 55.1963 135.974 55.6688C135.277 56.6291 134.262 58.0237 132.975 59.7918L132.956 59.8147H132.926C132.443 59.7613 131.938 59.6889 131.413 59.5937C130.888 59.4946 130.345 59.3727 129.801 59.1707C129.525 59.0716 129.261 58.923 129.02 58.7477C128.771 58.5763 128.537 58.3857 128.296 58.1914C127.821 57.7989 127.343 57.3759 126.86 56.9301C126.378 56.4881 125.887 56.0232 125.39 55.5393C125.145 55.2954 124.892 55.0477 124.639 54.8C124.39 54.5409 124.145 54.2932 123.831 54.1217C123.525 53.9427 123.172 53.8588 122.809 53.7788C122.456 53.6988 122.027 53.615 121.763 53.2834C121.503 52.9748 121.392 52.5366 121.491 52.1327C121.595 51.7287 121.847 51.3934 122.165 51.1267L122.177 51.2639C121.901 51.0733 121.763 50.7952 121.656 50.5094C121.556 50.2198 121.503 49.9187 121.491 49.6025C121.48 49.2824 121.576 48.9585 121.759 48.6841C121.947 48.4136 122.2 48.2002 122.506 48.0554L122.479 48.1964C122.031 47.7506 121.962 47.038 122.169 46.4702C122.265 46.1806 122.414 45.9063 122.594 45.6586C122.675 45.5328 122.805 45.3995 122.946 45.3271C123.088 45.247 123.241 45.1975 123.395 45.1594C124.015 45.0298 124.639 45.0832 125.259 45.1594C125.88 45.247 126.492 45.3766 127.105 45.5481L127.04 45.7157C126.121 45.2966 125.125 44.9384 124.111 44.6335C123.092 44.3325 122.027 44.1344 120.967 43.8333C120.588 43.7152 120.209 43.6047 119.856 43.3799C119.68 43.2656 119.535 43.0636 119.508 42.8464C119.477 42.633 119.5 42.4349 119.527 42.2405C119.542 42.1529 119.55 42.031 119.615 41.9281C119.676 41.829 119.764 41.7566 119.856 41.6994C120.04 41.5928 120.235 41.5432 120.431 41.5051C120.821 41.4327 121.208 41.4213 121.591 41.4175C122.361 41.4175 123.115 41.4784 123.862 41.528C124.237 41.5585 124.601 41.5623 124.984 41.6347C125.168 41.6766 125.347 41.7299 125.527 41.7795L126.052 41.9624C127.431 42.4844 128.721 43.117 129.966 43.7419C131.21 44.3744 132.405 45.0146 133.554 45.6586L133.431 45.7348C133.347 44.2373 133.255 42.8045 133.293 41.4175C133.347 40.7278 133.611 40.0152 134.189 39.6151C134.335 39.5198 134.503 39.455 134.683 39.4474C134.863 39.436 135.043 39.5122 135.177 39.6151C135.315 39.718 135.43 39.8704 135.457 40.0457C135.487 40.221 135.445 40.3924 135.361 40.5449L135.373 40.4991C135.522 41.5546 136.054 42.4654 136.548 43.2922C136.609 43.3913 136.682 43.5056 136.717 43.6276C136.759 43.7457 136.778 43.8638 136.805 43.9819C136.847 44.2182 136.878 44.4506 136.901 44.6793C136.95 45.1365 136.977 45.5824 137 46.0091C137.084 47.7277 137.08 49.21 137.08 50.4217C137.077 51.6335 137.061 52.5785 137.046 53.2187C137.038 53.5349 137.031 53.775 137.027 53.9465C137.019 54.1103 137.012 54.1942 137.012 54.1942C137.012 54.1942 137.004 54.1103 137.004 53.9465C137.004 53.775 137.004 53.5311 137.004 53.2187C137.004 52.5709 137.004 51.6297 137.004 50.4255C136.992 49.2138 136.981 47.7315 136.889 46.0206C136.862 45.5938 136.832 45.1518 136.782 44.6983C136.759 44.4697 136.724 44.2411 136.682 44.0124C136.632 43.7762 136.586 43.5666 136.441 43.3646C135.939 42.534 135.399 41.6194 135.235 40.5258V40.5029L135.246 40.4801C135.311 40.362 135.346 40.2133 135.323 40.0762C135.3 39.939 135.212 39.8209 135.093 39.7332C134.859 39.5389 134.53 39.5694 134.274 39.7408C133.753 40.099 133.496 40.7735 133.45 41.4327C133.416 42.7931 133.508 44.2373 133.6 45.7272L133.607 45.8758L133.477 45.8034C132.332 45.1632 131.137 44.5269 129.893 43.8981C128.648 43.2732 127.358 42.6445 125.995 42.13L125.478 41.9509C125.302 41.9052 125.125 41.8519 124.949 41.81C124.605 41.7414 124.222 41.7337 123.85 41.7071C123.103 41.6575 122.349 41.6004 121.591 41.6004C121.212 41.6004 120.833 41.6156 120.465 41.6842C120.113 41.7566 119.699 41.8823 119.711 42.2672C119.684 42.4539 119.665 42.6445 119.692 42.8159C119.718 42.9912 119.814 43.1284 119.963 43.2275C120.27 43.4256 120.657 43.5399 121.024 43.6542C122.07 43.9477 123.138 44.1496 124.168 44.4545C125.194 44.7669 126.182 45.1175 127.124 45.5519L127.059 45.7195C126.458 45.5519 125.849 45.4223 125.24 45.3347C124.635 45.2547 124.015 45.2051 123.44 45.3271C123.157 45.3957 122.889 45.51 122.744 45.7538C122.575 45.9901 122.433 46.2492 122.341 46.5198C122.15 47.0532 122.215 47.682 122.606 48.0706L122.694 48.1583L122.579 48.2116C122.315 48.3336 122.07 48.5355 121.905 48.7756C121.74 49.0195 121.656 49.3052 121.664 49.5948C121.671 49.8844 121.725 50.1817 121.817 50.4484C121.909 50.7113 122.058 50.9781 122.257 51.1152L122.353 51.18L122.265 51.2524C121.978 51.4887 121.736 51.8126 121.648 52.1631C121.56 52.5137 121.66 52.9024 121.886 53.1729C122.108 53.4549 122.487 53.5387 122.843 53.6188C123.207 53.6988 123.582 53.7902 123.908 53.9808C124.237 54.1599 124.505 54.4342 124.746 54.6857C124.999 54.9372 125.248 55.1849 125.493 55.4288C125.987 55.9127 126.473 56.3776 126.956 56.8234C127.438 57.2692 127.909 57.6922 128.38 58.0847C128.859 58.4657 129.315 58.862 129.847 59.0526C130.379 59.2545 130.919 59.3803 131.436 59.4793C131.957 59.5784 132.459 59.6546 132.937 59.708L132.891 59.727C134.193 57.9742 135.219 56.5948 135.924 55.6422C136.276 55.1735 136.544 54.8153 136.732 54.5638C136.824 54.4456 136.893 54.3542 136.943 54.2894C136.992 54.2284 137.019 54.198 137.019 54.198V54.2018Z" fill="#FF9A6C"/>
<path d="M159.723 76.2645C159.022 74.9346 157.44 72.1606 156.678 70.4649L151.67 72.2749C151.67 72.2749 137.482 53.207 137.03 53.207C136.578 53.207 130.417 58.8923 130.417 58.8923C130.689 59.1629 143.463 88.2943 148.353 91.4494C153.244 94.6046 156.893 96.6089 159.52 92.101C162.147 87.5932 162.801 82.1251 159.723 76.2645Z" fill="#FFBF9D"/>
<path d="M158.088 80.833C158.088 80.833 157.992 80.7073 157.854 80.4634C157.716 80.2195 157.51 79.869 157.249 79.4422C156.728 78.5848 155.955 77.4302 155.021 76.2185C154.082 75.0067 153.175 73.955 152.512 73.1967C152.202 72.8385 151.938 72.5375 151.727 72.2974C151.544 72.0841 151.448 71.9621 151.456 71.9545C151.463 71.9469 151.578 72.0498 151.781 72.2517C151.98 72.4499 152.263 72.7433 152.608 73.1129C153.294 73.8483 154.224 74.8886 155.162 76.108C156.104 77.3273 156.862 78.4972 157.356 79.3774C157.605 79.8156 157.793 80.1776 157.916 80.4329C158.038 80.6882 158.099 80.8292 158.088 80.8368V80.833Z" fill="#FF9A6C"/>
<path d="M129.23 38.369C129.104 38.4643 128.575 37.9194 127.737 37.6298C126.906 37.3173 126.152 37.3935 126.113 37.2411C126.098 37.1725 126.278 37.0506 126.611 36.9896C126.944 36.9248 127.43 36.9401 127.921 37.1192C128.411 37.2983 128.794 37.5993 129.008 37.8584C129.223 38.1213 129.284 38.3309 129.226 38.3728L129.23 38.369Z" fill="#263238"/>
<path d="M142.035 114.659C142.035 114.659 141.978 114.701 141.859 114.762C141.74 114.819 141.568 114.922 141.334 115.014C140.867 115.212 140.166 115.441 139.266 115.566C138.367 115.692 137.279 115.703 136.088 115.551C134.897 115.402 133.614 115.101 132.293 114.709C129.655 113.905 127.323 113.028 125.649 112.346C124.815 112.007 124.145 111.714 123.685 111.508C123.471 111.409 123.298 111.329 123.157 111.264C123.038 111.207 122.977 111.173 122.977 111.169C122.977 111.161 123.045 111.184 123.168 111.234C123.31 111.291 123.49 111.359 123.708 111.447C124.198 111.641 124.872 111.908 125.692 112.232C127.373 112.88 129.708 113.741 132.339 114.537C133.653 114.93 134.928 115.231 136.103 115.391C137.279 115.551 138.355 115.551 139.243 115.444C140.132 115.338 140.833 115.128 141.304 114.953C141.771 114.77 142.024 114.648 142.031 114.663L142.035 114.659Z" fill="#263238"/>
<path d="M107.387 78.3034C100.992 74.0166 93.3874 72.4848 88.4017 72.481C83.7337 72.481 76.8601 73.205 70.6375 76.6916C66.7737 78.856 63.6911 81.8167 61.4701 85.4901C58.8432 89.8417 57.4187 95.2222 57.2387 101.49C57.2119 102.432 57.5604 103.32 58.219 103.998C58.8815 104.676 59.7699 105.053 60.7234 105.053L72.9657 105.061C74.6927 105.061 76.1785 103.781 76.4236 102.081C76.9674 98.2592 79.2534 91.8308 88.4132 91.6784C95.3978 91.5679 98.2698 96.5939 99.1812 98.7621C100.667 102.291 100.288 106.475 98.1626 109.95C94.9 115.292 88.9071 116.108 85.6254 116.115C81.8497 116.127 78.7786 119.175 78.7748 122.909L78.7671 136.018C78.7671 137.931 80.3295 139.489 82.2556 139.493L94.1839 139.5C96.1062 139.5 97.6724 137.946 97.6763 136.029V133.274C97.6763 133.209 97.7184 133.152 97.7835 133.129C100.487 132.188 105.725 129.913 110.447 125.245C116.474 119.289 119.534 111.604 119.538 102.394C119.545 89.213 112.936 82.0149 107.387 78.2958V78.3034Z" fill="#002324"/>
<path d="M88.8118 142.804H87.7664C82.7768 142.8 78.7177 146.836 78.7139 151.801C78.7139 156.766 82.7653 160.805 87.7549 160.809H88.8003C93.7899 160.813 97.8489 156.777 97.8528 151.812C97.8528 146.847 93.8013 142.808 88.8118 142.804Z" fill="#002324"/>
<path d="M118.638 85.7756C118.401 85.3603 113.721 79.6673 111.397 77.461C109.896 76.0359 107.633 75.0528 106.212 74.5346C106.212 74.5346 82.7883 66.1171 81.1646 65.2979L70.6455 76.0092C74.3063 77.0228 99.1739 82.9787 105.308 84.32C106.381 85.566 107.46 86.5872 107.46 86.5872L109.245 90.756C109.245 90.756 109.452 92.2725 109.322 93.8996C109.191 95.5267 110.52 94.8942 110.52 94.8942C110.52 94.8942 110.459 95.904 110.543 97.3634C110.543 97.3786 110.543 97.3939 110.543 97.4053C110.631 98.4951 112.205 98.6285 112.538 97.5882L113.748 93.8311C113.748 93.8311 113.591 97.2529 113.526 99.1544C113.515 99.5011 113.576 99.7831 113.683 100.016C114.146 101.025 115.655 100.835 115.912 99.7564L117.329 93.812L116.869 90.1691L118.056 93.4957C118.056 93.4957 118.386 95.2752 118.317 97.7711C118.29 98.7695 118.631 99.1963 119.044 99.3449C119.741 99.5964 120.476 99.0438 120.538 98.3084L120.989 92.7984C120.989 92.7984 118.876 86.191 118.638 85.7756Z" fill="#FFBF9D"/>
<path d="M79.6523 64.8786C79.6638 64.8367 80.3263 64.9396 81.3755 65.2292C82.4248 65.515 83.8454 66.0027 85.381 66.6086C86.9165 67.2183 88.2913 67.8013 89.2869 68.2242C90.2825 68.6472 90.8952 68.9101 90.8761 68.9597C90.8607 69.0054 90.2136 68.8225 89.195 68.4567C88.1726 68.0947 86.7825 67.546 85.2508 66.9363C83.7191 66.3304 82.3252 65.8122 81.3028 65.4654C80.2842 65.1187 79.6409 64.9281 79.6562 64.8748L79.6523 64.8786Z" fill="#FF9A6C"/>
</g>
<defs>
<clipPath id="clip0_976_6019">
<rect width="181" height="167" fill="white"/>
</clipPath>
</defs>
</svg>
