<svg width="152" height="37" viewBox="0 0 152 37" fill="none" xmlns="http://www.w3.org/2000/svg">
<path d="M9.43632 7.75195V9.52509H2.18075V15.1502H8.0708V16.9233H2.18075V24.4438H0V7.75195H9.43632Z" fill="#4B4B4B"/>
<path d="M22.5861 24.4438L18.6118 17.6214H15.9776V24.4438H13.7969V7.75195H19.1825C20.4461 7.75195 21.511 7.96596 22.3772 8.39905C23.2485 8.83215 23.8956 9.413 24.3287 10.1467C24.7618 10.8804 24.9758 11.7211 24.9758 12.6586C24.9758 13.8102 24.6446 14.8241 23.9822 15.7005C23.3198 16.5768 22.3262 17.1628 21.0015 17.4481L25.1948 24.4387H22.5861V24.4438ZM15.9776 15.8686H19.1876C20.3697 15.8686 21.2563 15.5782 21.8473 14.9973C22.4383 14.4165 22.7339 13.6369 22.7339 12.6637C22.7339 11.6906 22.4434 10.9059 21.8575 10.3658C21.2766 9.82061 20.385 9.55056 19.1876 9.55056H15.9776V15.8737V15.8686Z" fill="#4B4B4B"/>
<path d="M32.2577 9.52593V15.1052H38.3414V16.9038H32.2577V22.6512H39.0598V24.4498H30.082V7.73242H39.0598V9.52593H32.2577Z" fill="#4B4B4B"/>
<path d="M46.4219 24.0276C45.5506 23.6352 44.8679 23.0952 44.3737 22.3971C43.8794 21.7042 43.6247 20.8991 43.6094 19.9922H45.9328C46.0143 20.7768 46.3353 21.4341 46.9009 21.9691C47.4664 22.5041 48.2919 22.7691 49.3771 22.7691C50.4624 22.7691 51.2318 22.5092 51.833 21.9895C52.4292 21.4698 52.7298 20.8023 52.7298 19.9922C52.7298 19.3553 52.5515 18.8356 52.205 18.4381C51.8534 18.0407 51.4152 17.735 50.8904 17.5261C50.3656 17.3172 49.6523 17.093 48.7606 16.8535C47.6601 16.5682 46.7786 16.2778 46.1162 15.9924C45.4538 15.7071 44.8883 15.2536 44.4144 14.6371C43.9457 14.0206 43.7062 13.1952 43.7062 12.1558C43.7062 11.2437 43.9355 10.4387 44.3991 9.73553C44.8628 9.03239 45.515 8.49229 46.3506 8.10506C47.1862 7.71782 48.1492 7.5293 49.2345 7.5293C50.7987 7.5293 52.0776 7.92164 53.0763 8.7012C54.0749 9.48586 54.6354 10.5202 54.7628 11.8144H52.368C52.2865 11.1775 51.9553 10.6119 51.3643 10.1279C50.7732 9.63871 49.9886 9.39924 49.0154 9.39924C48.1033 9.39924 47.3645 9.63363 46.7888 10.1075C46.213 10.5762 45.9277 11.2386 45.9277 12.0844C45.9277 12.6907 46.1009 13.185 46.4423 13.5671C46.7837 13.9493 47.2066 14.2397 47.711 14.4435C48.2154 14.6422 48.9186 14.8715 49.8306 15.1262C50.9312 15.432 51.8177 15.7275 52.4903 16.023C53.1629 16.3185 53.7335 16.772 54.2125 17.3885C54.6914 18.005 54.9309 18.8356 54.9309 19.8903C54.9309 20.7055 54.7169 21.4698 54.2838 22.1882C53.8507 22.9066 53.2138 23.4875 52.368 23.9359C51.5222 24.3842 50.5236 24.6084 49.3721 24.6084C48.2205 24.6084 47.283 24.4148 46.4168 24.0225L46.4219 24.0276Z" fill="#4B4B4B"/>
<path d="M72.7287 7.75195V24.4438H70.5479V16.8775H62.044V24.4438H59.8633V7.75195H62.044V15.0789H70.5479V7.75195H72.7287Z" fill="#4B4B4B"/>
<path d="M78.1915 11.5736C78.9099 10.2743 79.9137 9.26039 81.1977 8.53177C82.4817 7.80316 83.9389 7.44141 85.5694 7.44141C87.5667 7.44141 89.2736 7.96622 90.6951 9.02092C92.1167 10.0756 93.0644 11.5125 93.5434 13.3315H89.0392C88.7029 12.6283 88.2291 12.0933 87.6125 11.7265C86.996 11.3596 86.298 11.1762 85.5184 11.1762C84.2548 11.1762 83.2358 11.6144 82.4511 12.4908C81.6664 13.3671 81.2792 14.5441 81.2792 16.0115C81.2792 17.479 81.6715 18.656 82.4511 19.5323C83.2307 20.4087 84.2548 20.8469 85.5184 20.8469C86.3031 20.8469 87.0011 20.6635 87.6125 20.2966C88.2291 19.9298 88.7029 19.3948 89.0392 18.6916H93.5434C93.0644 20.5106 92.1167 21.9424 90.6951 22.992C89.2736 24.0365 87.5667 24.5613 85.5694 24.5613C83.9389 24.5613 82.4817 24.1995 81.1977 23.4709C79.9137 22.7423 78.9099 21.7335 78.1915 20.4393C77.4731 19.1451 77.1113 17.6675 77.1113 16.0064C77.1113 14.3454 77.4731 12.8678 78.1915 11.5634V11.5736Z" fill="#008183"/>
<path d="M135.511 7.63477V10.9161H131.058V24.4438H126.961V10.9161H122.508V7.63477H135.511Z" fill="#008183"/>
<path d="M142.074 24.01C141.101 23.6126 140.321 23.0215 139.741 22.2369C139.16 21.4573 138.849 20.5147 138.818 19.409H143.175C143.236 20.0306 143.455 20.5045 143.822 20.8357C144.189 21.1669 144.668 21.3248 145.259 21.3248C145.85 21.3248 146.344 21.1872 146.696 20.907C147.047 20.6268 147.22 20.2395 147.22 19.7453C147.22 19.3326 147.083 18.9861 146.803 18.7161C146.522 18.446 146.181 18.2218 145.773 18.0435C145.366 17.8703 144.785 17.6665 144.036 17.4474C142.951 17.1111 142.064 16.7748 141.376 16.4436C140.688 16.1073 140.097 15.6131 139.603 14.9609C139.109 14.3087 138.859 13.4527 138.859 12.398C138.859 10.8338 139.425 9.60584 140.561 8.72437C141.692 7.83781 143.17 7.39453 144.989 7.39453C146.808 7.39453 148.331 7.83781 149.467 8.72437C150.604 9.61094 151.21 10.844 151.286 12.4235H146.853C146.823 11.8783 146.624 11.4554 146.257 11.1446C145.891 10.8338 145.422 10.6758 144.846 10.6758C144.352 10.6758 143.949 10.8083 143.649 11.0733C143.343 11.3382 143.195 11.7153 143.195 12.2095C143.195 12.7547 143.45 13.1776 143.959 13.4782C144.469 13.7839 145.269 14.11 146.354 14.4616C147.439 14.8284 148.321 15.18 148.999 15.5163C149.676 15.8526 150.262 16.3366 150.756 16.9786C151.251 17.6155 151.5 18.4409 151.5 19.4447C151.5 20.4484 151.256 21.2739 150.772 22.0534C150.283 22.8381 149.579 23.4597 148.652 23.9234C147.725 24.387 146.634 24.6163 145.371 24.6163C144.107 24.6163 143.037 24.4176 142.064 24.0202L142.074 24.01Z" fill="#008183"/>
<g clip-path="url(#clip0_3556_17133)">
<path d="M106.219 23.8695C111.666 24.9034 116.919 21.3263 117.953 15.8797C118.987 10.4331 115.41 5.17955 109.964 4.14559C104.517 3.11163 99.2634 6.68878 98.2294 12.1354C97.1955 17.582 100.773 22.8355 106.219 23.8695Z" stroke="#008184" stroke-width="2.64855" stroke-miterlimit="10"/>
<path d="M115.48 21.995C115.48 21.995 116.074 23.2337 115.931 23.4358C115.931 23.4358 124.154 31.0056 124.081 31.1404C124.081 31.1404 124.188 35.042 123.799 35.2295C123.799 35.2295 121.321 35.1251 119.541 34.0995L114.297 24.7948C114.297 24.7948 114.141 24.9622 112.866 23.8394" fill="#008184"/>
</g>
<defs>
<clipPath id="clip0_3556_17133">
<rect width="32.9694" height="31.4017" fill="white" transform="translate(98.6133) rotate(10.7489)"/>
</clipPath>
</defs>
</svg>
