<svg width="188" height="166" viewBox="0 0 188 166" fill="none" xmlns="http://www.w3.org/2000/svg">
<g clip-path="url(#clip0_1009_8931)">
<path d="M181.694 153.917H6.30665C2.96057 153.917 0.248047 156.622 0.248047 159.958C0.248047 163.295 2.96057 166 6.30665 166H181.694C185.04 166 187.752 163.295 187.752 159.958C187.752 156.622 185.04 153.917 181.694 153.917Z" fill="#C7E2E0"/>
<path d="M146.398 158.466L40.9428 157.976C38.0672 157.962 35.7469 155.628 35.7618 152.761L36.3716 22.4652C36.3865 19.5978 38.7266 17.2841 41.6022 17.2989L147.058 17.7883C149.933 17.8032 152.253 20.1367 152.239 23.0041L151.629 153.3C151.614 156.167 149.274 158.481 146.398 158.466Z" fill="#008183"/>
<path d="M146.14 23.9908L40.2393 23.4932L39.6182 154.909L145.519 155.407L146.14 23.9908Z" fill="#C7E2E0"/>
<path d="M146.136 24.539L42.457 24.0518L41.8514 152.203L145.531 152.691L146.136 24.539Z" fill="white"/>
<path d="M135.06 61.7641H120.434V47.1797H135.06V61.7641ZM121.286 60.9137H134.212V48.0251H121.286V60.9137Z" fill="#D1DBDB"/>
<path d="M84.2602 47.1797H53.873V50.0175H84.2602V47.1797Z" fill="#ADBEE9"/>
<path d="M111.96 53.0527H53.873V54.0168H111.96V53.0527Z" fill="#D1DBDB"/>
<path d="M111.96 56.9238H53.873V57.8879H111.96V56.9238Z" fill="#D1DBDB"/>
<path d="M111.96 60.7998H53.873V61.7639H111.96V60.7998Z" fill="#D1DBDB"/>
<path d="M135.06 90.4086H120.434V75.8242H135.06V90.4086ZM121.286 89.5583H134.212V76.6696H121.286V89.5583Z" fill="#D1DBDB"/>
<path d="M84.2602 75.8242H53.873V78.662H84.2602V75.8242Z" fill="#ADBEE9"/>
<path d="M111.96 81.6973H53.873V82.6613H111.96V81.6973Z" fill="#D1DBDB"/>
<path d="M111.96 85.5684H53.873V86.5324H111.96V85.5684Z" fill="#D1DBDB"/>
<path d="M111.96 89.4395H53.873V90.4035H111.96V89.4395Z" fill="#D1DBDB"/>
<path d="M135.06 119.053H120.434V104.469H135.06V119.053ZM121.286 118.203H134.212V105.314H121.286V118.203Z" fill="#D1DBDB"/>
<path d="M84.2602 104.469H53.873V107.307H84.2602V104.469Z" fill="#ADBEE9"/>
<path d="M111.96 110.342H53.873V111.306H111.96V110.342Z" fill="#D1DBDB"/>
<path d="M111.96 114.213H53.873V115.177H111.96V114.213Z" fill="#D1DBDB"/>
<path d="M111.96 118.084H53.873V119.048H111.96V118.084Z" fill="#D1DBDB"/>
<path d="M119.913 50.6845C119.913 50.6845 124.693 53.5074 127.444 58.9605C127.444 58.9605 133.86 48.7564 140.93 46.2449L139.095 43.8125C139.095 43.8125 133.007 47.471 127.766 56.5726C127.766 56.5726 125.669 51.3865 121.941 48.3164L119.913 50.6845Z" fill="#008183"/>
<path d="M123.27 78.7851C123.27 78.7851 128.049 81.608 130.801 87.0611C130.801 87.0611 137.216 76.8569 144.286 74.3455L142.452 71.9131C142.452 71.9131 136.363 75.5715 131.123 84.6732C131.123 84.6732 129.026 79.4871 125.297 76.4169L123.27 78.7851Z" fill="#008183"/>
<path d="M144.589 94.6742C144.589 94.6742 138.624 85.795 135.426 83.6494C135.426 83.6494 133.86 85.3649 133.324 86.7047C133.324 86.7047 139.289 94.076 140.632 96.7556L144.589 94.6792V94.6742Z" fill="#3D9EED"/>
<path d="M153.21 157.353C153.21 157.353 152.66 158.836 151.034 160.354C149.407 161.872 148.446 163.113 149.199 163.424C149.953 163.736 155.977 161.778 157.39 161.2C158.808 160.621 159.889 160.557 157.226 156.266L153.205 157.348L153.21 157.353Z" fill="#3D9EED"/>
<path d="M146.403 125.465C146.403 125.465 143.934 143.328 153.211 157.353L157.232 156.271C157.232 156.271 150.494 139.753 152.165 130.088L154.584 129.717C154.584 129.717 159.086 141.874 177.633 141.874V137.479C177.633 137.479 159.284 137.805 159.492 120.991L146.403 125.465Z" fill="#062F71"/>
<path d="M154.653 156.962C145.927 145.122 149.443 125.01 149.443 125.01V124.427L146.403 125.465C146.403 125.465 143.934 143.327 153.211 157.353L154.658 156.962H154.653Z" fill="#061D38"/>
<path d="M177.634 139.862C164.089 141.167 156.791 130.152 156.791 130.152C157.906 128.53 157.574 125.752 157.574 125.752C156.944 127.606 152.165 130.083 152.165 130.083L154.585 129.712C154.585 129.712 159.086 141.869 177.634 141.869V139.857V139.862Z" fill="#061D38"/>
<path d="M145.01 106.708C145.01 106.708 140.221 112.097 127.896 116.992L129.279 119.785C129.279 119.785 139.869 118.381 145.01 112.641C145.01 112.641 144.941 120.952 146.408 125.461C146.408 125.461 157.722 124.195 159.497 120.986C159.497 120.986 154.678 107.89 149.715 102.165L145.015 106.703L145.01 106.708Z" fill="#3D9EED"/>
<path d="M144.286 105.857C147.657 105.857 150.389 103.133 150.389 99.7714C150.389 96.4103 147.657 93.6855 144.286 93.6855C140.915 93.6855 138.183 96.4103 138.183 99.7714C138.183 103.133 140.915 105.857 144.286 105.857Z" fill="#FFC99C"/>
<path d="M177.634 141.874C177.634 141.874 179.324 142.788 180.975 144.138C182.626 145.488 183.935 147.475 184.282 146.264C184.629 145.053 182.269 138.937 181.838 137.484C181.56 136.549 177.634 137.484 177.634 137.484V141.879V141.874Z" fill="#3D9EED"/>
<path d="M138.337 98.4127C138.337 98.4127 138.808 99.7722 141.544 99.7722C144.281 99.7722 146.091 100.361 146.329 101.71C146.329 101.71 147.186 100.494 147.722 100.563C148.257 100.632 148.223 102.862 147.087 103.169L148.927 103.955C148.927 103.955 151.564 100.637 150.384 96.6477C149.507 93.6913 147.241 93.6913 147.241 93.6913C147.241 93.6913 144.683 91.8274 142.293 92.7322C139.903 93.6369 137.692 96.7861 136.909 95.2338C136.909 95.2338 136.572 98.3929 138.332 98.4176L138.337 98.4127Z" fill="#062F71"/>
<path d="M127.895 116.991C127.895 116.991 125.367 115.414 124.301 115.81C123.235 116.2 126.101 117.679 126.101 117.679C126.101 117.679 123.111 119.864 121.663 120.625C120.215 121.391 125.278 122.805 129.284 119.785L127.9 116.991H127.895Z" fill="#FFC99C"/>
<path d="M133.324 86.7052C133.324 86.7052 129.591 86.9375 129.159 86.3393C128.728 85.7411 130.582 85.316 131.916 85.311C131.916 85.311 133.19 79.9964 134.326 79.586C136.596 78.7604 135.426 83.6548 135.426 83.6548C135.426 83.6548 133.631 85.9537 133.324 86.7101V86.7052Z" fill="#FFC99C"/>
<path d="M138.336 98.4124C138.336 98.4124 138.807 99.7719 141.544 99.7719C144.281 99.7719 146.091 100.36 146.329 101.71C146.329 101.71 147.186 100.494 147.722 100.563C148.257 100.632 148.223 102.862 147.087 103.168L148.927 103.954C148.927 103.954 149.76 102.906 150.28 101.285C150.221 100.34 150.122 99.4357 149.963 98.9611C149.546 97.7153 148.55 98.2146 147.053 98.2146C145.555 98.2146 145.64 96.0591 145.64 96.0591C145.64 96.0591 143.81 97.9674 141.316 97.8834C139.373 97.8191 137.791 96.247 137.181 95.5548C137.077 95.4856 136.988 95.3818 136.914 95.2285C136.914 95.2285 136.576 98.3876 138.336 98.4124Z" fill="#061D38"/>
<path d="M146.641 108.873C146.641 108.873 145.977 109.743 139.824 113.817C136.199 116.22 131.683 117.624 128.579 118.38L129.278 119.784C129.278 119.784 139.868 118.38 145.01 112.64C145.01 112.64 144.94 120.951 146.408 125.46C146.408 125.46 147.687 125.316 149.447 125.005C146.725 117.935 146.646 108.868 146.646 108.868L146.641 108.873Z" fill="#116EC1"/>
<path d="M154.782 159.36C155.154 158.895 154.995 157.951 154.653 156.962L153.205 157.352C153.205 157.352 152.655 158.836 151.029 160.353C149.403 161.871 148.441 163.112 149.194 163.424C149.412 163.513 150.077 163.414 150.945 163.211C151.956 161.115 154.013 160.304 154.777 159.36H154.782Z" fill="#116EC1"/>
<path d="M184.282 146.259C184.387 145.898 184.248 145.112 184 144.143C182.557 142.887 180.673 141.265 179.959 140.697C179.592 140.405 178.705 140.118 177.634 139.861V141.873C177.634 141.873 179.324 142.788 180.975 144.138C182.626 145.487 183.935 147.475 184.282 146.264V146.259Z" fill="#116EC1"/>
<path d="M97.4187 9.73438C97.4187 9.73438 113.517 12.9281 118.882 31.9323H115.386C115.386 31.9323 109.407 18.6037 101.102 17.5457H80.5469C80.5469 17.5457 85.0685 11.5636 91.2411 10.649L97.4138 9.73438H97.4187Z" fill="#3D9EED"/>
<path d="M111.688 23.6466C107.012 18.411 103.849 15.687 100.473 15.4744C97.0914 15.2568 93.7844 15.5485 92.2772 13.7539C91.5831 12.9283 90.8741 11.806 90.3139 10.8271C84.6271 12.162 80.5566 17.5409 80.5566 17.5409H101.112C109.417 18.5989 115.396 31.9275 115.396 31.9275H116.497C115.758 29.7522 114.335 26.603 111.692 23.6466H111.688Z" fill="#116EC1"/>
<path d="M100.8 8.31581C100.587 8.23671 100.359 8.24165 100.146 8.31581C100.146 8.31581 100.146 8.31087 100.146 8.30592C100.146 4.84028 97.3295 2.03711 93.8589 2.03711C90.3883 2.03711 87.5722 4.84522 87.5722 8.30592C87.5722 8.30592 87.5722 8.31087 87.5722 8.31581C87.3591 8.2466 87.1359 8.24165 86.9178 8.31581C86.3526 8.52345 86.0898 9.23042 86.3328 9.89784C86.5757 10.5653 87.2351 10.9361 87.8053 10.7284C87.8796 10.6988 87.949 10.6641 88.0185 10.6147C88.9406 12.9334 91.2064 14.5698 93.8589 14.5698C96.5114 14.5698 98.7772 12.9284 99.6994 10.6147C99.7638 10.6592 99.8332 10.6988 99.9125 10.7284C100.478 10.9361 101.137 10.5653 101.385 9.89784C101.628 9.23042 101.37 8.52345 100.8 8.31581Z" fill="#FFC99C"/>
<path d="M89.3571 7.34645C89.3571 5.52216 90.0661 3.86597 91.2163 2.62012C89.0646 3.61878 87.5722 5.78419 87.5722 8.30556C87.5722 8.30556 87.5722 8.3105 87.5722 8.31544C87.3591 8.24623 87.1359 8.24128 86.9178 8.31544C86.3526 8.52308 86.0898 9.23006 86.3328 9.89748C86.5757 10.5649 87.2351 10.9357 87.8053 10.728C87.8796 10.6984 87.949 10.6638 88.0185 10.6193C88.9406 12.938 91.2064 14.5744 93.8589 14.5744C94.4985 14.5744 95.1133 14.4755 95.6933 14.3025C92.1385 13.9663 89.3571 10.9851 89.3571 7.35139V7.34645Z" fill="#EAAE81"/>
<path d="M95.6984 4.61769C95.6984 4.61769 93.5317 7.95974 90.433 8.30086L91.1073 6.5013C91.1073 6.5013 88.3904 7.42086 88.0334 9.23031C88.0334 9.23031 87.4285 8.34536 86.9278 8.3157C86.9278 8.3157 86.2535 -0.899658 95.1183 0.361027L94.6175 -0.642578C94.6175 -0.642578 98.0038 -0.331114 99.0896 2.74397C99.0896 2.74397 101.271 3.51521 100.81 8.32064C100.81 8.32064 100.215 8.00918 99.6647 8.8348C99.6647 8.8348 98.9855 5.03297 95.7083 4.62263L95.6984 4.61769Z" fill="#062F71"/>
<path d="M115.386 31.9278C115.386 31.9278 114.439 34.0932 114.593 34.7359C114.742 35.3786 115.664 34.9979 116.17 33.8757C116.17 33.8757 117.622 33.9597 118.401 35.4627C119.179 36.9656 119.819 38.078 120.166 37.1337C120.508 36.1894 120.914 34.5184 118.882 31.9229H115.386V31.9278Z" fill="#FFC99C"/>
<path d="M82.6045 17.0614C82.6045 17.0614 78.653 16.4335 78.425 17.269C78.1969 18.1045 77.9589 19.5976 78.7819 19.8744C79.605 20.1463 83.6358 20.1414 83.7845 19.2861C83.9332 18.4308 84.1117 17.2393 82.6045 17.0614Z" fill="#FFC99C"/>
<path d="M93.8589 3.74732C91.5832 3.50507 89.3026 4.29115 89.3026 4.29115C90.5668 1.59674 92.5252 0.583253 93.4028 0.24707C86.3377 0.33606 86.9178 8.31545 86.9178 8.31545C87.4185 8.35006 88.0234 9.23006 88.0234 9.23006C88.3804 7.42061 91.0973 6.50105 91.0973 6.50105L90.4231 8.30062C93.0805 6.77296 93.8539 3.74732 93.8539 3.74732H93.8589Z" fill="#061D38"/>
<path d="M90.3733 152.755L83.5363 151.411V150.743L81.8457 151.074L80.1501 150.743V151.411L73.318 152.755C73.318 152.755 63.8831 155.727 64.3194 159.914C64.721 163.75 75.4598 164.873 81.8407 163.004C88.2216 164.873 98.9605 163.75 99.3621 159.914C99.7984 155.732 90.3634 152.755 90.3634 152.755H90.3733Z" fill="#062F71"/>
<path d="M99.3721 159.915C99.382 159.811 99.382 159.707 99.382 159.603C96.5113 162.055 89.3421 161.709 88.6778 159.499C87.9638 157.116 91.7815 156.395 91.7815 156.395C91.7815 156.395 83.6009 156.395 80.5616 156.395C77.5224 156.395 74.865 157.042 74.865 157.042L81.8557 158.224L83.8934 161.304C83.8934 161.304 68.0329 160.434 68.1767 158.224C68.3205 156.009 79.7932 151.485 79.7932 151.485L73.3131 152.761C73.3131 152.761 63.8782 155.732 64.3145 159.92C64.7161 163.756 75.455 164.878 81.8358 163.009C88.2167 164.878 98.9556 163.756 99.3572 159.92L99.3721 159.915Z" fill="#061D38"/>
<path d="M110.557 127.942L110.086 126.474C110.086 126.474 108.296 123.937 108.951 123.324C109.605 122.711 109.655 124.224 111.018 124.773C112.381 125.322 118.024 122.563 118.381 123.552C118.698 124.427 113.874 126.474 112.386 128.323L110.552 127.937L110.557 127.942Z" fill="#FFC99C"/>
<path d="M81.4641 131.759C81.4641 131.759 74.8205 134.102 73.9181 134.696C72.5448 135.605 67.2001 146.408 67.7653 147.96C68.861 150.966 77.944 152.39 77.944 152.39H89.4662L91.3056 138.043C91.3056 138.043 101.722 138.226 102.793 138.053C105.332 137.642 112.377 128.328 112.377 128.328C112.377 128.328 110.761 126.336 110.071 126.479C110.071 126.479 102.446 133.865 101.345 134.004C100.245 134.142 84.1414 131.794 83.2291 131.774C82.3169 131.754 81.4492 131.759 81.4492 131.759H81.4641Z" fill="#3D9EED"/>
<path d="M74.2701 134.508C74.1164 134.582 73.9975 134.646 73.9181 134.696C72.5448 135.605 67.2001 146.408 67.7653 147.96C68.3206 149.493 70.9483 150.61 73.3975 151.342L74.2354 149.626C74.2354 149.626 69.1734 146.803 69.5006 145.864C69.7931 145.033 73.229 136.826 74.2701 134.508Z" fill="#116EC1"/>
<path d="M83.6806 131.705C83.6806 132.565 82.8576 133.257 81.8462 133.257C80.8347 133.257 80.0117 132.56 80.0117 131.705C80.0117 130.849 80.8347 130.152 81.8462 130.152C82.8576 130.152 83.6806 130.849 83.6806 131.705Z" fill="#D89A71"/>
<path d="M88.7971 125.515C88.5839 125.436 88.3558 125.441 88.1426 125.515C88.1426 125.515 88.1426 125.51 88.1426 125.505C88.1426 122.039 85.3265 119.236 81.856 119.236C78.3854 119.236 75.5693 122.044 75.5693 125.505C75.5693 125.505 75.5693 125.51 75.5693 125.515C75.3561 125.446 75.133 125.441 74.9149 125.515C74.3497 125.723 74.0869 126.43 74.3298 127.097C74.5728 127.764 75.2322 128.135 75.8023 127.928C75.8767 127.898 75.9461 127.863 76.0155 127.819C76.9377 130.138 79.2035 131.774 81.856 131.774C84.5085 131.774 86.7743 130.133 87.6964 127.819C87.7609 127.863 87.8303 127.903 87.9096 127.928C88.4748 128.135 89.1342 127.764 89.3821 127.097C89.6251 126.43 89.3673 125.723 88.7971 125.515Z" fill="#FFC99C"/>
<path d="M84.2607 131.141C79.853 131.141 76.2784 127.577 76.2784 123.182C76.2784 122.964 76.2932 122.752 76.3131 122.539C75.8371 123.419 75.5644 124.428 75.5644 125.5C75.5644 125.5 75.5644 125.505 75.5644 125.51C75.3512 125.441 75.1281 125.436 74.91 125.51C74.3448 125.718 74.082 126.425 74.3249 127.092C74.5679 127.76 75.2273 128.131 75.7975 127.923C75.8718 127.893 75.9412 127.859 76.0106 127.814C76.9328 130.133 79.1986 131.769 81.8511 131.769C82.8526 131.769 83.7996 131.537 84.6375 131.117C84.5085 131.122 84.3846 131.136 84.2557 131.136L84.2607 131.141Z" fill="#EAB186"/>
<path d="M78.405 122.47C78.405 122.47 79.2677 124.131 83.2092 123.997C87.1508 123.864 87.6069 125.139 87.6516 126.479C87.6516 126.479 87.8449 125.525 88.7968 125.515C88.7968 125.515 89.3174 121.837 86.2832 119.686C81.6971 116.433 77.8646 120.106 77.8646 120.106C77.8646 120.106 74.4039 120.942 74.9196 125.52C74.9196 125.52 75.8715 125.49 76.1888 126.217C76.1888 126.217 76.3227 123.528 78.41 122.474L78.405 122.47Z" fill="#062F71"/>
<path d="M91.5135 140.134H72.1974C72.0239 140.134 71.8603 140.173 71.7066 140.257C71.3694 140.44 71.1562 140.786 71.1562 141.172V151.356C71.1562 151.737 71.3645 152.088 71.7066 152.271C71.8553 152.35 72.0239 152.395 72.1974 152.395H91.5135C91.8656 152.395 92.1878 152.222 92.3812 151.93C92.4952 151.762 92.5497 151.564 92.5497 151.361V141.177C92.5497 140.9 92.4407 140.638 92.2473 140.445C92.054 140.248 91.7912 140.144 91.5135 140.144V140.134Z" fill="#D1DBDB"/>
<path d="M92.2324 153.636H71.4785C71.424 153.636 71.3694 153.621 71.3199 153.591C71.2207 153.532 71.1562 153.423 71.1562 153.299V152.716C71.1562 152.622 71.1909 152.543 71.2504 152.479C71.3099 152.419 71.3893 152.38 71.4785 152.38H92.2324C92.3217 152.38 92.401 152.419 92.4605 152.479C92.52 152.538 92.5547 152.622 92.5547 152.716V153.299C92.5547 153.379 92.525 153.453 92.4803 153.512C92.4208 153.586 92.3316 153.631 92.2324 153.631V153.636Z" fill="#ADBEE9"/>
<path d="M81.8455 148.301C82.9764 148.301 83.8931 147.387 83.8931 146.26C83.8931 145.132 82.9764 144.218 81.8455 144.218C80.7146 144.218 79.7979 145.132 79.7979 146.26C79.7979 147.387 80.7146 148.301 81.8455 148.301Z" fill="white"/>
<path d="M81.8457 163.004C81.8457 163.004 83.5512 162.549 85.0237 164.443C86.4913 166.336 88.5538 166.336 88.6728 165.343C88.7918 164.354 86.6152 160.864 85.8715 159.914C85.1279 158.965 84.29 157.877 83.6801 158.327C83.0753 158.777 81.8556 158.693 81.8556 158.693C81.8556 158.693 82.6043 160.107 81.8457 163.004Z" fill="#3D9EED"/>
<path d="M83.9974 122.988C81.0028 123.319 79.3816 121.332 79.3816 121.332C77.4678 121.747 76.387 122.785 76.387 122.785C76.7291 121.54 77.2249 120.66 77.5025 120.229C76.6349 120.59 74.503 121.851 74.9145 125.514C74.9145 125.514 75.8664 125.485 76.1837 126.212C76.1837 126.212 76.3176 123.522 78.4049 122.469C78.4049 122.469 79.2675 124.13 83.2091 123.997C87.1507 123.863 87.6068 125.139 87.6514 126.479C87.9142 124.481 86.987 122.662 83.9974 122.993V122.988Z" fill="#061D38"/>
<path d="M102.803 138.053C105.342 137.643 112.387 128.328 112.387 128.328C112.387 128.328 112.109 127.987 111.737 127.597C109.377 130.281 103.497 136.891 102.753 137.079C101.821 137.311 91.494 136.629 91.494 136.629L91.3105 138.043C91.3105 138.043 101.727 138.226 102.798 138.053H102.803Z" fill="#116EC1"/>
<path d="M85.0237 164.443C86.4912 166.337 88.5537 166.337 88.6727 165.343C88.6876 165.209 88.6628 165.026 88.6033 164.819C88.3009 164.883 87.9389 164.908 87.5324 164.819C86.4069 164.581 85.9954 162.93 84.8204 162.11C84.2403 161.704 83.1297 161.452 82.153 161.304C82.1084 161.798 82.0192 162.362 81.8506 163.004C81.8506 163.004 83.5561 162.55 85.0286 164.443H85.0237Z" fill="#116EC1"/>
<path d="M104.855 115.746C104.855 115.746 109.635 118.569 112.387 124.022C112.387 124.022 118.802 113.818 125.872 111.306L124.038 108.874C124.038 108.874 117.949 112.532 112.709 121.634C112.709 121.634 110.612 116.448 106.883 113.378L104.855 115.746Z" fill="#008183"/>
<path d="M18.9688 132.56C19.0283 132.451 18.8746 132.317 18.7904 132.421C18.1756 133.153 18.0764 134.073 18.2202 134.997C18.3441 135.813 18.6912 136.559 18.9441 137.335C19.2911 138.408 19.2961 139.219 19.0581 140.312C19.0036 140.554 19.3159 140.682 19.4547 140.48C21.1404 137.998 17.4815 135.215 18.9688 132.56Z" fill="white"/>
<path d="M21.4871 131.65C21.6408 131.482 21.4078 131.254 21.2392 131.403C17.9868 134.265 22.2308 138.176 20.674 141.523C20.5154 141.864 20.9715 142.314 21.2442 141.963C23.743 138.739 18.6115 134.838 21.4871 131.655V131.65Z" fill="white"/>
<path d="M23.8471 138.552C23.3216 136.737 22.3548 134.626 23.7727 132.955C23.9363 132.762 23.6736 132.48 23.4852 132.668C22.5481 133.627 22.325 134.834 22.4886 136.139C22.6027 137.039 22.9249 137.874 23.1332 138.749C23.4753 140.168 23.0489 140.959 22.7613 142.299C22.6869 142.645 23.1282 142.828 23.3265 142.536C24.1545 141.33 24.2388 139.921 23.8421 138.552H23.8471Z" fill="white"/>
</g>
<defs>
<clipPath id="clip0_1009_8931">
<rect width="188" height="166" fill="white"/>
</clipPath>
</defs>
</svg>
