<svg width="1161" height="612" viewBox="0 0 1161 612" fill="none" xmlns="http://www.w3.org/2000/svg">
<line x1="113.5" y1="354" x2="113.5" y2="115" stroke="#64ABAC" stroke-width="5"/>
<line x1="417.5" y1="486" x2="417.5" y2="127" stroke="#64ABAC" stroke-width="5"/>
<line x1="716.5" y1="419" x2="716.5" y2="110" stroke="#64ABAC" stroke-width="5"/>
<line x1="1013.5" y1="326" x2="1013.5" y2="127" stroke="#64ABAC" stroke-width="5"/>
<path d="M769.252 133.56C804.476 133.56 833.032 105.005 833.032 69.78C833.032 34.5553 804.476 6 769.252 6C734.027 6 705.472 34.5553 705.472 69.78C705.472 105.005 734.027 133.56 769.252 133.56Z" stroke="#008183" stroke-width="11" stroke-miterlimit="10" stroke-linecap="round"/>
<path d="M802.688 130.518L838.294 185" stroke="#008183" stroke-width="11" stroke-miterlimit="10" stroke-linecap="round"/>
<path d="M164.445 29.9141V40.7359H120.163V75.067H156.111V85.8887H120.163V131.788H106.854V29.9141H164.445Z" fill="#4B4B4B"/>
<path d="M244.707 131.788L220.451 90.1491H204.374V131.788H191.064V29.9141H223.934C231.646 29.9141 238.145 31.2202 243.432 33.8634C248.749 36.5067 252.699 40.0517 255.342 44.5297C257.985 49.0077 259.291 54.1387 259.291 59.8605C259.291 66.8885 257.27 73.0768 253.227 78.4255C249.185 83.7742 243.121 87.3503 235.036 89.0917L260.629 131.757H244.707V131.788ZM204.374 79.4517H223.965C231.18 79.4517 236.591 77.6791 240.198 74.1341C243.805 70.589 245.609 65.8312 245.609 59.8917C245.609 53.9521 243.836 49.1631 240.26 45.8669C236.715 42.5395 231.273 40.8913 223.965 40.8913H204.374V79.4827V79.4517Z" fill="#4B4B4B"/>
<path d="M303.73 40.7352V74.7865H340.859V85.7637H303.73V120.841H345.244V131.818H290.451V29.7891H345.244V40.7352H303.73Z" fill="#4B4B4B"/>
<path d="M390.18 129.237C384.863 126.843 380.696 123.546 377.679 119.286C374.663 115.057 373.108 110.144 373.015 104.608H387.195C387.692 109.397 389.652 113.409 393.103 116.674C396.555 119.939 401.593 121.556 408.216 121.556C414.84 121.556 419.536 119.97 423.205 116.798C426.844 113.626 428.678 109.553 428.678 104.608C428.678 100.721 427.59 97.5493 425.475 95.1237C423.33 92.6981 420.655 90.8324 417.452 89.5574C414.249 88.2824 409.896 86.9141 404.454 85.4526C397.737 83.7111 392.357 81.9386 388.314 80.1971C384.272 78.4557 380.82 75.6881 377.928 71.9253C375.067 68.1626 373.605 63.1249 373.605 56.7811C373.605 51.2147 375.005 46.3014 377.835 42.01C380.665 37.7186 384.645 34.4223 389.745 32.0589C394.845 29.6955 400.722 28.5449 407.346 28.5449C416.893 28.5449 424.698 30.9395 430.793 35.6973C436.888 40.4862 440.309 46.7989 441.086 54.6975H426.47C425.973 50.8104 423.952 47.3586 420.344 44.4044C416.737 41.4191 411.948 39.9576 406.009 39.9576C400.442 39.9576 395.933 41.3881 392.419 44.2801C388.905 47.141 387.164 51.1836 387.164 56.3457C387.164 60.0462 388.221 63.0626 390.305 65.3949C392.388 67.7272 394.969 69.4997 398.048 70.7436C401.126 71.9564 405.418 73.3558 410.984 74.9106C417.701 76.7764 423.112 78.5801 427.217 80.3837C431.322 82.1873 434.804 84.955 437.728 88.7177C440.651 92.4804 442.112 97.5493 442.112 103.986C442.112 108.962 440.806 113.626 438.163 118.011C435.52 122.396 431.633 125.941 426.47 128.677C421.308 131.414 415.213 132.782 408.185 132.782C401.157 132.782 395.436 131.601 390.149 129.206L390.18 129.237Z" fill="#4B4B4B"/>
<path d="M550.734 29.9141V131.788H537.424V85.6089H485.523V131.788H472.214V29.9141H485.523V74.6316H537.424V29.9141H550.734Z" fill="#4B4B4B"/>
<path d="M584.069 53.2372C588.454 45.3075 594.58 39.1192 602.416 34.6723C610.253 30.2254 619.147 28.0176 629.098 28.0176C641.288 28.0176 651.705 31.2206 660.381 37.6577C669.057 44.0948 674.841 52.8641 677.765 63.9657H650.275C648.222 59.6744 645.33 56.4092 641.568 54.1702C637.805 51.9312 633.545 50.8117 628.787 50.8117C621.075 50.8117 614.855 53.4861 610.066 58.8348C605.277 64.1834 602.914 71.3669 602.914 80.3228C602.914 89.2788 605.308 96.4622 610.066 101.811C614.824 107.16 621.075 109.834 628.787 109.834C633.576 109.834 637.836 108.714 641.568 106.475C645.33 104.236 648.222 100.971 650.275 96.6798H677.765C674.841 107.781 669.057 116.52 660.381 122.926C651.705 129.301 641.288 132.504 629.098 132.504C619.147 132.504 610.253 130.296 602.416 125.849C594.58 121.402 588.454 115.245 584.069 107.346C579.684 99.4475 577.477 90.4293 577.477 80.2917C577.477 70.1541 579.684 61.1359 584.069 53.1751V53.2372Z" fill="#008183"/>
<path d="M933.911 29.1992V49.2257H906.733V131.788H881.731V49.2257H854.552V29.1992H933.911Z" fill="#008183"/>
<path d="M973.964 129.144C968.024 126.718 963.266 123.111 959.721 118.322C956.176 113.564 954.279 107.811 954.093 101.063H980.681C981.054 104.857 982.391 107.749 984.63 109.77C986.869 111.792 989.792 112.756 993.399 112.756C997.007 112.756 1000.02 111.916 1002.17 110.206C1004.31 108.495 1005.37 106.132 1005.37 103.116C1005.37 100.597 1004.53 98.4821 1002.82 96.8339C1001.11 95.1858 999.028 93.8175 996.54 92.7291C994.052 91.6718 990.507 90.4279 985.936 89.0907C979.312 87.0383 973.902 84.9859 969.703 82.9646C965.505 80.9122 961.898 77.8959 958.882 73.9154C955.865 69.935 954.342 64.7107 954.342 58.2736C954.342 48.7269 957.793 41.2324 964.728 35.8526C971.632 30.4417 980.65 27.7363 991.751 27.7363C1002.85 27.7363 1012.15 30.4417 1019.09 35.8526C1026.02 41.2635 1029.72 48.789 1030.19 58.4291H1003.13C1002.95 55.1017 1001.73 52.5206 999.494 50.6237C997.255 48.7268 994.394 47.7628 990.881 47.7628C987.864 47.7628 985.408 48.5713 983.573 50.1884C981.707 51.8054 980.805 54.1066 980.805 57.123C980.805 60.4504 982.36 63.0315 985.47 64.8662C988.579 66.732 993.462 68.7222 1000.09 70.8679C1006.71 73.1069 1012.09 75.2526 1016.22 77.305C1020.36 79.3574 1023.94 82.3116 1026.95 86.2298C1029.97 90.117 1031.49 95.1547 1031.49 101.281C1031.49 107.407 1030 112.445 1027.05 117.202C1024.06 121.991 1019.77 125.785 1014.11 128.615C1008.45 131.445 1001.8 132.844 994.084 132.844C986.372 132.844 979.841 131.632 973.902 129.206L973.964 129.144Z" fill="#008183"/>
<path d="M129.259 354.783C117.673 347.814 102.631 351.557 95.6614 363.143C88.6923 374.729 92.4351 389.771 104.021 396.741C115.608 403.71 130.65 399.967 137.619 388.381C144.588 376.794 140.845 361.752 129.259 354.783Z" stroke="#64ABAC" stroke-width="5" stroke-miterlimit="10" stroke-linecap="round"/>
<path d="M432.175 491.497C420.817 484.665 406.07 488.334 399.238 499.693C392.406 511.051 396.075 525.797 407.434 532.629C418.792 539.461 433.539 535.792 440.371 524.434C447.203 513.075 443.534 498.329 432.175 491.497Z" stroke="#64ABAC" stroke-width="5" stroke-miterlimit="10" stroke-linecap="round"/>
<path d="M731.203 424.135C719.768 417.257 704.922 420.951 698.044 432.386C691.165 443.821 694.859 458.667 706.295 465.546C717.73 472.424 732.576 468.73 739.454 457.295C746.333 445.859 742.639 431.013 731.203 424.135Z" stroke="#64ABAC" stroke-width="5" stroke-miterlimit="10" stroke-linecap="round"/>
<path d="M1028.18 326.497C1016.82 319.665 1002.07 323.334 995.238 334.693C988.406 346.051 992.075 360.797 1003.43 367.629C1014.79 374.461 1029.54 370.792 1036.37 359.434C1043.2 348.075 1039.53 333.329 1028.18 326.497Z" stroke="#64ABAC" stroke-width="5" stroke-miterlimit="10" stroke-linecap="round"/>
<path d="M12.3844 431.248V433.96H5.40037V438.256H10.7524V440.92H5.40037V448H2.04037V431.248H12.3844ZM19.3269 436.768C19.7589 436.064 20.3189 435.512 21.0069 435.112C21.7109 434.712 22.5109 434.512 23.4069 434.512V438.04H22.5189C21.4629 438.04 20.6629 438.288 20.1189 438.784C19.5909 439.28 19.3269 440.144 19.3269 441.376V448H15.9669V434.704H19.3269V436.768ZM39.2301 441.064C39.2301 441.544 39.1981 441.976 39.1341 442.36H29.4141C29.4941 443.32 29.8301 444.072 30.4221 444.616C31.0141 445.16 31.7421 445.432 32.6061 445.432C33.8541 445.432 34.7421 444.896 35.2701 443.824H38.8941C38.5101 445.104 37.7741 446.16 36.6861 446.992C35.5981 447.808 34.2621 448.216 32.6781 448.216C31.3981 448.216 30.2461 447.936 29.2221 447.376C28.2141 446.8 27.4221 445.992 26.8461 444.952C26.2861 443.912 26.0061 442.712 26.0061 441.352C26.0061 439.976 26.2861 438.768 26.8461 437.728C27.4061 436.688 28.1901 435.888 29.1981 435.328C30.2061 434.768 31.3661 434.488 32.6781 434.488C33.9421 434.488 35.0701 434.76 36.0621 435.304C37.0701 435.848 37.8461 436.624 38.3901 437.632C38.9501 438.624 39.2301 439.768 39.2301 441.064ZM35.7501 440.104C35.7341 439.24 35.4221 438.552 34.8141 438.04C34.2061 437.512 33.4621 437.248 32.5821 437.248C31.7501 437.248 31.0461 437.504 30.4701 438.016C29.9101 438.512 29.5661 439.208 29.4381 440.104H35.7501ZM47.9706 448.216C46.8826 448.216 45.9066 448.024 45.0426 447.64C44.1786 447.24 43.4906 446.704 42.9786 446.032C42.4826 445.36 42.2106 444.616 42.1626 443.8H45.5466C45.6106 444.312 45.8586 444.736 46.2906 445.072C46.7386 445.408 47.2906 445.576 47.9466 445.576C48.5866 445.576 49.0826 445.448 49.4346 445.192C49.8026 444.936 49.9866 444.608 49.9866 444.208C49.9866 443.776 49.7626 443.456 49.3146 443.248C48.8826 443.024 48.1866 442.784 47.2266 442.528C46.2346 442.288 45.4186 442.04 44.7786 441.784C44.1546 441.528 43.6106 441.136 43.1466 440.608C42.6986 440.08 42.4746 439.368 42.4746 438.472C42.4746 437.736 42.6826 437.064 43.0986 436.456C43.5306 435.848 44.1386 435.368 44.9226 435.016C45.7226 434.664 46.6586 434.488 47.7306 434.488C49.3146 434.488 50.5786 434.888 51.5226 435.688C52.4666 436.472 52.9866 437.536 53.0826 438.88H49.8666C49.8186 438.352 49.5946 437.936 49.1946 437.632C48.8106 437.312 48.2906 437.152 47.6346 437.152C47.0266 437.152 46.5546 437.264 46.2186 437.488C45.8986 437.712 45.7386 438.024 45.7386 438.424C45.7386 438.872 45.9626 439.216 46.4106 439.456C46.8586 439.68 47.5546 439.912 48.4986 440.152C49.4586 440.392 50.2506 440.64 50.8746 440.896C51.4986 441.152 52.0346 441.552 52.4826 442.096C52.9466 442.624 53.1866 443.328 53.2026 444.208C53.2026 444.976 52.9866 445.664 52.5546 446.272C52.1386 446.88 51.5306 447.36 50.7306 447.712C49.9466 448.048 49.0266 448.216 47.9706 448.216ZM64.6487 434.512C65.6567 434.512 66.5527 434.736 67.3367 435.184C68.1207 435.616 68.7287 436.264 69.1607 437.128C69.6087 437.976 69.8327 439 69.8327 440.2V448H66.4727V440.656C66.4727 439.6 66.2087 438.792 65.6807 438.232C65.1527 437.656 64.4327 437.368 63.5207 437.368C62.5927 437.368 61.8567 437.656 61.3127 438.232C60.7847 438.792 60.5207 439.6 60.5207 440.656V448H57.1607V430.24H60.5207V436.36C60.9527 435.784 61.5287 435.336 62.2487 435.016C62.9687 434.68 63.7687 434.512 64.6487 434.512ZM79.4359 434.488C80.4279 434.488 81.2999 434.688 82.0519 435.088C82.8039 435.472 83.3959 435.976 83.8279 436.6V434.704H87.2119V448.096C87.2119 449.328 86.9639 450.424 86.4679 451.384C85.9719 452.36 85.2279 453.128 84.2359 453.688C83.2439 454.264 82.0439 454.552 80.6359 454.552C78.7479 454.552 77.1959 454.112 75.9799 453.232C74.7799 452.352 74.0999 451.152 73.9399 449.632H77.2759C77.4519 450.24 77.8279 450.72 78.4039 451.072C78.9959 451.44 79.7079 451.624 80.5399 451.624C81.5159 451.624 82.3079 451.328 82.9159 450.736C83.5239 450.16 83.8279 449.28 83.8279 448.096V446.032C83.3959 446.656 82.7959 447.176 82.0279 447.592C81.2759 448.008 80.4119 448.216 79.4359 448.216C78.3159 448.216 77.2919 447.928 76.3639 447.352C75.4359 446.776 74.6999 445.968 74.1559 444.928C73.6279 443.872 73.3639 442.664 73.3639 441.304C73.3639 439.96 73.6279 438.768 74.1559 437.728C74.6999 436.688 75.4279 435.888 76.3399 435.328C77.2679 434.768 78.2999 434.488 79.4359 434.488ZM83.8279 441.352C83.8279 440.536 83.6679 439.84 83.3479 439.264C83.0279 438.672 82.5959 438.224 82.0519 437.92C81.5079 437.6 80.9239 437.44 80.2999 437.44C79.6759 437.44 79.0999 437.592 78.5719 437.896C78.0439 438.2 77.6119 438.648 77.2759 439.24C76.9559 439.816 76.7959 440.504 76.7959 441.304C76.7959 442.104 76.9559 442.808 77.2759 443.416C77.6119 444.008 78.0439 444.464 78.5719 444.784C79.1159 445.104 79.6919 445.264 80.2999 445.264C80.9239 445.264 81.5079 445.112 82.0519 444.808C82.5959 444.488 83.0279 444.04 83.3479 443.464C83.6679 442.872 83.8279 442.168 83.8279 441.352ZM95.0535 436.768C95.4855 436.064 96.0455 435.512 96.7335 435.112C97.4375 434.712 98.2375 434.512 99.1335 434.512V438.04H98.2455C97.1895 438.04 96.3895 438.288 95.8455 438.784C95.3175 439.28 95.0535 440.144 95.0535 441.376V448H91.6935V434.704H95.0535V436.768ZM101.733 441.304C101.733 439.96 101.997 438.768 102.525 437.728C103.069 436.688 103.797 435.888 104.709 435.328C105.637 434.768 106.669 434.488 107.805 434.488C108.797 434.488 109.661 434.688 110.397 435.088C111.149 435.488 111.749 435.992 112.197 436.6V434.704H115.581V448H112.197V446.056C111.765 446.68 111.165 447.2 110.397 447.616C109.645 448.016 108.773 448.216 107.781 448.216C106.661 448.216 105.637 447.928 104.709 447.352C103.797 446.776 103.069 445.968 102.525 444.928C101.997 443.872 101.733 442.664 101.733 441.304ZM112.197 441.352C112.197 440.536 112.037 439.84 111.717 439.264C111.397 438.672 110.965 438.224 110.421 437.92C109.877 437.6 109.293 437.44 108.669 437.44C108.045 437.44 107.469 437.592 106.941 437.896C106.413 438.2 105.981 438.648 105.645 439.24C105.325 439.816 105.165 440.504 105.165 441.304C105.165 442.104 105.325 442.808 105.645 443.416C105.981 444.008 106.413 444.464 106.941 444.784C107.485 445.104 108.061 445.264 108.669 445.264C109.293 445.264 109.877 445.112 110.421 444.808C110.965 444.488 111.397 444.04 111.717 443.464C112.037 442.872 112.197 442.168 112.197 441.352ZM119.198 441.304C119.198 439.96 119.462 438.768 119.99 437.728C120.534 436.688 121.27 435.888 122.198 435.328C123.126 434.768 124.158 434.488 125.294 434.488C126.158 434.488 126.982 434.68 127.766 435.064C128.55 435.432 129.174 435.928 129.638 436.552V430.24H133.046V448H129.638V446.032C129.222 446.688 128.638 447.216 127.886 447.616C127.134 448.016 126.262 448.216 125.27 448.216C124.15 448.216 123.126 447.928 122.198 447.352C121.27 446.776 120.534 445.968 119.99 444.928C119.462 443.872 119.198 442.664 119.198 441.304ZM129.662 441.352C129.662 440.536 129.502 439.84 129.182 439.264C128.862 438.672 128.43 438.224 127.886 437.92C127.342 437.6 126.758 437.44 126.134 437.44C125.51 437.44 124.934 437.592 124.406 437.896C123.878 438.2 123.446 438.648 123.11 439.24C122.79 439.816 122.63 440.504 122.63 441.304C122.63 442.104 122.79 442.808 123.11 443.416C123.446 444.008 123.878 444.464 124.406 444.784C124.95 445.104 125.526 445.264 126.134 445.264C126.758 445.264 127.342 445.112 127.886 444.808C128.43 444.488 128.862 444.04 129.182 443.464C129.502 442.872 129.662 442.168 129.662 441.352ZM142.616 448.216C141.528 448.216 140.552 448.024 139.688 447.64C138.824 447.24 138.136 446.704 137.624 446.032C137.128 445.36 136.856 444.616 136.808 443.8H140.192C140.256 444.312 140.504 444.736 140.936 445.072C141.384 445.408 141.936 445.576 142.592 445.576C143.232 445.576 143.728 445.448 144.08 445.192C144.448 444.936 144.632 444.608 144.632 444.208C144.632 443.776 144.408 443.456 143.96 443.248C143.528 443.024 142.832 442.784 141.872 442.528C140.88 442.288 140.064 442.04 139.424 441.784C138.8 441.528 138.256 441.136 137.792 440.608C137.344 440.08 137.12 439.368 137.12 438.472C137.12 437.736 137.328 437.064 137.744 436.456C138.176 435.848 138.784 435.368 139.568 435.016C140.368 434.664 141.304 434.488 142.376 434.488C143.96 434.488 145.224 434.888 146.168 435.688C147.112 436.472 147.632 437.536 147.728 438.88H144.512C144.464 438.352 144.24 437.936 143.84 437.632C143.456 437.312 142.936 437.152 142.28 437.152C141.672 437.152 141.2 437.264 140.864 437.488C140.544 437.712 140.384 438.024 140.384 438.424C140.384 438.872 140.608 439.216 141.056 439.456C141.504 439.68 142.2 439.912 143.144 440.152C144.104 440.392 144.896 440.64 145.52 440.896C146.144 441.152 146.68 441.552 147.128 442.096C147.592 442.624 147.832 443.328 147.848 444.208C147.848 444.976 147.632 445.664 147.2 446.272C146.784 446.88 146.176 447.36 145.376 447.712C144.592 448.048 143.672 448.216 142.616 448.216Z" fill="#008183"/>
<path d="M163.813 448.216C162.725 448.216 161.749 448.024 160.885 447.64C160.021 447.24 159.333 446.704 158.821 446.032C158.325 445.36 158.053 444.616 158.005 443.8H161.389C161.453 444.312 161.701 444.736 162.133 445.072C162.581 445.408 163.133 445.576 163.789 445.576C164.429 445.576 164.925 445.448 165.277 445.192C165.645 444.936 165.829 444.608 165.829 444.208C165.829 443.776 165.605 443.456 165.157 443.248C164.725 443.024 164.029 442.784 163.069 442.528C162.077 442.288 161.261 442.04 160.621 441.784C159.997 441.528 159.453 441.136 158.989 440.608C158.541 440.08 158.317 439.368 158.317 438.472C158.317 437.736 158.525 437.064 158.941 436.456C159.373 435.848 159.981 435.368 160.765 435.016C161.565 434.664 162.501 434.488 163.573 434.488C165.157 434.488 166.421 434.888 167.365 435.688C168.309 436.472 168.829 437.536 168.925 438.88H165.709C165.661 438.352 165.437 437.936 165.037 437.632C164.653 437.312 164.133 437.152 163.477 437.152C162.869 437.152 162.397 437.264 162.061 437.488C161.741 437.712 161.581 438.024 161.581 438.424C161.581 438.872 161.805 439.216 162.253 439.456C162.701 439.68 163.397 439.912 164.341 440.152C165.301 440.392 166.093 440.64 166.717 440.896C167.341 441.152 167.877 441.552 168.325 442.096C168.789 442.624 169.029 443.328 169.045 444.208C169.045 444.976 168.829 445.664 168.397 446.272C167.981 446.88 167.373 447.36 166.573 447.712C165.789 448.048 164.869 448.216 163.813 448.216ZM185.363 441.064C185.363 441.544 185.331 441.976 185.267 442.36H175.547C175.627 443.32 175.963 444.072 176.555 444.616C177.147 445.16 177.875 445.432 178.739 445.432C179.987 445.432 180.875 444.896 181.403 443.824H185.027C184.643 445.104 183.907 446.16 182.819 446.992C181.731 447.808 180.395 448.216 178.811 448.216C177.531 448.216 176.379 447.936 175.355 447.376C174.347 446.8 173.555 445.992 172.979 444.952C172.419 443.912 172.139 442.712 172.139 441.352C172.139 439.976 172.419 438.768 172.979 437.728C173.539 436.688 174.323 435.888 175.331 435.328C176.339 434.768 177.499 434.488 178.811 434.488C180.075 434.488 181.203 434.76 182.195 435.304C183.203 435.848 183.979 436.624 184.523 437.632C185.083 438.624 185.363 439.768 185.363 441.064ZM181.883 440.104C181.867 439.24 181.555 438.552 180.947 438.04C180.339 437.512 179.595 437.248 178.715 437.248C177.883 437.248 177.179 437.504 176.603 438.016C176.043 438.512 175.699 439.208 175.571 440.104H181.883ZM201.375 441.064C201.375 441.544 201.343 441.976 201.279 442.36H191.559C191.639 443.32 191.975 444.072 192.567 444.616C193.159 445.16 193.887 445.432 194.751 445.432C195.999 445.432 196.887 444.896 197.415 443.824H201.039C200.655 445.104 199.919 446.16 198.831 446.992C197.743 447.808 196.407 448.216 194.823 448.216C193.543 448.216 192.391 447.936 191.367 447.376C190.359 446.8 189.567 445.992 188.991 444.952C188.431 443.912 188.151 442.712 188.151 441.352C188.151 439.976 188.431 438.768 188.991 437.728C189.551 436.688 190.335 435.888 191.343 435.328C192.351 434.768 193.511 434.488 194.823 434.488C196.087 434.488 197.215 434.76 198.207 435.304C199.215 435.848 199.991 436.624 200.535 437.632C201.095 438.624 201.375 439.768 201.375 441.064ZM197.895 440.104C197.879 439.24 197.567 438.552 196.959 438.04C196.351 437.512 195.607 437.248 194.727 437.248C193.895 437.248 193.191 437.504 192.615 438.016C192.055 438.512 191.711 439.208 191.583 440.104H197.895ZM212.9 448L208.388 442.336V448H205.028V430.24H208.388V440.344L212.852 434.704H217.22L211.364 441.376L217.268 448H212.9ZM221.947 433.12C221.355 433.12 220.859 432.936 220.459 432.568C220.075 432.184 219.883 431.712 219.883 431.152C219.883 430.592 220.075 430.128 220.459 429.76C220.859 429.376 221.355 429.184 221.947 429.184C222.539 429.184 223.027 429.376 223.411 429.76C223.811 430.128 224.011 430.592 224.011 431.152C224.011 431.712 223.811 432.184 223.411 432.568C223.027 432.936 222.539 433.12 221.947 433.12ZM223.603 434.704V448H220.243V434.704H223.603ZM235.491 434.512C237.075 434.512 238.355 435.016 239.331 436.024C240.307 437.016 240.795 438.408 240.795 440.2V448H237.435V440.656C237.435 439.6 237.171 438.792 236.643 438.232C236.115 437.656 235.395 437.368 234.483 437.368C233.555 437.368 232.819 437.656 232.275 438.232C231.747 438.792 231.483 439.6 231.483 440.656V448H228.123V434.704H231.483V436.36C231.931 435.784 232.499 435.336 233.187 435.016C233.891 434.68 234.659 434.512 235.491 434.512ZM250.398 434.488C251.39 434.488 252.262 434.688 253.014 435.088C253.766 435.472 254.358 435.976 254.79 436.6V434.704H258.174V448.096C258.174 449.328 257.926 450.424 257.43 451.384C256.934 452.36 256.19 453.128 255.198 453.688C254.206 454.264 253.006 454.552 251.598 454.552C249.71 454.552 248.158 454.112 246.942 453.232C245.742 452.352 245.062 451.152 244.902 449.632H248.238C248.414 450.24 248.79 450.72 249.366 451.072C249.958 451.44 250.67 451.624 251.502 451.624C252.478 451.624 253.27 451.328 253.878 450.736C254.486 450.16 254.79 449.28 254.79 448.096V446.032C254.358 446.656 253.758 447.176 252.99 447.592C252.238 448.008 251.374 448.216 250.398 448.216C249.278 448.216 248.254 447.928 247.326 447.352C246.398 446.776 245.662 445.968 245.118 444.928C244.59 443.872 244.326 442.664 244.326 441.304C244.326 439.96 244.59 438.768 245.118 437.728C245.662 436.688 246.39 435.888 247.302 435.328C248.23 434.768 249.262 434.488 250.398 434.488ZM254.79 441.352C254.79 440.536 254.63 439.84 254.31 439.264C253.99 438.672 253.558 438.224 253.014 437.92C252.47 437.6 251.886 437.44 251.262 437.44C250.638 437.44 250.062 437.592 249.534 437.896C249.006 438.2 248.574 438.648 248.238 439.24C247.918 439.816 247.758 440.504 247.758 441.304C247.758 442.104 247.918 442.808 248.238 443.416C248.574 444.008 249.006 444.464 249.534 444.784C250.078 445.104 250.654 445.264 251.262 445.264C251.886 445.264 252.47 445.112 253.014 444.808C253.558 444.488 253.99 444.04 254.31 443.464C254.63 442.872 254.79 442.168 254.79 441.352ZM146.817 472.248V474.96H139.833V479.256H145.185V481.92H139.833V489H136.473V472.248H146.817ZM152.104 474.12C151.512 474.12 151.016 473.936 150.616 473.568C150.232 473.184 150.04 472.712 150.04 472.152C150.04 471.592 150.232 471.128 150.616 470.76C151.016 470.376 151.512 470.184 152.104 470.184C152.696 470.184 153.184 470.376 153.568 470.76C153.968 471.128 154.168 471.592 154.168 472.152C154.168 472.712 153.968 473.184 153.568 473.568C153.184 473.936 152.696 474.12 152.104 474.12ZM153.76 475.704V489H150.4V475.704H153.76ZM161.639 477.768C162.071 477.064 162.631 476.512 163.319 476.112C164.023 475.712 164.823 475.512 165.719 475.512V479.04H164.831C163.775 479.04 162.975 479.288 162.431 479.784C161.903 480.28 161.639 481.144 161.639 482.376V489H158.279V475.704H161.639V477.768ZM174.271 489.216C173.183 489.216 172.207 489.024 171.343 488.64C170.479 488.24 169.791 487.704 169.279 487.032C168.783 486.36 168.511 485.616 168.463 484.8H171.847C171.911 485.312 172.159 485.736 172.591 486.072C173.039 486.408 173.591 486.576 174.247 486.576C174.887 486.576 175.383 486.448 175.735 486.192C176.103 485.936 176.287 485.608 176.287 485.208C176.287 484.776 176.063 484.456 175.615 484.248C175.183 484.024 174.487 483.784 173.527 483.528C172.535 483.288 171.719 483.04 171.079 482.784C170.455 482.528 169.911 482.136 169.447 481.608C168.999 481.08 168.775 480.368 168.775 479.472C168.775 478.736 168.983 478.064 169.399 477.456C169.831 476.848 170.439 476.368 171.223 476.016C172.023 475.664 172.959 475.488 174.031 475.488C175.615 475.488 176.879 475.888 177.823 476.688C178.767 477.472 179.287 478.536 179.383 479.88H176.167C176.119 479.352 175.895 478.936 175.495 478.632C175.111 478.312 174.591 478.152 173.935 478.152C173.327 478.152 172.855 478.264 172.519 478.488C172.199 478.712 172.039 479.024 172.039 479.424C172.039 479.872 172.263 480.216 172.711 480.456C173.159 480.68 173.855 480.912 174.799 481.152C175.759 481.392 176.551 481.64 177.175 481.896C177.799 482.152 178.335 482.552 178.783 483.096C179.247 483.624 179.487 484.328 179.503 485.208C179.503 485.976 179.287 486.664 178.855 487.272C178.439 487.88 177.831 488.36 177.031 488.712C176.247 489.048 175.327 489.216 174.271 489.216ZM187.373 478.464V484.896C187.373 485.344 187.477 485.672 187.685 485.88C187.909 486.072 188.277 486.168 188.789 486.168H190.349V489H188.237C185.405 489 183.989 487.624 183.989 484.872V478.464H182.405V475.704H183.989V472.416H187.373V475.704H190.349V478.464H187.373ZM210.652 472.248V484.008C210.652 485.64 210.18 486.912 209.236 487.824C208.292 488.72 207.028 489.168 205.444 489.168C203.844 489.168 202.548 488.704 201.556 487.776C200.58 486.848 200.092 485.552 200.092 483.888H203.452C203.468 484.608 203.636 485.168 203.956 485.568C204.292 485.968 204.772 486.168 205.396 486.168C206.004 486.168 206.468 485.976 206.788 485.592C207.108 485.208 207.268 484.68 207.268 484.008V472.248H210.652ZM221.676 489.216C220.396 489.216 219.244 488.936 218.22 488.376C217.196 487.8 216.388 486.992 215.796 485.952C215.22 484.912 214.932 483.712 214.932 482.352C214.932 480.992 215.228 479.792 215.82 478.752C216.428 477.712 217.252 476.912 218.292 476.352C219.332 475.776 220.492 475.488 221.772 475.488C223.052 475.488 224.212 475.776 225.252 476.352C226.292 476.912 227.108 477.712 227.7 478.752C228.308 479.792 228.612 480.992 228.612 482.352C228.612 483.712 228.3 484.912 227.676 485.952C227.068 486.992 226.236 487.8 225.18 488.376C224.14 488.936 222.972 489.216 221.676 489.216ZM221.676 486.288C222.284 486.288 222.852 486.144 223.38 485.856C223.924 485.552 224.356 485.104 224.676 484.512C224.996 483.92 225.156 483.2 225.156 482.352C225.156 481.088 224.82 480.12 224.148 479.448C223.492 478.76 222.684 478.416 221.724 478.416C220.764 478.416 219.956 478.76 219.3 479.448C218.66 480.12 218.34 481.088 218.34 482.352C218.34 483.616 218.652 484.592 219.276 485.28C219.916 485.952 220.716 486.288 221.676 486.288ZM235.636 477.648C236.068 477.008 236.66 476.488 237.412 476.088C238.18 475.688 239.052 475.488 240.028 475.488C241.164 475.488 242.188 475.768 243.1 476.328C244.028 476.888 244.756 477.688 245.284 478.728C245.828 479.752 246.1 480.944 246.1 482.304C246.1 483.664 245.828 484.872 245.284 485.928C244.756 486.968 244.028 487.776 243.1 488.352C242.188 488.928 241.164 489.216 240.028 489.216C239.036 489.216 238.164 489.024 237.412 488.64C236.676 488.24 236.084 487.728 235.636 487.104V489H232.276V471.24H235.636V477.648ZM242.668 482.304C242.668 481.504 242.5 480.816 242.164 480.24C241.844 479.648 241.412 479.2 240.868 478.896C240.34 478.592 239.764 478.44 239.14 478.44C238.532 478.44 237.956 478.6 237.412 478.92C236.884 479.224 236.452 479.672 236.116 480.264C235.796 480.856 235.636 481.552 235.636 482.352C235.636 483.152 235.796 483.848 236.116 484.44C236.452 485.032 236.884 485.488 237.412 485.808C237.956 486.112 238.532 486.264 239.14 486.264C239.764 486.264 240.34 486.104 240.868 485.784C241.412 485.464 241.844 485.008 242.164 484.416C242.5 483.824 242.668 483.12 242.668 482.304ZM254.422 471.672C256.086 471.672 257.422 472.128 258.43 473.04C259.454 473.936 259.966 475.176 259.966 476.76C259.966 478.328 259.462 479.528 258.454 480.36C257.446 481.176 256.11 481.584 254.446 481.584L254.35 483.432H251.398L251.278 479.352H252.358C253.75 479.352 254.822 479.168 255.574 478.8C256.326 478.432 256.702 477.76 256.702 476.784C256.702 476.08 256.494 475.52 256.078 475.104C255.678 474.688 255.126 474.48 254.422 474.48C253.686 474.48 253.11 474.68 252.694 475.08C252.294 475.48 252.094 476.032 252.094 476.736H248.926C248.91 475.76 249.118 474.888 249.55 474.12C249.982 473.352 250.614 472.752 251.446 472.32C252.294 471.888 253.286 471.672 254.422 471.672ZM252.862 489.168C252.254 489.168 251.75 488.984 251.35 488.616C250.966 488.232 250.774 487.76 250.774 487.2C250.774 486.64 250.966 486.176 251.35 485.808C251.75 485.424 252.254 485.232 252.862 485.232C253.454 485.232 253.942 485.424 254.326 485.808C254.71 486.176 254.902 486.64 254.902 487.2C254.902 487.76 254.71 488.232 254.326 488.616C253.942 488.984 253.454 489.168 252.862 489.168Z" fill="#4B4B4B"/>
<path d="M15.5 470.947C30.7275 463.781 70.946 453.749 110 470.947" stroke="#FF8551" stroke-width="4"/>
<path d="M330.162 587.168C328.994 587.168 327.938 586.968 326.994 586.568C326.066 586.168 325.33 585.592 324.786 584.84C324.242 584.088 323.962 583.2 323.946 582.176H327.546C327.594 582.864 327.834 583.408 328.266 583.808C328.714 584.208 329.322 584.408 330.09 584.408C330.874 584.408 331.49 584.224 331.938 583.856C332.386 583.472 332.61 582.976 332.61 582.368C332.61 581.872 332.458 581.464 332.154 581.144C331.85 580.824 331.466 580.576 331.002 580.4C330.554 580.208 329.93 580 329.13 579.776C328.042 579.456 327.154 579.144 326.466 578.84C325.794 578.52 325.21 578.048 324.714 577.424C324.234 576.784 323.994 575.936 323.994 574.88C323.994 573.888 324.242 573.024 324.738 572.288C325.234 571.552 325.93 570.992 326.826 570.608C327.722 570.208 328.746 570.008 329.898 570.008C331.626 570.008 333.026 570.432 334.098 571.28C335.186 572.112 335.786 573.28 335.898 574.784H332.202C332.17 574.208 331.922 573.736 331.458 573.368C331.01 572.984 330.41 572.792 329.658 572.792C329.002 572.792 328.474 572.96 328.074 573.296C327.69 573.632 327.498 574.12 327.498 574.76C327.498 575.208 327.642 575.584 327.93 575.888C328.234 576.176 328.602 576.416 329.034 576.608C329.482 576.784 330.106 576.992 330.906 577.232C331.994 577.552 332.882 577.872 333.57 578.192C334.258 578.512 334.85 578.992 335.346 579.632C335.842 580.272 336.09 581.112 336.09 582.152C336.09 583.048 335.858 583.88 335.394 584.648C334.93 585.416 334.25 586.032 333.354 586.496C332.458 586.944 331.394 587.168 330.162 587.168ZM358.635 573.704L354.747 587H351.123L348.699 577.712L346.275 587H342.627L338.715 573.704H342.123L344.475 583.832L347.019 573.704H350.571L353.067 583.808L355.419 573.704H358.635ZM363.357 572.12C362.765 572.12 362.269 571.936 361.869 571.568C361.485 571.184 361.293 570.712 361.293 570.152C361.293 569.592 361.485 569.128 361.869 568.76C362.269 568.376 362.765 568.184 363.357 568.184C363.949 568.184 364.437 568.376 364.821 568.76C365.221 569.128 365.421 569.592 365.421 570.152C365.421 570.712 365.221 571.184 364.821 571.568C364.437 571.936 363.949 572.12 363.357 572.12ZM365.013 573.704V587H361.653V573.704H365.013ZM373.445 576.464V582.896C373.445 583.344 373.549 583.672 373.757 583.88C373.981 584.072 374.349 584.168 374.861 584.168H376.421V587H374.309C371.477 587 370.061 585.624 370.061 582.872V576.464H368.477V573.704H370.061V570.416H373.445V573.704H376.421V576.464H373.445ZM379.173 580.352C379.173 578.976 379.453 577.776 380.013 576.752C380.573 575.712 381.349 574.912 382.341 574.352C383.333 573.776 384.469 573.488 385.749 573.488C387.397 573.488 388.757 573.904 389.829 574.736C390.917 575.552 391.645 576.704 392.013 578.192H388.389C388.197 577.616 387.869 577.168 387.405 576.848C386.957 576.512 386.397 576.344 385.725 576.344C384.765 576.344 384.005 576.696 383.445 577.4C382.885 578.088 382.605 579.072 382.605 580.352C382.605 581.616 382.885 582.6 383.445 583.304C384.005 583.992 384.765 584.336 385.725 584.336C387.085 584.336 387.973 583.728 388.389 582.512H392.013C391.645 583.952 390.917 585.096 389.829 585.944C388.741 586.792 387.381 587.216 385.749 587.216C384.469 587.216 383.333 586.936 382.341 586.376C381.349 585.8 380.573 585 380.013 583.976C379.453 582.936 379.173 581.728 379.173 580.352ZM403.163 573.512C404.171 573.512 405.067 573.736 405.851 574.184C406.635 574.616 407.243 575.264 407.675 576.128C408.123 576.976 408.347 578 408.347 579.2V587H404.987V579.656C404.987 578.6 404.723 577.792 404.195 577.232C403.667 576.656 402.947 576.368 402.035 576.368C401.107 576.368 400.371 576.656 399.827 577.232C399.299 577.792 399.035 578.6 399.035 579.656V587H395.675V569.24H399.035V575.36C399.467 574.784 400.043 574.336 400.763 574.016C401.483 573.68 402.283 573.512 403.163 573.512ZM414.446 572.12C413.854 572.12 413.358 571.936 412.958 571.568C412.574 571.184 412.382 570.712 412.382 570.152C412.382 569.592 412.574 569.128 412.958 568.76C413.358 568.376 413.854 568.184 414.446 568.184C415.038 568.184 415.526 568.376 415.91 568.76C416.31 569.128 416.51 569.592 416.51 570.152C416.51 570.712 416.31 571.184 415.91 571.568C415.526 571.936 415.038 572.12 414.446 572.12ZM416.102 573.704V587H412.742V573.704H416.102ZM427.99 573.512C429.574 573.512 430.854 574.016 431.83 575.024C432.806 576.016 433.294 577.408 433.294 579.2V587H429.934V579.656C429.934 578.6 429.67 577.792 429.142 577.232C428.614 576.656 427.894 576.368 426.982 576.368C426.054 576.368 425.318 576.656 424.774 577.232C424.246 577.792 423.982 578.6 423.982 579.656V587H420.622V573.704H423.982V575.36C424.43 574.784 424.998 574.336 425.686 574.016C426.39 573.68 427.158 573.512 427.99 573.512ZM442.897 573.488C443.889 573.488 444.761 573.688 445.513 574.088C446.265 574.472 446.857 574.976 447.289 575.6V573.704H450.673V587.096C450.673 588.328 450.425 589.424 449.929 590.384C449.433 591.36 448.689 592.128 447.697 592.688C446.705 593.264 445.505 593.552 444.097 593.552C442.209 593.552 440.657 593.112 439.441 592.232C438.241 591.352 437.561 590.152 437.401 588.632H440.737C440.913 589.24 441.289 589.72 441.865 590.072C442.457 590.44 443.169 590.624 444.001 590.624C444.977 590.624 445.769 590.328 446.377 589.736C446.985 589.16 447.289 588.28 447.289 587.096V585.032C446.857 585.656 446.257 586.176 445.489 586.592C444.737 587.008 443.873 587.216 442.897 587.216C441.777 587.216 440.753 586.928 439.825 586.352C438.897 585.776 438.161 584.968 437.617 583.928C437.089 582.872 436.825 581.664 436.825 580.304C436.825 578.96 437.089 577.768 437.617 576.728C438.161 575.688 438.889 574.888 439.801 574.328C440.729 573.768 441.761 573.488 442.897 573.488ZM447.289 580.352C447.289 579.536 447.129 578.84 446.809 578.264C446.489 577.672 446.057 577.224 445.513 576.92C444.969 576.6 444.385 576.44 443.761 576.44C443.137 576.44 442.561 576.592 442.033 576.896C441.505 577.2 441.073 577.648 440.737 578.24C440.417 578.816 440.257 579.504 440.257 580.304C440.257 581.104 440.417 581.808 440.737 582.416C441.073 583.008 441.505 583.464 442.033 583.784C442.577 584.104 443.153 584.264 443.761 584.264C444.385 584.264 444.969 584.112 445.513 583.808C446.057 583.488 446.489 583.04 446.809 582.464C447.129 581.872 447.289 581.168 447.289 580.352Z" fill="#008183"/>
<path d="M467.929 570.248C469.689 570.248 471.233 570.592 472.561 571.28C473.905 571.968 474.937 572.952 475.657 574.232C476.393 575.496 476.761 576.968 476.761 578.648C476.761 580.328 476.393 581.8 475.657 583.064C474.937 584.312 473.905 585.28 472.561 585.968C471.233 586.656 469.689 587 467.929 587H462.073V570.248H467.929ZM467.809 584.144C469.569 584.144 470.929 583.664 471.889 582.704C472.849 581.744 473.329 580.392 473.329 578.648C473.329 576.904 472.849 575.544 471.889 574.568C470.929 573.576 469.569 573.08 467.809 573.08H465.433V584.144H467.809ZM486.38 587.216C485.1 587.216 483.948 586.936 482.924 586.376C481.9 585.8 481.092 584.992 480.5 583.952C479.924 582.912 479.636 581.712 479.636 580.352C479.636 578.992 479.932 577.792 480.524 576.752C481.132 575.712 481.956 574.912 482.996 574.352C484.036 573.776 485.196 573.488 486.476 573.488C487.756 573.488 488.916 573.776 489.956 574.352C490.996 574.912 491.812 575.712 492.404 576.752C493.012 577.792 493.316 578.992 493.316 580.352C493.316 581.712 493.004 582.912 492.38 583.952C491.772 584.992 490.94 585.8 489.884 586.376C488.844 586.936 487.676 587.216 486.38 587.216ZM486.38 584.288C486.988 584.288 487.556 584.144 488.084 583.856C488.628 583.552 489.06 583.104 489.38 582.512C489.7 581.92 489.86 581.2 489.86 580.352C489.86 579.088 489.524 578.12 488.852 577.448C488.196 576.76 487.388 576.416 486.428 576.416C485.468 576.416 484.66 576.76 484.004 577.448C483.364 578.12 483.044 579.088 483.044 580.352C483.044 581.616 483.356 582.592 483.98 583.28C484.62 583.952 485.42 584.288 486.38 584.288ZM513.493 573.512C515.125 573.512 516.437 574.016 517.429 575.024C518.437 576.016 518.941 577.408 518.941 579.2V587H515.581V579.656C515.581 578.616 515.317 577.824 514.789 577.28C514.261 576.72 513.541 576.44 512.629 576.44C511.717 576.44 510.989 576.72 510.445 577.28C509.917 577.824 509.653 578.616 509.653 579.656V587H506.293V579.656C506.293 578.616 506.029 577.824 505.501 577.28C504.973 576.72 504.253 576.44 503.341 576.44C502.413 576.44 501.677 576.72 501.133 577.28C500.605 577.824 500.341 578.616 500.341 579.656V587H496.981V573.704H500.341V575.312C500.773 574.752 501.325 574.312 501.997 573.992C502.685 573.672 503.437 573.512 504.253 573.512C505.293 573.512 506.221 573.736 507.037 574.184C507.853 574.616 508.485 575.24 508.933 576.056C509.365 575.288 509.989 574.672 510.805 574.208C511.637 573.744 512.533 573.512 513.493 573.512ZM522.465 580.304C522.465 578.96 522.729 577.768 523.257 576.728C523.801 575.688 524.529 574.888 525.441 574.328C526.369 573.768 527.401 573.488 528.537 573.488C529.529 573.488 530.393 573.688 531.129 574.088C531.881 574.488 532.481 574.992 532.929 575.6V573.704H536.313V587H532.929V585.056C532.497 585.68 531.897 586.2 531.129 586.616C530.377 587.016 529.505 587.216 528.513 587.216C527.393 587.216 526.369 586.928 525.441 586.352C524.529 585.776 523.801 584.968 523.257 583.928C522.729 582.872 522.465 581.664 522.465 580.304ZM532.929 580.352C532.929 579.536 532.769 578.84 532.449 578.264C532.129 577.672 531.697 577.224 531.153 576.92C530.609 576.6 530.025 576.44 529.401 576.44C528.777 576.44 528.201 576.592 527.673 576.896C527.145 577.2 526.713 577.648 526.377 578.24C526.057 578.816 525.897 579.504 525.897 580.304C525.897 581.104 526.057 581.808 526.377 582.416C526.713 583.008 527.145 583.464 527.673 583.784C528.217 584.104 528.793 584.264 529.401 584.264C530.025 584.264 530.609 584.112 531.153 583.808C531.697 583.488 532.129 583.04 532.449 582.464C532.769 581.872 532.929 581.168 532.929 580.352ZM542.499 572.12C541.907 572.12 541.411 571.936 541.011 571.568C540.627 571.184 540.435 570.712 540.435 570.152C540.435 569.592 540.627 569.128 541.011 568.76C541.411 568.376 541.907 568.184 542.499 568.184C543.091 568.184 543.579 568.376 543.963 568.76C544.363 569.128 544.563 569.592 544.563 570.152C544.563 570.712 544.363 571.184 543.963 571.568C543.579 571.936 543.091 572.12 542.499 572.12ZM544.155 573.704V587H540.795V573.704H544.155ZM556.043 573.512C557.627 573.512 558.907 574.016 559.883 575.024C560.859 576.016 561.347 577.408 561.347 579.2V587H557.987V579.656C557.987 578.6 557.723 577.792 557.195 577.232C556.667 576.656 555.947 576.368 555.035 576.368C554.107 576.368 553.371 576.656 552.827 577.232C552.299 577.792 552.035 578.6 552.035 579.656V587H548.675V573.704H552.035V575.36C552.483 574.784 553.051 574.336 553.739 574.016C554.443 573.68 555.211 573.512 556.043 573.512ZM570.422 569.672C572.086 569.672 573.422 570.128 574.43 571.04C575.454 571.936 575.966 573.176 575.966 574.76C575.966 576.328 575.462 577.528 574.454 578.36C573.446 579.176 572.11 579.584 570.446 579.584L570.35 581.432H567.398L567.278 577.352H568.358C569.75 577.352 570.822 577.168 571.574 576.8C572.326 576.432 572.702 575.76 572.702 574.784C572.702 574.08 572.494 573.52 572.078 573.104C571.678 572.688 571.126 572.48 570.422 572.48C569.686 572.48 569.11 572.68 568.694 573.08C568.294 573.48 568.094 574.032 568.094 574.736H564.926C564.91 573.76 565.118 572.888 565.55 572.12C565.982 571.352 566.614 570.752 567.446 570.32C568.294 569.888 569.286 569.672 570.422 569.672ZM568.862 587.168C568.254 587.168 567.75 586.984 567.35 586.616C566.966 586.232 566.774 585.76 566.774 585.2C566.774 584.64 566.966 584.176 567.35 583.808C567.75 583.424 568.254 583.232 568.862 583.232C569.454 583.232 569.942 583.424 570.326 583.808C570.71 584.176 570.902 584.64 570.902 585.2C570.902 585.76 570.71 586.232 570.326 586.616C569.942 586.984 569.454 587.168 568.862 587.168Z" fill="#4B4B4B"/>
<path d="M337 609.601C354 601.601 398.9 590.401 442.5 609.601" stroke="#FF8551" stroke-width="4"/>
<path d="M667.605 513L663.909 506.472H662.325V513H658.965V496.248H665.253C666.549 496.248 667.653 496.48 668.565 496.944C669.477 497.392 670.157 498.008 670.605 498.792C671.069 499.56 671.301 500.424 671.301 501.384C671.301 502.488 670.981 503.488 670.341 504.384C669.701 505.264 668.749 505.872 667.485 506.208L671.493 513H667.605ZM662.325 503.952H665.133C666.045 503.952 666.725 503.736 667.173 503.304C667.621 502.856 667.845 502.24 667.845 501.456C667.845 500.688 667.621 500.096 667.173 499.68C666.725 499.248 666.045 499.032 665.133 499.032H662.325V503.952ZM687.9 506.064C687.9 506.544 687.868 506.976 687.804 507.36H678.084C678.164 508.32 678.5 509.072 679.092 509.616C679.684 510.16 680.412 510.432 681.276 510.432C682.524 510.432 683.412 509.896 683.94 508.824H687.564C687.18 510.104 686.444 511.16 685.356 511.992C684.268 512.808 682.932 513.216 681.348 513.216C680.068 513.216 678.916 512.936 677.892 512.376C676.884 511.8 676.092 510.992 675.516 509.952C674.956 508.912 674.676 507.712 674.676 506.352C674.676 504.976 674.956 503.768 675.516 502.728C676.076 501.688 676.86 500.888 677.868 500.328C678.876 499.768 680.036 499.488 681.348 499.488C682.612 499.488 683.74 499.76 684.732 500.304C685.74 500.848 686.516 501.624 687.06 502.632C687.62 503.624 687.9 504.768 687.9 506.064ZM684.42 505.104C684.404 504.24 684.092 503.552 683.484 503.04C682.876 502.512 682.132 502.248 681.252 502.248C680.42 502.248 679.716 502.504 679.14 503.016C678.58 503.512 678.236 504.208 678.108 505.104H684.42ZM695.465 502.464V508.896C695.465 509.344 695.569 509.672 695.777 509.88C696.001 510.072 696.369 510.168 696.881 510.168H698.441V513H696.329C693.497 513 692.081 511.624 692.081 508.872V502.464H690.497V499.704H692.081V496.416H695.465V499.704H698.441V502.464H695.465ZM714.61 499.704V513H711.226V511.32C710.794 511.896 710.226 512.352 709.522 512.688C708.834 513.008 708.082 513.168 707.266 513.168C706.226 513.168 705.306 512.952 704.506 512.52C703.706 512.072 703.074 511.424 702.61 510.576C702.162 509.712 701.938 508.688 701.938 507.504V499.704H705.298V507.024C705.298 508.08 705.562 508.896 706.09 509.472C706.618 510.032 707.338 510.312 708.25 510.312C709.178 510.312 709.906 510.032 710.434 509.472C710.962 508.896 711.226 508.08 711.226 507.024V499.704H714.61ZM722.485 501.768C722.917 501.064 723.477 500.512 724.165 500.112C724.869 499.712 725.669 499.512 726.565 499.512V503.04H725.677C724.621 503.04 723.821 503.288 723.277 503.784C722.749 504.28 722.485 505.144 722.485 506.376V513H719.125V499.704H722.485V501.768ZM737.396 499.512C738.98 499.512 740.26 500.016 741.236 501.024C742.212 502.016 742.7 503.408 742.7 505.2V513H739.34V505.656C739.34 504.6 739.076 503.792 738.548 503.232C738.02 502.656 737.3 502.368 736.388 502.368C735.46 502.368 734.724 502.656 734.18 503.232C733.652 503.792 733.388 504.6 733.388 505.656V513H730.028V499.704H733.388V501.36C733.836 500.784 734.404 500.336 735.092 500.016C735.796 499.68 736.564 499.512 737.396 499.512ZM748.799 498.12C748.207 498.12 747.711 497.936 747.311 497.568C746.927 497.184 746.735 496.712 746.735 496.152C746.735 495.592 746.927 495.128 747.311 494.76C747.711 494.376 748.207 494.184 748.799 494.184C749.391 494.184 749.879 494.376 750.263 494.76C750.663 495.128 750.863 495.592 750.863 496.152C750.863 496.712 750.663 497.184 750.263 497.568C749.879 497.936 749.391 498.12 748.799 498.12ZM750.455 499.704V513H747.095V499.704H750.455ZM762.343 499.512C763.927 499.512 765.207 500.016 766.183 501.024C767.159 502.016 767.647 503.408 767.647 505.2V513H764.287V505.656C764.287 504.6 764.023 503.792 763.495 503.232C762.967 502.656 762.247 502.368 761.335 502.368C760.407 502.368 759.671 502.656 759.127 503.232C758.599 503.792 758.335 504.6 758.335 505.656V513H754.975V499.704H758.335V501.36C758.783 500.784 759.351 500.336 760.039 500.016C760.743 499.68 761.511 499.512 762.343 499.512ZM777.25 499.488C778.242 499.488 779.114 499.688 779.866 500.088C780.618 500.472 781.21 500.976 781.642 501.6V499.704H785.026V513.096C785.026 514.328 784.778 515.424 784.282 516.384C783.786 517.36 783.042 518.128 782.05 518.688C781.058 519.264 779.858 519.552 778.45 519.552C776.562 519.552 775.01 519.112 773.794 518.232C772.594 517.352 771.914 516.152 771.754 514.632H775.09C775.266 515.24 775.642 515.72 776.218 516.072C776.81 516.44 777.522 516.624 778.354 516.624C779.33 516.624 780.122 516.328 780.73 515.736C781.338 515.16 781.642 514.28 781.642 513.096V511.032C781.21 511.656 780.61 512.176 779.842 512.592C779.09 513.008 778.226 513.216 777.25 513.216C776.13 513.216 775.106 512.928 774.178 512.352C773.25 511.776 772.514 510.968 771.97 509.928C771.442 508.872 771.178 507.664 771.178 506.304C771.178 504.96 771.442 503.768 771.97 502.728C772.514 501.688 773.242 500.888 774.154 500.328C775.082 499.768 776.114 499.488 777.25 499.488ZM781.642 506.352C781.642 505.536 781.482 504.84 781.162 504.264C780.842 503.672 780.41 503.224 779.866 502.92C779.322 502.6 778.738 502.44 778.114 502.44C777.49 502.44 776.914 502.592 776.386 502.896C775.858 503.2 775.426 503.648 775.09 504.24C774.77 504.816 774.61 505.504 774.61 506.304C774.61 507.104 774.77 507.808 775.09 508.416C775.426 509.008 775.858 509.464 776.386 509.784C776.93 510.104 777.506 510.264 778.114 510.264C778.738 510.264 779.322 510.112 779.866 509.808C780.41 509.488 780.842 509.04 781.162 508.464C781.482 507.872 781.642 507.168 781.642 506.352Z" fill="#008183"/>
<path d="M802.522 502.464H800.194V513H796.786V502.464H795.274V499.704H796.786V499.032C796.786 497.4 797.25 496.2 798.178 495.432C799.106 494.664 800.506 494.304 802.378 494.352V497.184C801.562 497.168 800.994 497.304 800.674 497.592C800.354 497.88 800.194 498.4 800.194 499.152V499.704H802.522V502.464ZM809.26 501.768C809.692 501.064 810.252 500.512 810.94 500.112C811.644 499.712 812.444 499.512 813.34 499.512V503.04H812.452C811.396 503.04 810.596 503.288 810.052 503.784C809.524 504.28 809.26 505.144 809.26 506.376V513H805.9V499.704H809.26V501.768ZM822.707 513.216C821.427 513.216 820.275 512.936 819.251 512.376C818.227 511.8 817.419 510.992 816.827 509.952C816.251 508.912 815.963 507.712 815.963 506.352C815.963 504.992 816.259 503.792 816.851 502.752C817.459 501.712 818.283 500.912 819.323 500.352C820.363 499.776 821.523 499.488 822.803 499.488C824.083 499.488 825.243 499.776 826.283 500.352C827.323 500.912 828.139 501.712 828.731 502.752C829.339 503.792 829.643 504.992 829.643 506.352C829.643 507.712 829.331 508.912 828.707 509.952C828.099 510.992 827.267 511.8 826.211 512.376C825.171 512.936 824.003 513.216 822.707 513.216ZM822.707 510.288C823.315 510.288 823.883 510.144 824.411 509.856C824.955 509.552 825.387 509.104 825.707 508.512C826.027 507.92 826.187 507.2 826.187 506.352C826.187 505.088 825.851 504.12 825.179 503.448C824.523 502.76 823.715 502.416 822.755 502.416C821.795 502.416 820.987 502.76 820.331 503.448C819.691 504.12 819.371 505.088 819.371 506.352C819.371 507.616 819.683 508.592 820.307 509.28C820.947 509.952 821.747 510.288 822.707 510.288ZM849.82 499.512C851.452 499.512 852.764 500.016 853.756 501.024C854.764 502.016 855.268 503.408 855.268 505.2V513H851.908V505.656C851.908 504.616 851.644 503.824 851.116 503.28C850.588 502.72 849.868 502.44 848.956 502.44C848.044 502.44 847.316 502.72 846.772 503.28C846.244 503.824 845.98 504.616 845.98 505.656V513H842.62V505.656C842.62 504.616 842.356 503.824 841.828 503.28C841.3 502.72 840.58 502.44 839.668 502.44C838.74 502.44 838.004 502.72 837.46 503.28C836.932 503.824 836.668 504.616 836.668 505.656V513H833.308V499.704H836.668V501.312C837.1 500.752 837.652 500.312 838.324 499.992C839.012 499.672 839.764 499.512 840.58 499.512C841.62 499.512 842.548 499.736 843.364 500.184C844.18 500.616 844.812 501.24 845.26 502.056C845.692 501.288 846.316 500.672 847.132 500.208C847.964 499.744 848.86 499.512 849.82 499.512ZM693.535 546.6C693.535 544.952 693.903 543.48 694.639 542.184C695.391 540.872 696.407 539.856 697.687 539.136C698.983 538.4 700.431 538.032 702.031 538.032C703.903 538.032 705.543 538.512 706.951 539.472C708.359 540.432 709.343 541.76 709.903 543.456H706.039C705.655 542.656 705.111 542.056 704.407 541.656C703.719 541.256 702.919 541.056 702.007 541.056C701.031 541.056 700.159 541.288 699.391 541.752C698.639 542.2 698.047 542.84 697.615 543.672C697.199 544.504 696.991 545.48 696.991 546.6C696.991 547.704 697.199 548.68 697.615 549.528C698.047 550.36 698.639 551.008 699.391 551.472C700.159 551.92 701.031 552.144 702.007 552.144C702.919 552.144 703.719 551.944 704.407 551.544C705.111 551.128 705.655 550.52 706.039 549.72H709.903C709.343 551.432 708.359 552.768 706.951 553.728C705.559 554.672 703.919 555.144 702.031 555.144C700.431 555.144 698.983 554.784 697.687 554.064C696.407 553.328 695.391 552.312 694.639 551.016C693.903 549.72 693.535 548.248 693.535 546.6ZM713.109 548.304C713.109 546.96 713.373 545.768 713.901 544.728C714.445 543.688 715.173 542.888 716.085 542.328C717.013 541.768 718.045 541.488 719.181 541.488C720.173 541.488 721.037 541.688 721.773 542.088C722.525 542.488 723.125 542.992 723.573 543.6V541.704H726.957V555H723.573V553.056C723.141 553.68 722.541 554.2 721.773 554.616C721.021 555.016 720.149 555.216 719.157 555.216C718.037 555.216 717.013 554.928 716.085 554.352C715.173 553.776 714.445 552.968 713.901 551.928C713.373 550.872 713.109 549.664 713.109 548.304ZM723.573 548.352C723.573 547.536 723.413 546.84 723.093 546.264C722.773 545.672 722.341 545.224 721.797 544.92C721.253 544.6 720.669 544.44 720.045 544.44C719.421 544.44 718.845 544.592 718.317 544.896C717.789 545.2 717.357 545.648 717.021 546.24C716.701 546.816 716.541 547.504 716.541 548.304C716.541 549.104 716.701 549.808 717.021 550.416C717.357 551.008 717.789 551.464 718.317 551.784C718.861 552.104 719.437 552.264 720.045 552.264C720.669 552.264 721.253 552.112 721.797 551.808C722.341 551.488 722.773 551.04 723.093 550.464C723.413 549.872 723.573 549.168 723.573 548.352ZM734.799 543.768C735.231 543.064 735.791 542.512 736.479 542.112C737.183 541.712 737.983 541.512 738.879 541.512V545.04H737.991C736.935 545.04 736.135 545.288 735.591 545.784C735.063 546.28 734.799 547.144 734.799 548.376V555H731.439V541.704H734.799V543.768ZM754.702 548.064C754.702 548.544 754.67 548.976 754.606 549.36H744.886C744.966 550.32 745.302 551.072 745.894 551.616C746.486 552.16 747.214 552.432 748.078 552.432C749.326 552.432 750.214 551.896 750.742 550.824H754.366C753.982 552.104 753.246 553.16 752.158 553.992C751.07 554.808 749.734 555.216 748.15 555.216C746.87 555.216 745.718 554.936 744.694 554.376C743.686 553.8 742.894 552.992 742.318 551.952C741.758 550.912 741.478 549.712 741.478 548.352C741.478 546.976 741.758 545.768 742.318 544.728C742.878 543.688 743.662 542.888 744.67 542.328C745.678 541.768 746.838 541.488 748.15 541.488C749.414 541.488 750.542 541.76 751.534 542.304C752.542 542.848 753.318 543.624 753.862 544.632C754.422 545.624 754.702 546.768 754.702 548.064ZM751.222 547.104C751.206 546.24 750.894 545.552 750.286 545.04C749.678 544.512 748.934 544.248 748.054 544.248C747.222 544.248 746.518 544.504 745.942 545.016C745.382 545.512 745.038 546.208 744.91 547.104H751.222ZM770.714 548.064C770.714 548.544 770.682 548.976 770.618 549.36H760.898C760.978 550.32 761.314 551.072 761.906 551.616C762.498 552.16 763.226 552.432 764.09 552.432C765.338 552.432 766.226 551.896 766.754 550.824H770.378C769.994 552.104 769.258 553.16 768.17 553.992C767.082 554.808 765.746 555.216 764.162 555.216C762.882 555.216 761.73 554.936 760.706 554.376C759.698 553.8 758.906 552.992 758.33 551.952C757.77 550.912 757.49 549.712 757.49 548.352C757.49 546.976 757.77 545.768 758.33 544.728C758.89 543.688 759.674 542.888 760.682 542.328C761.69 541.768 762.85 541.488 764.162 541.488C765.426 541.488 766.554 541.76 767.546 542.304C768.554 542.848 769.33 543.624 769.874 544.632C770.434 545.624 770.714 546.768 770.714 548.064ZM767.234 547.104C767.218 546.24 766.906 545.552 766.298 545.04C765.69 544.512 764.946 544.248 764.066 544.248C763.234 544.248 762.53 544.504 761.954 545.016C761.394 545.512 761.05 546.208 760.922 547.104H767.234ZM777.727 543.768C778.159 543.064 778.719 542.512 779.407 542.112C780.111 541.712 780.911 541.512 781.807 541.512V545.04H780.919C779.863 545.04 779.063 545.288 778.519 545.784C777.991 546.28 777.727 547.144 777.727 548.376V555H774.367V541.704H777.727V543.768ZM803.853 543.288C803.469 542.584 802.941 542.048 802.269 541.68C801.597 541.312 800.813 541.128 799.917 541.128C798.925 541.128 798.045 541.352 797.277 541.8C796.509 542.248 795.909 542.888 795.477 543.72C795.045 544.552 794.829 545.512 794.829 546.6C794.829 547.72 795.045 548.696 795.477 549.528C795.925 550.36 796.541 551 797.325 551.448C798.109 551.896 799.021 552.12 800.061 552.12C801.341 552.12 802.389 551.784 803.205 551.112C804.021 550.424 804.557 549.472 804.813 548.256H799.053V545.688H808.125V548.616C807.901 549.784 807.421 550.864 806.685 551.856C805.949 552.848 804.997 553.648 803.829 554.256C802.677 554.848 801.381 555.144 799.941 555.144C798.325 555.144 796.861 554.784 795.549 554.064C794.253 553.328 793.229 552.312 792.477 551.016C791.741 549.72 791.373 548.248 791.373 546.6C791.373 544.952 791.741 543.48 792.477 542.184C793.229 540.872 794.253 539.856 795.549 539.136C796.861 538.4 798.317 538.032 799.917 538.032C801.805 538.032 803.445 538.496 804.837 539.424C806.229 540.336 807.189 541.624 807.717 543.288H803.853ZM810.947 548.304C810.947 546.96 811.211 545.768 811.739 544.728C812.283 543.688 813.011 542.888 813.923 542.328C814.851 541.768 815.883 541.488 817.019 541.488C818.011 541.488 818.875 541.688 819.611 542.088C820.363 542.488 820.963 542.992 821.411 543.6V541.704H824.795V555H821.411V553.056C820.979 553.68 820.379 554.2 819.611 554.616C818.859 555.016 817.987 555.216 816.995 555.216C815.875 555.216 814.851 554.928 813.923 554.352C813.011 553.776 812.283 552.968 811.739 551.928C811.211 550.872 810.947 549.664 810.947 548.304ZM821.411 548.352C821.411 547.536 821.251 546.84 820.931 546.264C820.611 545.672 820.179 545.224 819.635 544.92C819.091 544.6 818.507 544.44 817.883 544.44C817.259 544.44 816.683 544.592 816.155 544.896C815.627 545.2 815.195 545.648 814.859 546.24C814.539 546.816 814.379 547.504 814.379 548.304C814.379 549.104 814.539 549.808 814.859 550.416C815.195 551.008 815.627 551.464 816.155 551.784C816.699 552.104 817.275 552.264 817.883 552.264C818.507 552.264 819.091 552.112 819.635 551.808C820.179 551.488 820.611 551.04 820.931 550.464C821.251 549.872 821.411 549.168 821.411 548.352ZM832.636 543.624C833.068 543.016 833.66 542.512 834.412 542.112C835.18 541.696 836.052 541.488 837.028 541.488C838.164 541.488 839.188 541.768 840.1 542.328C841.028 542.888 841.756 543.688 842.284 544.728C842.828 545.752 843.1 546.944 843.1 548.304C843.1 549.664 842.828 550.872 842.284 551.928C841.756 552.968 841.028 553.776 840.1 554.352C839.188 554.928 838.164 555.216 837.028 555.216C836.052 555.216 835.188 555.016 834.436 554.616C833.7 554.216 833.1 553.712 832.636 553.104V561.336H829.276V541.704H832.636V543.624ZM839.668 548.304C839.668 547.504 839.5 546.816 839.164 546.24C838.844 545.648 838.412 545.2 837.868 544.896C837.34 544.592 836.764 544.44 836.14 544.44C835.532 544.44 834.956 544.6 834.412 544.92C833.884 545.224 833.452 545.672 833.116 546.264C832.796 546.856 832.636 547.552 832.636 548.352C832.636 549.152 832.796 549.848 833.116 550.44C833.452 551.032 833.884 551.488 834.412 551.808C834.956 552.112 835.532 552.264 836.14 552.264C836.764 552.264 837.34 552.104 837.868 551.784C838.412 551.464 838.844 551.008 839.164 550.416C839.5 549.824 839.668 549.12 839.668 548.304ZM851.422 537.672C853.086 537.672 854.422 538.128 855.43 539.04C856.454 539.936 856.966 541.176 856.966 542.76C856.966 544.328 856.462 545.528 855.454 546.36C854.446 547.176 853.11 547.584 851.446 547.584L851.35 549.432H848.398L848.278 545.352H849.358C850.75 545.352 851.822 545.168 852.574 544.8C853.326 544.432 853.702 543.76 853.702 542.784C853.702 542.08 853.494 541.52 853.078 541.104C852.678 540.688 852.126 540.48 851.422 540.48C850.686 540.48 850.11 540.68 849.694 541.08C849.294 541.48 849.094 542.032 849.094 542.736H845.926C845.91 541.76 846.118 540.888 846.55 540.12C846.982 539.352 847.614 538.752 848.446 538.32C849.294 537.888 850.286 537.672 851.422 537.672ZM849.862 555.168C849.254 555.168 848.75 554.984 848.35 554.616C847.966 554.232 847.774 553.76 847.774 553.2C847.774 552.64 847.966 552.176 848.35 551.808C848.75 551.424 849.254 551.232 849.862 551.232C850.454 551.232 850.942 551.424 851.326 551.808C851.71 552.176 851.902 552.64 851.902 553.2C851.902 553.76 851.71 554.232 851.326 554.616C850.942 554.984 850.454 555.168 849.862 555.168Z" fill="#4B4B4B"/>
<path d="M661 533.601C678 525.601 722.9 514.401 766.5 533.601" stroke="#FF8551" stroke-width="4"/>
<path d="M938.865 414.168C937.697 414.168 936.641 413.968 935.697 413.568C934.769 413.168 934.033 412.592 933.489 411.84C932.945 411.088 932.665 410.2 932.649 409.176H936.249C936.297 409.864 936.537 410.408 936.969 410.808C937.417 411.208 938.025 411.408 938.793 411.408C939.577 411.408 940.193 411.224 940.641 410.856C941.089 410.472 941.313 409.976 941.313 409.368C941.313 408.872 941.161 408.464 940.857 408.144C940.553 407.824 940.169 407.576 939.705 407.4C939.257 407.208 938.633 407 937.833 406.776C936.745 406.456 935.857 406.144 935.169 405.84C934.497 405.52 933.913 405.048 933.417 404.424C932.937 403.784 932.697 402.936 932.697 401.88C932.697 400.888 932.945 400.024 933.441 399.288C933.937 398.552 934.633 397.992 935.529 397.608C936.425 397.208 937.449 397.008 938.601 397.008C940.329 397.008 941.729 397.432 942.801 398.28C943.889 399.112 944.489 400.28 944.601 401.784H940.905C940.873 401.208 940.625 400.736 940.161 400.368C939.713 399.984 939.113 399.792 938.361 399.792C937.705 399.792 937.177 399.96 936.777 400.296C936.393 400.632 936.201 401.12 936.201 401.76C936.201 402.208 936.345 402.584 936.633 402.888C936.937 403.176 937.305 403.416 937.737 403.608C938.185 403.784 938.809 403.992 939.609 404.232C940.697 404.552 941.585 404.872 942.273 405.192C942.961 405.512 943.553 405.992 944.049 406.632C944.545 407.272 944.793 408.112 944.793 409.152C944.793 410.048 944.561 410.88 944.097 411.648C943.633 412.416 942.953 413.032 942.057 413.496C941.161 413.944 940.097 414.168 938.865 414.168ZM952.818 403.464V409.896C952.818 410.344 952.922 410.672 953.13 410.88C953.354 411.072 953.722 411.168 954.234 411.168H955.794V414H953.682C950.85 414 949.434 412.624 949.434 409.872V403.464H947.85V400.704H949.434V397.416H952.818V400.704H955.794V403.464H952.818ZM971.963 400.704V414H968.579V412.32C968.147 412.896 967.579 413.352 966.875 413.688C966.187 414.008 965.435 414.168 964.619 414.168C963.579 414.168 962.659 413.952 961.859 413.52C961.059 413.072 960.427 412.424 959.963 411.576C959.515 410.712 959.291 409.688 959.291 408.504V400.704H962.651V408.024C962.651 409.08 962.915 409.896 963.443 410.472C963.971 411.032 964.691 411.312 965.603 411.312C966.531 411.312 967.259 411.032 967.787 410.472C968.315 409.896 968.579 409.08 968.579 408.024V400.704H971.963ZM975.614 407.304C975.614 405.96 975.878 404.768 976.406 403.728C976.95 402.688 977.686 401.888 978.614 401.328C979.542 400.768 980.574 400.488 981.71 400.488C982.574 400.488 983.398 400.68 984.182 401.064C984.966 401.432 985.59 401.928 986.054 402.552V396.24H989.462V414H986.054V412.032C985.638 412.688 985.054 413.216 984.302 413.616C983.55 414.016 982.678 414.216 981.686 414.216C980.566 414.216 979.542 413.928 978.614 413.352C977.686 412.776 976.95 411.968 976.406 410.928C975.878 409.872 975.614 408.664 975.614 407.304ZM986.078 407.352C986.078 406.536 985.918 405.84 985.598 405.264C985.278 404.672 984.846 404.224 984.302 403.92C983.758 403.6 983.174 403.44 982.55 403.44C981.926 403.44 981.35 403.592 980.822 403.896C980.294 404.2 979.862 404.648 979.526 405.24C979.206 405.816 979.046 406.504 979.046 407.304C979.046 408.104 979.206 408.808 979.526 409.416C979.862 410.008 980.294 410.464 980.822 410.784C981.366 411.104 981.942 411.264 982.55 411.264C983.174 411.264 983.758 411.112 984.302 410.808C984.846 410.488 985.278 410.04 985.598 409.464C985.918 408.872 986.078 408.168 986.078 407.352ZM1006.3 407.064C1006.3 407.544 1006.27 407.976 1006.21 408.36H996.488C996.568 409.32 996.904 410.072 997.496 410.616C998.088 411.16 998.816 411.432 999.68 411.432C1000.93 411.432 1001.82 410.896 1002.34 409.824H1005.97C1005.58 411.104 1004.85 412.16 1003.76 412.992C1002.67 413.808 1001.34 414.216 999.752 414.216C998.472 414.216 997.32 413.936 996.296 413.376C995.288 412.8 994.496 411.992 993.92 410.952C993.36 409.912 993.08 408.712 993.08 407.352C993.08 405.976 993.36 404.768 993.92 403.728C994.48 402.688 995.264 401.888 996.272 401.328C997.28 400.768 998.44 400.488 999.752 400.488C1001.02 400.488 1002.14 400.76 1003.14 401.304C1004.14 401.848 1004.92 402.624 1005.46 403.632C1006.02 404.624 1006.3 405.768 1006.3 407.064ZM1002.82 406.104C1002.81 405.24 1002.5 404.552 1001.89 404.04C1001.28 403.512 1000.54 403.248 999.656 403.248C998.824 403.248 998.12 403.504 997.544 404.016C996.984 404.512 996.64 405.208 996.512 406.104H1002.82ZM1017.32 400.512C1018.91 400.512 1020.19 401.016 1021.16 402.024C1022.14 403.016 1022.63 404.408 1022.63 406.2V414H1019.27V406.656C1019.27 405.6 1019 404.792 1018.48 404.232C1017.95 403.656 1017.23 403.368 1016.32 403.368C1015.39 403.368 1014.65 403.656 1014.11 404.232C1013.58 404.792 1013.32 405.6 1013.32 406.656V414H1009.96V400.704H1013.32V402.36C1013.76 401.784 1014.33 401.336 1015.02 401.016C1015.72 400.68 1016.49 400.512 1017.32 400.512ZM1030.94 403.464V409.896C1030.94 410.344 1031.04 410.672 1031.25 410.88C1031.47 411.072 1031.84 411.168 1032.35 411.168H1033.91V414H1031.8C1028.97 414 1027.55 412.624 1027.55 409.872V403.464H1025.97V400.704H1027.55V397.416H1030.94V400.704H1033.91V403.464H1030.94ZM1042.62 414.216C1041.53 414.216 1040.55 414.024 1039.69 413.64C1038.82 413.24 1038.14 412.704 1037.62 412.032C1037.13 411.36 1036.86 410.616 1036.81 409.8H1040.19C1040.26 410.312 1040.5 410.736 1040.94 411.072C1041.38 411.408 1041.94 411.576 1042.59 411.576C1043.23 411.576 1043.73 411.448 1044.08 411.192C1044.45 410.936 1044.63 410.608 1044.63 410.208C1044.63 409.776 1044.41 409.456 1043.96 409.248C1043.53 409.024 1042.83 408.784 1041.87 408.528C1040.88 408.288 1040.06 408.04 1039.42 407.784C1038.8 407.528 1038.26 407.136 1037.79 406.608C1037.34 406.08 1037.12 405.368 1037.12 404.472C1037.12 403.736 1037.33 403.064 1037.74 402.456C1038.18 401.848 1038.78 401.368 1039.57 401.016C1040.37 400.664 1041.3 400.488 1042.38 400.488C1043.96 400.488 1045.22 400.888 1046.17 401.688C1047.11 402.472 1047.63 403.536 1047.73 404.88H1044.51C1044.46 404.352 1044.24 403.936 1043.84 403.632C1043.46 403.312 1042.94 403.152 1042.28 403.152C1041.67 403.152 1041.2 403.264 1040.86 403.488C1040.54 403.712 1040.38 404.024 1040.38 404.424C1040.38 404.872 1040.61 405.216 1041.06 405.456C1041.5 405.68 1042.2 405.912 1043.14 406.152C1044.1 406.392 1044.9 406.64 1045.52 406.896C1046.14 407.152 1046.68 407.552 1047.13 408.096C1047.59 408.624 1047.83 409.328 1047.85 410.208C1047.85 410.976 1047.63 411.664 1047.2 412.272C1046.78 412.88 1046.18 413.36 1045.38 413.712C1044.59 414.048 1043.67 414.216 1042.62 414.216Z" fill="#008183"/>
<path d="M1063.81 414.216C1062.72 414.216 1061.75 414.024 1060.88 413.64C1060.02 413.24 1059.33 412.704 1058.82 412.032C1058.32 411.36 1058.05 410.616 1058 409.8H1061.39C1061.45 410.312 1061.7 410.736 1062.13 411.072C1062.58 411.408 1063.13 411.576 1063.79 411.576C1064.43 411.576 1064.92 411.448 1065.28 411.192C1065.64 410.936 1065.83 410.608 1065.83 410.208C1065.83 409.776 1065.6 409.456 1065.16 409.248C1064.72 409.024 1064.03 408.784 1063.07 408.528C1062.08 408.288 1061.26 408.04 1060.62 407.784C1060 407.528 1059.45 407.136 1058.99 406.608C1058.54 406.08 1058.32 405.368 1058.32 404.472C1058.32 403.736 1058.52 403.064 1058.94 402.456C1059.37 401.848 1059.98 401.368 1060.76 401.016C1061.56 400.664 1062.5 400.488 1063.57 400.488C1065.16 400.488 1066.42 400.888 1067.36 401.688C1068.31 402.472 1068.83 403.536 1068.92 404.88H1065.71C1065.66 404.352 1065.44 403.936 1065.04 403.632C1064.65 403.312 1064.13 403.152 1063.48 403.152C1062.87 403.152 1062.4 403.264 1062.06 403.488C1061.74 403.712 1061.58 404.024 1061.58 404.424C1061.58 404.872 1061.8 405.216 1062.25 405.456C1062.7 405.68 1063.4 405.912 1064.34 406.152C1065.3 406.392 1066.09 406.64 1066.72 406.896C1067.34 407.152 1067.88 407.552 1068.32 408.096C1068.79 408.624 1069.03 409.328 1069.04 410.208C1069.04 410.976 1068.83 411.664 1068.4 412.272C1067.98 412.88 1067.37 413.36 1066.57 413.712C1065.79 414.048 1064.87 414.216 1063.81 414.216ZM1085.36 407.064C1085.36 407.544 1085.33 407.976 1085.27 408.36H1075.55C1075.63 409.32 1075.96 410.072 1076.55 410.616C1077.15 411.16 1077.87 411.432 1078.74 411.432C1079.99 411.432 1080.87 410.896 1081.4 409.824H1085.03C1084.64 411.104 1083.91 412.16 1082.82 412.992C1081.73 413.808 1080.39 414.216 1078.81 414.216C1077.53 414.216 1076.38 413.936 1075.35 413.376C1074.35 412.8 1073.55 411.992 1072.98 410.952C1072.42 409.912 1072.14 408.712 1072.14 407.352C1072.14 405.976 1072.42 404.768 1072.98 403.728C1073.54 402.688 1074.32 401.888 1075.33 401.328C1076.34 400.768 1077.5 400.488 1078.81 400.488C1080.07 400.488 1081.2 400.76 1082.19 401.304C1083.2 401.848 1083.98 402.624 1084.52 403.632C1085.08 404.624 1085.36 405.768 1085.36 407.064ZM1081.88 406.104C1081.87 405.24 1081.55 404.552 1080.95 404.04C1080.34 403.512 1079.59 403.248 1078.71 403.248C1077.88 403.248 1077.18 403.504 1076.6 404.016C1076.04 404.512 1075.7 405.208 1075.57 406.104H1081.88ZM1101.38 407.064C1101.38 407.544 1101.34 407.976 1101.28 408.36H1091.56C1091.64 409.32 1091.98 410.072 1092.57 410.616C1093.16 411.16 1093.89 411.432 1094.75 411.432C1096 411.432 1096.89 410.896 1097.42 409.824H1101.04C1100.66 411.104 1099.92 412.16 1098.83 412.992C1097.74 413.808 1096.41 414.216 1094.82 414.216C1093.54 414.216 1092.39 413.936 1091.37 413.376C1090.36 412.8 1089.57 411.992 1088.99 410.952C1088.43 409.912 1088.15 408.712 1088.15 407.352C1088.15 405.976 1088.43 404.768 1088.99 403.728C1089.55 402.688 1090.34 401.888 1091.34 401.328C1092.35 400.768 1093.51 400.488 1094.82 400.488C1096.09 400.488 1097.22 400.76 1098.21 401.304C1099.22 401.848 1099.99 402.624 1100.54 403.632C1101.1 404.624 1101.38 405.768 1101.38 407.064ZM1097.9 406.104C1097.88 405.24 1097.57 404.552 1096.96 404.04C1096.35 403.512 1095.61 403.248 1094.73 403.248C1093.9 403.248 1093.19 403.504 1092.62 404.016C1092.06 404.512 1091.71 405.208 1091.58 406.104H1097.9ZM1112.9 414L1108.39 408.336V414H1105.03V396.24H1108.39V406.344L1112.85 400.704H1117.22L1111.36 407.376L1117.27 414H1112.9ZM1121.95 399.12C1121.36 399.12 1120.86 398.936 1120.46 398.568C1120.08 398.184 1119.88 397.712 1119.88 397.152C1119.88 396.592 1120.08 396.128 1120.46 395.76C1120.86 395.376 1121.36 395.184 1121.95 395.184C1122.54 395.184 1123.03 395.376 1123.41 395.76C1123.81 396.128 1124.01 396.592 1124.01 397.152C1124.01 397.712 1123.81 398.184 1123.41 398.568C1123.03 398.936 1122.54 399.12 1121.95 399.12ZM1123.6 400.704V414H1120.24V400.704H1123.6ZM1135.49 400.512C1137.08 400.512 1138.36 401.016 1139.33 402.024C1140.31 403.016 1140.8 404.408 1140.8 406.2V414H1137.44V406.656C1137.44 405.6 1137.17 404.792 1136.64 404.232C1136.12 403.656 1135.4 403.368 1134.48 403.368C1133.56 403.368 1132.82 403.656 1132.28 404.232C1131.75 404.792 1131.48 405.6 1131.48 406.656V414H1128.12V400.704H1131.48V402.36C1131.93 401.784 1132.5 401.336 1133.19 401.016C1133.89 400.68 1134.66 400.512 1135.49 400.512ZM1150.4 400.488C1151.39 400.488 1152.26 400.688 1153.01 401.088C1153.77 401.472 1154.36 401.976 1154.79 402.6V400.704H1158.17V414.096C1158.17 415.328 1157.93 416.424 1157.43 417.384C1156.93 418.36 1156.19 419.128 1155.2 419.688C1154.21 420.264 1153.01 420.552 1151.6 420.552C1149.71 420.552 1148.16 420.112 1146.94 419.232C1145.74 418.352 1145.06 417.152 1144.9 415.632H1148.24C1148.41 416.24 1148.79 416.72 1149.37 417.072C1149.96 417.44 1150.67 417.624 1151.5 417.624C1152.48 417.624 1153.27 417.328 1153.88 416.736C1154.49 416.16 1154.79 415.28 1154.79 414.096V412.032C1154.36 412.656 1153.76 413.176 1152.99 413.592C1152.24 414.008 1151.37 414.216 1150.4 414.216C1149.28 414.216 1148.25 413.928 1147.33 413.352C1146.4 412.776 1145.66 411.968 1145.12 410.928C1144.59 409.872 1144.33 408.664 1144.33 407.304C1144.33 405.96 1144.59 404.768 1145.12 403.728C1145.66 402.688 1146.39 401.888 1147.3 401.328C1148.23 400.768 1149.26 400.488 1150.4 400.488ZM1154.79 407.352C1154.79 406.536 1154.63 405.84 1154.31 405.264C1153.99 404.672 1153.56 404.224 1153.01 403.92C1152.47 403.6 1151.89 403.44 1151.26 403.44C1150.64 403.44 1150.06 403.592 1149.53 403.896C1149.01 404.2 1148.57 404.648 1148.24 405.24C1147.92 405.816 1147.76 406.504 1147.76 407.304C1147.76 408.104 1147.92 408.808 1148.24 409.416C1148.57 410.008 1149.01 410.464 1149.53 410.784C1150.08 411.104 1150.65 411.264 1151.26 411.264C1151.89 411.264 1152.47 411.112 1153.01 410.808C1153.56 410.488 1153.99 410.04 1154.31 409.464C1154.63 408.872 1154.79 408.168 1154.79 407.352ZM1016.98 439.248V456H1013.62V439.248H1016.98ZM1028.86 442.512C1030.45 442.512 1031.73 443.016 1032.7 444.024C1033.68 445.016 1034.17 446.408 1034.17 448.2V456H1030.81V448.656C1030.81 447.6 1030.54 446.792 1030.02 446.232C1029.49 445.656 1028.77 445.368 1027.86 445.368C1026.93 445.368 1026.19 445.656 1025.65 446.232C1025.12 446.792 1024.86 447.6 1024.86 448.656V456H1021.5V442.704H1024.86V444.36C1025.3 443.784 1025.87 443.336 1026.56 443.016C1027.26 442.68 1028.03 442.512 1028.86 442.512ZM1042.48 445.464V451.896C1042.48 452.344 1042.58 452.672 1042.79 452.88C1043.01 453.072 1043.38 453.168 1043.89 453.168H1045.45V456H1043.34C1040.51 456 1039.09 454.624 1039.09 451.872V445.464H1037.51V442.704H1039.09V439.416H1042.48V442.704H1045.45V445.464H1042.48ZM1061.43 449.064C1061.43 449.544 1061.4 449.976 1061.33 450.36H1051.61C1051.69 451.32 1052.03 452.072 1052.62 452.616C1053.21 453.16 1053.94 453.432 1054.8 453.432C1056.05 453.432 1056.94 452.896 1057.47 451.824H1061.09C1060.71 453.104 1059.97 454.16 1058.88 454.992C1057.8 455.808 1056.46 456.216 1054.88 456.216C1053.6 456.216 1052.44 455.936 1051.42 455.376C1050.41 454.8 1049.62 453.992 1049.04 452.952C1048.48 451.912 1048.2 450.712 1048.2 449.352C1048.2 447.976 1048.48 446.768 1049.04 445.728C1049.6 444.688 1050.39 443.888 1051.4 443.328C1052.4 442.768 1053.56 442.488 1054.88 442.488C1056.14 442.488 1057.27 442.76 1058.26 443.304C1059.27 443.848 1060.04 444.624 1060.59 445.632C1061.15 446.624 1061.43 447.768 1061.43 449.064ZM1057.95 448.104C1057.93 447.24 1057.62 446.552 1057.01 446.04C1056.4 445.512 1055.66 445.248 1054.78 445.248C1053.95 445.248 1053.24 445.504 1052.67 446.016C1052.11 446.512 1051.76 447.208 1051.64 448.104H1057.95ZM1068.44 444.768C1068.87 444.064 1069.43 443.512 1070.12 443.112C1070.83 442.712 1071.63 442.512 1072.52 442.512V446.04H1071.63C1070.58 446.04 1069.78 446.288 1069.23 446.784C1068.71 447.28 1068.44 448.144 1068.44 449.376V456H1065.08V442.704H1068.44V444.768ZM1083.35 442.512C1084.94 442.512 1086.22 443.016 1087.19 444.024C1088.17 445.016 1088.66 446.408 1088.66 448.2V456H1085.3V448.656C1085.3 447.6 1085.03 446.792 1084.5 446.232C1083.98 445.656 1083.26 445.368 1082.34 445.368C1081.42 445.368 1080.68 445.656 1080.14 446.232C1079.61 446.792 1079.34 447.6 1079.34 448.656V456H1075.98V442.704H1079.34V444.36C1079.79 443.784 1080.36 443.336 1081.05 443.016C1081.75 442.68 1082.52 442.512 1083.35 442.512ZM1098.14 456.216C1097.05 456.216 1096.08 456.024 1095.21 455.64C1094.35 455.24 1093.66 454.704 1093.15 454.032C1092.65 453.36 1092.38 452.616 1092.33 451.8H1095.72C1095.78 452.312 1096.03 452.736 1096.46 453.072C1096.91 453.408 1097.46 453.576 1098.12 453.576C1098.76 453.576 1099.25 453.448 1099.6 453.192C1099.97 452.936 1100.16 452.608 1100.16 452.208C1100.16 451.776 1099.93 451.456 1099.48 451.248C1099.05 451.024 1098.36 450.784 1097.4 450.528C1096.4 450.288 1095.59 450.04 1094.95 449.784C1094.32 449.528 1093.78 449.136 1093.32 448.608C1092.87 448.08 1092.64 447.368 1092.64 446.472C1092.64 445.736 1092.85 445.064 1093.27 444.456C1093.7 443.848 1094.31 443.368 1095.09 443.016C1095.89 442.664 1096.83 442.488 1097.9 442.488C1099.48 442.488 1100.75 442.888 1101.69 443.688C1102.64 444.472 1103.16 445.536 1103.25 446.88H1100.04C1099.99 446.352 1099.76 445.936 1099.36 445.632C1098.98 445.312 1098.46 445.152 1097.8 445.152C1097.2 445.152 1096.72 445.264 1096.39 445.488C1096.07 445.712 1095.91 446.024 1095.91 446.424C1095.91 446.872 1096.13 447.216 1096.58 447.456C1097.03 447.68 1097.72 447.912 1098.67 448.152C1099.63 448.392 1100.42 448.64 1101.04 448.896C1101.67 449.152 1102.2 449.552 1102.65 450.096C1103.12 450.624 1103.36 451.328 1103.37 452.208C1103.37 452.976 1103.16 453.664 1102.72 454.272C1102.31 454.88 1101.7 455.36 1100.9 455.712C1100.12 456.048 1099.2 456.216 1098.14 456.216ZM1114.82 442.512C1115.83 442.512 1116.72 442.736 1117.51 443.184C1118.29 443.616 1118.9 444.264 1119.33 445.128C1119.78 445.976 1120 447 1120 448.2V456H1116.64V448.656C1116.64 447.6 1116.38 446.792 1115.85 446.232C1115.32 445.656 1114.6 445.368 1113.69 445.368C1112.76 445.368 1112.03 445.656 1111.48 446.232C1110.95 446.792 1110.69 447.6 1110.69 448.656V456H1107.33V438.24H1110.69V444.36C1111.12 443.784 1111.7 443.336 1112.42 443.016C1113.14 442.68 1113.94 442.512 1114.82 442.512ZM1126.1 441.12C1125.51 441.12 1125.01 440.936 1124.61 440.568C1124.23 440.184 1124.04 439.712 1124.04 439.152C1124.04 438.592 1124.23 438.128 1124.61 437.76C1125.01 437.376 1125.51 437.184 1126.1 437.184C1126.69 437.184 1127.18 437.376 1127.56 437.76C1127.96 438.128 1128.16 438.592 1128.16 439.152C1128.16 439.712 1127.96 440.184 1127.56 440.568C1127.18 440.936 1126.69 441.12 1126.1 441.12ZM1127.76 442.704V456H1124.4V442.704H1127.76ZM1135.64 444.624C1136.07 444.016 1136.66 443.512 1137.41 443.112C1138.18 442.696 1139.05 442.488 1140.03 442.488C1141.16 442.488 1142.19 442.768 1143.1 443.328C1144.03 443.888 1144.76 444.688 1145.28 445.728C1145.83 446.752 1146.1 447.944 1146.1 449.304C1146.1 450.664 1145.83 451.872 1145.28 452.928C1144.76 453.968 1144.03 454.776 1143.1 455.352C1142.19 455.928 1141.16 456.216 1140.03 456.216C1139.05 456.216 1138.19 456.016 1137.44 455.616C1136.7 455.216 1136.1 454.712 1135.64 454.104V462.336H1132.28V442.704H1135.64V444.624ZM1142.67 449.304C1142.67 448.504 1142.5 447.816 1142.16 447.24C1141.84 446.648 1141.41 446.2 1140.87 445.896C1140.34 445.592 1139.76 445.44 1139.14 445.44C1138.53 445.44 1137.96 445.6 1137.41 445.92C1136.88 446.224 1136.45 446.672 1136.12 447.264C1135.8 447.856 1135.64 448.552 1135.64 449.352C1135.64 450.152 1135.8 450.848 1136.12 451.44C1136.45 452.032 1136.88 452.488 1137.41 452.808C1137.96 453.112 1138.53 453.264 1139.14 453.264C1139.76 453.264 1140.34 453.104 1140.87 452.784C1141.41 452.464 1141.84 452.008 1142.16 451.416C1142.5 450.824 1142.67 450.12 1142.67 449.304ZM1154.42 438.672C1156.09 438.672 1157.42 439.128 1158.43 440.04C1159.45 440.936 1159.97 442.176 1159.97 443.76C1159.97 445.328 1159.46 446.528 1158.45 447.36C1157.45 448.176 1156.11 448.584 1154.45 448.584L1154.35 450.432H1151.4L1151.28 446.352H1152.36C1153.75 446.352 1154.82 446.168 1155.57 445.8C1156.33 445.432 1156.7 444.76 1156.7 443.784C1156.7 443.08 1156.49 442.52 1156.08 442.104C1155.68 441.688 1155.13 441.48 1154.42 441.48C1153.69 441.48 1153.11 441.68 1152.69 442.08C1152.29 442.48 1152.09 443.032 1152.09 443.736H1148.93C1148.91 442.76 1149.12 441.888 1149.55 441.12C1149.98 440.352 1150.61 439.752 1151.45 439.32C1152.29 438.888 1153.29 438.672 1154.42 438.672ZM1152.86 456.168C1152.25 456.168 1151.75 455.984 1151.35 455.616C1150.97 455.232 1150.77 454.76 1150.77 454.2C1150.77 453.64 1150.97 453.176 1151.35 452.808C1151.75 452.424 1152.25 452.232 1152.86 452.232C1153.45 452.232 1153.94 452.424 1154.33 452.808C1154.71 453.176 1154.9 453.64 1154.9 454.2C1154.9 454.76 1154.71 455.232 1154.33 455.616C1153.94 455.984 1153.45 456.168 1152.86 456.168Z" fill="#4B4B4B"/>
<path d="M934 433.5C951 425.5 995.9 414.3 1039.5 433.5" stroke="#FF8551" stroke-width="4"/>
</svg>
