<svg width="246" height="168" viewBox="0 0 246 168" fill="none" xmlns="http://www.w3.org/2000/svg">
<path d="M9.04993 131.757C4.48793 123.348 0.0404294 114.431 0.0002533 104.907C-0.0419316 94.6777 5.189 84.8613 12.726 77.7799C20.2631 70.6984 29.9295 66.1178 39.8871 63.0287C46.5664 60.9568 53.5289 59.4693 59.6297 56.0929C81.0476 44.238 85.9892 12.9176 108.572 3.36286C115.38 0.482274 122.977 0.0356277 130.392 0.00217831C144.865 -0.0627528 159.439 1.31457 173.302 5.3895C190.385 10.4108 205.939 19.3694 221.3 28.2433C226.576 31.2911 231.919 34.3901 236.198 38.6815C240.479 42.9728 243.64 48.673 243.526 54.6703C243.327 65.0573 234.004 72.6995 228.596 81.6364C221.917 92.6747 221.184 106.131 221.359 118.962C221.459 126.37 221.688 134.238 217.835 140.614C214.143 146.721 207.299 150.345 200.411 152.547C169.523 162.419 134.942 149.118 103.651 157.681C96.7344 159.573 90.0812 162.517 82.972 163.517C78.9162 164.087 74.7962 164.008 70.7042 163.804C58.9105 163.214 46.2691 164.026 35.6767 158.91C27.0569 154.747 14.6846 142.15 9.04591 131.757H9.04993Z" fill="#D8FAFB"/>
<path d="M165.292 91.8545H132.489V112.335H165.292V91.8545Z" fill="#565556"/>
<path d="M159.122 91.8545H132.489V112.335H159.122V91.8545Z" fill="#767577"/>
<path d="M123.526 111.75V113.845C123.526 114.634 124.336 115.274 125.337 115.274H172.651C173.652 115.274 174.462 114.634 174.462 113.845V111.75C174.462 110.961 173.652 110.321 172.651 110.321H125.337C124.336 110.321 123.526 110.961 123.526 111.75Z" fill="#565556"/>
<path d="M123.526 111.75V113.845C123.526 114.634 124.284 115.274 125.219 115.274H160.214C161.149 115.274 161.908 114.634 161.908 113.845V111.75C161.908 110.961 161.151 110.321 160.214 110.321H125.219C124.284 110.321 123.526 110.961 123.526 111.75Z" fill="#767577"/>
<path d="M86.4004 98.6124C86.4004 100.212 87.7068 101.51 89.3187 101.51H210.13C211.742 101.51 213.049 100.212 213.049 98.6124V15.7539C213.049 14.154 211.742 12.8564 210.13 12.8564H89.3207C87.7088 12.8564 86.4024 14.154 86.4024 15.7539V98.6124H86.4004Z" fill="#565556"/>
<path d="M80.7422 98.6124C80.7422 100.212 82.0285 101.51 83.6163 101.51H202.623C204.211 101.51 205.499 100.212 205.499 98.6124V15.7539C205.499 14.154 204.211 12.8564 202.623 12.8564H83.6163C82.0285 12.8564 80.7422 14.154 80.7422 15.7539V98.6124Z" fill="#939393"/>
<path d="M84.9346 18.1973V88.7043C84.9346 89.8782 85.8953 90.8283 87.0831 90.8283H199.572C200.758 90.8283 201.719 89.8782 201.719 88.7043V18.1973C201.719 17.0234 200.758 16.0732 199.572 16.0732H87.0831C85.8973 16.0732 84.9346 17.0253 84.9346 18.1973Z" fill="#54666B"/>
<path d="M84.9346 18.2778V22.045H201.721V18.2778C201.721 17.0607 200.76 16.0713 199.574 16.0713H87.0831C85.8973 16.0713 84.9346 17.0587 84.9346 18.2778Z" fill="#063748"/>
<path d="M84.9346 87.8242V91.6051C84.9346 92.8222 85.8953 93.8097 87.0831 93.8097H199.572C200.758 93.8097 201.719 92.8222 201.719 91.6051V87.8242H84.9346Z" fill="#063748"/>
<path d="M151.964 90.8354C151.964 91.7305 152.708 92.4569 153.624 92.4569C154.54 92.4569 155.284 91.7305 155.284 90.8354C155.284 89.9402 154.54 89.2139 153.624 89.2139C152.708 89.2139 151.964 89.9402 151.964 90.8354Z" fill="#0794E4"/>
<path d="M154.68 90.3262H153.012V91.343H154.68V90.3262Z" fill="white"/>
<path d="M153.045 90.739L152.566 90.3994V91.2691L153.065 91.0139L153.045 90.739Z" fill="white"/>
<path d="M145.459 90.8354C145.459 91.7305 146.203 92.4569 147.119 92.4569C148.036 92.4569 148.779 91.7305 148.779 90.8354C148.779 89.9402 148.036 89.2139 147.119 89.2139C146.203 89.2139 145.459 89.9402 145.459 90.8354Z" fill="#0794E4"/>
<path d="M148.209 90.6543H147.827V91.7713H148.209V90.6543Z" fill="white"/>
<path d="M147.636 90.3281H147.254V91.771H147.636V90.3281Z" fill="white"/>
<path d="M147.065 90.002H146.684V91.7707H147.065V90.002Z" fill="white"/>
<path d="M146.524 89.7393H146.143V91.773H146.524V89.7393Z" fill="white"/>
<path d="M138.98 90.8354C138.98 91.7305 139.724 92.4569 140.641 92.4569C141.557 92.4569 142.301 91.7305 142.301 90.8354C142.301 89.9402 141.557 89.2139 140.641 89.2139C139.724 89.2139 138.98 89.9402 138.98 90.8354Z" fill="#0794E4"/>
<path d="M139.744 90.7659C139.744 91.1173 140.148 91.402 140.645 91.402C141.141 91.402 141.545 91.1173 141.545 90.7659C141.545 90.4145 141.141 90.1299 140.645 90.1299C140.148 90.1299 139.744 90.4145 139.744 90.7659Z" fill="white"/>
<path d="M141.027 91.0215C141.087 91.2826 141.469 91.6202 141.67 91.8087C141.202 91.6791 140.87 91.3905 140.659 91.1059L141.029 91.0215H141.027Z" fill="white"/>
<path d="M132.185 90.9494C132.249 91.8426 133.041 92.5179 133.957 92.4551C134.872 92.3922 135.563 91.6188 135.499 90.7236C135.435 89.8304 134.643 89.1551 133.726 89.2179C132.812 89.2807 132.12 90.0542 132.185 90.9494Z" fill="#EF1616"/>
<path d="M132.948 91.3902C132.876 91.453 132.87 91.559 132.934 91.6297C132.998 91.7004 133.107 91.7063 133.179 91.6434L134.733 90.285C134.805 90.2222 134.811 90.1162 134.747 90.0455C134.683 89.9748 134.574 89.9689 134.502 90.0317L132.948 91.3902Z" fill="white"/>
<path d="M134.405 91.7067C134.469 91.7773 134.578 91.7832 134.65 91.7204C134.723 91.6576 134.729 91.5516 134.664 91.4809L133.273 89.9635C133.209 89.8928 133.101 89.8869 133.028 89.9497C132.956 90.0125 132.95 90.1185 133.014 90.1892L134.405 91.7067Z" fill="white"/>
<path d="M195.297 23.8027H182.012C181.151 23.8027 180.454 24.4839 180.454 25.3241V83.721C180.454 84.5612 181.151 85.2424 182.012 85.2424H195.297C196.157 85.2424 196.854 84.5612 196.854 83.721V25.3241C196.854 24.4839 196.157 23.8027 195.297 23.8027Z" fill="#71CFF4"/>
<path d="M184.122 26.5388C184.122 26.9314 184.448 27.2494 184.85 27.2494H194.607C195.009 27.2494 195.335 26.9314 195.335 26.5388C195.335 26.1461 195.009 25.8281 194.607 25.8281H184.85C184.448 25.8281 184.122 26.1461 184.122 26.5388Z" fill="white"/>
<path d="M184.122 28.9724C184.122 29.365 184.448 29.683 184.85 29.683H194.607C195.009 29.683 195.335 29.365 195.335 28.9724C195.335 28.5797 195.009 28.2617 194.607 28.2617H184.85C184.448 28.2617 184.122 28.5797 184.122 28.9724Z" fill="white"/>
<path d="M184.122 36.5768C184.122 36.9695 184.448 37.2875 184.85 37.2875H194.607C195.009 37.2875 195.335 36.9695 195.335 36.5768C195.335 36.1842 195.009 35.8682 194.607 35.8682H184.85C184.448 35.8682 184.122 36.1862 184.122 36.5768Z" fill="white"/>
<path d="M184.122 39.0104C184.122 39.4031 184.448 39.7211 184.85 39.7211H194.607C195.009 39.7211 195.335 39.4031 195.335 39.0104C195.335 38.6178 195.009 38.2998 194.607 38.2998H184.85C184.448 38.2998 184.122 38.6178 184.122 39.0104Z" fill="white"/>
<path d="M184.122 41.3415C184.122 41.7341 184.448 42.0502 184.85 42.0502H194.607C195.009 42.0502 195.335 41.7322 195.335 41.3415C195.335 40.9489 195.009 40.6309 194.607 40.6309H184.85C184.448 40.6309 184.122 40.9489 184.122 41.3415Z" fill="white"/>
<path d="M184.122 56.8512C184.122 57.2439 184.448 57.5619 184.85 57.5619H194.607C195.009 57.5619 195.335 57.2439 195.335 56.8512C195.335 56.4586 195.009 56.1426 194.607 56.1426H184.85C184.448 56.1426 184.122 56.4606 184.122 56.8512Z" fill="white"/>
<path d="M184.122 59.3874C184.122 59.78 184.448 60.098 184.85 60.098H194.607C195.009 60.098 195.335 59.78 195.335 59.3874C195.335 58.9948 195.009 58.6768 194.607 58.6768H184.85C184.448 58.6768 184.122 58.9948 184.122 59.3874Z" fill="white"/>
<path d="M184.122 61.9206C184.122 62.3132 184.448 62.6312 184.85 62.6312H194.607C195.009 62.6312 195.335 62.3132 195.335 61.9206C195.335 61.528 195.009 61.21 194.607 61.21H184.85C184.448 61.21 184.122 61.528 184.122 61.9206Z" fill="white"/>
<path d="M184.122 46.613C184.122 47.0056 184.448 47.3236 184.85 47.3236H194.607C195.009 47.3236 195.335 47.0056 195.335 46.613C195.335 46.2204 195.009 45.9023 194.607 45.9023H184.85C184.448 45.9023 184.122 46.2204 184.122 46.613Z" fill="white"/>
<path d="M187.081 72.2191C187.081 72.6804 187.465 73.0554 187.937 73.0554H194.477C194.95 73.0554 195.333 72.6804 195.333 72.2191C195.333 71.7578 194.95 71.3828 194.477 71.3828H187.937C187.465 71.3828 187.081 71.7578 187.081 72.2191Z" fill="white"/>
<path d="M189.104 74.8476C189.104 75.2677 189.452 75.6073 189.882 75.6073H194.553C194.983 75.6073 195.331 75.2677 195.331 74.8476C195.331 74.4275 194.983 74.0879 194.553 74.0879H189.882C189.452 74.0879 189.104 74.4275 189.104 74.8476Z" fill="white"/>
<path d="M181.752 31.765C181.752 32.2263 182.136 32.6013 182.608 32.6013H189.148C189.62 32.6013 190.004 32.2263 190.004 31.765C190.004 31.3037 189.62 30.9287 189.148 30.9287H182.608C182.136 30.9287 181.752 31.3037 181.752 31.765Z" fill="#35B5D3"/>
<path d="M181.752 43.933C181.752 44.3943 182.136 44.7692 182.608 44.7692H189.148C189.62 44.7692 190.004 44.3943 190.004 43.933C190.004 43.4716 189.62 43.0967 189.148 43.0967H182.608C182.136 43.0967 181.752 43.4716 181.752 43.933Z" fill="#35B5D3"/>
<path d="M181.752 54.2738C181.752 54.7351 182.136 55.11 182.608 55.11H189.148C189.62 55.11 190.004 54.7351 190.004 54.2738C190.004 53.8125 189.62 53.4375 189.148 53.4375H182.608C182.136 53.4375 181.752 53.8125 181.752 54.2738Z" fill="#35B5D3"/>
<path d="M181.752 49.305C181.752 49.7664 182.136 50.1413 182.608 50.1413H189.148C189.62 50.1413 190.004 49.7664 190.004 49.305C190.004 48.8437 189.62 48.4688 189.148 48.4688H182.608C182.136 48.4688 181.752 48.8437 181.752 49.305Z" fill="#35B5D3"/>
<path d="M181.752 34.2929C181.752 34.713 182.1 35.0526 182.53 35.0526H187.201C187.631 35.0526 187.978 34.713 187.978 34.2929C187.978 33.8728 187.631 33.5332 187.201 33.5332H182.53C182.1 33.5332 181.752 33.8728 181.752 34.2929Z" fill="#35B5D3"/>
<path d="M181.752 51.7304C181.752 52.1505 182.1 52.4901 182.53 52.4901H187.201C187.631 52.4901 187.978 52.1505 187.978 51.7304C187.978 51.3103 187.631 50.9707 187.201 50.9707H182.53C182.1 50.9707 181.752 51.3103 181.752 51.7304Z" fill="#35B5D3"/>
<path d="M181.752 69.3792C181.752 69.8406 182.136 70.2155 182.608 70.2155H189.148C189.62 70.2155 190.004 69.8406 190.004 69.3792C190.004 68.9179 189.62 68.543 189.148 68.543H182.608C182.136 68.543 181.752 68.9179 181.752 69.3792Z" fill="#35B5D3"/>
<path d="M181.752 77.3871C181.752 77.8484 182.136 78.2233 182.608 78.2233H189.148C189.62 78.2233 190.004 77.8484 190.004 77.3871C190.004 76.9257 189.62 76.5508 189.148 76.5508H182.608C182.136 76.5508 181.752 76.9257 181.752 77.3871Z" fill="#35B5D3"/>
<path d="M181.752 64.4124C181.752 64.8738 182.136 65.2487 182.608 65.2487H189.148C189.62 65.2487 190.004 64.8738 190.004 64.4124C190.004 63.9511 189.62 63.5762 189.148 63.5762H182.608C182.136 63.5762 181.752 63.9511 181.752 64.4124Z" fill="#35B5D3"/>
<path d="M181.752 66.8369C181.752 67.257 182.1 67.5966 182.53 67.5966H187.201C187.631 67.5966 187.978 67.257 187.978 66.8369C187.978 66.4168 187.631 66.0771 187.201 66.0771H182.53C182.1 66.0771 181.752 66.4168 181.752 66.8369Z" fill="#35B5D3"/>
<path d="M181.752 79.9169C181.752 80.337 182.1 80.6767 182.53 80.6767H187.201C187.631 80.6767 187.978 80.337 187.978 79.9169C187.978 79.4968 187.631 79.1572 187.201 79.1572H182.53C182.1 79.1572 181.752 79.4968 181.752 79.9169Z" fill="#35B5D3"/>
<path d="M181.752 82.248C181.752 82.6681 182.1 83.0077 182.53 83.0077H187.201C187.631 83.0077 187.978 82.6681 187.978 82.248C187.978 81.8279 187.631 81.4883 187.201 81.4883H182.53C182.1 81.4883 181.752 81.8279 181.752 82.248Z" fill="#35B5D3"/>
<path d="M175.658 23.2246H89.3115V86.3584H175.658V23.2246Z" fill="white"/>
<path d="M120.852 62.2071V86.3589H156.956V62.2071C156.956 55.827 150.895 50.6543 143.416 50.6543H134.39C126.911 50.6543 120.85 55.827 120.85 62.2071H120.852Z" fill="#177376"/>
<path d="M119.755 43.3548C118.543 42.4007 117.781 39.3226 120.159 39.4364C119.799 38.9084 119.817 38.0093 120.119 37.4282C120.159 37.3516 120.203 37.2849 120.251 37.2221C120.151 36.6371 120.263 35.6025 121.023 35.7321C120.496 34.7761 121.716 33.129 122.641 33.9967C122.458 33.1722 123.045 32.4105 123.903 32.3968C124.213 32.3929 124.741 32.6775 125.085 32.9759C125.057 32.6481 125.113 32.3183 125.29 32.0238C125.622 31.4683 126.61 30.9402 126.912 31.7647C126.556 30.1824 128.622 30.2335 129.302 31.2975C129.645 30.098 131.985 30.1039 131.93 31.3721C132.835 29.6367 135.361 30.8538 134.764 32.0631C135.426 32.4361 135.936 33.2939 135.828 34.2048C137.112 33.0427 138.438 34.3834 138.143 35.8675C140.092 35.3218 139.293 38.8004 138.346 38.4196C139.206 38.9339 136.923 40.7458 135.964 40.3218C135.932 41.6802 133.438 41.8059 132.598 41.5173C133.313 42.5519 130.64 44.3697 129.886 43.4235C130.148 44.354 128.753 45.1451 128.029 45.0234C128.092 45.5946 127.854 46.3445 127.428 46.8451L127.519 46.9099C130.256 46.2169 130.905 51.4289 128.749 50.8341C130.385 52.2475 128.614 55.8694 127.246 53.7788C127.774 56.1855 123.925 56.9668 124.082 54.7701C123.561 55.9519 121.793 55.5416 121.718 54.2558C120.022 54.9743 119.439 52.4792 120.533 51.5448C119.618 52.1729 119.538 50.575 119.64 50.1019C119.723 49.721 119.875 49.3932 120.084 49.1066C119.24 48.6315 118.696 47.5617 119.821 46.9924C118.591 46.2012 118.251 44.0497 119.753 43.3508L119.755 43.3548Z" fill="#301F23"/>
<path d="M144.368 45.3167C145.58 44.3626 146.342 41.2845 143.964 41.3984C144.324 40.8703 144.306 39.9712 144.004 39.3901C143.964 39.3155 143.92 39.2468 143.872 39.184C143.972 38.599 143.86 37.5645 143.1 37.694C143.627 36.738 142.407 35.091 141.482 35.9586C141.665 35.1342 141.078 34.3725 140.22 34.3587C139.91 34.3548 139.382 34.6395 139.038 34.9378C139.066 34.61 139.008 34.2802 138.831 33.9838C138.499 33.4302 137.511 32.9002 137.209 33.7247C137.563 32.1424 135.499 32.1934 134.819 33.2574C134.476 32.058 132.136 32.0639 132.19 33.332C131.286 31.5967 128.76 32.8138 129.357 34.023C128.695 34.396 128.185 35.2519 128.293 36.1648C127.009 35.0026 125.683 36.3434 125.978 37.8275C124.029 37.2818 124.828 40.7604 125.775 40.3795C124.915 40.8938 127.198 42.7058 128.157 42.2818C128.189 43.6402 130.683 43.7658 131.523 43.4773C130.808 44.5118 133.481 46.3296 134.234 45.3834C133.973 46.3139 135.368 47.1051 136.092 46.9833C136.029 47.5546 136.266 48.3045 136.693 48.8051L136.602 48.8699C133.865 48.1769 133.216 53.3889 135.372 52.7941C133.734 54.2055 135.507 57.8294 136.875 55.7387C136.347 58.1455 140.196 58.9268 140.039 56.7301C140.559 57.9119 142.328 57.5016 142.403 56.2157C144.099 56.9342 144.682 54.4392 143.588 53.5047C144.503 54.1329 144.583 52.535 144.481 52.0619C144.398 51.681 144.246 51.3532 144.037 51.0666C144.881 50.5915 145.425 49.5216 144.3 48.9523C145.53 48.1612 145.869 46.0097 144.368 45.3108V45.3167Z" fill="#301F23"/>
<path d="M148.068 63.6247C147.308 61.112 144.882 60.4799 142.264 60.1069C141.253 59.9636 139.43 59.677 137.975 59.1862C137.983 59.1666 137.991 59.145 137.997 59.1253C137.942 59.1332 137.89 59.1371 137.838 59.1391C137.494 59.0174 137.177 58.8858 136.895 58.7386C135.665 57.4685 135.685 53.556 135.559 52.4508C135.539 52.2879 135.521 52.1112 135.503 51.9247C135.368 50.474 135.3 48.4128 135.953 47.3232L128.669 50.7174L127.781 51.1297C127.821 51.2298 127.861 51.3319 127.897 51.4398C128.249 52.4724 128.416 53.8309 128.372 54.9695C128.372 54.9812 128.372 54.993 128.37 55.0048C128.37 55.0146 128.37 55.0244 128.368 55.0342C128.368 55.0362 128.368 55.0382 128.368 55.0401C128.345 55.2522 128.257 55.7037 128.114 56.2612C128 56.7029 127.853 57.2094 127.674 57.7158H127.642C126.287 60.2266 118.288 58.2733 116.662 60.7429C112.415 67.1956 145.007 66.483 148.07 63.6188L148.068 63.6247Z" fill="#F49C60"/>
<path d="M128.366 55.0441C128.344 55.2561 128.255 55.7076 128.112 56.2651C129.779 58.2733 133.933 56.9188 134.96 52.9632C135.056 52.5941 135.344 52.2899 135.505 51.9247C135.37 50.474 135.302 48.4128 135.955 47.3232L128.671 50.7174L127.899 51.4418C128.251 52.4744 128.418 53.8328 128.374 54.9714C128.374 54.9832 128.374 54.995 128.372 55.0068C128.372 55.0166 128.372 55.0264 128.37 55.0362C128.37 55.0382 128.37 55.0401 128.37 55.0421L128.366 55.0441Z" fill="#D87A3A"/>
<path d="M122.478 45.666C122.607 44.6707 123.345 43.8364 124.014 44.2153C125.977 45.3264 125.157 47.8686 125.157 47.8686C124.962 48.8619 123.839 48.7854 123.383 48.3986C122.806 47.9098 122.354 46.626 122.476 45.664L122.478 45.666Z" fill="#F49C60"/>
<path d="M124.254 45.2309C124.435 45.702 124.737 46.7562 124.737 46.7562C124.741 47.5552 123.561 47.3393 123.591 46.3911C123.605 45.9671 123.969 45.6176 123.617 45.3173C123.376 45.1092 123.088 45.3644 122.93 45.6706C122.95 44.7637 123.971 44.4908 124.254 45.2309Z" fill="#D87A3A"/>
<path d="M123.357 48.037C123.341 48.2195 123.479 48.3785 123.666 48.3942C123.853 48.4099 124.016 48.2745 124.032 48.0919C124.048 47.9094 123.909 47.7503 123.723 47.7346C123.536 47.7189 123.373 47.8544 123.357 48.037Z" fill="white"/>
<path d="M128.507 36.9384C134.02 33.2871 139.063 38.1595 139.143 43.9153C139.143 43.9153 139.054 49.249 137.615 51.6106C136.524 53.3989 131.13 56.4496 128.953 56.055C127.614 55.8135 124.863 52.4979 124.391 50.1814C123.597 46.2808 124.129 39.8379 128.507 36.9384Z" fill="#F49C60"/>
<path d="M127.91 51.708C129.015 52.3833 130.396 52.5914 131.714 52.2262C131.939 53.2156 130.581 53.783 129.228 53.5435C127.53 53.2431 127.405 51.6609 127.91 51.706V51.708Z" fill="#F72828"/>
<path d="M128.448 51.5149C128.978 51.5365 128.968 51.931 129.543 52.0233C130.19 52.0842 130.313 51.5757 130.93 51.9664C131.619 52.3727 132.534 52.0685 132.518 52.0606C131.008 53.1815 128.317 53.1874 126.878 51.2773C127.65 51.7347 128.122 51.4776 128.448 51.5149Z" fill="#E52323"/>
<path d="M131.044 49.8255C131.044 49.8255 130.999 49.8255 130.925 49.8294C130.887 49.8334 130.843 49.8314 130.794 49.8353C130.746 49.8393 130.69 49.8393 130.63 49.8432C130.569 49.8491 130.505 49.8471 130.439 49.853C130.372 49.855 130.302 49.8569 130.23 49.8589C130.157 49.8589 130.085 49.8609 130.011 49.8589C129.936 49.8589 129.864 49.853 129.79 49.8491C129.753 49.8471 129.717 49.8412 129.683 49.8393C129.647 49.8353 129.613 49.8314 129.578 49.8255C129.544 49.8177 129.51 49.8157 129.478 49.8079C129.446 49.8 129.414 49.7902 129.382 49.7843C129.349 49.7784 129.323 49.7627 129.291 49.7549C129.261 49.745 129.231 49.7352 129.207 49.7215C129.181 49.7097 129.152 49.696 129.128 49.6842C129.104 49.6704 129.082 49.6547 129.06 49.639C129.012 49.6115 128.976 49.5782 128.939 49.5468C128.921 49.5311 128.905 49.5173 128.889 49.5036C128.875 49.4879 128.863 49.4741 128.851 49.4604C128.805 49.4074 128.771 49.376 128.771 49.376C128.771 49.376 128.771 49.4172 128.777 49.4938C128.779 49.5134 128.781 49.535 128.785 49.5566C128.789 49.5801 128.799 49.6017 128.807 49.6273C128.817 49.6528 128.827 49.6803 128.837 49.7097C128.847 49.7391 128.869 49.7647 128.885 49.7941C128.905 49.8236 128.923 49.855 128.947 49.8825C128.974 49.9099 129.002 49.9374 129.032 49.9649C129.06 49.9943 129.094 50.0179 129.13 50.0415C129.164 50.065 129.203 50.0905 129.241 50.1082C129.319 50.1455 129.404 50.1828 129.492 50.2005C129.578 50.228 129.669 50.2338 129.759 50.2456C129.848 50.2476 129.938 50.2535 130.025 50.2437C130.111 50.2397 130.195 50.2221 130.274 50.2083C130.352 50.1907 130.429 50.1691 130.499 50.1455C130.567 50.118 130.634 50.0945 130.69 50.065C130.748 50.0375 130.798 50.0081 130.845 49.9786C130.889 49.9512 130.927 49.9256 130.955 49.9021C131.013 49.855 131.044 49.8255 131.044 49.8255Z" fill="#D87A3A"/>
<path d="M129.1 44.0754C129.11 43.3648 128.021 42.9781 127.05 42.8839C126.138 42.7955 125.434 43.2608 125.207 43.8399C125.728 43.408 126.566 43.4531 127.108 43.6357C127.671 43.8261 129.122 44.6487 129.1 44.0754Z" fill="#301F23"/>
<path d="M133.357 44.7641C133.373 44.0534 134.477 43.706 135.45 43.6451C136.366 43.5882 137.05 44.079 137.257 44.6659C136.752 44.2164 135.914 44.2301 135.363 44.395C134.792 44.5658 133.313 45.3373 133.357 44.7641Z" fill="#301F23"/>
<path d="M125.455 44.8384C125.764 44.6087 126.208 44.326 126.847 44.2927C127.396 44.2534 127.911 44.54 128.2 44.9287C128.305 45.0661 128.395 45.2683 128.455 45.4293C128.564 45.7061 128.506 46.2754 128.502 46.348C128.289 46.4422 128.158 46.0653 127.937 46.134C127.507 46.2734 127.02 46.3107 126.707 46.2538C126.315 46.1851 126.036 46.0634 125.726 45.8887C125.481 45.7552 125.115 46.0359 124.673 45.8906C124.771 45.4273 125.143 45.0779 125.453 44.8384H125.455Z" fill="#D87A3A"/>
<path d="M124.675 45.8909C125.117 46.0361 125.386 46.2187 125.631 46.3522C125.939 46.5289 126.218 46.6486 126.612 46.7173C126.926 46.7743 127.41 46.737 127.842 46.5976C128.065 46.5289 128.291 46.4405 128.504 46.3483C128.504 46.3443 128.469 46.1696 128.361 45.8928C128.301 45.7319 128.208 45.5277 128.106 45.3923C127.816 45.0036 127.302 44.7189 126.753 44.7562C126.114 44.7915 125.67 45.0723 125.36 45.302C125.051 45.5434 124.858 45.7476 124.675 45.8909Z" fill="white"/>
<path d="M125.633 46.3522C125.941 46.5289 126.22 46.6486 126.614 46.7173C126.928 46.7743 127.412 46.737 127.844 46.5976C127.953 46.4641 128.21 45.5277 128.108 45.3903C127.818 45.0016 127.304 44.717 126.755 44.7543C126.116 44.7896 125.672 45.0703 125.362 45.3C125.338 45.5336 125.571 46.2168 125.635 46.3503L125.633 46.3522Z" fill="#1E0C0C"/>
<path d="M126.025 45.797C126.009 45.9933 126.065 46.1582 126.154 46.164C126.242 46.1719 126.327 46.0188 126.343 45.8225C126.359 45.6262 126.303 45.4613 126.214 45.4534C126.126 45.4456 126.041 45.6006 126.025 45.797Z" fill="white"/>
<path d="M133.524 45.8859C133.834 45.6563 134.278 45.3736 134.917 45.3402C135.466 45.3029 135.98 45.5875 136.269 45.9762C136.374 46.1117 136.464 46.3158 136.525 46.4768C136.633 46.7536 136.575 47.321 136.571 47.3956C136.358 47.4898 136.227 47.1129 136.006 47.1816C135.576 47.3209 135.09 47.3583 134.776 47.3013C134.384 47.2326 134.105 47.1109 133.795 46.9362C133.55 46.8027 133.184 47.0834 132.742 46.9381C132.841 46.4749 133.212 46.1274 133.522 45.8859H133.524Z" fill="#D87A3A"/>
<path d="M132.744 46.9368C133.186 47.082 133.456 47.2646 133.701 47.3981C134.008 47.5748 134.288 47.6945 134.682 47.7632C134.995 47.8202 135.48 47.7829 135.912 47.6435C136.135 47.5748 136.36 47.4864 136.573 47.3942C136.573 47.3903 136.539 47.2155 136.43 46.9387C136.37 46.7778 136.277 46.5756 136.173 46.4382C135.884 46.0495 135.369 45.7648 134.82 45.8021C134.181 45.8374 133.737 46.1182 133.427 46.3479C133.118 46.5873 132.925 46.7915 132.744 46.9368Z" fill="white"/>
<path d="M133.7 47.3981C134.007 47.5748 134.287 47.6945 134.681 47.7632C134.994 47.8202 135.479 47.7829 135.911 47.6435C136.017 47.51 136.276 46.5736 136.174 46.4362C135.885 46.0475 135.37 45.7629 134.821 45.8002C134.182 45.8355 133.738 46.1162 133.429 46.3459C133.404 46.5775 133.638 47.2627 133.702 47.3962L133.7 47.3981Z" fill="#1E0C0C"/>
<path d="M134.095 46.8419C134.078 47.0382 134.135 47.2031 134.223 47.2109C134.312 47.2188 134.396 47.0657 134.412 46.8694C134.428 46.673 134.37 46.5081 134.283 46.5003C134.195 46.4924 134.111 46.6456 134.095 46.8419Z" fill="white"/>
<path d="M130.407 32.4256C130.558 30.8983 132.081 29.6321 133.145 31.9721C132.612 29.3298 135.753 28.6093 136.178 30.7805C136.941 30.1347 138.891 30.7864 138.575 32.1939C139.369 31.6305 140.694 31.5442 140.509 32.9438C141.431 32.1017 143.588 32.2842 143.154 34.0353C145.25 33.9646 146.564 35.9709 145.551 38.0381C146.46 38.2304 147.322 38.3973 147.535 39.528C147.658 40.1778 147.411 41.0553 146.904 41.4676C149.26 42.027 148.753 46.0023 146.142 45.3898C147.403 46.4911 147.322 49.1138 145.003 48.4071C146.45 49.7577 144.03 53.0027 142.691 50.539L140.406 50.7098C139.823 50.9061 138.919 50.6273 138.499 50.1425C137.996 49.5653 137.371 47.8869 138.288 47.3765C137.432 46.9662 137.213 45.5135 137.568 44.6831C136.827 44.5987 135.699 43.4365 136.228 42.6042C135.213 43.3109 133.141 40.7923 134.144 39.9874C131.995 40.6961 130.839 39.2061 131.209 37.8771C129.937 38.89 126.956 36.764 129.445 35.3584C126.347 34.9737 128.667 31.3459 130.409 32.4236L130.407 32.4256Z" fill="#301F23"/>
<path d="M141.083 48.8463C141.332 47.7646 140.826 46.6084 139.915 46.734C137.244 47.1031 137.166 50.0634 137.166 50.0634C136.995 51.1686 138.299 51.5357 138.969 51.3178C139.817 51.0391 140.842 49.8907 141.083 48.8463Z" fill="#F49C60"/>
<path d="M139.24 47.6942C138.848 48.1104 138.088 49.0821 138.088 49.0821C137.766 49.9086 139.191 50.152 139.533 49.1587C139.686 48.715 139.41 48.2086 139.929 48.0358C140.287 47.918 140.51 48.293 140.568 48.6738C140.906 47.7256 139.855 47.0405 139.24 47.6923V47.6942Z" fill="#D87A3A"/>
<path d="M138.323 50.6105C138.305 50.8108 138.459 50.9874 138.664 51.0051C138.869 51.0228 139.05 50.8716 139.068 50.6714C139.086 50.4711 138.932 50.2945 138.727 50.2768C138.52 50.2591 138.339 50.4103 138.323 50.6105Z" fill="white"/>
<path d="M104.782 86.3582H119.018C119.104 86.2129 119.189 86.0657 119.267 85.9165C119.315 85.8262 119.364 85.7359 119.41 85.6456C120.049 84.4049 120.531 83.0956 120.921 81.7489C120.949 81.6527 120.976 81.5565 121.004 81.4584C121.376 80.1254 121.665 78.7571 121.936 77.3849C121.954 77.2868 121.974 77.1886 121.995 77.0885C122.264 75.7104 122.519 74.3323 122.827 72.9837C122.849 72.8855 122.871 72.7874 122.893 72.6912C123.192 71.4152 123.544 70.1667 124.004 68.9751L124.049 68.8632L124.159 68.5785L125.232 65.8381L125.347 65.5456L125.457 65.2648C125.825 64.3226 126.253 63.3332 126.541 62.4046C126.31 62.3497 126.077 62.2947 125.847 62.2358H125.845C124.404 61.8824 122.973 61.4722 121.611 60.8832C121.06 60.6457 120.551 60.4239 120.071 60.2531C118.411 59.6583 117.091 59.6347 115.583 61.3917C115.517 61.4702 115.448 61.5507 115.382 61.6331C114.729 62.4419 114.094 63.451 113.481 64.5778C113.433 64.6661 113.384 64.7544 113.336 64.8467C112.745 65.9637 112.176 67.1847 111.638 68.4313C111.596 68.5255 111.555 68.6178 111.517 68.712C111.411 68.9613 111.306 69.2106 111.202 69.46C110.79 70.4592 110.396 71.4584 110.028 72.4242C109.992 72.5204 109.956 72.6146 109.919 72.7108C109.803 73.0171 109.69 73.3194 109.58 73.6158C109.425 74.034 109.274 74.4384 109.13 74.829C108.947 75.3237 108.772 75.7948 108.607 76.2346C108.581 76.3092 108.553 76.3818 108.525 76.4544C108.488 76.5506 108.452 76.6468 108.418 76.7411C108.398 76.7901 108.38 76.8412 108.362 76.8922C108.137 77.4851 107.934 78.0053 107.755 78.4293C107.743 78.4588 107.733 78.4862 107.719 78.5137C107.682 78.6001 107.646 78.6845 107.61 78.7689C107.61 78.7728 107.606 78.7748 107.606 78.7787C107.345 79.3853 107.106 79.9193 106.887 80.4061C106.43 81.423 105.813 82.6441 105.363 83.9024C105.07 84.719 104.849 85.5514 104.784 86.3563L104.782 86.3582Z" fill="#E8CEB8"/>
<path d="M116.017 78.8938C116.033 78.9585 116.054 79.0155 116.076 79.0704C116.892 81.0394 118.544 80.7037 118.455 83.0025C118.411 84.1175 118.419 85.2404 118.429 86.3594H150.337C150.259 85.1501 150.165 83.9448 150.066 82.7512C150.06 82.6786 150.054 82.606 150.048 82.5333C150.044 82.4882 150.04 82.441 150.036 82.3959C150.03 82.3252 150.024 82.2604 150.018 82.1898C149.879 80.5859 149.718 79.0096 149.546 77.4784C149.534 77.3606 149.52 77.2428 149.507 77.127C149.31 75.4211 149.091 73.7819 148.856 72.2409C148.838 72.1231 148.82 72.0072 148.804 71.8914C148.557 70.2954 148.289 68.8094 148.008 67.4804C147.984 67.3645 147.958 67.2487 147.932 67.1349C147.689 66.0159 147.433 65.0128 147.17 64.149C147.106 63.9409 147.041 63.7387 146.975 63.5483C146.935 63.4325 146.897 63.3186 146.854 63.2106C146.414 62.0014 145.954 61.1887 145.482 60.8903C145.48 60.8903 145.478 60.8883 145.476 60.8864C145.411 60.8491 145.349 60.8176 145.287 60.798C145.279 60.796 145.273 60.7941 145.265 60.7921C145.265 60.7921 145.264 60.7921 145.263 60.7921C145.234 60.7823 145.208 60.7745 145.18 60.7725H145.176C145.156 60.7705 145.14 60.7686 145.122 60.7666C145.122 60.7666 145.098 60.7705 145.056 60.7784H145.054C145.054 60.7784 145.048 60.7784 145.044 60.7784C144.989 60.7882 144.911 60.8019 144.804 60.8196C143.008 61.1121 137.312 64.2452 122.159 61.2888C122.153 61.2888 120.722 61.5499 120.72 61.5479C120.435 61.4733 120.162 61.3909 119.902 61.3025C119.902 61.3025 119.896 61.3006 119.894 61.3006C119.768 61.2574 119.641 61.2103 119.521 61.1651C119.482 61.1494 119.448 61.1494 119.416 61.1671C119.125 61.3084 118.56 61.6009 118.516 63.6288C118.516 63.6818 118.606 63.9468 118.707 64.2334C118.829 64.5809 118.966 64.9617 118.966 65.0304C118.942 66.1945 118.94 67.5628 118.93 69.0528V69.0626C118.815 69.6476 118.676 70.2208 118.481 70.796C118.003 72.2055 117.191 73.4187 116.628 74.7634C116.369 75.3837 116.14 76.2338 116.023 77.0406C115.919 77.7552 115.903 78.4344 116.027 78.8957L116.017 78.8938Z" fill="#E8CEB8"/>
<path d="M142.135 70.0363C142.217 70.584 142.275 71.1396 142.318 71.699C142.326 71.8011 142.332 71.9052 142.34 72.0072C142.41 73.1144 142.418 74.2412 142.404 75.3779C142.702 75.955 143.025 76.5263 143.351 77.0916C143.879 78.0104 144.396 78.9311 144.906 79.8576C145.511 80.957 145.827 82.1564 146.064 83.348C146.259 84.3433 146.333 85.3484 146.37 86.3594H157.57C157.456 86.0178 157.333 85.6723 157.209 85.3248C157.162 85.1953 157.116 85.0657 157.07 84.9342H157.068C157.008 84.7614 156.947 84.5867 156.887 84.4081C156.632 83.6542 156.391 82.8631 156.22 81.9974C156.204 81.9267 156.192 81.8561 156.178 81.7834C156.115 81.4477 156.049 81.1081 155.977 80.7705C155.946 80.6272 155.916 80.4799 155.882 80.3347C155.852 80.2031 155.822 80.0696 155.794 79.9381C155.516 78.7446 155.187 77.5431 154.827 76.3437C154.726 76.0061 154.622 75.6664 154.515 75.3288C154.479 75.209 154.441 75.0913 154.403 74.9715C153.921 73.456 153.406 71.9601 152.899 70.4976C152.863 70.3897 152.825 70.2837 152.791 70.1776C152.747 70.054 152.703 69.9303 152.66 69.8066C152.313 68.8035 152.1 67.4411 151.678 66.0787C151.647 65.9786 151.613 65.8765 151.579 65.7764C151.251 64.7949 150.801 63.8271 150.104 63.0065C150.009 62.8926 149.907 62.7827 149.802 62.6767C148.822 61.6853 147.407 60.9668 145.292 60.7921C145.284 60.7921 145.278 60.7921 145.27 60.7921C145.27 60.7921 145.269 60.7921 145.268 60.7921C145.256 60.7921 145.244 60.7921 145.232 60.7902H145.23C145.174 60.7862 145.113 60.7803 145.057 60.7764H145.055C145.055 60.7764 145.049 60.7764 145.045 60.7764C144.971 60.7725 144.896 60.7686 144.82 60.7666L144.808 60.8118V60.8196L144.048 63.4423L143.95 63.7799L143.57 65.0972L142.929 67.3174L142.834 67.6453L142.143 70.0383L142.135 70.0363Z" fill="#E8CEB8"/>
<path d="M113.542 73.5996C113.839 74.9011 114.842 76.2459 115.301 77.5513C115.831 79.0649 115.934 80.335 115.037 81.7268C114.197 83.0303 112.816 83.9372 111.203 83.417C109.778 82.9577 108.823 81.1614 108.423 79.8226C108.16 78.9373 108.24 78.152 108.31 77.3373L113.542 73.5977V73.5996Z" fill="#F49C60"/>
<path d="M111.366 85.5292C111.617 85.2288 111.693 84.9285 111.852 84.1609C111.997 83.462 112.055 82.7377 112.206 82.0506C112.286 81.6874 112.469 81.3183 112.676 80.9591C112.861 80.6371 113.064 80.327 113.231 80.0404C113.86 78.9567 115.299 76.87 114.513 75.5979C114.28 75.221 113.91 74.9344 113.703 74.5771C113.617 74.4279 113.55 74.2709 113.496 74.1118C113.408 73.8547 113.347 73.5877 113.287 73.3207C113.072 72.3706 112.889 71.6757 112.011 71.1358C111.315 70.7098 110.578 70.3977 109.834 70.0875C109.105 69.7832 108.685 68.9371 108.07 68.4307C107.704 68.1284 106.864 67.1664 106.275 67.3117C105.481 67.508 105.642 68.6878 105.877 69.0805C106.283 69.7616 106.918 70.0836 107.436 70.6156C107.919 71.1103 108.156 71.6011 108.228 72.2822C108.228 72.2822 108.138 72.6925 107.623 73.2638C107.595 73.2952 107.565 73.3286 107.535 73.36C107.221 73.6917 106.769 74.0667 106.118 74.4475C105.867 74.5928 105.624 74.744 105.382 74.8971C105.346 74.9187 105.312 74.9422 105.276 74.9638C104.814 75.2583 104.359 75.5665 103.889 75.8865C103.139 76.3949 102.37 76.8857 101.69 77.4628C101.284 77.8064 100.09 78.8625 100.231 79.4946C100.515 80.7805 104.004 78.199 104.583 77.8829C105.035 77.6375 106.399 76.5893 106.393 77.5099C106.389 78.2422 105.614 79.1275 105.202 79.6831C104.235 80.9925 103.021 82.6002 102.553 84.259C102.352 84.9697 102.581 86.0494 103.662 85.3702C104.265 84.9913 104.699 84.0549 105.119 83.4836C106.03 82.2508 106.988 80.9689 108.054 79.8755C107.84 80.5783 105.599 83.0753 105.242 83.7408C104.88 84.4122 104.558 85.5802 105.794 85.1503C106.637 84.8578 107.233 84.0097 107.764 83.3678C108.198 82.8437 110.1 80.5252 110.51 80.594C110.596 81.3282 110.222 83.623 110.194 84.4436C110.17 85.0894 110.604 86.442 111.366 85.5272V85.5292Z" fill="#F49C60"/>
<path d="M112.676 80.959C112.861 80.637 113.064 80.3269 113.231 80.0402C113.86 78.9566 115.299 76.8699 114.513 75.5978C114.28 75.2209 113.91 74.9342 113.703 74.577C113.617 74.4278 113.551 74.2707 113.496 74.1117C113.362 74.2845 113.221 74.4337 113.098 74.5475C112.491 75.107 111.774 75.425 110.92 75.3347C109.481 75.1796 108.464 74.3139 107.624 73.2656C107.595 73.297 107.565 73.3304 107.535 73.3618C108.15 76.7226 110.956 77.0917 113.191 76.595C112.632 77.2154 112.3 79.7929 112.415 80.8746C112.425 80.9668 112.594 80.9315 112.678 80.959H112.676Z" fill="#D87A3A"/>
<path d="M117.324 86.3588H118.974C119.843 81.8672 121.111 75.4401 121.42 72.7271C121.621 70.9662 119.248 78.8205 118.452 81.6749C118.124 82.8606 117.776 84.6607 117.324 86.3588Z" fill="#CCAF9A"/>
<path d="M144.303 86.3573H145.796C145.786 85.6172 145.774 84.9379 145.744 84.3706C145.704 83.605 145.639 82.543 145.561 81.3749C145.282 77.1759 144.829 71.587 144.695 73.2497C144.588 74.5768 144.51 76.6557 144.445 79.0251C144.385 81.3357 144.341 83.925 144.301 86.3553L144.303 86.3573Z" fill="#CCAF9A"/>
<path d="M183.279 112.85C183.279 114.142 183.826 115.19 184.499 115.19H211.088C211.761 115.19 212.307 114.142 212.307 112.85V110.275C212.307 108.983 211.761 107.935 211.088 107.935H184.499C183.826 107.935 183.279 108.983 183.279 110.275V112.85Z" fill="#639358"/>
<path d="M207.916 115.192H209.705C210.378 115.192 210.925 114.144 210.925 112.852V110.277C210.925 108.983 210.378 107.935 209.705 107.935H207.916C208.589 107.935 209.136 108.983 209.136 110.277V112.852C209.136 114.146 208.589 115.192 207.916 115.192Z" fill="#86CC75"/>
<path d="M190.03 115.192H191.819C192.492 115.192 193.039 114.144 193.039 112.852V110.277C193.039 108.983 192.492 107.935 191.819 107.935H190.03C190.704 107.935 191.25 108.983 191.25 110.277V112.852C191.25 114.146 190.704 115.192 190.03 115.192Z" fill="#86CC75"/>
<path d="M164.853 114.9C164.702 115.086 164.532 115.192 164.347 115.192H186.624C187.201 115.192 187.669 114.144 187.669 112.852V110.277C187.669 108.983 187.201 107.935 186.624 107.935H164.347C164.588 107.935 164.809 108.117 164.984 108.421C165.088 108.604 165.179 108.828 165.245 109.085C165.271 109.185 165.295 109.289 165.313 109.397C165.338 109.531 165.356 109.67 165.37 109.813C165.378 109.915 165.384 110.019 165.388 110.125C165.388 110.174 165.39 110.225 165.39 110.275V112.85C165.39 113.06 165.378 113.262 165.354 113.455C165.342 113.563 165.325 113.667 165.305 113.767C165.285 113.875 165.261 113.979 165.233 114.079C165.203 114.189 165.169 114.295 165.131 114.391C165.052 114.593 164.956 114.766 164.851 114.898L164.853 114.9Z" fill="#3C6333"/>
<path d="M164.853 114.9H186.073C186.667 114.9 187.148 113.966 187.148 112.811V110.513C187.148 109.358 186.667 108.424 186.073 108.424H164.983C165.088 108.606 165.178 108.83 165.245 109.087C165.271 109.187 165.295 109.292 165.313 109.399C165.337 109.533 165.355 109.672 165.369 109.816C165.377 109.918 165.383 110.022 165.387 110.128C165.387 110.177 165.389 110.228 165.389 110.277V112.853C165.389 113.063 165.377 113.265 165.353 113.457C165.341 113.565 165.325 113.669 165.305 113.769C165.285 113.877 165.261 113.981 165.232 114.081C165.202 114.191 165.168 114.297 165.13 114.394C165.052 114.596 164.955 114.769 164.851 114.9H164.853Z" fill="white"/>
<path d="M165.245 109.088C165.271 109.188 165.295 109.292 165.314 109.4H185.669V109.088H165.243H165.245Z" fill="#B2AC96"/>
<path d="M165.134 114.396H185.835V114.084H165.236C165.206 114.194 165.172 114.3 165.134 114.396Z" fill="#B2AC96"/>
<path d="M165.37 109.814C165.378 109.917 165.384 110.021 165.388 110.127H186.403V109.814H165.37Z" fill="#B2AC96"/>
<path d="M186.321 110.647H165.391V110.96H186.321V110.647Z" fill="#B2AC96"/>
<path d="M186.321 111.586H165.391V111.898H186.321V111.586Z" fill="#B2AC96"/>
<path d="M186.321 112.523H165.391V112.836H186.321V112.523Z" fill="#B2AC96"/>
<path d="M165.309 113.771H186.324V113.459H165.357C165.345 113.567 165.329 113.671 165.309 113.771Z" fill="#B2AC96"/>
<path d="M106.78 99.3193V111.732C106.78 113.809 105.056 115.493 102.929 115.493H97.7942C95.6678 115.493 93.9434 113.809 93.9434 111.732V99.3193H106.78Z" fill="#FF1D1D"/>
<path d="M102.168 103.297C102.168 108.497 99.7357 112.712 96.733 112.712C95.712 112.712 94.7594 112.225 93.9434 111.377V99.3193H101.661C101.987 100.527 102.168 101.875 102.168 103.297Z" fill="#FF5050"/>
<path d="M106.825 111.448C106.706 111.446 106.589 111.44 106.473 111.432C106.417 111.428 106.36 111.424 106.306 111.418C106.28 111.416 106.097 111.395 106.264 111.416C106.051 111.389 105.842 111.344 105.635 111.285C105.548 111.259 105.462 111.23 105.378 111.198C105.233 111.145 105.51 111.257 105.371 111.196C105.333 111.179 105.295 111.161 105.257 111.143C105.183 111.108 105.112 111.067 105.042 111.026C105.008 111.006 104.976 110.982 104.941 110.961C104.793 110.861 105.002 111.012 104.915 110.943C104.795 110.849 104.686 110.739 104.586 110.623C104.56 110.594 104.477 110.484 104.592 110.633C104.568 110.603 104.545 110.572 104.525 110.541C104.473 110.466 104.427 110.389 104.383 110.311C104.344 110.242 104.308 110.172 104.274 110.101C104.214 109.971 104.33 110.238 104.274 110.105C104.258 110.068 104.244 110.028 104.23 109.991C104.164 109.818 104.113 109.64 104.069 109.461C104.025 109.284 103.993 109.104 103.965 108.923C103.961 108.892 103.938 108.731 103.961 108.901C103.955 108.852 103.949 108.805 103.942 108.756C103.928 108.64 103.918 108.525 103.908 108.407C103.87 107.957 103.858 107.504 103.852 107.052C103.846 106.577 103.848 106.102 103.872 105.629C103.882 105.439 103.898 105.25 103.92 105.062C103.924 105.024 103.947 104.871 103.92 105.058C103.926 105.016 103.932 104.975 103.94 104.934C103.957 104.844 103.975 104.753 103.995 104.663C104.027 104.522 104.069 104.384 104.119 104.249C104.131 104.218 104.143 104.186 104.158 104.155C104.081 104.339 104.127 104.225 104.147 104.184C104.18 104.115 104.218 104.051 104.256 103.986C104.288 103.931 104.324 103.878 104.363 103.827C104.389 103.792 104.467 103.697 104.34 103.854C104.361 103.829 104.381 103.805 104.403 103.782C104.497 103.674 104.604 103.578 104.714 103.485C104.74 103.464 104.769 103.442 104.797 103.42C104.642 103.54 104.746 103.46 104.781 103.434C104.841 103.391 104.903 103.35 104.965 103.311C105.114 103.216 105.269 103.13 105.426 103.048C105.792 102.855 106.171 102.688 106.551 102.523C106.768 102.429 106.987 102.337 107.206 102.245C107.375 102.174 107.086 102.294 107.253 102.225C107.301 102.205 107.351 102.186 107.401 102.166C107.514 102.121 107.627 102.08 107.739 102.038C108.109 101.903 108.483 101.781 108.863 101.679C109.19 101.591 109.524 101.52 109.861 101.469C109.906 101.463 110.044 101.444 109.837 101.469C109.874 101.465 109.91 101.459 109.946 101.455C110.016 101.448 110.089 101.44 110.159 101.436C110.306 101.424 110.45 101.418 110.597 101.416C110.724 101.416 110.848 101.42 110.975 101.43C111.035 101.434 111.094 101.44 111.154 101.448C111.274 101.461 110.979 101.424 111.098 101.44C111.136 101.446 111.172 101.452 111.21 101.457C111.429 101.495 111.642 101.556 111.849 101.636C111.618 101.546 111.801 101.616 111.853 101.642C111.897 101.662 111.94 101.685 111.984 101.707C112.074 101.756 112.161 101.809 112.245 101.868C112.362 101.948 112.104 101.756 112.243 101.868C112.279 101.897 112.313 101.927 112.348 101.956C112.42 102.021 112.488 102.091 112.553 102.166C112.567 102.184 112.583 102.199 112.597 102.217C112.661 102.296 112.49 102.08 112.551 102.16C112.579 102.196 112.605 102.233 112.629 102.27C112.685 102.351 112.736 102.437 112.782 102.523C112.804 102.565 112.824 102.606 112.844 102.647C112.92 102.808 112.79 102.514 112.844 102.645C112.882 102.739 112.916 102.836 112.945 102.934C112.973 103.026 112.995 103.12 113.017 103.214C113.027 103.263 113.037 103.311 113.045 103.36C113.049 103.383 113.053 103.409 113.057 103.434C113.081 103.583 113.037 103.285 113.051 103.391C113.079 103.605 113.089 103.823 113.087 104.039C113.087 104.269 113.069 104.496 113.043 104.724C113.019 104.922 113.063 104.598 113.039 104.753C113.031 104.81 113.021 104.867 113.011 104.924C112.989 105.05 112.965 105.174 112.937 105.297C112.826 105.794 112.665 106.281 112.472 106.754C112.452 106.803 112.36 107.017 112.452 106.807C112.426 106.866 112.4 106.923 112.374 106.982C112.315 107.107 112.255 107.233 112.193 107.356C112.072 107.596 111.94 107.83 111.799 108.061C111.658 108.291 111.508 108.517 111.351 108.737C111.274 108.841 111.196 108.945 111.118 109.047C111.256 108.87 111.11 109.055 111.077 109.096C111.029 109.155 110.981 109.212 110.933 109.269C110.643 109.606 110.326 109.92 109.986 110.209C109.908 110.276 109.825 110.342 109.743 110.405C109.61 110.509 109.859 110.319 109.725 110.419C109.675 110.456 109.624 110.492 109.574 110.527C109.391 110.654 109.2 110.774 109.005 110.882C108.822 110.984 108.631 111.077 108.439 111.157C108.654 111.067 108.477 111.141 108.426 111.159C108.37 111.181 108.316 111.2 108.26 111.22C108.157 111.255 108.053 111.287 107.948 111.316C107.749 111.371 107.546 111.41 107.341 111.44C107.584 111.406 107.393 111.432 107.337 111.438C107.279 111.444 107.219 111.448 107.16 111.451C107.052 111.457 106.941 111.459 106.833 111.457C106.481 111.451 106.185 111.75 106.185 112.089C106.185 112.429 106.479 112.716 106.833 112.722C109.152 112.757 111.089 111.226 112.392 109.481C113.057 108.589 113.572 107.586 113.929 106.54C114.249 105.605 114.442 104.587 114.366 103.599C114.293 102.678 113.988 101.76 113.296 101.102C112.541 100.382 111.467 100.134 110.436 100.166C108.822 100.215 107.303 100.833 105.85 101.463C105.138 101.772 104.439 102.095 103.83 102.576C103.319 102.981 102.982 103.544 102.801 104.155C102.566 104.956 102.562 105.827 102.564 106.652C102.564 107.572 102.592 108.493 102.749 109.404C102.879 110.17 103.159 110.89 103.657 111.497C104.149 112.097 104.915 112.453 105.675 112.602C106.055 112.676 106.447 112.712 106.835 112.72C107.186 112.727 107.482 112.425 107.482 112.088C107.482 111.75 107.186 111.463 106.835 111.455L106.825 111.448Z" fill="#FF1D1D"/>
<path d="M209.539 88.7543L205.715 113.656L206.888 113.828L210.712 88.9261L209.539 88.7543Z" fill="#FF9022"/>
<path d="M209.531 88.7497L210.703 88.9225L210.588 86.926L210.548 86.2154L210.53 85.9131L210.195 86.8691L209.531 88.7497Z" fill="#CCC2B8"/>
<path d="M210.196 86.8691L210.59 86.926L210.55 86.2154L210.532 85.9131L210.196 86.8691Z" fill="#545352"/>
<g style="mix-blend-mode:multiply" opacity="0.5">
<path d="M209.532 88.7497L205.709 113.652L206.163 113.718L209.994 88.7655L210.4 86.8986L210.549 86.2154L210.531 85.9131L210.195 86.8691L209.532 88.7497Z" fill="#FF9022"/>
</g>
<path d="M202.618 90.3499V113.078C202.618 113.4 202.865 113.665 203.183 113.705C203.209 113.709 203.237 113.709 203.265 113.709C203.444 113.709 203.605 113.638 203.722 113.524C203.838 113.41 203.911 113.251 203.911 113.078V90.3499C203.911 90.0005 203.621 89.7197 203.263 89.7197C203.235 89.7197 203.209 89.7197 203.181 89.7237C203.034 89.7413 202.906 89.8081 202.805 89.9023C202.689 90.0162 202.616 90.1752 202.616 90.3479L202.618 90.3499Z" fill="#51B5BF"/>
<path d="M202.618 90.3499V93.5104H203.913V90.3499C203.913 90.0005 203.623 89.7197 203.265 89.7197C203.237 89.7197 203.211 89.7197 203.183 89.7237C203.036 89.7413 202.908 89.8081 202.807 89.9023C202.691 90.0162 202.618 90.1752 202.618 90.3479V90.3499Z" fill="#6FE9EF"/>
<path d="M203.913 93.4053H202.618V93.9392H203.913V93.4053Z" fill="#303535"/>
<path d="M203.731 93.4562C204.38 93.4287 204.957 93.6702 205.144 94.316C205.328 94.9599 205.125 95.7079 204.969 96.336C204.798 97.0212 204.547 97.7082 204.476 98.413C204.46 98.5857 204.44 98.8508 204.555 98.9744C204.697 99.1276 205.071 99 205.252 98.943C205.556 98.8468 205.684 99.3121 205.383 99.4063C204.864 99.5692 204.233 99.6026 204.024 99.0058C203.827 98.4405 204.094 97.6984 204.241 97.1507C204.434 96.4244 204.683 95.6843 204.711 94.9285C204.738 94.2591 204.432 93.9057 203.731 93.9371C203.413 93.9509 203.415 93.4699 203.731 93.4562Z" fill="#303535"/>
<g style="mix-blend-mode:multiply" opacity="0.3">
<path d="M202.618 90.3489V113.078C202.618 113.399 202.865 113.664 203.183 113.704V89.7227C203.036 89.7403 202.908 89.8071 202.807 89.9013C202.691 90.0152 202.618 90.1742 202.618 90.3469V90.3489Z" fill="#303535"/>
</g>
<path d="M198.803 87.8067L201.255 113.309C201.289 113.67 201.595 113.943 201.956 113.953C201.986 113.953 202.017 113.953 202.049 113.949C202.25 113.931 202.423 113.835 202.541 113.696C202.66 113.555 202.724 113.37 202.706 113.176L200.254 87.6732C200.216 87.2825 199.86 86.9959 199.46 87.0313C199.428 87.0332 199.398 87.0391 199.368 87.045C199.205 87.0803 199.066 87.1667 198.966 87.2845C198.847 87.4258 198.783 87.6104 198.801 87.8047L198.803 87.8067Z" fill="#4996EA"/>
<path d="M198.803 87.8067L199.145 91.352L200.596 91.2185L200.254 87.6732C200.216 87.2825 199.86 86.9959 199.46 87.0313C199.428 87.0332 199.398 87.0391 199.368 87.045C199.205 87.0803 199.066 87.1667 198.966 87.2845C198.847 87.4258 198.783 87.6104 198.801 87.8047L198.803 87.8067Z" fill="#FF2B15"/>
<path d="M200.587 91.0924L199.137 91.2256L199.194 91.8256L200.645 91.6924L200.587 91.0924Z" fill="#FF9022"/>
<path d="M200.387 91.1798C201.11 91.0817 201.786 91.2937 202.063 91.9984C202.34 92.7012 202.194 93.5611 202.085 94.2835C201.967 95.0707 201.76 95.8677 201.756 96.6647C201.756 96.861 201.762 97.1594 201.904 97.287C202.081 97.4441 202.487 97.2635 202.684 97.181C203.014 97.0436 203.209 97.5501 202.881 97.6875C202.318 97.9231 201.611 98.0271 201.313 97.3773C201.032 96.7629 201.253 95.903 201.358 95.2748C201.496 94.4386 201.695 93.5846 201.645 92.7326C201.601 91.9788 201.221 91.6157 200.437 91.7217C200.081 91.7707 200.031 91.2309 200.385 91.1818L200.387 91.1798Z" fill="#FF9022"/>
<g style="mix-blend-mode:multiply" opacity="0.3">
<path d="M198.803 87.8076L201.255 113.31C201.289 113.671 201.595 113.944 201.956 113.954L199.368 87.0459C199.205 87.0812 199.066 87.1676 198.966 87.2854C198.847 87.4267 198.783 87.6113 198.801 87.8056L198.803 87.8076Z" fill="#303535"/>
</g>
<path d="M203.363 112.822L198.437 91.2649L197.594 89.29L196.945 89.4314L197.09 91.5594L202.016 113.116C202.099 113.479 202.468 113.707 202.838 113.626C202.868 113.621 202.894 113.613 202.923 113.603C203.069 113.55 203.19 113.454 203.27 113.332C203.365 113.187 203.403 113.006 203.361 112.824L203.363 112.822Z" fill="#FF2B15"/>
<path d="M203.364 112.821L202.612 109.533L201.266 109.828L202.017 113.116C202.1 113.479 202.47 113.707 202.839 113.626C202.867 113.62 202.896 113.612 202.924 113.603C203.07 113.55 203.191 113.453 203.271 113.33C203.366 113.185 203.404 113.004 203.362 112.821H203.364Z" fill="#F9A826"/>
<path d="M202.512 109.082L200.753 109.466L200.88 110.021L202.639 109.638L202.512 109.082Z" fill="#303535"/>
<path d="M197.595 89.2866L196.812 87.4531L196.946 89.428L197.595 89.2866Z" fill="#303535"/>
<path d="M198.437 91.261L197.594 89.2861L196.945 89.4275L197.09 91.5555L198.437 91.261Z" fill="white"/>
<g style="mix-blend-mode:multiply" opacity="0.3">
<path d="M203.364 112.822L198.438 91.2649L197.596 89.29L197.381 89.3372L202.924 113.603C203.071 113.55 203.191 113.454 203.272 113.332C203.366 113.187 203.404 113.006 203.362 112.824L203.364 112.822Z" fill="#303535"/>
</g>
<path d="M199.412 102.114C199.384 101.992 199.261 101.916 199.137 101.943C199.012 101.971 198.934 102.09 198.962 102.212L200.706 109.85C200.734 109.972 200.857 110.049 200.982 110.021C201.106 109.994 201.185 109.874 201.157 109.752L199.412 102.114Z" fill="#303535"/>
<path d="M198.978 99.6377V114.17C198.978 114.808 199.506 115.325 200.159 115.325H208.345C208.997 115.325 209.527 114.808 209.527 114.17V99.6377H198.98H198.978ZM202.694 101.365H202.191V101.022H202.694V101.365ZM202.694 102.504H202.191V101.744H202.694V102.504ZM202.694 103.642H202.191V102.883H202.694V103.642ZM202.694 104.781H202.191V104.021H202.694V104.781ZM202.694 105.92H202.191V105.16H202.694V105.92ZM202.694 107.058H202.191V106.298H202.694V107.058ZM203.449 101.361H202.947V101.018H203.449V101.361ZM203.449 102.5H202.947V101.74H203.449V102.5ZM203.449 103.638H202.947V102.879H203.449V103.638ZM203.449 104.777H202.947V104.017H203.449V104.777ZM203.449 105.916H202.947V105.156H203.449V105.916ZM203.449 107.054H202.947V106.295H203.449V107.054ZM203.449 108.193H202.947V107.433H203.449V108.193ZM203.449 109.331H202.947V108.572H203.449V109.331ZM204.203 101.355H203.701V101.012H204.203V101.355ZM204.203 102.494H203.701V101.734H204.203V102.494ZM204.203 103.633H203.701V102.873H204.203V103.633ZM204.203 104.771H203.701V104.011H204.203V104.771ZM204.203 105.91H203.701V105.15H204.203V105.91ZM204.203 107.048H203.701V106.289H204.203V107.048ZM204.203 108.187H203.701V107.427H204.203V108.187ZM204.203 109.326H203.701V108.566H204.203V109.326ZM204.203 110.464H203.701V109.704H204.203V110.464ZM204.203 111.603H203.701V110.843H204.203V111.603ZM204.957 101.348H204.454V101.004H204.957V101.348ZM204.957 102.486H204.454V101.726H204.957V102.486ZM204.957 103.625H204.454V102.865H204.957V103.625ZM204.957 104.763H204.454V104.004H204.957V104.763ZM204.957 105.902H204.454V105.142H204.957V105.902ZM204.957 107.04H204.454V106.281H204.957V107.04ZM204.957 108.179H204.454V107.419H204.957V108.179ZM204.957 109.318H204.454V108.558H204.957V109.318ZM204.957 110.456H204.454V109.697H204.957V110.456ZM204.957 111.595H204.454V110.835H204.957V111.595ZM204.957 112.733H204.454V111.974H204.957V112.733ZM205.711 101.34H205.208V100.996H205.711V101.34ZM205.711 102.478H205.208V101.719H205.711V102.478ZM205.711 103.617H205.208V102.857H205.711V103.617ZM205.711 104.755H205.208V103.996H205.711V104.755ZM205.711 105.894H205.208V105.134H205.711V105.894ZM205.711 107.033H205.208V106.273H205.711V107.033ZM205.711 108.171H205.208V107.412H205.711V108.171ZM205.711 109.31H205.208V108.55H205.711V109.31ZM205.711 110.448H205.208V109.689H205.711V110.448ZM205.711 111.587H205.208V110.827H205.711V111.587ZM205.711 112.726H205.208V111.966H205.711V112.726ZM205.711 113.444H205.208V113.106H205.711V113.444ZM206.466 101.332H205.964V100.988H206.466V101.332ZM206.466 102.47H205.964V101.711H206.466V102.47ZM206.466 103.609H205.964V102.849H206.466V103.609ZM206.466 104.748H205.964V103.988H206.466V104.748ZM206.466 105.886H205.964V105.126H206.466V105.886ZM206.466 107.025H205.964V106.265H206.466V107.025ZM206.466 108.163H205.964V107.404H206.466V108.163ZM206.466 109.302H205.964V108.542H206.466V109.302ZM206.466 110.441H205.964V109.681H206.466V110.441ZM206.466 111.579H205.964V110.819H206.466V111.579ZM206.466 112.718H205.964V111.958H206.466V112.718ZM206.466 113.436H205.964V113.099H206.466V113.436ZM207.22 101.324H206.717V100.98H207.22V101.324ZM207.22 102.463H206.717V101.703H207.22V102.463ZM207.22 103.601H206.717V102.841H207.22V103.601ZM207.22 104.74H206.717V103.98H207.22V104.74ZM207.22 105.878H206.717V105.119H207.22V105.878ZM207.22 107.017H206.717V106.257H207.22V107.017ZM207.22 108.156H206.717V107.396H207.22V108.156ZM207.22 109.294H206.717V108.534H207.22V109.294ZM207.22 110.433H206.717V109.673H207.22V110.433ZM207.22 111.571H206.717V110.812H207.22V111.571ZM207.22 112.71H206.717V111.95H207.22V112.71ZM207.22 113.428H206.717V113.091H207.22V113.428ZM207.974 101.316H207.471V100.973H207.974V101.316ZM207.974 102.455H207.471V101.695H207.974V102.455ZM207.974 103.593H207.471V102.834H207.974V103.593ZM207.974 104.732H207.471V103.972H207.974V104.732ZM207.974 105.87H207.471V105.111H207.974V105.87ZM207.974 107.009H207.471V106.249H207.974V107.009ZM207.974 108.148H207.471V107.388H207.974V108.148ZM207.974 109.286H207.471V108.527H207.974V109.286ZM207.974 110.425H207.471V109.665H207.974V110.425ZM207.974 111.563H207.471V110.804H207.974V111.563ZM207.974 112.702H207.471V111.942H207.974V112.702ZM207.974 113.421H207.471V113.083H207.974V113.421ZM208.5 101.308H208.225V100.965H208.5V101.308ZM208.5 102.447H208.225V101.687H208.5V102.447ZM208.5 103.585H208.225V102.826H208.5V103.585ZM208.5 104.724H208.225V103.964H208.5V104.724ZM208.5 105.863H208.225V105.103H208.5V105.863ZM208.5 107.001H208.225V106.242H208.5V107.001ZM208.5 108.14H208.225V107.38H208.5V108.14ZM208.5 109.278H208.225V108.519H208.5V109.278ZM208.5 110.417H208.225V109.657H208.5V110.417ZM208.5 111.556H208.225V110.796H208.5V111.556ZM208.5 112.694H208.225V111.934H208.5V112.694ZM208.5 113.413H208.225V113.075H208.5V113.413ZM204.452 113.075H204.955V113.413H204.452V113.075ZM203.699 113.075H204.201V113.413H203.699V113.075ZM203.699 111.936H204.201V112.696H203.699V111.936ZM202.943 113.075H203.445V113.413H202.943V113.075ZM202.943 111.936H203.445V112.696H202.943V111.936ZM202.943 110.798H203.445V111.558H202.943V110.798ZM202.943 109.659H203.445V110.419H202.943V109.659ZM202.189 113.077H202.692V113.415H202.189V113.077ZM202.189 111.938H202.692V112.698H202.189V111.938ZM202.189 110.8H202.692V111.56H202.189V110.8ZM202.189 109.661H202.692V110.421H202.189V109.661ZM202.189 108.523H202.692V109.282H202.189V108.523ZM202.189 107.384H202.692V108.144H202.189V107.384ZM201.436 113.081H201.938V113.419H201.436V113.081ZM201.436 111.942H201.938V112.702H201.436V111.942ZM201.436 110.804H201.938V111.563H201.436V110.804ZM201.436 109.665H201.938V110.425H201.436V109.665ZM201.436 108.527H201.938V109.286H201.436V108.527ZM201.436 107.388H201.938V108.148H201.436V107.388ZM201.436 106.249H201.938V107.009H201.436V106.249ZM201.436 105.111H201.938V105.87H201.436V105.111ZM201.436 103.972H201.938V104.732H201.436V103.972ZM201.436 102.834H201.938V103.593H201.436V102.834ZM201.436 101.695H201.938V102.455H201.436V101.695ZM201.436 100.971H201.938V101.314H201.436V100.971ZM200.682 113.089H201.184V113.426H200.682V113.089ZM200.682 111.95H201.184V112.71H200.682V111.95ZM200.682 110.812H201.184V111.571H200.682V110.812ZM200.682 109.673H201.184V110.433H200.682V109.673ZM200.682 108.534H201.184V109.294H200.682V108.534ZM200.682 107.396H201.184V108.156H200.682V107.396ZM200.682 106.257H201.184V107.017H200.682V106.257ZM200.682 105.119H201.184V105.878H200.682V105.119ZM200.682 103.98H201.184V104.74H200.682V103.98ZM200.682 102.841H201.184V103.601H200.682V102.841ZM200.682 101.703H201.184V102.463H200.682V101.703ZM200.682 100.978H201.184V101.322H200.682V100.978ZM200.159 113.097H200.431V113.434H200.159V113.097ZM200.159 111.958H200.431V112.718H200.159V111.958ZM200.159 110.819H200.431V111.579H200.159V110.819ZM200.159 109.681H200.431V110.441H200.159V109.681ZM200.159 108.542H200.431V109.302H200.159V108.542ZM200.159 107.404H200.431V108.163H200.159V107.404ZM200.159 106.265H200.431V107.025H200.159V106.265ZM200.159 105.126H200.431V105.886H200.159V105.126ZM200.159 103.988H200.431V104.748H200.159V103.988ZM200.159 102.849H200.431V103.609H200.159V102.849ZM200.159 101.711H200.431V102.47H200.159V101.711ZM200.159 100.986H200.431V101.33H200.159V100.986Z" fill="#151D2B"/>
<g style="mix-blend-mode:screen" opacity="0.5">
<path d="M201.894 104.785C201.894 104.913 201.898 105.038 201.904 105.164H201.942V105.87C201.99 106.546 202.076 107.198 202.193 107.82V107.443H202.695V108.203H202.269C202.298 108.33 202.326 108.458 202.356 108.582H202.695V109.341H202.561C202.599 109.469 202.639 109.596 202.681 109.72C202.687 109.736 202.691 109.752 202.697 109.765C202.776 109.999 202.86 110.227 202.949 110.446V109.72H203.451V110.48H202.961C203.013 110.609 203.067 110.735 203.124 110.859H203.451V111.518C203.542 111.685 203.636 111.846 203.735 111.999H204.207V112.659C204.348 112.834 204.494 112.993 204.643 113.14H204.961V113.422C205.555 113.903 206.207 114.17 206.892 114.17C207.861 114.17 208.763 113.638 209.529 112.72V99.6377H202.579C202.444 100.077 202.328 100.541 202.231 101.022H202.695V101.365H202.193V101.222C202.076 101.844 201.99 102.496 201.942 103.171V103.644H201.914C201.908 103.77 201.904 103.898 201.9 104.023H201.942V104.783H201.896L201.894 104.785ZM208.229 113.14H208.504V113.477H208.229V113.14ZM208.229 112.001H208.504V112.761H208.229V112.001ZM208.229 110.863H208.504V111.622H208.229V110.863ZM208.229 109.724H208.504V110.484H208.229V109.724ZM208.229 108.585H208.504V109.345H208.229V108.585ZM208.229 107.447H208.504V108.207H208.229V107.447ZM208.229 106.308H208.504V107.068H208.229V106.308ZM208.229 105.17H208.504V105.929H208.229V105.17ZM208.229 104.031H208.504V104.791H208.229V104.031ZM208.229 102.892H208.504V103.652H208.229V102.892ZM208.229 101.754H208.504V102.514H208.229V101.754ZM208.229 101.03H208.504V101.373H208.229V101.03ZM207.475 113.148H207.977V113.485H207.475V113.148ZM207.475 112.009H207.977V112.769H207.475V112.009ZM207.475 110.87H207.977V111.63H207.475V110.87ZM207.475 109.732H207.977V110.492H207.475V109.732ZM207.475 108.593H207.977V109.353H207.475V108.593ZM207.475 107.455H207.977V108.214H207.475V107.455ZM207.475 106.316H207.977V107.076H207.475V106.316ZM207.475 105.178H207.977V105.937H207.475V105.178ZM207.475 104.039H207.977V104.799H207.475V104.039ZM207.475 102.9H207.977V103.66H207.475V102.9ZM207.475 101.762H207.977V102.521H207.475V101.762ZM207.475 101.037H207.977V101.381H207.475V101.037ZM206.721 113.156H207.224V113.493H206.721V113.156ZM206.721 112.017H207.224V112.777H206.721V112.017ZM206.721 110.878H207.224V111.638H206.721V110.878ZM206.721 109.74H207.224V110.499H206.721V109.74ZM206.721 108.601H207.224V109.361H206.721V108.601ZM206.721 107.463H207.224V108.222H206.721V107.463ZM206.721 106.324H207.224V107.084H206.721V106.324ZM206.721 105.185H207.224V105.945H206.721V105.185ZM206.721 104.047H207.224V104.806H206.721V104.047ZM206.721 102.908H207.224V103.668H206.721V102.908ZM206.721 101.77H207.224V102.529H206.721V101.77ZM206.721 101.045H207.224V101.389H206.721V101.045ZM205.966 112.023H206.468V112.783H205.966V112.023ZM205.966 110.884H206.468V111.644H205.966V110.884ZM205.966 109.746H206.468V110.505H205.966V109.746ZM205.966 108.607H206.468V109.367H205.966V108.607ZM205.966 107.468H206.468V108.228H205.966V107.468ZM205.966 106.33H206.468V107.09H205.966V106.33ZM205.966 105.191H206.468V105.951H205.966V105.191ZM205.966 104.053H206.468V104.812H205.966V104.053ZM205.966 102.914H206.468V103.674H205.966V102.914ZM205.966 101.775H206.468V102.535H205.966V101.775ZM205.966 101.051H206.468V101.395H205.966V101.051ZM205.212 113.169H205.714V113.507H205.212V113.169ZM205.212 112.031H205.714V112.79H205.212V112.031ZM205.212 110.892H205.714V111.652H205.212V110.892ZM205.212 109.753H205.714V110.513H205.212V109.753ZM205.212 108.615H205.714V109.375H205.212V108.615ZM205.212 107.476H205.714V108.236H205.212V107.476ZM205.212 106.338H205.714V107.097H205.212V106.338ZM205.212 105.199H205.714V105.959H205.212V105.199ZM205.212 104.061H205.714V104.82H205.212V104.061ZM205.212 102.922H205.714V103.682H205.212V102.922ZM205.212 101.783H205.714V102.543H205.212V101.783ZM205.212 101.059H205.714V101.403H205.212V101.059ZM204.458 112.037H204.961V112.796H204.458V112.037ZM204.458 110.898H204.961V111.658H204.458V110.898ZM204.458 109.759H204.961V110.519H204.458V109.759ZM204.458 108.621H204.961V109.38H204.458V108.621ZM204.458 107.482H204.961V108.242H204.458V107.482ZM204.458 106.344H204.961V107.103H204.458V106.344ZM204.458 105.205H204.961V105.965H204.458V105.205ZM204.458 104.066H204.961V104.826H204.458V104.066ZM204.458 102.928H204.961V103.688H204.458V102.928ZM204.458 101.789H204.961V102.549H204.458V101.789ZM204.458 101.065H204.961V101.408H204.458V101.065ZM203.704 110.904H204.207V111.664H203.704V110.904ZM203.704 109.765H204.207V110.525H203.704V109.765ZM203.704 108.627H204.207V109.386H203.704V108.627ZM203.704 107.488H204.207V108.248H203.704V107.488ZM203.704 106.349H204.207V107.109H203.704V106.349ZM203.704 105.211H204.207V105.971H203.704V105.211ZM203.704 104.072H204.207V104.832H203.704V104.072ZM203.704 102.934H204.207V103.693H203.704V102.934ZM203.704 101.795H204.207V102.555H203.704V101.795ZM203.704 101.071H204.207V101.414H203.704V101.071ZM202.949 108.631H203.451V109.39H202.949V108.631ZM202.949 107.492H203.451V108.252H202.949V107.492ZM202.949 106.353H203.451V107.113H202.949V106.353ZM202.949 105.215H203.451V105.975H202.949V105.215ZM202.949 104.076H203.451V104.836H202.949V104.076ZM202.949 102.938H203.451V103.697H202.949V102.938ZM202.949 101.799H203.451V102.559H202.949V101.799ZM202.949 101.075H203.451V101.418H202.949V101.075ZM202.195 106.355H202.697V107.115H202.195V106.355ZM202.195 105.217H202.697V105.977H202.195V105.217ZM202.195 104.078H202.697V104.838H202.195V104.078ZM202.195 102.94H202.697V103.699H202.195V102.94ZM202.195 101.801H202.697V102.561H202.195V101.801Z" fill="#243144"/>
</g>
<g style="mix-blend-mode:screen" opacity="0.5">
<path d="M201.025 100.098C201.025 100.225 201.132 100.328 201.263 100.328H208.663C208.793 100.328 208.898 100.223 208.898 100.098C208.898 99.9703 208.791 99.8662 208.663 99.8662H201.263C201.132 99.8662 201.025 99.9703 201.025 100.098Z" fill="#243144"/>
</g>
<path d="M127.113 114.507H151.446C151.452 114.475 151.457 114.446 151.461 114.416C151.535 113.884 151.3 113.46 150.823 113.129C150.331 112.787 149.583 112.544 148.651 112.381C145.087 111.758 138.843 112.31 133.983 113.03C132.554 113.242 131.244 113.468 130.158 113.684C129.708 113.774 129.298 113.861 128.932 113.945C128.932 113.945 128.932 113.945 128.93 113.945C128.653 114.008 128.404 114.069 128.183 114.128C128.102 114.149 128.026 114.169 127.953 114.191C127.923 114.198 127.893 114.208 127.863 114.216C127.736 114.253 127.624 114.287 127.525 114.322C127.429 114.356 127.344 114.387 127.278 114.416C127.204 114.45 127.149 114.479 127.115 114.507H127.113Z" fill="white"/>
<path d="M129.13 114.541C130.171 113.923 151.608 111.316 150.746 114.541H129.13Z" fill="#B3BAB1"/>
<path d="M133.981 113.033C138.839 112.313 145.086 111.763 148.649 112.383C147.817 112.05 146.967 111.783 146.117 111.573C144.469 111.162 142.835 111.316 141.175 111.531C138.755 111.846 136.361 112.399 133.981 113.033Z" fill="#B3BAB1"/>
<path d="M128.105 114.415C128.105 114.447 128.112 114.478 128.122 114.506C128.126 114.515 128.13 114.523 128.134 114.533C128.168 114.602 128.23 114.649 128.31 114.625C128.327 114.621 128.343 114.616 128.361 114.612C128.431 114.592 128.501 114.572 128.572 114.551C128.626 114.535 128.68 114.521 128.735 114.506C128.743 114.504 128.751 114.502 128.761 114.498C128.859 114.47 128.958 114.443 129.054 114.415C129.054 114.415 129.056 114.415 129.058 114.415C129.141 114.392 129.223 114.368 129.305 114.345C129.404 114.315 129.504 114.288 129.603 114.26C129.8 114.203 129.999 114.146 130.196 114.091C131.456 113.732 132.718 113.371 133.984 113.033C136.364 112.399 138.758 111.846 141.178 111.532C142.838 111.316 144.474 111.164 146.12 111.573C146.97 111.785 147.82 112.052 148.652 112.384C149.309 112.647 149.952 112.951 150.578 113.3C150.698 113.369 150.811 113.253 150.827 113.131C150.837 113.061 150.815 112.99 150.744 112.949C150.304 112.702 149.856 112.482 149.4 112.281C149.1 112.15 148.799 112.022 148.493 111.903C147.297 111.429 146.061 111.057 144.819 110.923C144.819 110.923 144.819 110.923 144.817 110.923C144.021 110.837 143.217 110.909 142.422 110.984C141.493 111.072 140.567 111.2 139.644 111.359C136.45 111.908 133.303 112.79 130.162 113.687C129.764 113.801 129.364 113.915 128.966 114.029C128.813 114.072 128.662 114.115 128.509 114.158C128.463 114.172 128.419 114.184 128.375 114.195C128.327 114.209 128.278 114.223 128.23 114.237C128.212 114.243 128.196 114.25 128.182 114.26C128.15 114.284 128.13 114.317 128.12 114.356C128.114 114.376 128.112 114.398 128.112 114.419L128.105 114.415Z" fill="white"/>
<path d="M128.931 113.946C129.296 113.864 129.706 113.775 130.157 113.685C133.298 112.788 136.445 111.906 139.639 111.357C140.562 111.198 141.488 111.07 142.417 110.982C143.211 110.907 144.017 110.835 144.812 110.921C144.437 110.844 144.061 110.786 143.687 110.74C142.017 110.54 140.284 110.752 138.62 110.968C135.288 111.398 132.046 112.433 128.931 113.944V113.946Z" fill="#B3BAB1"/>
<path d="M127.86 114.216C127.868 114.336 127.943 114.44 128.055 114.383C128.075 114.374 128.093 114.364 128.114 114.354C128.16 114.33 128.206 114.307 128.252 114.283C128.302 114.258 128.353 114.232 128.403 114.207C128.437 114.189 128.469 114.173 128.503 114.156C128.644 114.085 128.787 114.014 128.928 113.946C128.928 113.946 128.928 113.946 128.93 113.946C132.045 112.434 135.287 111.399 138.619 110.97C140.283 110.754 142.014 110.542 143.686 110.742C144.06 110.787 144.436 110.846 144.811 110.922H144.813C145.993 111.16 147.165 111.555 148.246 112.159C148.397 112.244 148.532 112.043 148.487 111.902C148.475 111.865 148.451 111.831 148.411 111.808C146.962 110.997 145.364 110.536 143.784 110.347C142.078 110.143 140.317 110.335 138.617 110.561C135.21 111.013 131.904 112.055 128.721 113.61C128.467 113.734 128.216 113.861 127.965 113.991C127.943 114.002 127.925 114.016 127.911 114.036C127.88 114.071 127.864 114.118 127.858 114.165C127.858 114.183 127.856 114.199 127.858 114.216H127.86Z" fill="white"/>
<path d="M106.693 112.639C106.715 112.757 106.822 112.859 106.934 112.78C107.153 112.631 107.384 112.509 107.623 112.409C108.098 112.209 108.598 112.085 109.083 111.977C111.894 111.351 114.825 111.306 117.663 111.647C120.342 111.969 122.94 112.757 125.525 113.634C125.971 113.785 126.417 113.94 126.864 114.095C127.085 114.172 127.304 114.249 127.523 114.325C127.613 114.357 127.704 114.39 127.794 114.419C127.881 114.449 127.967 114.48 128.054 114.51C128.08 114.519 128.106 114.527 128.132 114.537C128.206 114.563 128.283 114.59 128.357 114.616C128.371 114.62 128.383 114.625 128.397 114.629C128.474 114.655 128.534 114.618 128.568 114.555C128.576 114.541 128.582 114.525 128.588 114.51C128.598 114.48 128.602 114.449 128.602 114.419C128.602 114.419 128.602 114.419 128.602 114.417C128.602 114.339 128.564 114.264 128.488 114.239C128.46 114.229 128.431 114.219 128.403 114.209C128.391 114.205 128.381 114.201 128.369 114.197C128.307 114.176 128.244 114.154 128.18 114.133C128.092 114.101 128.003 114.072 127.913 114.04C127.621 113.938 127.328 113.836 127.037 113.734C126.074 113.397 125.113 113.061 124.146 112.747C120.927 111.7 117.632 111.011 114.296 111.039C112.929 111.051 111.557 111.147 110.2 111.363C109.056 111.543 107.796 111.734 106.769 112.433C106.697 112.482 106.679 112.566 106.693 112.643V112.639Z" fill="white"/>
<path d="M107.623 112.409C111.994 111.575 120.751 112.688 125.525 113.634C122.94 112.755 120.341 111.969 117.662 111.647C114.824 111.306 111.894 111.351 109.082 111.977C108.6 112.085 108.097 112.209 107.623 112.409Z" fill="#B3BAB1"/>
<path d="M105.008 114.419C105.012 114.448 105.018 114.48 105.022 114.509H128.766C128.766 114.509 128.76 114.503 128.756 114.501C128.722 114.476 128.672 114.448 128.608 114.419C128.606 114.419 128.604 114.419 128.602 114.417C128.513 114.376 128.395 114.333 128.25 114.285C128.226 114.278 128.2 114.27 128.174 114.26C128.103 114.238 128.029 114.215 127.948 114.193C127.92 114.185 127.89 114.176 127.86 114.168C127.597 114.093 127.281 114.015 126.925 113.932C126.513 113.836 126.041 113.736 125.525 113.634C120.751 112.689 111.996 111.576 107.623 112.409C107.285 112.474 106.974 112.55 106.692 112.638C105.543 113 104.894 113.573 105.008 114.419Z" fill="white"/>
<path d="M127.261 114.329C126.272 113.757 105.9 111.345 106.718 114.329H127.261Z" fill="#B3BAB1"/>
<path d="M104.441 114.964C104.441 115.235 104.644 115.455 104.894 115.455H151.751C152 115.455 152.203 115.235 152.203 114.964C152.203 114.693 152 114.474 151.751 114.474H104.894C104.644 114.474 104.441 114.693 104.441 114.964Z" fill="#4996EA"/>
<path d="M126.927 115.055C126.857 114.871 126.814 114.663 126.814 114.445C126.814 113.658 127.327 113.02 127.96 113.02C128.593 113.02 129.106 113.658 129.106 114.445C129.106 114.663 129.065 114.871 128.993 115.055H126.927Z" fill="#4996EA"/>
<path d="M111.368 115.445L133.983 115.5L136.141 115.133V114.483L133.987 114.154L111.372 114.099C110.992 114.099 110.683 114.399 110.681 114.77C110.681 114.799 110.681 114.827 110.685 114.856C110.705 115.01 110.775 115.145 110.88 115.247C111.004 115.369 111.177 115.445 111.366 115.445H111.368Z" fill="#FF2B15"/>
<path d="M111.368 115.445L114.817 115.453L114.821 114.106L111.37 114.099C110.99 114.099 110.681 114.399 110.679 114.77C110.679 114.799 110.679 114.827 110.685 114.856C110.705 115.01 110.775 115.143 110.88 115.247C111.004 115.369 111.177 115.445 111.366 115.445H111.368Z" fill="#F9A826"/>
<path d="M114.701 113.686L114.696 115.447L115.279 115.449L115.284 113.688L114.701 113.686Z" fill="#303535"/>
<path d="M136.14 115.132L138.143 114.789L136.142 114.482L136.14 115.132Z" fill="#303535"/>
<path d="M133.981 115.499L136.14 115.132L136.142 114.482L133.985 114.152L133.981 115.499Z" fill="white"/>
<g style="mix-blend-mode:multiply" opacity="0.3">
<path d="M111.368 115.443L133.983 115.498L136.141 115.131V114.917L110.687 114.856C110.707 115.01 110.777 115.145 110.881 115.247C111.006 115.369 111.179 115.445 111.368 115.445V115.443Z" fill="#303535"/>
</g>
<path d="M122.929 114.037C123.056 114.037 123.16 113.936 123.16 113.811C123.16 113.687 123.058 113.585 122.929 113.585L114.916 113.565C114.789 113.565 114.685 113.666 114.685 113.791C114.685 113.917 114.787 114.017 114.916 114.017L122.929 114.037Z" fill="#303535"/>
<path d="M243.45 122.187L245.962 134.65V167.999H243.645L232.462 122.187H243.45Z" fill="#AFAEA7"/>
<path d="M245.962 161.825L237.036 122.187H243.45L245.962 134.65V161.825Z" fill="#91908A"/>
<path d="M196.088 167.998L188.438 121.492H199.412L205.086 167.998H196.088Z" fill="#AFAEA7"/>
<path d="M199.78 167.998L193.007 121.492H199.412L205.086 167.998H199.78Z" fill="#91908A"/>
<path d="M2.80371 167.999L12.6962 122.187H23.684L11.842 167.999H2.80371Z" fill="#AFAEA7"/>
<path d="M2.80371 167.999L12.6962 122.187H19.1096L8.13382 167.999H2.80371Z" fill="#91908A"/>
<path d="M50.3232 167.998L56.6723 121.492H67.6461L59.3213 167.998H50.3232Z" fill="#AFAEA7"/>
<path d="M50.3232 167.998L56.6723 121.492H63.0777L55.6292 167.998H50.3232Z" fill="#91908A"/>
<path d="M243.314 117.405H12.8467V126.249H243.314V117.405Z" fill="#91908A"/>
<path d="M9.31934 116.576V118.51C9.31934 119.274 10.1193 119.892 11.1081 119.892H224.67C225.659 119.892 226.459 119.274 226.459 118.51V116.576C226.459 115.813 225.659 115.194 224.67 115.194H11.1081C10.1193 115.194 9.31934 115.813 9.31934 116.576Z" fill="#AFAEA7"/>
<path d="M188.135 115.192H245.187C245.46 115.192 245.721 115.218 245.964 115.265V119.819C245.719 119.866 245.458 119.892 245.187 119.892H188.135C186.789 119.892 185.697 119.274 185.697 118.51V116.576C185.697 115.813 186.789 115.194 188.135 115.194V115.192Z" fill="#91908A"/>
<path d="M73.8309 110.645L100.889 120.275C98.8454 123.175 97.5571 124.741 93.7806 125.415C90.4121 126.014 86.5573 125.701 83.233 125.215C80.0634 124.751 76.3392 123.915 74.6851 120.947C73.3385 118.528 72.8481 113.253 73.8309 110.645Z" fill="#DDE1E8"/>
<path d="M70.0273 44.7119L70.0937 51.4492L70.1017 52.3444C71.1569 52.2188 72.3125 52.0912 73.2109 51.6554C73.8018 51.3687 74.1495 51.1096 74.2581 50.8014C74.3726 50.4755 74.2199 50.0927 73.8018 49.5607C72.8472 48.3436 70.0374 46.1626 70.0273 44.7119Z" fill="#FFB278"/>
<path d="M69.8193 50.9549L70.1047 52.3428C71.1599 52.2172 72.3156 52.0896 73.214 51.6537C73.8049 51.3671 74.1526 51.108 74.2611 50.7998C72.9245 51.534 71.0433 51.3907 69.8213 50.9549H69.8193Z" fill="#E5804E"/>
<path d="M40.4028 48.2169C41.1364 50.5255 42.0931 52.9539 43.3372 55.1702C43.9803 56.3147 44.7019 57.4042 45.5078 58.3897C47.6724 61.032 50.6309 62.1627 53.8245 62.9676C54.9983 63.264 56.0776 63.586 57.1327 63.904C57.9327 64.1454 58.7205 64.3849 59.5204 64.6087C60.459 64.8718 61.4177 65.1152 62.4427 65.3154C62.4669 65.3194 62.491 65.3253 62.5151 65.3292C63.8115 65.5785 66.3599 66.0693 68.3416 65.6708C69.019 65.5333 69.63 65.2938 70.1023 64.9052C70.5464 64.54 70.87 64.0453 71.0107 63.3798C71.284 62.092 71.2077 59.9385 71.2077 59.6932C71.2077 59.0061 71.887 58.2797 72.1865 57.575C72.3352 57.2256 72.3915 56.882 72.2247 56.5522C72.0398 56.1851 71.1414 56.4717 71.0911 56.0379C71.0911 56.032 71.0911 56.0281 71.0911 56.0222C71.0891 55.9731 72.5583 56.2558 72.4558 55.4333C72.4176 55.1349 72.3814 54.8011 72.3453 54.4497C72.1905 52.9637 72.0478 51.1577 71.9694 50.3744C71.5313 45.9908 70.0942 46.6111 69.9696 45.0053C69.9113 44.2397 70.4299 43.2896 70.8278 42.4003C71.4931 40.9143 70.4681 39.8012 69.8953 38.4486C69.4249 37.3375 65.763 29.9563 65.4656 30.1546L63.8818 28.9453C61.8297 27.7832 60.455 27.3179 58.1497 27.1609C54.7752 26.9332 52.0358 26.7408 48.7577 28.0345C44.33 29.7816 40.449 32.5181 39.5104 37.3434C38.7567 41.2185 39.227 44.5126 40.4028 48.213V48.2169Z" fill="#FFB278"/>
<path d="M68.0627 45.1313C68.1792 44.8015 68.3541 44.4128 68.4727 44.2263C68.744 43.8042 69.1962 43.3684 69.6545 43.2408C69.7811 43.2055 69.9057 43.2212 70.0283 43.2703C70.0343 43.4411 70.0444 43.6079 70.0544 43.7669C70.0926 44.3814 70.165 44.9919 70.2876 45.5926C69.6203 45.7359 68.8485 45.7516 68.2455 45.6908C68.1109 45.679 68.0928 46.1992 67.9782 46.1796C67.9782 46.1796 67.8275 45.8007 68.0627 45.1313Z" fill="#E5804E"/>
<path d="M68.1864 45.8165C68.319 45.5514 68.4939 45.2315 68.6185 45.0803C68.7411 44.9272 68.8999 44.7741 69.0768 44.6386C69.3039 44.4659 69.5631 44.3226 69.8204 44.2597C69.9128 44.2381 70.0033 44.2362 70.0917 44.2499C70.152 44.884 70.2525 45.5122 70.4133 46.1306C70.0696 46.1993 69.6998 46.2405 69.338 46.2601C68.9903 46.2798 68.6507 46.2778 68.3552 46.2601C68.2226 46.2542 68.098 46.2425 67.9834 46.2287C67.9834 46.2287 68.0698 46.0422 68.1864 45.8145V45.8165Z" fill="white"/>
<path d="M69.0772 44.6386C69.3043 44.4659 69.5636 44.3226 69.8208 44.2597C69.9133 44.2381 70.0037 44.2362 70.0922 44.2499C70.1525 44.884 70.253 45.5122 70.4138 46.1306C70.0701 46.1993 69.7003 46.2405 69.3385 46.2601C69.2119 45.8852 69.0772 45.3434 69.0752 44.6367L69.0772 44.6386Z" fill="#260F0E"/>
<path d="M69.7371 45.3561C69.7653 45.5838 69.709 45.7781 69.6085 45.7899C69.51 45.8017 69.4055 45.627 69.3774 45.3993C69.3492 45.1715 69.4055 44.9772 69.506 44.9654C69.6045 44.9536 69.709 45.1283 69.7371 45.3561Z" fill="white"/>
<path d="M58.0674 53.6807C58.1056 56.1365 59.4039 62.1769 59.5225 64.6092C60.4611 64.8722 61.4198 65.1156 62.4448 65.3159C62.4689 65.3198 62.4931 65.3257 62.5172 65.3296C63.8135 65.5789 66.36 66.0697 68.3437 65.6712C64.4506 64.5522 59.2713 58.7199 58.0674 53.6807Z" fill="#E5804E"/>
<path d="M71.1433 41.2879C71.1111 41.9435 71.1232 42.6012 71.1694 43.2568C70.7534 43.3903 70.1947 43.3962 69.8068 43.4649C68.4481 43.7083 66.995 43.9675 65.769 44.5584C65.5941 44.046 65.4072 43.5356 65.2002 43.035C66.4624 41.4724 69.7786 40.1709 71.1433 41.2879Z" fill="#260F0E"/>
<path d="M42.4696 72.3614C43.6976 72.3182 58.7835 73.4843 61.8626 72.9327C62.0957 66.7705 57.664 53.0368 57.7745 52.279C55.6642 50.8833 52.0163 52.5656 51.3229 52.177L43.3398 55.1726L42.345 55.5456C42.2425 55.9638 42.566 56.6312 42.6886 57.0965C42.8836 57.8306 43.0544 58.5845 43.1871 59.3344C43.3921 60.4808 43.4363 61.6547 43.4765 62.7992C43.5509 64.8919 42.9962 70.3689 42.4736 72.3614H42.4696Z" fill="#FFB278"/>
<path d="M70.9975 27.0494C70.9975 27.0494 70.9835 27.0554 70.9775 27.0574C70.9795 27.0514 70.9815 27.0454 70.9855 27.0375C71.0393 26.9837 71.0433 26.9857 70.9994 27.0474L70.9975 27.0494Z" fill="#260F0E"/>
<path d="M34.8724 39.3706C34.8945 39.8044 34.9307 40.25 34.9829 40.7074C34.999 40.8527 35.0171 40.9979 35.0372 41.1452C35.3387 43.3851 36.0843 46.7105 37.1596 48.7757C38.3253 51.0117 39.0991 51.7086 40.3291 53.8483C41.4044 55.7211 42.4012 57.7686 43.0163 59.769C43.6574 59.7611 49.3573 61.738 55.0854 59.239C55.0934 59.235 54.4744 47.3368 54.8884 48.2084C56.3455 47.751 56.7797 48.1259 56.85 46.422C56.9485 44.1153 56.0541 41.7871 55.9757 39.4962C55.8933 37.0718 58.4257 36.7655 60.3974 36.367C60.4456 36.3572 60.4939 36.3474 60.5421 36.3376C61.2556 36.1884 62.0736 35.9999 62.9298 35.7624C62.9338 35.7624 62.9378 35.7604 62.9419 35.7585C62.962 35.7526 62.9841 35.7467 63.0042 35.7408C63.1629 35.6976 63.3237 35.6505 63.4845 35.6014C66.6922 34.6474 70.2637 32.9905 71.0797 30.1009C70.6476 30.2716 70.1753 30.3089 69.6648 30.2265C70.2054 29.2096 70.5451 28.1122 70.9752 27.0541C70.0648 27.4487 69.096 27.6902 68.0851 27.8688C68.8769 26.9167 69.3573 26.0157 69.8115 24.9124C66.1054 25.3737 59.6879 23.3871 55.2783 23.3675C50.2879 23.3439 34.1307 24.7848 34.8724 39.3706Z" fill="#260F0E"/>
<path d="M37.2936 30.6537C36.5118 29.7841 35.5451 28.9929 34.4477 28.6435C35.726 28.4354 37.0645 27.8916 38.2624 28.5807C38.5016 27.4696 39.2492 26.1582 40.0733 25.3809C39.9406 26.1308 41.5806 29.254 41.8841 30.0255C42.4208 31.3918 40.3607 33.938 39.1688 33.8634C37.3962 33.7534 36.1038 32.2203 34.3975 32.395C35.0647 31.4959 36.2284 30.8382 37.2936 30.6537Z" fill="#260F0E"/>
<path d="M63.4973 35.5039C63.3707 35.604 63.2039 35.6825 63.0029 35.7414C63.1617 35.6983 63.3225 35.6511 63.4833 35.6021L63.4953 35.5039H63.4973Z" fill="#160808"/>
<path d="M34.8711 39.3696C34.8933 39.8034 34.9294 40.249 34.9817 40.7064C34.9978 40.8517 35.0159 40.9969 35.036 41.1442C35.3374 43.3841 36.0831 46.7095 37.1584 48.7747C38.3241 51.0107 39.0979 51.7076 40.3279 53.8473C41.4031 55.7201 42.4 57.7676 43.015 59.768C43.6562 59.7601 49.3561 61.737 55.0842 59.238C55.0922 59.234 54.4732 47.3358 54.8872 48.2074C56.3443 47.75 58.1532 50.3766 58.8385 48.8081C60.2997 45.4669 59.9198 42.6047 59.8415 40.3158C59.7591 37.8913 58.4225 36.7645 60.3942 36.366C60.4424 36.3562 60.4906 36.3464 60.5389 36.3366C61.2524 36.1874 62.0704 35.9989 62.9266 35.7614C61.0996 36.2424 56.8287 35.306 55.1706 35.6436C52.6161 36.1638 51.4061 38.4842 49.7018 40.1567C48.1442 41.688 45.855 41.896 43.7788 42.1238C41.176 42.4084 38.927 41.8116 36.6499 40.4983C36.0549 40.1548 35.448 39.7818 34.8691 39.3696H34.8711Z" fill="#160808"/>
<path d="M59.2227 51.7321C58.9956 50.564 58.4851 49.08 58.4851 49.08C57.641 46.5299 54.7488 44.8279 53.7017 46.4003C52.6485 47.9787 53.0444 50.5935 53.7338 52.1365C54.4152 53.6579 56.3386 56.2629 58.1354 55.5542C59.6709 54.9496 59.4659 52.9845 59.2227 51.7321Z" fill="#E5804E"/>
<path d="M59.2227 50.9762C58.9956 49.8082 58.4851 48.3241 58.4851 48.3241C57.641 45.774 54.7488 44.072 53.7017 45.6445C52.6485 47.2228 53.0444 49.8376 53.7338 51.3806C54.4152 52.902 56.3386 55.507 58.1354 54.7983C59.6709 54.1937 59.4659 52.2287 59.2227 50.9762Z" fill="#FFB278"/>
<path d="M57.6968 48.6662C57.6285 48.3835 56.929 47.5021 56.7542 47.2685C55.4297 45.486 53.7334 46.3105 53.9424 48.4149C54.3202 46.5147 55.6608 47.8201 56.4869 48.7173C55.904 48.7879 55.8337 50.1032 56.0326 50.5959C56.3844 51.4656 57.0677 51.5775 57.7712 51.6305L57.7531 51.5578C57.54 50.9061 56.716 50.1287 57.0456 49.2198C57.2265 48.7212 57.8254 49.1904 57.6968 48.6662Z" fill="#E5804E"/>
<path d="M52.9891 144.931C53.1398 144.12 53.385 143.276 53.3388 142.864L77.8689 139.073C113.252 138.447 134.959 152.301 137.051 158.498C138.184 161.07 137.877 163.895 137.686 166.284C137.64 166.867 137.589 167.432 137.539 167.982H108.521C97.0268 166.939 84.9858 163.665 73.6644 163.543C67.8418 163.48 61.0104 163.086 56.3998 159.15C51.6023 155.053 51.9922 150.332 52.9911 144.933L52.9891 144.931Z" fill="#2E2E2E"/>
<path d="M96.2656 105.142C97.4836 105.234 99.2683 105.454 100.072 106.567C100.977 107.819 100.995 110.359 100.744 111.749C100.528 112.941 99.4351 114.692 98.6875 112.458C98.2755 111.227 98.4604 109.248 97.8775 108.279L96.2676 105.142H96.2656Z" fill="#FFB278"/>
<path d="M88.7428 89.5718C91.6691 87.1709 91.1264 96.9196 93.5101 96.1874L91.3254 98.1466C88.8292 97.5596 86.6043 91.3268 88.7428 89.5738V89.5718Z" fill="#FFB278"/>
<path d="M68.4766 69.5713C78.97 69.5301 82.1396 81.0063 87.3491 89.7361C91.5999 96.8602 94.9885 101.087 98.2304 108.499C99.1328 110.563 102.142 118.169 101.042 120.282C91.4009 138.796 63.0159 91.6364 60.2725 90.3604L68.4787 69.5693L68.4766 69.5713Z" fill="white"/>
<path d="M92.5557 98.249C93.9244 98.3531 95.9302 98.6004 96.8346 99.8509C97.8496 101.258 97.8717 104.113 97.5883 105.677C97.3451 107.018 96.1171 108.985 95.277 106.474C94.8127 105.09 95.0217 102.866 94.3665 101.777L92.5557 98.249Z" fill="#FFB278"/>
<path d="M94.6592 101.539C96.0279 101.643 98.0357 101.89 98.9381 103.141C99.9531 104.548 99.9752 107.403 99.6918 108.967C99.4486 110.308 98.2206 112.275 97.3805 109.764C96.9162 108.38 97.1253 106.156 96.4701 105.067L94.6592 101.539Z" fill="#FFB278"/>
<path d="M91.2022 95.5332C92.5669 95.6804 94.5647 95.9906 95.4249 97.2686C96.3936 98.7075 96.3213 101.562 95.9856 103.115C95.6982 104.446 94.4059 106.373 93.6482 103.837C93.2301 102.439 93.5115 100.223 92.8925 99.1139L91.2002 95.5312L91.2022 95.5332Z" fill="#FFB278"/>
<path d="M25.0917 73.6774C28.5506 70.1085 35.7177 63.5951 40.7142 64.1428L51.9292 65.2834C54.4997 65.5111 77.8642 68.0218 78.3325 76.0095C78.9636 86.7906 79.9384 100.834 81.6045 111.611C83.6566 124.882 85.6423 129.785 90.1303 142.327C74.968 151.746 56.8251 166.84 39.8942 159.068C36.588 157.551 35.5148 157.215 34.7229 153.848C33.5089 148.686 32.2025 143.429 31.2398 138.189C28.6511 124.128 26.0323 110.08 23.6868 95.9993C22.5392 89.1168 19.7435 79.1936 25.0917 73.6754V73.6774Z" fill="white"/>
<path d="M72.1881 57.5761C72.3369 57.2266 72.3931 56.8831 72.2263 56.5533C72.0414 56.1862 71.143 56.4728 71.0928 56.039C70.7812 55.9919 71.4807 57.8411 72.1881 57.5761Z" fill="#E5804E"/>
<path d="M38.0699 134.514H31.751V163.069H38.0699V134.514Z" fill="#151D2B"/>
<path d="M36.2232 134.514H29.9043V163.069H36.2232V134.514Z" fill="#222E44"/>
<path d="M15.9756 135.113C15.9756 137.354 17.0046 139.172 18.2728 139.172H41.9488C43.219 139.172 44.2481 137.354 44.2481 135.113V134.706C44.2481 132.462 43.219 130.645 41.9488 130.645H18.2728C17.0046 130.645 15.9756 132.462 15.9756 134.706V135.113Z" fill="#177376"/>
<path d="M32.8887 135.113C32.8887 137.354 33.6002 139.172 34.4764 139.172H50.8306C51.7089 139.172 52.4183 137.354 52.4183 135.113V134.706C52.4183 132.462 51.7089 130.645 50.8306 130.645H34.4764C33.6002 130.645 32.8887 132.462 32.8887 134.706V135.113Z" fill="#3F2516"/>
<path d="M84.9654 167.979C84.6901 167.078 84.5293 165.995 84.5293 164.831V164.261C84.5293 161.115 85.703 158.564 87.1501 158.564H114.132C115.579 158.564 116.753 161.115 116.753 164.261V164.831C116.753 165.995 116.592 167.076 116.317 167.979H84.9674H84.9654Z" fill="#026063"/>
<path d="M20.2821 167.979C19.6088 167.078 19.2148 165.995 19.2148 164.831V164.261C19.2148 161.115 22.0829 158.564 25.6222 158.564H91.6215C95.1608 158.564 98.0289 161.115 98.0289 164.261V164.831C98.0289 165.995 97.635 167.076 96.9617 167.979H20.2821Z" fill="#177376"/>
<path d="M24.8067 167.981C25.689 149.528 12.6733 75.8744 16.3593 70.4054C17.8788 68.1518 29.6303 63.7035 37.4647 63.3109C42.8491 63.042 63.1485 60.1877 72.9606 74.9047C81.6572 87.9492 83.858 154.122 86.2818 167.983H24.8067V167.981Z" fill="#177376"/>
<path d="M24.4674 167.981C23.5067 140.139 11.6768 75.6177 16.5085 70.502C24.9558 61.5563 47.1184 63.4389 51.938 63.9513C71.2104 66.0046 72.1369 113.09 73.1459 138.687C73.4293 145.938 73.7569 158.484 73.984 167.981H24.4674Z" fill="#026063"/>
<path d="M106.018 137.177H99.6992V158.845H106.018V137.177Z" fill="#151D2B"/>
<path d="M104.171 137.177H97.8525V158.845H104.171V137.177Z" fill="#222E44"/>
<path d="M77.7998 137.776C77.7998 140.017 79.0519 141.835 80.5955 141.835H109.399C110.942 141.835 112.194 140.017 112.194 137.776V137.369C112.194 135.125 110.942 133.308 109.399 133.308H80.5955C79.0519 133.308 77.7998 135.125 77.7998 137.369V137.776Z" fill="#177376"/>
<path d="M96.4717 137.776C96.4717 140.017 97.3419 141.835 98.4152 141.835H118.425C119.5 141.835 120.369 140.017 120.369 137.776V137.369C120.369 135.125 119.5 133.308 118.425 133.308H98.4152C97.3419 133.308 96.4717 135.125 96.4717 137.369V137.776Z" fill="#026063"/>
</svg>
