<svg width="22" height="22" viewBox="0 0 22 22" fill="none" xmlns="http://www.w3.org/2000/svg">
<path d="M6.42285 10.9998C6.42285 10.8174 6.49528 10.6426 6.62422 10.5136C6.75315 10.3847 6.92802 10.3123 7.11035 10.3123H10.3123V7.11035C10.3123 6.92802 10.3847 6.75315 10.5136 6.62422C10.6426 6.49528 10.8174 6.42285 10.9998 6.42285C11.1821 6.42285 11.357 6.49528 11.4859 6.62422C11.6148 6.75315 11.6873 6.92802 11.6873 7.11035V10.3123H14.8892C15.0715 10.3123 15.2464 10.3847 15.3753 10.5136C15.5043 10.6426 15.5767 10.8174 15.5767 10.9998C15.5767 11.1821 15.5043 11.357 15.3753 11.4859C15.2464 11.6148 15.0715 11.6873 14.8892 11.6873H11.6873V14.8892C11.6873 15.0715 11.6148 15.2464 11.4859 15.3753C11.357 15.5043 11.1821 15.5767 10.9998 15.5767C10.8174 15.5767 10.6426 15.5043 10.5136 15.3753C10.3847 15.2464 10.3123 15.0715 10.3123 14.8892V11.6873H7.11035C6.92802 11.6873 6.75315 11.6148 6.62422 11.4859C6.49528 11.357 6.42285 11.1821 6.42285 10.9998Z" fill="#477475"/>
<path fill-rule="evenodd" clip-rule="evenodd" d="M6.70731 3.45499C9.5604 3.1387 12.4397 3.1387 15.2928 3.45499C16.9676 3.64199 18.3196 4.96107 18.5158 6.64499C18.855 9.53891 18.855 12.4622 18.5158 15.3561C18.3187 17.04 16.9666 18.3582 15.2928 18.5461C12.4397 18.8624 9.5604 18.8624 6.70731 18.5461C5.03256 18.3582 3.68048 17.04 3.48431 15.3561C3.14586 12.4622 3.14586 9.53882 3.48431 6.64499C3.68048 4.96107 5.03348 3.64199 6.70731 3.45499ZM15.1406 4.82082C12.3887 4.51579 9.61144 4.51579 6.85948 4.82082C6.35003 4.87734 5.87452 5.10396 5.50976 5.46406C5.14499 5.82417 4.91228 6.29673 4.84923 6.80541C4.52321 9.59296 4.52321 12.409 4.84923 15.1966C4.91248 15.7051 5.14527 16.1774 5.51001 16.5374C5.87476 16.8973 6.35017 17.1238 6.85948 17.1802C9.58839 17.4846 12.4117 17.4846 15.1406 17.1802C15.6498 17.1236 16.125 16.897 16.4895 16.5371C16.8541 16.1772 17.0868 15.7049 17.15 15.1966C17.476 12.409 17.476 9.59296 17.15 6.80541C17.0866 6.2972 16.8538 5.82517 16.4893 5.46544C16.1247 5.10572 15.6496 4.87928 15.1406 4.82266" fill="#477475"/>
</svg>
