<svg width="334" height="323" viewBox="0 0 334 323" fill="none" xmlns="http://www.w3.org/2000/svg">
<g clip-path="url(#clip0_2486_3739)">
<path d="M200.543 50.3242H133.667C129.047 50.3242 125.301 54.0759 125.301 58.7038V183.993C125.301 188.621 129.047 192.373 133.667 192.373H200.543C205.164 192.373 208.91 188.621 208.91 183.993V58.7038C208.91 54.0759 205.164 50.3242 200.543 50.3242Z" fill="#EAEAEA"/>
<path d="M138.6 186.055C138.088 186.055 137.653 185.993 137.311 185.884C136.969 185.775 136.713 185.588 136.534 185.347C136.355 185.098 136.239 184.818 136.192 184.491C136.169 184.32 136.153 184.133 136.153 183.931C136.153 183.737 136.161 183.534 136.184 183.316L136.2 183.122H138.406C138.375 183.348 138.352 183.55 138.352 183.706C138.352 183.822 138.359 183.923 138.375 184.001C138.414 184.188 138.561 184.281 138.802 184.289C139.059 184.289 139.222 184.18 139.299 183.954C139.377 183.729 139.463 183.184 139.556 182.328C139.556 182.289 139.564 182.251 139.571 182.235L139.657 181.457C139.54 181.628 139.362 181.76 139.136 181.854C138.911 181.947 138.655 182.002 138.383 182.009H138.282C137.994 182.009 137.746 181.955 137.528 181.862C137.28 181.753 137.085 181.597 136.938 181.402C136.79 181.208 136.666 180.975 136.573 180.702C136.48 180.43 136.425 180.142 136.417 179.823C136.417 179.745 136.417 179.667 136.417 179.59C136.417 179.348 136.425 179.099 136.449 178.843C136.573 177.652 136.891 176.742 137.42 176.127C137.94 175.505 138.725 175.201 139.766 175.201C140.791 175.201 141.521 175.497 141.941 176.073C142.275 176.524 142.438 177.131 142.438 177.878C142.438 178.08 142.422 178.298 142.399 178.524L141.979 182.546C141.933 182.982 141.863 183.371 141.777 183.713C141.692 184.056 141.56 184.375 141.397 184.678C141.226 184.982 141.024 185.238 140.783 185.433C140.542 185.635 140.239 185.791 139.874 185.907C139.509 186.024 139.09 186.079 138.616 186.079L138.6 186.055ZM139.253 180.204C139.478 180.204 139.672 180.08 139.82 179.839L140.006 178.096C140.03 177.823 140.037 177.621 140.037 177.481C140.037 177.318 139.999 177.178 139.929 177.069C139.851 176.952 139.734 176.898 139.571 176.898C139.494 176.898 139.424 176.913 139.362 176.936C139.299 176.968 139.245 177.014 139.198 177.084C139.152 177.154 139.113 177.232 139.082 177.31C139.051 177.388 139.02 177.504 138.996 177.66C138.965 177.816 138.95 177.956 138.927 178.096C138.911 178.228 138.888 178.415 138.864 178.648C138.826 179.037 138.81 179.333 138.81 179.543C138.81 179.667 138.81 179.769 138.826 179.839C138.88 180.088 139.02 180.204 139.261 180.204H139.253Z" fill="#E3E9E7"/>
<path d="M145.335 186.11C144.877 186.11 144.481 186.055 144.147 185.946C143.813 185.837 143.541 185.682 143.347 185.479C143.145 185.277 142.989 185.036 142.873 184.748C142.756 184.46 142.694 184.141 142.679 183.791C142.679 183.69 142.679 183.589 142.679 183.488C142.679 183.223 142.694 182.943 142.718 182.647L142.764 182.274H145.126C145.126 182.274 145.126 182.344 145.102 182.476C145.087 182.608 145.079 182.678 145.079 182.678C145.056 182.912 145.04 183.114 145.04 183.285C145.04 183.511 145.064 183.682 145.102 183.799C145.172 184.001 145.335 184.102 145.584 184.102C145.817 184.102 145.98 184.009 146.081 183.822C146.182 183.636 146.252 183.301 146.306 182.834C146.33 182.655 146.338 182.484 146.338 182.336C146.338 182.041 146.299 181.807 146.213 181.651C146.097 181.41 145.825 181.294 145.413 181.294H144.978L145.141 179.769H145.537C145.972 179.769 146.268 179.652 146.438 179.418C146.609 179.185 146.726 178.788 146.78 178.236C146.796 178.088 146.804 177.956 146.804 177.831C146.804 177.621 146.78 177.45 146.726 177.326C146.648 177.131 146.493 177.038 146.252 177.038C146.027 177.038 145.856 177.139 145.755 177.341C145.654 177.543 145.576 177.839 145.53 178.244C145.491 178.656 145.467 178.866 145.467 178.874H143.106L143.176 178.158C143.277 177.193 143.619 176.454 144.194 175.933C144.768 175.412 145.514 175.147 146.431 175.147C147.347 175.147 148.085 175.396 148.559 175.886C148.955 176.291 149.15 176.859 149.15 177.582C149.15 177.73 149.142 177.886 149.126 178.049C149.064 178.64 148.885 179.154 148.606 179.582C148.326 180.01 148 180.274 147.65 180.36C148.023 180.508 148.295 180.765 148.474 181.13C148.598 181.395 148.668 181.745 148.668 182.181C148.668 182.352 148.66 182.546 148.637 182.749C148.583 183.246 148.489 183.698 148.334 184.095C148.186 184.491 147.977 184.841 147.72 185.145C147.464 185.448 147.13 185.682 146.726 185.845C146.322 186.009 145.856 186.086 145.335 186.086V186.11Z" fill="#E3E9E7"/>
<path d="M151.954 181.434C151.029 181.434 150.392 181.2 150.05 180.741C149.786 180.391 149.654 179.878 149.654 179.208C149.654 179.006 149.67 178.781 149.693 178.547L149.732 178.158C149.841 177.139 150.113 176.415 150.532 175.987C150.952 175.559 151.643 175.342 152.583 175.342C153.523 175.342 154.168 175.552 154.517 175.987C154.781 176.322 154.913 176.82 154.921 177.489C154.921 177.691 154.906 177.917 154.882 178.15L154.836 178.555C154.735 179.559 154.463 180.29 154.012 180.749C153.569 181.208 152.878 181.441 151.954 181.441V181.434ZM152.101 180.002C152.233 180.002 152.35 179.979 152.443 179.932C152.536 179.885 152.614 179.831 152.668 179.761C152.723 179.691 152.777 179.582 152.816 179.434C152.855 179.286 152.886 179.146 152.901 179.006C152.917 178.874 152.94 178.679 152.971 178.43L152.995 178.236C153.041 177.87 153.065 177.582 153.065 177.372C153.065 177.162 153.018 177.007 152.925 176.913C152.831 176.82 152.668 176.773 152.443 176.773C152.303 176.773 152.187 176.789 152.093 176.828C152 176.867 151.93 176.913 151.868 176.968C151.806 177.022 151.767 177.123 151.728 177.263C151.69 177.403 151.666 177.536 151.643 177.66C151.627 177.785 151.604 177.971 151.581 178.22L151.558 178.423C151.519 178.788 151.495 179.084 151.495 179.31C151.495 179.535 151.542 179.706 151.635 179.815C151.728 179.932 151.884 179.987 152.101 179.987V180.002ZM152.777 185.892L157.197 175.342H158.37L153.95 185.892H152.777ZM158.572 185.892C157.656 185.892 157.019 185.666 156.677 185.199C156.413 184.842 156.281 184.328 156.273 183.659C156.273 183.457 156.288 183.231 156.312 182.998L156.35 182.616C156.459 181.597 156.731 180.873 157.151 180.446C157.578 180.018 158.261 179.8 159.209 179.8C160.157 179.8 160.802 180.01 161.143 180.446C161.408 180.78 161.54 181.278 161.54 181.947C161.54 182.15 161.524 182.375 161.501 182.609L161.454 183.013C161.353 184.017 161.081 184.748 160.631 185.207C160.18 185.666 159.497 185.9 158.572 185.9V185.892ZM158.72 184.46C158.829 184.46 158.929 184.445 159.007 184.421C159.093 184.398 159.163 184.351 159.217 184.281C159.271 184.211 159.326 184.149 159.365 184.071C159.403 183.993 159.434 183.892 159.465 183.76C159.497 183.628 159.512 183.496 159.535 183.379C159.551 183.262 159.574 183.099 159.59 182.896L159.613 182.702C159.652 182.328 159.675 182.041 159.675 181.838C159.675 181.628 159.636 181.473 159.543 181.379C159.45 181.286 159.287 181.239 159.062 181.239C158.976 181.239 158.891 181.239 158.829 181.255C158.759 181.263 158.704 181.286 158.65 181.325C158.595 181.356 158.549 181.387 158.518 181.418C158.479 181.449 158.448 181.496 158.417 181.574C158.386 181.652 158.362 181.714 158.347 181.768C158.331 181.823 158.316 181.908 158.293 182.025C158.269 182.142 158.261 182.243 158.254 182.321C158.246 182.406 158.23 182.523 158.215 182.686L158.192 182.889C158.153 183.254 158.129 183.55 158.129 183.776C158.129 184.001 158.176 184.172 158.269 184.281C158.362 184.39 158.518 184.453 158.735 184.453L158.72 184.46Z" fill="#E3E9E7"/>
<path d="M139.78 136.524H194.429" stroke="white" stroke-width="5" stroke-linecap="round" stroke-linejoin="round"/>
<path d="M139.78 145.55H194.429" stroke="white" stroke-width="5" stroke-linecap="round" stroke-linejoin="round"/>
<path d="M139.78 154.575H194.429" stroke="white" stroke-width="5" stroke-linecap="round" stroke-linejoin="round"/>
<path d="M153.786 163.461H180.431" stroke="#E3E9E7" stroke-width="5" stroke-linecap="round" stroke-linejoin="round"/>
<path d="M139.78 58.2292H194.429" stroke="#E3E9E7" stroke-width="5" stroke-linecap="round" stroke-linejoin="round"/>
<path d="M197.754 174.742H188.572V185.853L193.163 183.441L197.754 185.853V174.742Z" fill="#A5C5FF"/>
<path d="M201.165 170.113H133.046" stroke="#F2F5F4" stroke-miterlimit="10"/>
<path d="M198.512 97.1651C200.03 81.6843 188.731 67.9019 173.275 66.3813C157.819 64.8606 144.058 76.1776 142.54 91.6584C141.022 107.139 152.321 120.922 167.777 122.442C183.233 123.963 196.994 112.646 198.512 97.1651Z" fill="white"/>
<mask id="mask0_2486_3739" style="mask-type:luminance" maskUnits="userSpaceOnUse" x="142" y="66" width="57" height="57">
<path d="M198.512 97.1651C200.03 81.6843 188.731 67.9019 173.275 66.3813C157.819 64.8606 144.058 76.1776 142.54 91.6584C141.022 107.139 152.321 120.922 167.777 122.442C183.233 123.963 196.994 112.646 198.512 97.1651Z" fill="white"/>
</mask>
<g mask="url(#mask0_2486_3739)">
<path d="M171.094 110.872C171.909 101.247 172.725 91.623 173.541 81.9907L179.437 82.9244C179.196 85.562 179.507 88.254 180.346 90.7749C180.975 92.6811 181.899 94.4707 182.738 96.2991C183.577 98.1275 184.338 100.01 184.61 102.002C184.882 103.994 184.626 106.11 183.554 107.806C182.482 109.503 180.509 110.693 178.512 110.499" fill="black"/>
<path d="M182.024 100.866C189.885 104.78 192.41 124.721 192.41 124.721L177.604 126.946L182.024 100.874V100.866Z" fill="#A5C5FF"/>
<path d="M182.023 100.866L181.619 107.441L180.967 118.186L180.936 118.668L180.633 123.609L180.252 129.817H159.651L159.635 129.631L157.32 102.578L157.173 100.866L163.185 99.2556L175.529 98.252L179.335 99.4502L182.023 100.866Z" fill="#A5C5FF"/>
<path d="M151.953 106.554C151.479 110.872 150.757 124.931 151.751 136.291L160.537 132.836C167.124 104.687 160.397 100.01 160.397 100.01C160.397 100.01 152.629 100.501 151.961 106.562L151.953 106.554Z" fill="#A5C5FF"/>
<path d="M160.39 100.003L175.53 98.2441L179.336 99.4423C179.74 110.709 164.973 108.849 160.39 100.003Z" fill="#FFBF9D"/>
<path d="M172.383 101.979H167.963C166.347 101.971 165.034 100.648 165.034 99.0301L165.05 90.2537L175.537 90.2692L175.521 98.8356C175.521 100.571 174.115 101.971 172.383 101.971V101.979Z" fill="#FFBF9D"/>
<path d="M172.546 73.2377C177.619 72.7086 182.163 76.4043 182.691 81.485L183.002 84.5194C183.492 89.2188 180.081 93.4203 175.389 93.9105L166.945 94.7897C166.145 94.8753 165.431 94.2917 165.353 93.4903L164.304 83.399C163.776 78.3183 167.466 73.7667 172.538 73.2377H172.546Z" fill="#FFBF9D"/>
<path d="M165.205 86.4957C165.205 86.4957 176.158 84.6673 176.345 72.9498C173.673 72.4363 170.495 72.8564 170.495 72.8564C170.495 72.8564 162.3 80.4191 165.205 86.4957Z" fill="black"/>
<path d="M170.495 72.8564C162.704 72.8798 157.888 74.537 158.082 88.9465C158.121 91.9965 156.722 94.813 154.423 96.8048C151.891 99.0067 150.873 102.625 152.1 105.286C154.811 100.485 167.714 105.371 166.805 97.7463C165.897 90.1214 165.648 85.5075 165.648 85.5075L170.495 72.8486V72.8564Z" fill="black"/>
<path d="M167.931 87.0246C165.702 82.8076 163.682 82.5197 162.051 83.3756C159.06 84.9395 160.365 92.0742 165.896 90.557L167.931 87.0169V87.0246Z" fill="#FFBF9D"/>
<path d="M170.495 73.292C170.495 73.292 179.871 72.444 182.815 82.6598C182.916 72.7941 177.199 72.2961 170.495 73.292Z" fill="black"/>
</g>
<path d="M133.558 41.9056H200.66C204.862 41.9056 208.265 38.49 208.265 34.2885C208.265 30.0792 204.862 26.6714 200.66 26.6714H133.558C129.356 26.6714 125.953 30.087 125.953 34.2885C125.953 38.4978 129.363 41.9056 133.558 41.9056Z" fill="#EAEAEA"/>
<path d="M140.892 30.0793L142.251 32.8492L145.304 33.2927L143.098 35.4479L143.618 38.4901L140.892 37.0507L138.157 38.4901L138.678 35.4479L136.472 33.2927L139.525 32.8492L140.892 30.0793Z" fill="#FFB528"/>
<path d="M153.996 30.0793L155.364 32.8492L158.409 33.2927L156.202 35.4479L156.723 38.4901L153.996 37.0507L151.27 38.4901L151.79 35.4479L149.584 33.2927L152.637 32.8492L153.996 30.0793Z" fill="#FFB528"/>
<path d="M167.11 30.0793L168.469 32.8492L171.522 33.2927L169.316 35.4479L169.836 38.4901L167.11 37.0507L164.383 38.4901L164.903 35.4479L162.697 33.2927L165.742 32.8492L167.11 30.0793Z" fill="#FFB528"/>
<path d="M180.214 30.0793L181.581 32.8492L184.634 33.2927L182.428 35.4479L182.948 38.4901L180.214 37.0507L177.487 38.4901L178.008 35.4479L175.802 33.2927L178.855 32.8492L180.214 30.0793Z" fill="#FFB528"/>
<path d="M193.327 30.0793L194.695 32.8492L197.74 33.2927L195.534 35.4479L196.054 38.4901L193.327 37.0507L190.601 38.4901L191.121 35.4479L188.915 33.2927L191.96 32.8492L193.327 30.0793Z" fill="white"/>
<path d="M192.776 31.1841V37.3385L190.601 38.4822L191.121 35.4478L188.915 33.2848L191.96 32.8491L192.776 31.1841Z" fill="#FFB72F"/>
<path d="M108.086 20.3928H41.2101C36.5895 20.3928 32.8438 24.1445 32.8438 28.7724V133.482C32.8438 138.11 36.5895 141.862 41.2101 141.862H108.086C112.707 141.862 116.453 138.11 116.453 133.482V28.7724C116.453 24.1445 112.707 20.3928 108.086 20.3928Z" fill="#EAEAEA"/>
<path d="M47.3232 108.437H101.965" stroke="#E3E9E7" stroke-width="5" stroke-linecap="round" stroke-linejoin="round"/>
<path d="M47.3232 117.47H101.965" stroke="#E3E9E7" stroke-width="5" stroke-linecap="round" stroke-linejoin="round"/>
<path d="M47.3232 126.496H101.965" stroke="#E3E9E7" stroke-width="5" stroke-linecap="round" stroke-linejoin="round"/>
<path d="M61.3213 135.373H87.9661" stroke="#E3E9E7" stroke-width="5" stroke-linecap="round" stroke-linejoin="round"/>
<path d="M47.3232 30.1497H101.965" stroke="#E3E9E7" stroke-width="5" stroke-linecap="round" stroke-linejoin="round"/>
<path d="M74.6442 95.5137C90.1749 95.5137 102.765 82.9036 102.765 67.3483C102.765 51.793 90.1749 39.1829 74.6442 39.1829C59.1135 39.1829 46.5234 51.793 46.5234 67.3483C46.5234 82.9036 59.1135 95.5137 74.6442 95.5137Z" fill="white"/>
<mask id="mask1_2486_3739" style="mask-type:luminance" maskUnits="userSpaceOnUse" x="46" y="39" width="57" height="57">
<path d="M74.6442 95.5137C90.1749 95.5137 102.765 82.9036 102.765 67.3483C102.765 51.793 90.1749 39.1829 74.6442 39.1829C59.1135 39.1829 46.5234 51.793 46.5234 67.3483C46.5234 82.9036 59.1135 95.5137 74.6442 95.5137Z" fill="white"/>
</mask>
<g mask="url(#mask1_2486_3739)">
<path d="M81.4726 63.2013C83.135 62.2054 85.3256 61.5908 86.957 62.6334C88.6815 63.7304 88.9611 66.0879 89.101 68.1264C89.2408 70.1649 89.6059 72.5302 91.377 73.5416C92.5578 74.2108 94.0027 74.0474 95.3388 74.2808C99.1374 74.9344 101.771 79.0891 101.274 82.9249C100.777 86.7529 97.6304 89.9352 93.9405 91.0633C90.2507 92.1915 86.1724 91.4679 82.7311 89.7329C79.2898 87.99 76.4156 85.298 73.8676 82.4036C71.5838 79.8127 69.4941 76.9651 68.3289 73.7128C67.3812 71.0752 65.9674 64.9753 70.4263 65.2943C72.3295 65.4266 73.9608 66.4925 75.9262 66.1735C78.0469 65.8312 79.6937 64.2828 81.4804 63.2091L81.4726 63.2013Z" fill="#A0A6A7"/>
<path d="M86.133 73.7983C93.9944 77.7119 96.519 97.6534 96.519 97.6534L81.7129 99.8786L86.133 73.8061V73.7983Z" fill="#D9D8D4"/>
<path d="M59.4343 60.4705C58.2302 60.9918 57.0494 61.8865 56.762 63.1625C56.2649 65.3722 58.6031 67.4418 58.2147 69.6748C57.935 71.3165 56.2338 72.3669 54.5947 72.6314C52.9556 72.8959 51.2777 72.5847 49.6153 72.6314C47.9529 72.6781 46.1352 73.1916 45.2496 74.5921C44.2164 76.226 44.8146 78.389 45.6535 80.1396C46.5003 81.8824 47.5878 83.6564 47.4402 85.5937C47.2771 87.7645 45.5759 89.6085 45.4671 91.787C45.3273 94.5102 47.7121 96.7198 50.1746 97.8791C53.4372 99.4119 57.2126 99.8398 60.7393 99.0773C64.2661 98.3148 67.5209 96.3697 69.8669 93.6232C72.8033 90.1842 74.2248 85.656 74.6599 81.1511C75.0949 76.6461 74.6055 72.1101 74.1161 67.6052C73.852 65.1621 73.5879 62.7268 73.3237 60.2837C73.1062 58.253 73.316 55.3509 72.2284 53.5614C70.3019 50.3947 65.742 54.1994 65.742 54.1994C66.6043 59.6613 61.8113 59.4434 59.4187 60.4782L59.4343 60.4705Z" fill="#A0A6A7"/>
<path d="M86.1336 73.7985L85.7996 79.2993L85.147 90.0442L85.0538 91.6003L84.7509 96.5409L84.3702 102.75H63.7691L63.7535 102.563L61.4386 75.5102L61.291 73.7985L67.3036 72.1879L77.7751 69.3792L83.4536 72.3746L86.1414 73.7907L86.1336 73.7985Z" fill="#D9D8D4"/>
<path d="M67.2959 72.1879L77.7674 69.387L83.4459 72.3825C83.8499 83.6486 71.8791 81.0422 67.2959 72.1879Z" fill="white"/>
<path d="M76.4932 74.9188H72.0731C70.4573 74.911 69.1445 73.5884 69.1445 71.97L69.1601 63.1936L79.6471 63.2092L79.6316 71.7755C79.6316 73.5106 78.2255 74.911 76.4932 74.911V74.9188Z" fill="white"/>
<path d="M79.6386 69.6203V71.1842C75.1796 71.6432 70.2624 68.671 71.6374 61.583L79.6541 61.5986L79.6386 69.628V69.6203Z" fill="white"/>
<path d="M76.6556 46.1698C81.7282 45.6407 86.2726 49.3365 86.8009 54.4171L87.1116 57.4515C87.601 62.151 84.1908 66.3524 79.4988 66.8426L71.0548 67.7218C70.2547 67.8074 69.54 67.2239 69.4623 66.4225L68.4136 56.3311C67.8854 51.2505 71.5753 46.6989 76.6479 46.1698H76.6556Z" fill="white"/>
<path d="M69.8438 59.101C69.8438 59.101 75.3903 54.386 77.9693 46.1309C63.5904 44.9871 63.4351 57.8716 69.8438 59.101Z" fill="#A0A6A7"/>
<path d="M72.0418 59.9568C69.8123 55.7397 67.7926 55.4519 66.1613 56.3077C63.1705 57.8716 64.4756 65.0063 70.0065 63.4891L72.0418 59.9568Z" fill="white"/>
<path d="M74.6445 46.1153C74.6445 46.1153 83.9819 45.3684 86.9182 55.5842C87.0037 46.8623 81.3562 45.1194 74.6445 46.1153Z" fill="#A0A6A7"/>
<path d="M56.0625 79.486C55.5886 83.8042 54.8662 97.8636 55.8605 109.223L64.6463 105.769C71.2337 77.6265 64.5065 72.9426 64.5065 72.9426C64.5065 72.9426 56.7383 73.4328 56.0703 79.4938L56.0625 79.486Z" fill="#D9D8D4"/>
</g>
<path d="M41.0933 15.242H108.195C112.397 15.242 115.8 11.8264 115.8 7.62493C115.8 3.41567 112.39 0.0078125 108.195 0.0078125H41.0933C36.8907 0.0078125 33.4883 3.42346 33.4883 7.62493C33.4883 11.8342 36.8985 15.242 41.0933 15.242Z" fill="#EAEAEA"/>
<path d="M48.426 3.41577L49.7932 6.18563L52.8383 6.62912L50.6321 8.78432L51.1526 11.8265L48.426 10.3871L45.6994 11.8265L46.2198 8.78432L44.0137 6.62912L47.0588 6.18563L48.426 3.41577Z" fill="#FFB72F"/>
<path d="M61.5383 3.41577L62.8977 6.18563L65.9506 6.62912L63.7444 8.78432L64.2649 11.8265L61.5383 10.3871L58.8039 11.8265L59.3243 8.78432L57.1182 6.62912L60.1711 6.18563L61.5383 3.41577Z" fill="#FFB72F"/>
<path d="M74.6438 3.41577L76.011 6.18563L79.0561 6.62912L76.8499 8.78432L77.3704 11.8265L74.6438 10.3871L71.9171 11.8265L72.4376 8.78432L70.2314 6.62912L73.2843 6.18563L74.6438 3.41577Z" fill="white"/>
<path d="M87.7561 3.41577L89.1155 6.18563L92.1684 6.62912L89.9622 8.78432L90.4827 11.8265L87.7561 10.3871L85.0294 11.8265L85.5499 8.78432L83.3438 6.62912L86.3889 6.18563L87.7561 3.41577Z" fill="white"/>
<path d="M100.862 3.41577L102.229 6.18563L105.282 6.62912L103.075 8.78432L103.596 11.8265L100.862 10.3871L98.1349 11.8265L98.6554 8.78432L96.4492 6.62912L99.5021 6.18563L100.862 3.41577Z" fill="white"/>
<path d="M296.324 20.3928H229.448C224.828 20.3928 221.082 24.1445 221.082 28.7724V133.482C221.082 138.11 224.828 141.862 229.448 141.862H296.324C300.945 141.862 304.691 138.11 304.691 133.482V28.7724C304.691 24.1445 300.945 20.3928 296.324 20.3928Z" fill="#EAEAEA"/>
<path d="M235.562 108.437H290.211" stroke="#E3E9E7" stroke-width="5" stroke-linecap="round" stroke-linejoin="round"/>
<path d="M235.562 117.47H290.211" stroke="#E3E9E7" stroke-width="5" stroke-linecap="round" stroke-linejoin="round"/>
<path d="M235.562 126.496H290.211" stroke="#E3E9E7" stroke-width="5" stroke-linecap="round" stroke-linejoin="round"/>
<path d="M249.567 135.373H276.212" stroke="#E3E9E7" stroke-width="5" stroke-linecap="round" stroke-linejoin="round"/>
<path d="M235.562 30.1497H290.211" stroke="white" stroke-width="5" stroke-linecap="round" stroke-linejoin="round"/>
<path d="M290.639 71.8801C293.141 56.5279 282.744 42.0512 267.416 39.5454C252.088 37.0396 237.634 47.4537 235.132 62.8059C232.631 78.1581 243.028 92.6348 258.356 95.1406C273.684 97.6464 288.138 87.2323 290.639 71.8801Z" fill="white"/>
<mask id="mask2_2486_3739" style="mask-type:luminance" maskUnits="userSpaceOnUse" x="234" y="39" width="58" height="57">
<path d="M290.639 71.8801C293.141 56.5279 282.744 42.0512 267.416 39.5454C252.088 37.0396 237.634 47.4537 235.132 62.8059C232.631 78.1581 243.028 92.6348 258.356 95.1406C273.684 97.6464 288.138 87.2323 290.639 71.8801Z" fill="white"/>
</mask>
<g mask="url(#mask2_2486_3739)">
<path d="M255.937 78.4199L262.175 80.365C262.167 80.5517 262.059 82.3879 261.771 84.9244C261.344 88.6512 260.52 93.8642 259.021 97.5132C258.679 98.3302 257.988 99.4195 257.017 100.618L247.167 92.0046C248.425 90.0206 250.15 86.4571 250.771 83.6172C250.997 82.5669 251.96 81.0185 253.304 79.8515C253.972 79.2679 254.733 78.7855 255.557 78.5132C255.588 78.4977 255.627 78.4821 255.658 78.4743C255.743 78.451 255.813 78.4276 255.891 78.4043H255.929L255.937 78.4199Z" fill="#A0A6A7"/>
<path d="M280.042 85.6946C280.042 85.6946 280.042 85.7568 280.034 85.7802C279.708 88.1221 279.226 90.4874 278.628 92.7671C277.564 96.8051 276.088 100.625 274.309 103.738C273.61 104.959 272.864 106.072 272.079 107.052C271.955 107.2 271.831 107.348 271.706 107.496L271.031 106.749L270.875 106.577L256.504 109.371L254.197 88.2933L253.249 87.2585C252.845 85.7879 252.604 84.6442 252.472 83.7105C252.309 82.4423 252.643 81.213 253.342 80.2327C253.56 79.9292 253.809 79.6491 254.088 79.4001C254.127 79.369 254.166 79.3301 254.205 79.299C254.686 78.8944 255.253 78.591 255.89 78.4042C255.906 78.4042 255.914 78.4042 255.929 78.3965C260.831 76.9571 269.508 75.4632 272.514 74.9808C272.67 74.9575 272.809 74.9264 272.941 74.9108C273.33 74.8485 273.555 74.8096 273.571 74.8096C275.412 74.6385 276.802 74.9108 277.835 75.5488C279.296 76.4513 280.018 78.0775 280.251 80.1704C280.43 81.7732 280.321 83.6483 280.042 85.679V85.6946Z" fill="#A0A6A7"/>
<path d="M250.274 59.8478C247.649 54.2691 251.354 45.8351 263.014 50.8924L250.274 59.8478Z" fill="#A0A6A7"/>
<path d="M256.411 78.521C256.916 85.0332 269.159 82.3334 270.409 75.6033H263.573L256.411 78.521Z" fill="white"/>
<path d="M263.83 66.6558C265.951 72.3589 272.173 69.4956 272.173 59.9801C272.173 51.2114 265.415 46.7688 252.364 55.6152L263.83 66.6558Z" fill="#A0A6A7"/>
<path d="M258.268 79.5324L269.33 77.3383L266.681 62.532L255.619 64.7261L258.268 79.5324Z" fill="white"/>
<path d="M260.31 76.2263L257.756 76.6851L255.616 64.7382L262.398 63.5197L263.78 71.2315C264.198 73.5673 262.642 75.8073 260.31 76.2263Z" fill="white"/>
<path d="M267.628 61.4505V73.2068H256.318C252.636 73.2068 249.583 70.5226 249.008 66.998C248.938 66.6012 248.907 66.1966 248.907 65.7842V61.4505C248.907 60.9992 248.938 60.5557 249.008 60.1278C249.132 59.2408 249.381 58.3928 249.746 57.6069C251.207 54.3547 254.477 52.0828 258.276 52.0828C258.509 52.0828 258.749 52.0905 258.983 52.1061C262.47 52.3706 265.43 54.5492 266.813 57.5991C267.162 58.3928 267.411 59.233 267.535 60.12C267.605 60.5557 267.636 60.9914 267.636 61.4427L267.628 61.4505Z" fill="white"/>
<path d="M255.619 50.7913C256.652 57.1402 264.887 56.1053 264.887 56.1053C264.887 56.1053 263.636 60.8359 265.718 63.8781L270.41 61.0849L267.823 53.5456L255.611 50.7913H255.619Z" fill="#A0A6A7"/>
<path d="M264.451 64.0881C266.953 60.2368 268.918 60.1279 270.409 61.0849C272.266 62.2753 272.033 66.0021 269.687 67.5193C267.636 68.8498 264.894 67.4026 264.575 64.9751L264.459 64.0804L264.451 64.0881Z" fill="white"/>
<path d="M286.66 90.6896L275.684 92.9226C271.139 79.0111 275.21 74.7629 275.21 74.7629C275.21 74.7629 277.416 74.9808 278.969 75.8989C281.502 77.385 282.706 79.299 284.469 83.765C285.168 85.5467 285.899 87.7953 286.66 90.6896Z" fill="#A0A6A7"/>
</g>
<path d="M229.339 15.242H296.441C300.643 15.242 304.046 11.8264 304.046 7.62493C304.046 3.41567 300.636 0.0078125 296.441 0.0078125H229.339C225.137 0.0078125 221.734 3.42346 221.734 7.62493C221.734 11.8342 225.145 15.242 229.339 15.242Z" fill="#EAEAEA"/>
<path d="M236.665 3.41577L238.157 6.18563L241.085 6.62912L238.879 8.78432L239.4 11.8265L236.665 10.3871L233.939 11.8265L234.459 8.78432L232.253 6.62912L235.306 6.18563L236.665 3.41577Z" fill="#FFB528"/>
<path d="M249.778 3.41577L251.145 6.18563L254.19 6.62912L251.984 8.78432L252.504 11.8265L249.778 10.3871L247.051 11.8265L247.696 8.78432L245.365 6.62912L248.41 6.18563L249.778 3.41577Z" fill="#FFB528"/>
<path d="M263.015 3.41577L264.374 6.18563L267.427 6.62912L265.221 8.78432L265.741 11.8265L263.015 10.3871L260.28 11.8265L260.809 8.78432L258.595 6.62912L261.648 6.18563L263.015 3.41577Z" fill="#FFB528"/>
<path d="M275.995 3.41577L277.363 6.18563L280.415 6.62912L278.201 8.78432L278.73 11.8265L275.995 10.3871L273.269 11.8265L273.789 8.78432L271.583 6.62912L274.636 6.18563L275.995 3.41577Z" fill="white"/>
<path d="M289.108 3.41577L290.475 6.18563L293.52 6.62912L291.314 8.78432L291.834 11.8265L289.108 10.3871L286.381 11.8265L286.901 8.78432L284.695 6.62912L287.74 6.18563L289.108 3.41577Z" fill="white"/>
<path d="M259.434 154.046C262.114 154.218 264.499 152.833 265.796 150.701C266.479 149.58 266.868 148.25 266.821 146.826C266.736 143.628 264.53 141.006 261.624 140.228C260.863 140.026 260.055 139.948 259.216 140.018L229.06 142.562H229.021L228.827 147.34C228.827 147.34 241.753 152.934 259.434 154.046Z" fill="#FFBF9D"/>
<path d="M222.636 146.211C225.425 143.052 228.252 142.259 231.989 144.188C231.989 144.188 227.172 142.539 222.636 146.211Z" fill="#E2A8A1"/>
<path d="M215.403 151.455L209.134 134.937L223.699 146.779L218.751 154.606L215.403 151.455Z" fill="#FFBF9D"/>
<path d="M217.422 143.091L209.134 134.937L209.211 134.579C209.53 133.187 209.219 131.716 208.365 130.58C208.225 130.393 208.233 130.145 208.365 129.973C208.388 129.942 208.411 129.919 208.435 129.896C209.126 129.265 210.144 129.226 210.874 129.755C210.998 129.841 211.099 129.95 211.208 130.074L211.635 130.658L211.674 130.72C212.404 131.724 212.591 133.023 212.179 134.19L217.259 142.819L217.43 143.099L217.422 143.091Z" fill="#EDC9C2"/>
<path d="M213.654 141.053L210.4 136.579C211.075 134.323 210.532 132.899 209.677 131.755C209.545 131.568 209.545 131.319 209.677 131.148C209.7 131.117 209.724 131.094 209.747 131.07C210.275 130.58 210.998 130.448 211.627 130.65L211.666 130.712C212.396 131.716 212.582 133.015 212.171 134.183L211.596 136.742L213.654 141.053Z" fill="#E2A8A1"/>
<path d="M211.597 136.742L211.674 136.392C211.993 135 211.682 133.537 210.828 132.393C210.672 132.183 210.696 131.887 210.89 131.708C211.698 130.969 212.956 131.047 213.663 131.88L214.129 132.525C214.859 133.529 215.046 134.828 214.634 136.003L219.885 144.912L211.597 136.75V136.742Z" fill="#EDC9C2"/>
<path d="M199.432 118.867L197.037 121.265L210.286 134.535L212.681 132.137L199.432 118.867Z" fill="#5E2222"/>
<path d="M207.754 130.315L208.473 129.595C210.687 127.378 214.279 127.378 216.493 129.595L241.085 154.226C243.298 156.443 243.298 160.041 241.085 162.258L240.365 162.979C238.151 165.196 234.559 165.196 232.345 162.979L207.748 138.342C205.534 136.125 205.534 132.527 207.748 130.31L207.754 130.315Z" fill="#412328"/>
<path d="M145.536 67.2858C130.73 82.1155 130.73 106.157 145.536 120.987C160.342 135.817 184.346 135.817 199.152 120.987C213.958 106.157 213.958 82.1155 199.152 67.2858C184.346 52.4562 160.342 52.4562 145.536 67.2858ZM196.946 118.777C183.359 132.385 161.329 132.385 147.742 118.777C134.156 105.169 134.156 83.1036 147.742 69.5033C161.329 55.8951 183.367 55.8951 196.946 69.5033C210.532 83.1114 210.532 105.185 196.946 118.793V118.777Z" fill="#A5C5FF"/>
<path d="M299.781 295.885C299.781 295.885 309.274 307.268 310.175 315.227C310.719 320.059 303.82 319.818 295.804 319.755L277.945 319.623C275.925 319.608 275.133 316.978 276.81 315.857C277.533 315.375 278.589 315.033 280.112 315.002C280.112 315.002 284.035 311.36 293.326 307.633C293.326 307.633 294.196 296.749 290.304 289.972L299.781 295.885Z" fill="#FFBF9D"/>
<path d="M308.194 308.878L285.76 249.35H267.971L293.326 307.633L308.194 308.878Z" fill="#FFBF9D"/>
<path d="M251.075 211.412L245.179 250.431H260.117L271.544 211.412H251.075Z" fill="#EDC9C2"/>
<path d="M223.397 316.487C222.138 317.655 223.063 319.786 224.779 319.771C228.663 319.74 236.47 319.685 242.04 319.639C244.355 319.623 246.577 319.615 248.534 319.499C249.078 319.467 249.599 319.429 250.096 319.366C253.762 318.977 256.116 317.927 255.751 315.087C255.409 312.442 255.464 310.061 255.681 308.1C255.72 307.696 255.774 307.307 255.829 306.941C256.279 303.961 258.423 276.698 258.423 276.698L243.943 291.52L242.895 306.077C234.039 309.781 226.923 315.297 226.923 315.297C225.168 315.359 224.072 315.842 223.389 316.472L223.397 316.487Z" fill="#FFBF9D"/>
<path d="M242.809 306.777L242.405 251.085L257.328 250.283L255.673 308.108L242.809 306.777Z" fill="#FFBF9D"/>
<path d="M253.996 118.886L258.401 140.889L270.402 135.342L268.173 115.027L268.126 114.023L253.996 118.886Z" fill="#E2A8A1"/>
<path d="M280.671 141.053C280.47 142.196 280.198 143.325 279.887 144.429C278.691 148.662 276.818 152.568 275.04 155.696C272.507 160.123 270.153 162.986 270.153 162.986L273.09 166.612C275.04 169.016 274.628 172.564 272.196 174.47L252.419 174.563L248.053 174.579C245.567 173.451 244.379 170.595 245.334 168.036L247.393 162.496L247.455 154.241C247.183 154.108 246.927 153.961 246.686 153.789C242.39 150.996 241.885 144.694 245.948 141.294L257.017 132.556H258.742L279.258 132.572L280.967 132.556C281.355 135.404 281.192 138.275 280.679 141.06L280.671 141.053Z" fill="#008183"/>
<path d="M265.197 146.281C264.219 149.58 262.789 153.79 260.941 158.147C258.944 162.831 256.085 169.07 252.419 174.556L248.053 174.571C245.567 173.443 244.379 170.588 245.334 168.028L247.393 162.488L247.455 154.233C247.183 154.101 246.927 153.953 246.686 153.782L248.442 150.685L252.139 144.896C253.009 142.819 255.239 140.983 257.289 140.477C258.462 140.189 259.333 141.434 260.575 141.823C264.18 142.944 266.285 142.648 265.205 146.281H265.197Z" fill="#008183"/>
<path d="M238.84 161.243L220.306 150.669L215.334 151.307C215.334 151.307 222.139 166.098 233.348 173.91C241.054 179.278 248.993 167.88 238.84 161.243Z" fill="#FFBF9D"/>
<path d="M222.488 145.379L221.719 152.35L217.423 151.471L215.077 147.02L219.878 143.791C220.328 143.488 220.888 143.426 221.393 143.605C222.123 143.869 222.573 144.601 222.488 145.371V145.379Z" fill="#FFBF9D"/>
<path d="M266.013 146.39C264.273 149.362 261.881 153.113 259.045 156.894C255.262 161.944 249.599 168.977 243.268 173.778C238.755 177.193 235.461 176.999 233.123 175.528C229.301 173.116 228.812 167.693 231.919 164.41L248.69 146.663L254.555 138.765C255.907 136.96 257.973 135.988 260.086 135.988C261.298 135.988 262.518 136.307 263.629 136.976C266.868 138.929 267.924 143.123 266.013 146.39Z" fill="#008183"/>
<path d="M280.672 141.053C277.262 142.087 273.657 142.469 270.107 142.119C266.736 141.792 255.907 136.517 257.523 133.521C257.748 133.101 279.242 132.564 279.242 132.564L280.951 132.549C281.34 135.396 281.177 138.267 280.664 141.053H280.672Z" fill="#008183"/>
<path d="M272.88 105.371L271.575 110.693L270.977 113.121L269.385 119.633C268.522 123.15 265.905 125.966 262.463 127.087L257.111 128.822C252.473 130.324 247.673 127.126 247.207 122.271C246.865 118.707 246.834 114.545 248.162 110.11C249.7 104.959 253.786 100.921 258.665 99.2794H258.688L259.542 99.007L259.636 98.9837C260.063 98.867 260.506 98.7736 260.948 98.6958C261.997 98.5013 263.077 98.4157 264.172 98.4391L267.645 98.5169C271.179 98.5947 273.735 101.925 272.888 105.364L272.88 105.371Z" fill="#FFBF9D"/>
<path d="M247.836 112.117C247.362 114.654 245.87 115.478 244.76 115.735C244.045 115.899 243.579 116.575 243.672 117.299C243.796 118.256 244.472 119.05 245.397 119.322L248.659 120.287C250.415 120.481 251.961 119.127 251.992 117.353L252.093 111.347L247.828 112.109L247.836 112.117Z" fill="#FFBF9D"/>
<path d="M248.605 114.552C248.574 115.836 249.025 116.894 249.607 116.91C250.19 116.926 250.695 115.891 250.726 114.607C250.757 113.323 250.306 112.265 249.724 112.249C249.141 112.234 248.636 113.269 248.605 114.552Z" fill="#212121"/>
<path d="M250.43 108.577C252.636 109.744 253.328 108.343 251.774 107.192C250.104 105.955 247.688 107.122 250.43 108.577Z" fill="black"/>
<path d="M253.747 121.236C253.747 121.236 249.576 120.87 249.016 121.711C248.449 122.551 252.543 125.43 253.747 121.236Z" fill="white"/>
<path d="M257.632 118.458C252.823 115.206 250.423 108.585 252.606 102.461C252.948 101.512 257.717 98.9136 263.613 98.0188C268.779 97.233 274.924 97.8398 278.047 100.781C283.376 105.807 276.982 119.135 276.982 119.135L257.624 118.458H257.632Z" fill="#263238"/>
<path d="M259.224 122.309C258.377 129.265 255.324 132.556 255.324 132.556C265.959 141.053 283.336 134.284 284.245 128.23C283.453 119.571 283.08 110.965 279.53 102.983L259.744 116.918L259.232 122.309H259.224Z" fill="#263238"/>
<path d="M256.016 117.058C259.69 111.355 263.683 115.416 262.448 120.606C261.212 125.795 256.777 123.453 256.777 123.453L256.008 117.058H256.016Z" fill="#FFBF9D"/>
<path d="M257.585 121.532L259.271 118.707" stroke="#E2A8A1" stroke-miterlimit="10"/>
<path d="M285.356 204.394L285.76 249.35L303.363 296.064L286.358 298.406L267.971 252.796L258.432 201.632L285.356 204.394Z" fill="#263238"/>
<path d="M273.346 204.931L279.964 250.073L298.282 297.029" stroke="#412328" stroke-miterlimit="10"/>
<path d="M285.355 204.394L245.629 213.248L247.742 181.496L247.835 180.134L248.053 174.579L269.205 174.478H272.196C272.196 174.478 275.039 177.816 278.077 182.663C280.508 186.569 283.071 191.447 284.353 196.31C284.742 197.796 285.076 200.69 285.355 204.394Z" fill="#263238"/>
<path d="M278.069 182.663L247.734 181.488L247.828 180.127L248.053 174.571L269.206 174.47L272.189 174.455C272.189 174.455 275.032 177.808 278.061 182.655L278.069 182.663Z" fill="#263238"/>
<path d="M259.387 185.223L271.598 184.312L274.542 195.478L269.439 199.874L260.894 196.637L259.387 185.223Z" stroke="#5A4045" stroke-miterlimit="10"/>
<path d="M224.22 139.621C226.045 143.231 231.724 144.266 235.437 142.772C234.326 139.754 230.597 138.213 224.422 137.536L224.22 139.621Z" fill="#FFBF9D"/>
<path d="M245.901 209.124L240.789 246.183L240.618 298.507H257.677L260.116 250.431L275.893 201.632L245.901 209.124Z" fill="#263238"/>
<path d="M219.072 139.934L218.856 140.023C218.179 140.305 217.858 141.084 218.14 141.763L219.772 145.692C220.053 146.371 220.831 146.692 221.508 146.41L221.723 146.32C222.401 146.038 222.721 145.259 222.44 144.581L220.808 140.651C220.526 139.973 219.749 139.652 219.072 139.934Z" fill="#FFBF9D"/>
<path d="M220.756 136.52L220.668 136.736C220.391 137.417 220.718 138.193 221.397 138.47L228.607 141.41C229.286 141.687 230.061 141.359 230.338 140.679L230.426 140.463C230.702 139.782 230.376 139.006 229.696 138.729L222.487 135.789C221.807 135.512 221.032 135.839 220.756 136.52Z" fill="#FFBF9D"/>
<path d="M257.072 319.771C257.507 312.037 255.674 308.1 255.674 308.1C251.588 308.1 248.589 310.754 246.569 313.531H236.409C236.144 311.679 236.199 309.874 237.061 308.871C237.061 308.871 222.814 313.298 221.237 319.763V321.607H257.134V319.763H257.072V319.771Z" fill="#263238"/>
<path d="M311.363 319.771H311.371C311.371 312.714 307.899 308.1 307.899 308.1C303.813 308.1 301.288 310.754 299.766 313.531H290.529C289.931 311.679 289.667 309.874 290.351 308.871C290.351 308.871 274.861 313.298 274.441 319.763L274.465 321.607H311.387L311.363 319.763V319.771Z" fill="#263238"/>
<path d="M36.2998 307.766L54.4462 308.583L57.5846 283.864L39.4614 284.961L36.2998 307.766Z" fill="white"/>
<path d="M32.7578 322.611H73.9834L73.6183 318.923C73.494 317.717 73.1833 316.604 72.7017 315.593C71.684 313.446 69.9051 311.796 67.5825 310.909L66.5415 310.512C65.5239 310.123 64.5917 309.618 63.7605 309.003C63.0458 308.474 62.4011 307.875 61.8495 307.19C60.6377 305.727 59.8065 303.938 59.4336 301.923H36.269L34.0007 315.585L32.75 322.595L32.7578 322.611Z" fill="#263238"/>
<path d="M52.1553 304.265H60.2963" stroke="white" stroke-miterlimit="10"/>
<path d="M53.709 307.104H61.85" stroke="white" stroke-miterlimit="10"/>
<path d="M42.4294 312.675C42.3051 313.228 42.6547 313.679 43.2062 313.679C43.7578 313.679 44.3093 313.228 44.4414 312.675C44.5656 312.123 44.2161 311.672 43.6645 311.672C43.113 311.672 42.5615 312.123 42.4294 312.675Z" stroke="white" stroke-miterlimit="10"/>
<path d="M47.3464 312.675C47.2221 313.228 47.5717 313.679 48.1232 313.679C48.6747 313.679 49.2263 313.228 49.3583 312.675C49.4826 312.123 49.1331 311.672 48.5815 311.672C48.03 311.672 47.4784 312.123 47.3464 312.675Z" stroke="white" stroke-miterlimit="10"/>
<path d="M32.7578 322.611H73.9834L73.6183 318.923C73.494 317.717 73.1833 316.604 72.7017 315.593H34.0007L32.75 322.603L32.7578 322.611Z" fill="#263238"/>
<path d="M59.4419 319.102H33.5195" stroke="#D7E0DD" stroke-width="2" stroke-miterlimit="10"/>
<path d="M50.8496 322.611H73.9832L73.6181 318.923C73.4938 317.717 73.183 316.604 72.7014 315.593C71.6838 313.446 69.9049 311.796 67.5822 310.909L66.5413 310.512C65.5236 310.123 64.5915 309.618 63.7603 309.003C57.9108 311.485 52.9314 316.558 50.8418 322.603L50.8496 322.611Z" fill="#263238"/>
<path d="M59.4412 301.938L60.3657 299.884C61.0182 298.437 60.2336 297.06 58.7499 297.06H56.6836C55.0522 297.06 53.351 297.892 52.1547 299.262L49.832 301.938H59.4335H59.4412Z" fill="#263238"/>
<path d="M85.3797 184.593H41.8313C32.1522 183.604 34.0554 172.93 44.9541 167.857C45.2182 167.724 45.4824 167.608 45.762 167.491L81.1926 166.122C81.8063 166.456 82.4433 166.837 83.0958 167.265C83.1347 167.289 83.1657 167.312 83.1968 167.335C89.8153 171.708 97.2183 180.228 85.3797 184.593Z" fill="#008183"/>
<path d="M39.2832 197.181H89.8617C86.6068 180.072 80.2136 170.961 80.2136 170.961L49.3196 169.117C41.9865 176.353 39.8658 189.191 39.2754 197.181H39.2832Z" fill="#263238"/>
<path d="M35.9268 295.698H58.9128L62.6725 246.323L64.5757 193.081L39.2826 197.181L39.9429 218.959L41.6364 245.989L35.9268 295.698Z" fill="#263238"/>
<path d="M39.7412 295.698L45.3032 249.653L48.5814 247.864L45.7382 245.296L43.8195 207.312C43.4233 200.333 43.9982 193.338 45.5285 186.522L47.1132 179.442" stroke="#2D2D2D" stroke-miterlimit="10"/>
<path d="M114.09 132.378L111.713 149.658C105.747 148.973 79.3123 141.208 70.309 134.821C66.456 132.082 65.3296 126.83 67.7611 122.769C68.7709 121.08 70.2624 119.828 71.9636 119.104C73.8202 118.31 75.9176 118.124 77.9607 118.699L114.098 132.385L114.09 132.378Z" fill="#008183"/>
<path d="M118.138 106.895L117.257 108.215C116.457 109.416 116.779 111.039 117.978 111.841L118.792 112.385C119.991 113.187 121.612 112.864 122.412 111.664L123.292 110.344C124.093 109.143 123.77 107.52 122.572 106.718L121.758 106.173C120.559 105.371 118.938 105.694 118.138 106.895Z" fill="black"/>
<path d="M129.316 104.547C125.347 109.853 127.957 130.542 120.204 142.757C119.769 143.442 119.264 144.049 118.72 144.57C118.549 144.733 118.379 144.881 118.2 145.029C111.636 150.405 102.407 142.617 106.214 135.039L108.482 130.526L120.258 107.083L129.308 104.547H129.316Z" fill="#FFBF9D"/>
<path d="M118.72 144.57C118.557 144.725 118.394 144.865 118.223 145.005C111.667 150.413 102.399 142.625 106.221 135.023L108.49 130.518C107.006 142.313 112.599 148.468 118.72 144.562V144.57Z" fill="#A35D54"/>
<path d="M120.266 107.083L120.134 112.724C130.442 113.704 135.088 107.309 138.707 105.27L129.72 96.9141L120.266 107.083Z" fill="#FFBF9D"/>
<path d="M134.606 100.361C134.458 100.555 134.349 100.781 134.279 101.03C134.264 101.1 134.248 101.162 134.241 101.232C134.124 101.933 134.396 102.617 134.924 103.053C135.118 103.224 135.359 103.349 135.616 103.426L137.247 103.924L139.554 104.617C139.888 104.718 140.214 104.718 140.525 104.648C140.96 104.547 141.348 104.298 141.62 103.932C141.768 103.738 141.877 103.512 141.939 103.263C142.172 102.353 141.698 101.419 140.859 101.053C140.812 101.03 140.766 101.015 140.719 100.999L136.82 99.6763C136.82 99.6763 136.742 99.6529 136.703 99.6452C135.903 99.4273 135.087 99.7385 134.613 100.369L134.606 100.361Z" fill="#FFBF9D"/>
<path d="M144.744 91.2032C144.557 90.2617 143.602 89.686 142.685 89.9661L134.785 92.3391L128.073 97.4043L131.825 103.411L138.273 95.3346L143.78 93.0316C144.495 92.7359 144.899 91.9735 144.744 91.211V91.2032Z" fill="#FFBF9D"/>
<path d="M128.073 97.4044L129.448 96.3696L135.686 95.1636L137.325 96.5096L131.468 103.567L128.073 97.4044Z" fill="#A35D54"/>
<path d="M141.636 106.974C141.458 107.628 140.945 108.165 140.238 108.336L136.23 109.277C135.197 109.518 134.156 108.896 133.884 107.869C133.806 107.573 133.806 107.278 133.861 106.998C133.861 106.943 133.876 106.896 133.892 106.85C133.899 106.811 133.915 106.764 133.93 106.725C134.148 106.079 134.692 105.566 135.406 105.434L139.438 104.625C140.013 104.516 140.588 104.671 141.015 105.029C141.077 105.076 141.132 105.138 141.194 105.193C141.403 105.395 141.559 105.667 141.644 105.971C141.737 106.321 141.737 106.663 141.644 106.982L141.636 106.974Z" fill="#FFBF9D"/>
<path d="M140.999 105.021C140.813 105.333 140.541 105.597 140.176 105.768L136.455 107.527C135.53 107.97 134.132 107.791 133.65 106.492C133.868 105.846 134.676 105.566 135.39 105.434L139.422 104.625C139.997 104.516 140.572 104.671 140.999 105.029V105.021Z" fill="#A35D54"/>
<path d="M139.041 103.675C138.94 104.197 138.622 104.687 138.125 104.967L135.639 106.329C134.722 106.858 133.549 106.554 132.998 105.659C132.757 105.255 132.671 104.819 132.726 104.391C132.726 104.352 132.733 104.306 132.741 104.267C132.85 103.691 133.2 103.185 133.751 102.89L136.299 101.637C136.734 101.411 137.216 101.365 137.658 101.481C138.117 101.59 138.521 101.878 138.793 102.306C139.065 102.734 139.142 103.216 139.049 103.675H139.041Z" fill="#A35D54"/>
<path d="M133.589 104.43C133.581 104.469 133.565 104.516 133.558 104.555C133.55 104.609 133.542 104.656 133.534 104.702C133.488 105.084 133.542 105.473 133.729 105.838C134.202 106.78 135.352 107.177 136.315 106.718L140.036 104.967C140.215 104.881 140.378 104.772 140.518 104.64C140.782 104.399 140.968 104.088 141.054 103.745C141.178 103.294 141.139 102.804 140.899 102.36C140.759 102.111 140.588 101.901 140.37 101.738C140.207 101.614 140.021 101.52 139.827 101.45C139.399 101.302 138.91 101.302 138.467 101.497L134.917 103.037L134.692 103.138C134.125 103.387 133.736 103.87 133.581 104.43H133.589Z" fill="#FFBF9D"/>
<path d="M134.948 103.006L134.723 103.107C134.156 103.356 133.767 103.839 133.612 104.399C133.604 104.438 133.589 104.485 133.581 104.523C133.565 104.578 133.565 104.625 133.558 104.671C134.21 105.231 135.181 105.302 135.919 104.796L137.263 103.878L140.176 101.886C140.254 101.831 140.339 101.769 140.401 101.699C140.619 101.505 140.774 101.263 140.875 101.007C140.829 100.983 140.782 100.968 140.735 100.952L136.836 99.6295C136.836 99.6295 136.758 99.6062 136.719 99.5984L134.272 101.186C134.156 101.886 134.435 102.571 134.956 103.006H134.948Z" fill="#A35D54"/>
<path d="M133.371 97.7545C133.169 98.0268 133.037 98.3536 132.991 98.7115C132.874 99.7696 133.62 100.727 134.668 100.874L135.981 101.061L138.739 101.442C139.151 101.505 139.555 101.419 139.896 101.232C140.145 101.108 140.355 100.921 140.526 100.695C140.728 100.423 140.86 100.096 140.891 99.7307C140.984 98.7504 140.3 97.8556 139.329 97.6844L138.017 97.4588L136.626 97.2176L135.274 96.9842C134.513 96.8441 133.791 97.1709 133.363 97.7467L133.371 97.7545Z" fill="#FFBF9D"/>
<path d="M138.086 100.641C138.071 101.178 137.83 101.699 137.379 102.065L135.134 103.792C134.311 104.461 133.099 104.337 132.415 103.535C132.12 103.177 131.965 102.757 131.957 102.321C131.957 102.283 131.957 102.236 131.957 102.197C131.98 101.613 132.244 101.061 132.742 100.68L135.064 99.0459C135.453 98.758 135.927 98.6335 136.385 98.6802C136.851 98.7191 137.302 98.9448 137.628 99.3182C137.954 99.6995 138.109 100.166 138.094 100.633L138.086 100.641Z" fill="#A35D54"/>
<path d="M140.114 100.369C140.052 100.898 139.772 101.403 139.298 101.73L135.88 104.033C135.002 104.632 133.814 104.422 133.192 103.566C132.92 103.185 132.804 102.749 132.827 102.321C132.827 102.283 132.827 102.236 132.827 102.197C132.889 101.621 133.2 101.084 133.728 100.75L137.208 98.5479C137.62 98.2911 138.102 98.2055 138.552 98.2911C139.018 98.3689 139.446 98.6257 139.741 99.0303C140.044 99.4349 140.152 99.9095 140.106 100.376L140.114 100.369Z" fill="#FFBF9D"/>
<path d="M122.774 107.184L129.416 99.0071L135.747 97.9333L134.8 101.676L132.461 102.843C132.461 102.843 131.56 111.417 122.774 107.184Z" fill="#A35D54"/>
<path d="M135.747 97.9333L138.412 100.54C138.995 101.108 139.01 102.034 138.451 102.625C137.954 103.146 137.161 103.24 136.555 102.843L134.792 101.676L135.74 97.9333H135.747Z" fill="#A35D54"/>
<path d="M120.266 107.083L128.073 97.4044L135.538 96.1128L134.435 100.532L131.685 101.917C131.685 101.917 130.652 112.039 120.266 107.083Z" fill="#FFBF9D"/>
<path d="M136.641 97.2253L135.22 100.322L135.997 101.069L137.022 102.049C137.076 102.104 137.131 102.15 137.193 102.197C137.807 102.656 138.645 102.664 139.267 102.197C139.601 101.956 139.826 101.614 139.919 101.24C140.052 100.75 139.974 100.213 139.663 99.7774L138.04 97.4743L136.649 97.2331L136.641 97.2253Z" fill="#A35D54"/>
<path d="M135.538 96.1128L138.699 99.1783C139.383 99.8474 139.414 100.937 138.761 101.637C138.179 102.259 137.239 102.368 136.532 101.901L134.442 100.532L135.545 96.1128H135.538Z" fill="#FFBF9D"/>
<path d="M120.002 106.943L127.817 112.498L127.164 115.618L118.13 110.125L120.002 106.943Z" fill="black"/>
<path d="M86.4203 180.259L52.9628 180.313L40.8057 180.337C40.8057 180.337 43.0196 174.96 44.9539 167.857C46.5774 161.889 47.999 154.708 47.7426 148.483C47.595 144.764 47.1056 140.85 47.1056 136.836C47.1056 134.291 44.9849 116.676 47.1056 115.058C51.9996 111.323 66.06 110.724 65.2132 111.526L76.2285 117.797C76.8422 119.913 82.8081 128.199 83.7714 133C83.8491 133.358 83.919 133.739 83.9811 134.105C84.1753 135.357 84.2918 136.641 84.2841 137.956C84.2841 138.322 84.2841 138.703 84.2297 139.092C84.2064 139.644 84.1443 140.22 84.051 140.78C83.515 144.103 81.9769 147.394 78.7454 150.288L78.792 150.514V150.561L80.9438 158.893L83.0956 167.273L83.1499 167.499L86.4203 180.259Z" fill="#008183"/>
<mask id="mask3_2486_3739" style="mask-type:luminance" maskUnits="userSpaceOnUse" x="47" y="111" width="38" height="66">
<path d="M83.6164 176.197L48.0848 175.559C48.0848 175.559 48.3023 162.13 47.7352 148.491C47.4944 142.407 46.337 135.809 47.9294 129.11C52.132 111.502 66.0603 110.732 65.2136 111.534L76.2366 117.812C76.8503 119.929 82.8163 128.207 83.7795 133.008C83.8572 133.366 83.9271 133.747 83.9815 134.113C84.1757 135.373 84.3 136.657 84.2844 137.964C84.2844 138.33 84.2767 138.719 84.2301 139.1C84.2068 139.66 84.1446 140.236 84.0592 140.788C83.5232 144.111 81.9773 147.41 78.7457 150.296L78.8001 150.522V150.568L83.6241 176.197H83.6164Z" fill="white"/>
</mask>
<g mask="url(#mask3_2486_3739)">
<path d="M65.7028 141.224L59.4261 151.043L53.1572 141.224L59.4261 131.413L65.7028 141.224Z" stroke="#EAA105" stroke-miterlimit="10"/>
<path d="M78.1862 141.224L71.9095 151.043L65.6328 141.224L71.9095 131.413L78.1862 141.224Z" stroke="#EAA105" stroke-miterlimit="10"/>
<path d="M90.6618 141.224L84.3929 151.043L78.1162 141.224L84.3929 131.413L90.6618 141.224Z" stroke="#EAA105" stroke-miterlimit="10"/>
</g>
<g style="mix-blend-mode:multiply" opacity="0.4">
<path d="M54.1749 176.197L52.9631 180.321L52.1241 183.153L49.8869 184.593H41.8313C32.1522 183.604 34.0554 172.93 44.9541 167.857C46.5777 161.889 47.9992 154.708 47.7429 148.483C47.5953 144.764 47.1059 140.851 47.1059 136.836L58.1445 125.406L57.8648 152.373H79.6856L80.944 158.894L54.1749 176.197Z" fill="#450000"/>
</g>
<path d="M91.6959 85.8699C92.6304 81.9229 90.1933 77.9645 86.2526 77.0286C82.3119 76.0927 78.3598 78.5336 77.4254 82.4806C76.4909 86.4275 78.928 90.3859 82.8687 91.3219C86.8094 92.2578 90.7615 89.8169 91.6959 85.8699Z" fill="#263238"/>
<path d="M77.0831 83.2047C81.1331 83.2047 84.4163 79.9164 84.4163 75.8599C84.4163 71.8035 81.1331 68.5151 77.0831 68.5151C73.0332 68.5151 69.75 71.8035 69.75 75.8599C69.75 79.9164 73.0332 83.2047 77.0831 83.2047Z" fill="#263238"/>
<path d="M74.633 80.2135C75.5599 76.2647 73.1153 72.311 69.1728 71.3827C65.2303 70.4543 61.2829 72.9028 60.356 76.8516C59.4291 80.8004 61.8738 84.754 65.8163 85.6824C69.7588 86.6108 73.7062 84.1622 74.633 80.2135Z" fill="#263238"/>
<path d="M58.292 83.0179C55.3324 90.6195 56.3811 95.4512 61.1585 98.6101L65.6873 93.6539L62.9762 81.7419L58.2843 83.0179H58.292Z" fill="black"/>
<path d="M60.8555 93.6616L62.58 112.164L76.3374 121.477L76.5394 98.6645L60.8555 93.6616Z" fill="#FFBF9D"/>
<path d="M58.6104 98.8279L61.873 104.539L63.9082 100.189L58.6104 98.8279Z" fill="black"/>
<path d="M76.4072 113.681C76.4072 113.681 67.9166 112.148 67.6758 102.555L76.5393 105.442L76.4072 113.681Z" fill="#FFBF9D"/>
<path d="M82.0775 80.1858C86.1791 85.2276 86.7229 91.8643 86.7229 91.8643L82.2717 92.5724L78.8926 81.8975L82.0775 80.1936V80.1858Z" fill="#263238"/>
<path d="M62.2533 86.0913L63.5739 91.3432L64.1798 93.7318L65.8034 100.158C66.6812 103.629 69.2835 106.391 72.6937 107.464L77.9916 109.137C82.5826 110.584 87.2979 107.394 87.7251 102.594C88.0358 99.0692 88.0358 94.9611 86.6997 90.5962C85.1383 85.5234 81.0833 81.5631 76.2438 79.9759H76.2205L75.3737 79.7191L75.2805 79.6958C74.8533 79.5868 74.4183 79.4935 73.9832 79.4234C72.9501 79.2367 71.8781 79.1589 70.7983 79.19L67.3725 79.2912C63.8846 79.3923 61.3833 82.7068 62.2378 86.0913H62.2533Z" fill="#FFBF9D"/>
<path d="M86.3662 98.6568C88.8287 98.6568 90.8251 96.4378 90.8251 93.7006C90.8251 90.9633 88.8287 88.7444 86.3662 88.7444C83.9036 88.7444 81.9072 90.9633 81.9072 93.7006C81.9072 96.4378 83.9036 98.6568 86.3662 98.6568Z" stroke="white" stroke-miterlimit="10"/>
<path d="M84.6801 94.7432C84.8044 96.0037 84.4315 97.0618 83.8644 97.1241C83.2896 97.1785 82.7303 96.206 82.606 94.9455C82.4817 93.6851 82.8545 92.6269 83.4216 92.5647C83.9965 92.5102 84.5558 93.4828 84.6801 94.7432Z" fill="#263238"/>
<path d="M81.0523 92.8682C82.202 95.638 84.0974 96.206 85.418 96.2293C86.2648 96.2449 86.9639 96.8985 87.026 97.7465C87.1193 98.8592 86.5444 99.9251 85.5579 100.462L82.0855 102.353C80.1357 103.006 78.0538 101.839 77.5877 99.8317L76.0186 93.0393L81.0446 92.8682H81.0523Z" fill="#FFBF9D"/>
<path d="M83.3752 101.901L83.1655 101.512L85.4571 100.26C86.3582 99.7694 86.8942 98.7891 86.8088 97.762C86.7466 97.0229 86.1485 96.4627 85.4183 96.4549C83.9889 96.4316 82.0313 95.8091 80.8506 92.9615L81.2623 92.7903C82.3498 95.4201 84.1288 95.9959 85.426 96.0114C86.3893 96.027 87.1739 96.7661 87.2516 97.7309C87.3448 98.9291 86.7233 100.081 85.6668 100.656L83.3752 101.909V101.901Z" fill="#A35D54"/>
<path d="M77.0599 95.8792C77.1842 97.1397 76.8114 98.1978 76.2443 98.26C75.6694 98.3145 75.1101 97.3419 74.9858 96.0815C74.8616 94.8211 75.2344 93.7629 75.8015 93.7007C76.3764 93.6462 76.9357 94.6188 77.0599 95.8792Z" fill="#263238"/>
<path d="M73.8284 90.8841C70.9697 92.0745 70.1929 90.6118 72.2359 89.3669C74.442 88.0287 77.3784 89.398 73.8284 90.8841Z" fill="#263238"/>
<path d="M82.0553 89.5458C79.8258 89.1801 80.4473 87.7796 82.3116 87.7563C84.3158 87.7329 84.8285 89.9971 82.0553 89.5458Z" fill="#263238"/>
<path d="M82.1016 102.835L76.9668 102.438C76.9668 102.438 77.5416 105.41 79.0331 105.729C80.6567 106.079 82.1016 102.835 82.1016 102.835Z" fill="white"/>
<path d="M75.0712 100.937C77.5338 100.937 79.5302 98.7176 79.5302 95.9804C79.5302 93.2431 77.5338 91.0242 75.0712 91.0242C72.6086 91.0242 70.6123 93.2431 70.6123 95.9804C70.6123 98.7176 72.6086 100.937 75.0712 100.937Z" stroke="white" stroke-miterlimit="10"/>
<path d="M70.6199 95.0545L65.625 93.6384" stroke="white" stroke-miterlimit="10"/>
<path d="M69.6639 79.2289C72.3595 85.609 67.2868 94.3309 56.6445 93.7007C52.1622 84.6364 52.3564 76.5213 69.6639 79.2289Z" fill="#263238"/>
<path d="M66.0057 94.4086C55.3167 79.7034 49.7702 102.99 65.4775 101.769L66.0057 94.4086Z" fill="#FFBF9D"/>
<path d="M65.8891 84.9941L66.091 97.3418L65.0579 98.0343L61.166 86.1612L65.8891 84.9941Z" fill="#263238"/>
<path d="M66.4795 80.567C75.0245 83.9204 82.8082 81.1506 82.8082 81.1506C82.8082 81.1506 79.9728 74.3115 66.4795 80.567Z" fill="#263238"/>
<path d="M55.6815 81.9677C55.6815 77.6184 50.8886 79.7036 54.1823 82.5201C48.4105 81.7421 52.7762 88.9079 55.4407 86.4026" fill="#263238"/>
<path d="M76.8736 121.718C78.7302 111.627 69.2452 109.487 62.083 106.539L58.1445 111.611L76.8736 121.711V121.718Z" fill="white"/>
<path d="M43.1444 150.638C50.7106 149.176 57.6709 151.3 53.9499 158.785L42.4375 159.462L43.1444 150.638Z" fill="#008183"/>
<path d="M41.4582 172.315C21.028 177.606 24.3294 155.665 36.4944 152.374L41.4582 172.315Z" fill="#008183"/>
<path d="M42.3749 166.775L30.2099 168.565C28.0349 151.308 33.1463 132.479 44.581 117.299C47.2533 113.751 52.2016 112.864 55.9303 115.26C59.1541 117.33 60.5912 121.298 59.4493 124.947L42.3671 166.775H42.3749Z" fill="#008183"/>
<path d="M74.7136 158.287L88.8827 144.033L68.2504 149.611L67.8154 156.972L74.7136 158.287Z" fill="#FFBF9D"/>
<path d="M70.045 150.024L67.0232 150.171C66.1299 150.218 65.4385 149.401 65.6172 148.522L65.6715 148.25C66.0133 146.585 67.7068 145.581 69.3303 146.079C70.4179 146.413 71.2025 147.355 71.3423 148.483C71.4355 149.277 70.8451 149.977 70.0528 150.016L70.045 150.024Z" fill="#FFBF9D"/>
<path d="M76.4843 148.654L88.8746 144.033L88.9522 143.628C89.2707 142.025 90.2651 140.648 91.6866 139.862C91.9119 139.73 92.0284 139.473 91.9741 139.232C91.9663 139.193 91.9507 139.154 91.9352 139.123C91.508 138.143 90.467 137.629 89.4649 137.847C89.3018 137.886 89.1387 137.941 88.9755 138.018L88.2609 138.423L88.191 138.462C86.9636 139.17 86.1712 140.43 86.0547 141.839L76.7795 148.444L76.4766 148.654H76.4843Z" fill="#FFBF9D"/>
<path d="M81.3476 148.289L86.8009 145.153C87.1504 142.492 88.37 141.263 89.7838 140.477C90.0091 140.345 90.1256 140.088 90.0713 139.847C90.0635 139.808 90.048 139.769 90.0324 139.73C89.7139 138.983 89.0148 138.501 88.269 138.423L88.1991 138.462C86.9718 139.17 86.1794 140.43 86.0629 141.838L85.4725 144.764L81.3398 148.289H81.3476Z" fill="#FFBF9D"/>
<path d="M85.48 144.764L85.5577 144.36C85.8684 142.765 86.8705 141.387 88.2921 140.594C88.5562 140.446 88.665 140.127 88.5407 139.847C88.0435 138.703 86.6996 138.197 85.581 138.742L84.7964 139.193C83.5768 139.901 82.7767 141.162 82.6602 142.57L73.082 149.394L85.48 144.764Z" fill="#FFBF9D"/>
<path d="M43.2918 155.563L69.6025 153.245L74.714 158.279C74.714 158.279 58.7582 170.525 42.0022 172.587C34.7545 173.482 30.482 164.69 35.6634 159.539L36.4791 158.73C38.3124 156.909 40.7205 155.789 43.2918 155.563Z" fill="#FFBF9D"/>
<path d="M40.3086 186.779L70.4568 190.965L72.1037 180.344L42.608 180.337L40.3086 186.779Z" fill="white"/>
<path d="M74.4414 180.344L76.3524 190.965L87.2744 186.779L84.975 180.344H74.4414Z" fill="white"/>
<path d="M90.84 307.314H108.753L105.887 283.864L88.1367 285.226L90.84 307.314Z" fill="white"/>
<path d="M89.4415 321.95H130.085L129.02 318.316C128.671 317.134 128.15 316.029 127.482 315.033C126.068 312.916 124.002 311.283 121.54 310.419L120.436 310.03C119.357 309.649 118.347 309.151 117.407 308.544C116.599 308.023 115.853 307.431 115.17 306.762C113.694 305.323 112.528 303.557 111.783 301.573H88.9443L89.325 315.041L89.4337 321.957L89.4415 321.95Z" fill="#263238"/>
<path d="M105.056 303.868H113.08" stroke="white" stroke-miterlimit="10"/>
<path d="M107.122 306.661H115.154" stroke="white" stroke-miterlimit="10"/>
<path d="M97.0697 312.162C97.0542 312.706 97.4815 313.158 98.033 313.158C98.5845 313.158 99.0351 312.714 99.0584 312.162C99.0739 311.617 98.6467 311.166 98.0951 311.166C97.5436 311.166 97.0931 311.609 97.0697 312.162Z" stroke="white" stroke-miterlimit="10"/>
<path d="M101.917 312.162C101.902 312.706 102.329 313.158 102.881 313.158C103.432 313.158 103.883 312.714 103.906 312.162C103.922 311.617 103.494 311.166 102.943 311.166C102.391 311.166 101.941 311.609 101.917 312.162Z" stroke="white" stroke-miterlimit="10"/>
<path d="M89.4417 321.95H130.085L129.021 318.316C128.671 317.133 128.15 316.029 127.482 315.033H89.3252L89.4339 321.95H89.4417Z" fill="#263238"/>
<path d="M89.2236 318.495H114.781" stroke="#D7E0DD" stroke-width="2" stroke-miterlimit="10"/>
<path d="M107.277 321.95H130.085L129.02 318.316C128.671 317.133 128.15 316.029 127.482 315.033C126.068 312.916 124.002 311.282 121.54 310.419L120.437 310.03C119.357 309.649 118.347 309.151 117.407 308.544C112.117 310.995 108.178 315.997 107.27 321.95H107.277Z" fill="#263238"/>
<path d="M111.791 301.565L112.311 299.542C112.676 298.118 111.635 296.756 110.175 296.756H108.14C106.532 296.756 105.009 297.573 104.092 298.927L102.313 301.565H111.783H111.791Z" fill="#263238"/>
<path d="M65.5781 193.073L83.0176 246.914L85.5034 296.437L108.536 296.009L103.891 244.759C103.891 244.759 100.045 231.937 95.8584 216.952C94.0018 210.315 92.2307 204.168 90.9489 199.764C89.7526 195.656 88.9836 193.073 88.9836 193.073H65.5703H65.5781Z" fill="#263238"/>
<path d="M90.7707 296.344L88.2383 246.3L74.0303 197.111L67.707 197.181" stroke="#2D2D2D" stroke-miterlimit="10"/>
<path d="M43.1598 79.6801V86.2858L49.1102 93.3894H24.1045C16.5383 93.3894 10.4092 87.2506 10.4092 79.6724C10.4092 72.0941 16.5383 65.9553 24.1045 65.9553H29.4723C37.0384 65.9553 43.1675 72.0941 43.1675 79.6724L43.1598 79.6801Z" fill="#A5C5FF"/>
<path d="M32.6104 82.7612C32.6104 84.1073 33.6979 85.1965 35.0418 85.1965C36.3857 85.1965 37.4732 84.1073 37.4732 82.7612C37.4732 81.4152 36.3857 80.3259 35.0418 80.3259C33.6979 80.3259 32.6104 81.4152 32.6104 82.7612Z" fill="white"/>
<path d="M24.3379 82.7612C24.3379 84.1073 25.4254 85.1965 26.7693 85.1965C28.1132 85.1965 29.2008 84.1073 29.2008 82.7612C29.2008 81.4152 28.1132 80.3259 26.7693 80.3259C25.4254 80.3259 24.3379 81.4152 24.3379 82.7612Z" fill="white"/>
<path d="M16.0645 82.7612C16.0645 84.1073 17.152 85.1965 18.4959 85.1965C19.8398 85.1965 20.9273 84.1073 20.9273 82.7612C20.9273 81.4152 19.8398 80.3259 18.4959 80.3259C17.152 80.3259 16.0645 81.4152 16.0645 82.7612Z" fill="white"/>
<path d="M290.646 107.099V113.704L284.695 120.808H309.709C317.275 120.808 323.404 114.669 323.404 107.091C323.404 99.5126 317.275 93.3738 309.709 93.3738H304.341C296.775 93.3738 290.646 99.5126 290.646 107.091V107.099Z" fill="#A5C5FF"/>
<path d="M301.195 110.18C301.195 111.526 300.107 112.615 298.763 112.615C297.42 112.615 296.332 111.526 296.332 110.18C296.332 108.834 297.42 107.744 298.763 107.744C300.107 107.744 301.195 108.834 301.195 110.18Z" fill="white"/>
<path d="M309.468 110.18C309.468 111.526 308.381 112.615 307.037 112.615C305.693 112.615 304.605 111.526 304.605 110.18C304.605 108.834 305.693 107.744 307.037 107.744C308.381 107.744 309.468 108.834 309.468 110.18Z" fill="white"/>
<path d="M317.741 110.18C317.741 111.526 316.653 112.615 315.309 112.615C313.965 112.615 312.878 111.526 312.878 110.18C312.878 108.834 313.965 107.744 315.309 107.744C316.653 107.744 317.741 108.834 317.741 110.18Z" fill="white"/>
<path d="M135.842 222.748L123.607 233.104C127.103 232.225 132.914 233.508 134.972 234.925L135.842 222.74V222.748Z" fill="#F2F5F4"/>
<path d="M11.2949 322.611H334" stroke="#A0A6A7" stroke-miterlimit="10"/>
<path d="M0 322.611H9.85003" stroke="#A0A6A7" stroke-miterlimit="10"/>
</g>
<defs>
<clipPath id="clip0_2486_3739">
<rect width="334" height="323" fill="white"/>
</clipPath>
</defs>
</svg>
