<svg width="88" height="88" viewBox="0 0 88 88" fill="none" xmlns="http://www.w3.org/2000/svg">
<circle cx="44" cy="44" r="43.5" fill="white" stroke="#D5D5D5"/>
<g clip-path="url(#clip0_3006_3886)">
<path d="M19.8382 42.3114H68.2336C68.4641 42.3114 68.6518 42.4989 68.6518 42.7291V72.1627C68.6518 72.3939 68.4641 72.5804 68.2336 72.5804H19.8382C19.6077 72.5804 19.4199 72.3929 19.4199 72.1627V42.7291C19.4199 42.498 19.6077 42.3114 19.8382 42.3114Z" fill="#E7F0F1"/>
<path d="M68.2348 42.7291V72.1627H19.8394V42.7291H68.2348ZM68.2348 41.8927H19.8394C19.3765 41.8927 19.002 42.2678 19.002 42.7291V72.1627C19.002 72.6241 19.3765 72.9991 19.8394 72.9991H68.2348C68.6967 72.9991 69.0722 72.625 69.0722 72.1627V42.7291C69.0722 42.2678 68.6976 41.8927 68.2348 41.8927Z" fill="#0E3847"/>
<path d="M19.8387 43.1468C19.6565 43.1468 19.4957 43.0298 19.44 42.8563C19.3842 42.6827 19.4474 42.4942 19.5961 42.3884L43.7929 25.164C43.8654 25.112 43.9509 25.0869 44.0355 25.0869C44.1201 25.0869 44.2056 25.1129 44.2781 25.164L68.4758 42.3893C68.6245 42.4952 68.6867 42.6845 68.6319 42.8572C68.5761 43.0308 68.4153 43.1477 68.2332 43.1477H19.8387V43.1468Z" fill="#E7F0F1"/>
<path d="M44.0373 25.5046L68.2349 42.73H19.8396L44.0373 25.5046ZM44.0373 24.6683C43.8672 24.6683 43.6971 24.7203 43.5511 24.8233L19.3535 42.0487C19.057 42.2603 18.9305 42.6381 19.0421 42.9843C19.1527 43.3306 19.4752 43.5664 19.8396 43.5664H68.2349C68.5993 43.5664 68.9218 43.3315 69.0324 42.9843C69.143 42.6381 69.0175 42.2603 68.721 42.0487L44.5224 24.8233C44.3774 24.7203 44.2064 24.6683 44.0363 24.6683H44.0373Z" fill="#008183"/>
<path d="M25.0061 64.8138C24.7747 64.8138 24.5879 64.6273 24.5879 64.3961V14.8363C24.5879 14.6052 24.7756 14.4186 25.0061 14.4186H55.7603C55.8709 14.4186 55.9778 14.4623 56.0559 14.5412L63.3503 21.826C63.4293 21.9049 63.473 22.0107 63.473 22.1221V64.3961C63.473 64.6273 63.2852 64.8138 63.0547 64.8138H25.0061Z" fill="#F7FFFF"/>
<path d="M55.7606 14.8363L63.055 22.1212V64.3952H25.0074V14.8363H55.7615M55.7615 14H25.0074C24.5454 14 24.1699 14.3741 24.1699 14.8363V64.3961C24.1699 64.8574 24.5445 65.2324 25.0074 65.2324H63.0559C63.5179 65.2324 63.8934 64.8584 63.8934 64.3961V22.1212C63.8934 21.8993 63.8051 21.6868 63.648 21.5299L56.3526 14.245C56.1956 14.0882 55.9827 14 55.7606 14H55.7615Z" fill="#0E3847"/>
<path d="M55.3146 22.9835C55.204 22.9835 55.0971 22.9399 55.019 22.861C54.9345 22.7765 54.8898 22.6605 54.8973 22.5417L55.3416 14.8122C55.3509 14.6479 55.4559 14.504 55.6102 14.4456C55.6585 14.427 55.7087 14.4177 55.7589 14.4177C55.8676 14.4177 55.9745 14.4604 56.0545 14.5402L63.3489 21.8251C63.466 21.942 63.5032 22.1156 63.4446 22.2697C63.3861 22.4238 63.242 22.5287 63.0775 22.538C63.0775 22.538 55.3221 22.9826 55.3137 22.9826L55.3146 22.9835Z" fill="#E7F0F1"/>
<path d="M55.7607 14.8364L63.0552 22.1212L55.3155 22.5649L55.7598 14.8354M55.7598 13.9991C55.6594 13.9991 55.559 14.0176 55.4624 14.0539C55.1538 14.1717 54.9437 14.4586 54.9242 14.7872L54.4799 22.5166C54.466 22.7543 54.5552 22.9873 54.7235 23.1553C54.8805 23.3131 55.0943 23.4003 55.3155 23.4003C55.3313 23.4003 55.3471 23.4003 55.3639 23.3994L63.1035 22.9557C63.4325 22.9371 63.7207 22.7264 63.8378 22.4182C63.9549 22.1101 63.8805 21.7629 63.6472 21.5299L56.3528 14.2451C56.1929 14.0854 55.9792 14 55.7607 14L55.7598 13.9991Z" fill="#0E3847"/>
<path d="M31.1367 26.5238H56.9275" stroke="#0E3847" stroke-width="1.475" stroke-linecap="round" stroke-linejoin="round"/>
<path d="M31.1367 30.9868H56.9275" stroke="#0E3847" stroke-width="1.475" stroke-linecap="round" stroke-linejoin="round"/>
<path d="M31.1367 35.4498H56.9275" stroke="#0E3847" stroke-width="1.475" stroke-linecap="round" stroke-linejoin="round"/>
<path d="M31.1367 39.9128H56.9275" stroke="#0E3847" stroke-width="1.475" stroke-linecap="round" stroke-linejoin="round"/>
<path d="M31.1367 44.3758H56.9275" stroke="#0E3847" stroke-width="1.475" stroke-linecap="round" stroke-linejoin="round"/>
<path d="M31.1367 48.8379H56.9275" stroke="#0E3847" stroke-width="1.475" stroke-linecap="round" stroke-linejoin="round"/>
<path d="M31.1367 53.3018H56.9275" stroke="#0E3847" stroke-width="1.475" stroke-linecap="round" stroke-linejoin="round"/>
<path d="M31.1367 57.7639H56.9275" stroke="#0E3847" stroke-width="1.475" stroke-linecap="round" stroke-linejoin="round"/>
<path d="M19.8382 72.5813C19.6067 72.5813 19.4199 72.3948 19.4199 72.1636V42.73C19.4199 42.5731 19.5073 42.4302 19.6467 42.3587C19.7071 42.3272 19.7731 42.3123 19.8382 42.3123C19.9237 42.3123 20.0092 42.3383 20.0808 42.3893L44.0349 59.4421L67.99 42.3893C68.0625 42.3374 68.1471 42.3123 68.2326 42.3123C68.2986 42.3123 68.3637 42.3272 68.4241 42.3587C68.5635 42.4302 68.6509 42.5741 68.6509 42.73V72.1636C68.6509 72.3948 68.4631 72.5813 68.2326 72.5813H19.8382Z" fill="#C5E6EA"/>
<path d="M68.2348 42.7291V72.1627H19.8394V42.7291L44.0371 59.9545L68.2348 42.7291ZM19.8394 41.8927C19.7083 41.8927 19.5764 41.9234 19.4555 41.9856C19.1776 42.1294 19.002 42.4163 19.002 42.7291V72.1627C19.002 72.6241 19.3765 72.9991 19.8394 72.9991H68.2348C68.6967 72.9991 69.0722 72.625 69.0722 72.1627V42.7291C69.0722 42.4163 68.8966 42.1294 68.6186 41.9856C68.4978 41.9234 68.3658 41.8927 68.2348 41.8927C68.0638 41.8927 67.8937 41.9457 67.7487 42.0478L44.0371 58.9269L20.3255 42.0487C20.1814 41.9457 20.0104 41.8937 19.8394 41.8937V41.8927Z" fill="#008183"/>
<path d="M19.8391 72.5814C19.6513 72.5814 19.4868 72.457 19.4357 72.2769C19.3846 72.0968 19.4608 71.9047 19.6207 71.8063L43.8183 57.089C43.8853 57.0482 43.9605 57.0287 44.0358 57.0287C44.1111 57.0287 44.1864 57.0482 44.2533 57.089L68.451 71.8063C68.6109 71.9037 68.6871 72.0959 68.636 72.2769C68.5849 72.457 68.4203 72.5814 68.2326 72.5814H19.8391Z" fill="#C5E6EA"/>
<path d="M44.0376 57.4464L68.2353 72.1637H19.8399L44.0376 57.4464ZM44.0376 56.61C43.887 56.61 43.7355 56.6509 43.6026 56.7326L19.404 71.4489C19.0833 71.6438 18.9318 72.0281 19.0331 72.3892C19.1344 72.7494 19.4635 72.9991 19.839 72.9991H68.2343C68.6098 72.9991 68.9389 72.7494 69.0402 72.3883C69.1415 72.0272 68.99 71.6438 68.6693 71.4489L44.4716 56.7316C44.3378 56.6499 44.1872 56.6091 44.0366 56.6091L44.0376 56.61Z" fill="#008183"/>
</g>
<defs>
<clipPath id="clip0_3006_3886">
<rect width="50.0703" height="59" fill="white" transform="translate(19 14)"/>
</clipPath>
</defs>
</svg>
