<svg width="28" height="28" viewBox="0 0 28 28" fill="none" xmlns="http://www.w3.org/2000/svg">
<path d="M6.99967 8.1665H12.833C13.1424 8.1665 13.4392 8.28942 13.658 8.50821C13.8768 8.72701 13.9997 9.02375 13.9997 9.33317C13.9997 9.64259 13.8768 9.93934 13.658 10.1581C13.4392 10.3769 13.1424 10.4998 12.833 10.4998H6.99967C6.69026 10.4998 6.39351 10.3769 6.17472 10.1581C5.95592 9.93934 5.83301 9.64259 5.83301 9.33317C5.83301 9.02375 5.95592 8.72701 6.17472 8.50821C6.39351 8.28942 6.69026 8.1665 6.99967 8.1665ZM15.1663 17.4998H20.9997C21.3091 17.4998 21.6058 17.6228 21.8246 17.8415C22.0434 18.0603 22.1663 18.3571 22.1663 18.6665C22.1663 18.9759 22.0434 19.2727 21.8246 19.4915C21.6058 19.7103 21.3091 19.8332 20.9997 19.8332H15.1663C14.8569 19.8332 14.5602 19.7103 14.3414 19.4915C14.1226 19.2727 13.9997 18.9759 13.9997 18.6665C13.9997 18.3571 14.1226 18.0603 14.3414 17.8415C14.5602 17.6228 14.8569 17.4998 15.1663 17.4998ZM6.99967 12.8332H20.9997C21.3091 12.8332 21.6058 12.9561 21.8246 13.1749C22.0434 13.3937 22.1663 13.6904 22.1663 13.9998C22.1663 14.3093 22.0434 14.606 21.8246 14.8248C21.6058 15.0436 21.3091 15.1665 20.9997 15.1665H6.99967C6.69026 15.1665 6.39351 15.0436 6.17472 14.8248C5.95592 14.606 5.83301 14.3093 5.83301 13.9998C5.83301 13.6904 5.95592 13.3937 6.17472 13.1749C6.39351 12.9561 6.69026 12.8332 6.99967 12.8332Z" fill="#545454"/>
</svg>
