<svg width="132" height="191" viewBox="0 0 132 191" fill="none" xmlns="http://www.w3.org/2000/svg">
<path d="M48.2109 137.462C48.2969 125.395 50.0786 116.558 53.5528 110.955C57.0271 105.352 63.9556 98.5421 74.3412 90.5212C80.432 85.5236 85.3035 80.134 88.9499 74.3554C92.5963 68.5826 94.421 62.1151 94.421 54.9589C94.421 47.0273 92.341 40.8193 88.1781 36.3376C84.0153 31.8559 78.0737 29.6136 70.3505 29.6136C63.9987 29.6136 58.6137 31.5101 54.1955 35.3029C49.7744 39.0986 47.5223 44.6582 47.4391 51.9845H10.883L10.6248 51.2064C10.3695 34.6544 15.7918 21.9818 26.909 13.1885C38.0204 4.39809 52.5028 0 70.3534 0C89.5753 0 104.657 4.89381 115.6 14.6757C126.539 24.4604 132.01 37.7585 132.01 54.5698C132.01 65.516 128.814 75.6466 122.419 84.9587C116.027 94.2708 108.023 102.073 98.4145 108.364C93.1787 112.417 89.7446 116.489 88.115 120.584C86.4826 124.68 85.6678 130.303 85.6678 137.459H48.2109V137.462ZM85.9289 191H48.0818V158.671H85.9289V191Z" fill="#263238"/>
<g style="mix-blend-mode:multiply" opacity="0.31">
<path d="M48.0654 158.721V166.012C49.7983 165.531 54.8046 164.004 57.2977 163.081C61.495 161.534 63.3626 160.237 64.1946 158.721H48.0654Z" fill="#632824"/>
</g>
<path d="M6.48955 186.476L6.10225 186.798L9.13472 190.482C9.13472 190.482 9.98393 189.776 10.5692 189.288C11.3868 188.608 2.93493 179.616 0.757402 178.751C0.76314 178.751 0 179.38 0 179.38C0 179.38 2.26073 182.126 3.10707 183.155C4.15997 184.435 5.54854 185.798 6.48955 186.473V186.476Z" fill="#263238"/>
<path d="M7.24938 185.847C8.50885 186.752 9.90315 188.481 10.5716 189.291C11.7364 188.352 13.125 187.006 14.2726 185.948C15.3714 184.893 13.0848 182.521 10.9015 182.769C7.8662 182.481 3.97304 178.382 2.27176 178.261C1.34796 178.195 0.762695 178.751 0.762695 178.751C0.762695 178.751 3.02342 181.498 3.86976 182.527C4.92267 183.807 6.37435 185.213 7.25225 185.844L7.24938 185.847Z" fill="#366377"/>
<path d="M36.6213 190.377L36.627 190.885L41.3837 190.827C41.3837 190.827 41.3694 189.72 41.3608 188.957C41.3464 187.89 29.0731 188.853 27.0361 190.011C27.039 190.006 27.0476 191 27.0476 191C27.0476 191 30.5936 190.957 31.9248 190.942C33.5773 190.922 35.5053 190.692 36.6213 190.38V190.377Z" fill="#263238"/>
<path d="M36.6097 189.392C38.1015 188.977 40.3163 188.971 41.3635 188.957C41.4123 187.527 41.3807 187.158 41.3807 184.316C41.2545 182.795 37.4158 181.97 36.2367 183.835C35.64 187.276 28.7688 187.268 27.6069 188.524C26.9757 189.204 27.0389 190.014 27.0389 190.014C27.0389 190.014 30.5849 189.971 31.9161 189.957C33.5686 189.936 35.5711 189.686 36.6125 189.395L36.6097 189.392Z" fill="#366377"/>
<path d="M49.2229 146.417C49.2229 146.417 33.1568 148.627 26.9886 149.682C23.9647 150.201 16.1124 151.458 19.5781 159.576C23.6004 169.001 35.452 184.795 35.452 184.795H41.8124L29.2837 159.432L56.685 155.749C56.685 155.749 65.7509 144.69 49.2229 146.414V146.417Z" fill="#3B8889"/>
<path d="M66.3912 147.57C66.3912 147.57 50.4628 149.469 47.0373 149.544C46.8795 149.547 45.6802 153.21 45.4966 153.285C36.9386 156.793 30.7015 159.683 22.7832 166.88C14.7501 174.18 9.72949 182.394 9.72949 182.394L13.8895 187.294C13.8895 187.294 25.2792 174.604 33.6852 169.497C44.8741 162.701 59.1585 161.349 62.7562 158.666C67.3953 155.207 66.3912 147.57 66.3912 147.57Z" fill="#3B8889"/>
<path d="M40.7855 110.46C41.4425 110.122 41.474 111.025 42.7249 111.881C45.9926 114.117 42.5413 126.153 40.3551 134.332C39.2219 138.572 37.1706 141.039 34.9931 141.313C33.1254 141.549 30.2249 139.756 30.836 136.067C31.8286 130.084 33.5414 125.242 35.2054 119.273C36.2353 115.578 38.0026 111.883 40.7826 110.46H40.7855Z" fill="#3B8889"/>
<path d="M45.5987 109.946C45.8138 111.494 47.1536 113.278 49.7701 112.915C52.3923 112.552 52.8657 110.459 52.6563 108.949C52.3464 106.736 51.2275 98.7466 51.2275 98.7466L44.5859 102.704C44.5859 102.704 45.2774 107.647 45.6015 109.946H45.5987Z" fill="#E0A47C"/>
<g style="mix-blend-mode:multiply">
<path d="M52.207 105.92C51.1369 106.612 49.9319 107.09 48.6237 107.274C47.4446 107.442 46.2826 107.355 45.1724 107.07C44.917 105.243 44.6875 103.603 44.6875 103.603L51.3291 99.6455C51.3291 99.6455 51.7939 102.969 52.207 105.92Z" fill="#F2E6DC"/>
</g>
<path d="M39.1475 113.013C39.1475 113.013 43.6861 108.37 44.9657 107.797L45.1034 108.785C45.3903 110.843 46.2481 112.927 47.8863 112.693C49.5675 112.454 53.0332 109.762 52.7463 107.704L52.6086 106.716C53.9971 106.912 54.4762 107.361 54.4762 107.361L60.0822 150.691C60.0822 150.691 56.7484 151.06 50.3909 150.44C45.069 149.921 43.3964 147.616 43.3964 147.616L39.1532 113.013H39.1475Z" fill="#D8EAEF"/>
<path d="M47.3386 118.028L45.7578 114.22L47.723 112.638L49.892 114.448L48.5579 117.967C48.5579 117.967 48.8046 124.498 49.3469 130.464C49.869 136.225 50.3739 144.252 50.3739 144.252L47.7431 148.624L45.8324 143.425C45.8324 143.425 46.1968 136.084 46.3086 132.917C46.6443 123.645 47.3386 118.028 47.3386 118.028Z" fill="#AA0E0E"/>
<g opacity="0.26">
<path d="M43.3525 109.692L45.1772 107.917L47.6818 112.745L52.5045 106.882L54.7451 108.081L50.9667 117.927L47.8224 113.289L44.9276 118.569L43.3525 109.692Z" fill="#1F363D"/>
</g>
<path d="M43.4346 108.938L45.1932 107.171L47.7409 112.664L44.9752 117.889L43.4346 108.938Z" fill="white"/>
<path d="M54.466 107.379L52.2885 106.171L47.7412 112.664L50.9372 117.1L54.466 107.379Z" fill="white"/>
<path d="M67.3665 127.199C68.6088 139.416 67.8772 151.757 67.5731 154.242C65.6251 156.164 55.535 158.807 51.5672 158.997C51.5672 158.997 51.6619 147.181 51.5672 135.796C51.5443 133.101 51.2947 130.216 51.3406 128.487C51.5758 119.7 53.696 107.157 53.696 107.157C54.4735 107.229 55.2768 107.333 56.0284 107.546C58.8257 108.344 65.5304 109.163 67.3636 127.196L67.3665 127.199Z" fill="#008183"/>
<g opacity="0.25">
<g style="mix-blend-mode:multiply">
<path d="M38.6067 130.839C42.0466 146.325 39.5879 146.549 39.5879 146.549C39.5879 148.72 40.9736 153.245 43.504 154.291C43.504 154.291 45.8106 151.878 45.1364 136.721C45.0245 134.225 44.3876 127.721 44.3676 126.392C44.3331 124.069 43.8884 114.711 44.3188 108.578C43.5901 108.863 43.5757 108.952 42.8929 109.336C40.5117 110.667 35.1439 115.258 38.6039 130.842L38.6067 130.839Z" fill="#0D2528"/>
</g>
</g>
<g opacity="0.76">
<path d="M40.8618 110.636L43.9488 108.575C43.9488 108.575 43.5299 112.708 42.9504 118.939C42.4598 124.239 43.8771 136.356 43.8771 136.356L39.2695 121.862L41.4299 119.423L39.0859 117.988L40.8618 110.633V110.636Z" fill="#0D2528"/>
</g>
<path d="M38.0095 132.067C41.0018 143.483 39.9604 145.204 38.3968 146.774C37.7915 147.382 39.7366 152.685 42.5683 154.031C42.5683 154.031 44.9094 145.644 43.8794 136.358C43.604 133.877 43.5753 131.859 43.4519 130.536C42.5339 120.671 44.2667 108.494 44.2667 108.494C43.5409 108.779 42.815 109.134 42.1322 109.514C39.751 110.846 33.9643 116.627 38.0124 132.067H38.0095Z" fill="#243F47"/>
<path d="M40.816 110.195L44.3649 108.019C44.3649 108.019 43.946 112.151 43.3665 118.383C42.8759 123.683 43.8772 136.358 43.8772 136.358L39.6885 121.305L41.8488 118.867L39.5049 117.432L40.816 110.195Z" fill="#263238"/>
<path d="M42.0984 138.94C42.1501 139.309 42.4886 139.566 42.8558 139.514C43.2231 139.462 43.4784 139.122 43.4268 138.753C43.3751 138.384 43.0366 138.128 42.6694 138.18C42.3021 138.231 42.0468 138.571 42.0984 138.94Z" fill="#334F57"/>
<path d="M42.3857 146.252C42.3627 146.624 42.5951 146.941 42.9078 146.958C43.2177 146.978 43.4902 146.693 43.5132 146.321C43.5361 145.95 43.3009 145.633 42.9882 145.612C42.6754 145.592 42.4058 145.88 42.3828 146.252H42.3857Z" fill="#334F57"/>
<path d="M36.1759 96.8244C37.2547 96.6716 38.0063 95.6657 37.8571 94.5849C37.7051 93.5013 36.7038 92.7433 35.628 92.896L34.0787 93.1151C33 93.2678 32.2484 94.2737 32.4004 95.3574C32.5525 96.441 33.5509 97.1961 34.6296 97.0463L36.1788 96.8272L36.1759 96.8244Z" fill="#EAAE86"/>
<g style="mix-blend-mode:multiply">
<path d="M36.0083 95.6312C36.43 95.5707 36.7255 95.1758 36.6681 94.7521C36.6079 94.3256 36.2149 94.0259 35.7931 94.0864L34.2439 94.3054C33.8222 94.3659 33.5267 94.7637 33.5869 95.1873C33.6471 95.6139 34.0402 95.9108 34.4619 95.8502L36.0112 95.6312H36.0083Z" fill="#F2E6DC"/>
</g>
<path d="M56.9004 93.8932C57.9791 93.7404 58.7337 92.7375 58.5816 91.6538C58.4296 90.5701 57.4283 89.8121 56.3496 89.9649L54.8032 90.1839C53.7245 90.3367 52.97 91.3425 53.122 92.4262C53.2741 93.5099 54.2753 94.265 55.3541 94.1122L56.9004 93.8932Z" fill="#EAAE86"/>
<g style="mix-blend-mode:multiply">
<path d="M56.7309 92.7C57.1555 92.6395 57.451 92.2475 57.3907 91.821C57.3305 91.3944 56.9374 91.0947 56.5128 91.1552L54.9665 91.3743C54.5419 91.4348 54.2464 91.8296 54.3066 92.2562C54.3669 92.6827 54.7599 92.9796 55.1817 92.9191L56.728 92.7H56.7309Z" fill="#F2E6DC"/>
</g>
<path d="M43.0721 76.249C37.5264 77.0329 33.53 81.2466 34.3103 86.8206L36.1178 99.7353C36.8981 105.306 42.1483 110.056 47.6968 109.272C53.2425 108.488 56.9865 102.468 56.2061 96.8964L54.3958 83.9817C53.6155 78.4077 48.6149 75.4651 43.0692 76.249H43.0721Z" fill="#FCC49A"/>
<path d="M44.4316 96.5649C44.4316 96.5649 44.9222 96.7667 45.8948 96.6283C46.7641 96.5044 47.3092 96.1787 47.3092 96.1787C47.3092 96.1787 47.4842 97.4007 46.1214 97.6284C44.9194 97.8302 44.4632 96.9713 44.4316 96.5649Z" fill="#E2A479"/>
<path d="M47.4045 87.2093L50.4915 88.3535C50.7095 88.4342 50.9505 88.3218 51.0308 88.1028C51.1111 87.8838 50.9993 87.6417 50.7812 87.561L47.6914 86.4168C47.4733 86.3361 47.2323 86.4485 47.152 86.6675C47.0717 86.8866 47.1836 87.1286 47.4016 87.2093H47.4045Z" fill="#3F2615"/>
<path d="M40.9799 90.0137C41.1147 89.9071 41.1749 89.7226 41.1147 89.5468C41.0401 89.3249 40.802 89.2096 40.5811 89.2845L37.3851 90.3769C37.167 90.4518 37.0494 90.691 37.124 90.9129C37.1986 91.132 37.4367 91.2501 37.6547 91.1752L40.8508 90.0858C40.8967 90.0685 40.9397 90.0454 40.977 90.0166L40.9799 90.0137Z" fill="#3F2615"/>
<path d="M32.9068 81.9615C32.2785 77.1945 35.9249 74.0847 35.9249 74.0847C37.4253 72.6523 39.4738 71.7732 41.4533 71.2429C41.0919 71.9807 40.475 73.2748 40.8509 72.8079C41.878 71.5225 44.5317 70.7962 45.6449 70.5368C46.9904 70.433 47.8884 70.4792 47.8884 70.531C47.9027 71.7732 46.0781 73.1076 46.9875 72.9895C48.3101 72.8165 49.4577 71.0441 49.7044 71.2083C53.6779 73.8714 54.2144 77.5634 54.421 79.6615C54.662 82.1113 55.2759 90.0342 55.2759 90.0342C55.2759 90.0342 54.4296 85.4632 54.1915 83.7455C53.7496 80.5492 51.0586 77.9784 48.6315 79.6356C46.9244 80.8029 45.6506 81.2438 42.9854 81.3159C38.8885 81.4283 37.8901 81.3764 36.9003 81.4139C34.7199 81.5003 34.0916 83.61 34.3556 85.4892C34.5306 86.74 35.1187 92.461 35.1187 92.461C35.1187 92.461 33.3457 85.2586 32.9125 81.9643L32.9068 81.9615Z" fill="#774A07"/>
<path d="M36.1759 96.8244C37.2547 96.6716 38.0063 95.6657 37.8571 94.5849C37.7051 93.5013 36.7038 92.7433 35.628 92.896L34.0787 93.1151C33 93.2678 32.2484 94.2737 32.4004 95.3574C32.5525 96.441 33.5509 97.1961 34.6296 97.0463L36.1788 96.8272L36.1759 96.8244Z" fill="#EAAE86"/>
<g style="mix-blend-mode:multiply">
<path d="M36.0083 95.6312C36.43 95.5707 36.7255 95.1758 36.6681 94.7521C36.6079 94.3256 36.2149 94.0259 35.7931 94.0864L34.2439 94.3054C33.8222 94.3659 33.5267 94.7637 33.5869 95.1873C33.6471 95.6139 34.0402 95.9108 34.4619 95.8502L36.0112 95.6312H36.0083Z" fill="#F2E6DC"/>
</g>
<path d="M56.9004 93.8932C57.9791 93.7404 58.7337 92.7375 58.5816 91.6538C58.4296 90.5701 57.4283 89.8121 56.3496 89.9649L54.8032 90.1839C53.7245 90.3367 52.97 91.3425 53.122 92.4262C53.2741 93.5099 54.2753 94.265 55.3541 94.1122L56.9004 93.8932Z" fill="#EAAE86"/>
<g style="mix-blend-mode:multiply">
<path d="M56.7309 92.7C57.1555 92.6395 57.451 92.2475 57.3907 91.821C57.3305 91.3944 56.9374 91.0947 56.5128 91.1552L54.9665 91.3743C54.5419 91.4348 54.2464 91.8296 54.3066 92.2562C54.3669 92.6827 54.7599 92.9796 55.1817 92.9191L56.728 92.7H56.7309Z" fill="#F2E6DC"/>
</g>
<path d="M43.0721 76.249C37.5264 77.0329 33.53 81.2466 34.3103 86.8206L36.1178 99.7353C36.8981 105.306 42.1483 110.056 47.6968 109.272C53.2425 108.488 56.9865 102.468 56.2061 96.8964L54.3958 83.9817C53.6155 78.4077 48.6149 75.4651 43.0692 76.249H43.0721Z" fill="#FCC49A"/>
<path d="M44.4316 96.5649C44.4316 96.5649 44.9222 96.7667 45.8948 96.6283C46.7641 96.5044 47.3092 96.1787 47.3092 96.1787C47.3092 96.1787 47.4842 97.4007 46.1214 97.6284C44.9194 97.8302 44.4632 96.9713 44.4316 96.5649Z" fill="#E2A479"/>
<path d="M47.4045 87.2093L50.4915 88.3535C50.7095 88.4342 50.9505 88.3218 51.0308 88.1028C51.1111 87.8838 50.9993 87.6417 50.7812 87.561L47.6914 86.4168C47.4733 86.3361 47.2323 86.4485 47.152 86.6675C47.0717 86.8866 47.1836 87.1286 47.4016 87.2093H47.4045Z" fill="#3F2615"/>
<path d="M40.9799 90.0137C41.1147 89.9071 41.1749 89.7226 41.1147 89.5468C41.0401 89.3249 40.802 89.2096 40.5811 89.2845L37.3851 90.3769C37.167 90.4518 37.0494 90.691 37.124 90.9129C37.1986 91.132 37.4367 91.2501 37.6547 91.1752L40.8508 90.0858C40.8967 90.0685 40.9397 90.0454 40.977 90.0166L40.9799 90.0137Z" fill="#3F2615"/>
<path d="M32.9068 81.9615C32.2785 77.1945 35.9249 74.0847 35.9249 74.0847C37.4253 72.6523 39.4738 71.7732 41.4533 71.2429C41.0919 71.9807 40.475 73.2748 40.8509 72.8079C41.878 71.5225 44.5317 70.7962 45.6449 70.5368C46.9904 70.433 47.8884 70.4792 47.8884 70.531C47.9027 71.7732 46.0781 73.1076 46.9875 72.9895C48.3101 72.8165 49.4577 71.0441 49.7044 71.2083C53.6779 73.8714 54.2144 77.5634 54.421 79.6615C54.662 82.1113 55.2759 90.0342 55.2759 90.0342C55.2759 90.0342 54.4296 85.4632 54.1915 83.7455C53.7496 80.5492 51.0586 77.9784 48.6315 79.6356C46.9244 80.8029 45.6506 81.2438 42.9854 81.3159C38.8885 81.4283 37.8901 81.3764 36.9003 81.4139C34.7199 81.5003 34.0916 83.61 34.3556 85.4892C34.5306 86.74 35.1187 92.461 35.1187 92.461C35.1187 92.461 33.3457 85.2586 32.9125 81.9643L32.9068 81.9615Z" fill="#774A07"/>
<path d="M36.1759 96.8244C37.2547 96.6716 38.0063 95.6657 37.8571 94.5849C37.7051 93.5013 36.7038 92.7433 35.628 92.896L34.0787 93.1151C33 93.2678 32.2484 94.2737 32.4004 95.3574C32.5525 96.441 33.5509 97.1961 34.6296 97.0463L36.1788 96.8272L36.1759 96.8244Z" fill="#EAAE86"/>
<g style="mix-blend-mode:multiply">
<path d="M36.0083 95.6312C36.43 95.5707 36.7255 95.1758 36.6681 94.7521C36.6079 94.3256 36.2149 94.0259 35.7931 94.0864L34.2439 94.3054C33.8222 94.3659 33.5267 94.7637 33.5869 95.1873C33.6471 95.6139 34.0402 95.9108 34.4619 95.8502L36.0112 95.6312H36.0083Z" fill="#F2E6DC"/>
</g>
<path d="M56.9004 93.8932C57.9791 93.7404 58.7337 92.7375 58.5816 91.6538C58.4296 90.5701 57.4283 89.8121 56.3496 89.9649L54.8032 90.1839C53.7245 90.3367 52.97 91.3425 53.122 92.4262C53.2741 93.5099 54.2753 94.265 55.3541 94.1122L56.9004 93.8932Z" fill="#EAAE86"/>
<g style="mix-blend-mode:multiply">
<path d="M56.7309 92.7C57.1555 92.6395 57.451 92.2475 57.3907 91.821C57.3305 91.3944 56.9374 91.0947 56.5128 91.1552L54.9665 91.3743C54.5419 91.4348 54.2464 91.8296 54.3066 92.2562C54.3669 92.6827 54.7599 92.9796 55.1817 92.9191L56.728 92.7H56.7309Z" fill="#F2E6DC"/>
</g>
<path d="M43.0721 76.249C37.5264 77.0329 33.53 81.2466 34.3103 86.8206L36.1178 99.7353C36.8981 105.306 42.1483 110.056 47.6968 109.272C53.2425 108.488 56.9865 102.468 56.2061 96.8964L54.3958 83.9817C53.6155 78.4077 48.6149 75.4651 43.0692 76.249H43.0721Z" fill="#FFBF9D"/>
<path d="M44.4316 96.5649C44.4316 96.5649 44.9222 96.7667 45.8948 96.6283C46.7641 96.5044 47.3092 96.1787 47.3092 96.1787C47.3092 96.1787 47.4842 97.4007 46.1214 97.6284C44.9194 97.8302 44.4632 96.9713 44.4316 96.5649Z" fill="#E2A479"/>
<path d="M47.4045 87.2093L50.4915 88.3535C50.7095 88.4342 50.9505 88.3218 51.0308 88.1028C51.1111 87.8838 50.9993 87.6417 50.7812 87.561L47.6914 86.4168C47.4733 86.3361 47.2323 86.4485 47.152 86.6675C47.0717 86.8866 47.1836 87.1286 47.4016 87.2093H47.4045Z" fill="#3F2615"/>
<path d="M40.9799 90.0137C41.1147 89.9071 41.1749 89.7226 41.1147 89.5468C41.0401 89.3249 40.802 89.2096 40.5811 89.2845L37.3851 90.3769C37.167 90.4518 37.0494 90.691 37.124 90.9129C37.1986 91.132 37.4367 91.2501 37.6547 91.1752L40.8508 90.0858C40.8967 90.0685 40.9397 90.0454 40.977 90.0166L40.9799 90.0137Z" fill="#3F2615"/>
<path d="M32.9068 81.9615C32.2785 77.1945 35.9249 74.0847 35.9249 74.0847C37.4253 72.6523 39.4738 71.7732 41.4533 71.2429C41.0919 71.9807 40.475 73.2748 40.8509 72.8079C41.878 71.5225 44.5317 70.7962 45.6449 70.5368C46.9904 70.433 47.8884 70.4792 47.8884 70.531C47.9027 71.7732 46.0781 73.1076 46.9875 72.9895C48.3101 72.8165 49.4577 71.0441 49.7044 71.2083C53.6779 73.8714 54.2144 77.5634 54.421 79.6615C54.662 82.1113 55.2759 90.0342 55.2759 90.0342C55.2759 90.0342 54.4296 85.4632 54.1915 83.7455C53.7496 80.5492 51.0586 77.9784 48.6315 79.6356C46.9244 80.8029 45.6506 81.2438 42.9854 81.3159C38.8885 81.4283 37.8901 81.3764 36.9003 81.4139C34.7199 81.5003 34.0916 83.61 34.3556 85.4892C34.5306 86.74 35.1187 92.461 35.1187 92.461C35.1187 92.461 33.3457 85.2586 32.9125 81.9643L32.9068 81.9615Z" fill="#616161"/>
<g opacity="0.76">
<path d="M57.0783 107.894L53.9339 107.079C53.9339 107.079 51.9372 113.246 51.7851 120.705C51.6417 127.758 51.94 135.317 51.94 135.317L56.6021 120.411L53.7905 117.737L56.9951 116.774L57.0783 107.891V107.894Z" fill="#0D2528"/>
</g>
<path d="M57.1293 107.719L53.4686 106.73C53.4686 106.73 51.4689 112.898 51.3197 120.357C51.1763 127.409 51.9394 135.32 51.9394 135.32L56.1395 120.063L53.328 117.388L56.5326 116.425L57.1322 107.719H57.1293Z" fill="#334F57"/>
<g style="mix-blend-mode:multiply" opacity="0.34">
<path d="M43.9818 101.715C43.913 101.715 43.847 101.692 43.7896 101.646C43.6634 101.539 43.6462 101.352 43.7523 101.225C43.7753 101.199 45.9126 98.712 49.2664 100.66C49.4099 100.744 49.4586 100.925 49.3754 101.07C49.2922 101.214 49.1115 101.263 48.9681 101.179C46.0389 99.4786 44.2802 101.525 44.2056 101.611C44.1454 101.681 44.0622 101.718 43.9761 101.718L43.9818 101.715Z" fill="#A3673A"/>
</g>
<path d="M41.1032 93.2133C41.1032 93.807 40.627 94.2854 40.036 94.2854C39.445 94.2854 38.9688 93.8041 38.9688 93.2133C38.9688 92.6224 39.4479 92.1411 40.036 92.1411C40.6241 92.1411 41.1032 92.6224 41.1032 93.2133Z" fill="#3F2919"/>
<path d="M51.3054 91.7665C51.3054 92.3573 50.8263 92.8386 50.2381 92.8386C49.65 92.8386 49.1709 92.3573 49.1709 91.7665C49.1709 91.1756 49.65 90.6943 50.2381 90.6943C50.8263 90.6943 51.3054 91.1728 51.3054 91.7665Z" fill="#3F2919"/>
<g opacity="0.44">
<path d="M47.5163 94.2535C47.6511 93.7117 48.7155 93.3341 49.3811 93.1929C50.6491 92.9249 53.3115 92.3917 54.746 92.383C56.1776 92.3686 56.103 93.069 56.1891 94.0489C56.2665 94.9193 56.2751 95.8127 54.614 96.2595C53.0218 96.6831 51.1684 96.8935 49.843 96.9281C48.5175 96.9598 48.0327 96.5304 47.74 95.954C47.456 95.4035 47.4044 94.7031 47.5163 94.2564V94.2535ZM36.4134 94.951C37.7905 94.5677 40.4988 94.3457 41.7898 94.2564C42.4727 94.2074 43.6001 94.2794 43.8756 94.7636C44.1051 95.1643 44.2457 95.8531 44.128 96.4583C44.0018 97.0953 43.6489 97.6429 42.3694 97.9743C41.0841 98.3058 39.2394 98.6141 37.5954 98.643C35.8798 98.6718 35.6446 97.81 35.4782 96.9512C35.2946 95.9857 35.0392 95.3314 36.4134 94.9539V94.951Z" fill="white"/>
</g>
<path d="M57.2849 92.0343C57.2045 91.9709 57.0955 91.9479 56.9578 91.968C56.6939 92.0055 56.3266 92.0141 55.816 92.0257C55.618 92.0314 55.3971 92.0343 55.1532 92.043C54.3815 92.0689 53.2339 92.1784 52.0806 92.3398C51.0105 92.4897 50.0351 92.6684 49.2576 92.8557C48.3797 93.069 47.8346 93.3082 47.3497 93.5215C46.8132 93.7549 46.3513 93.9567 45.5824 94.0662C44.8107 94.1757 44.3115 94.1066 43.732 94.0287C43.2098 93.9596 42.6188 93.8789 41.7151 93.9135C40.9204 93.9452 39.9335 94.0432 38.8605 94.193C37.7101 94.3544 36.574 94.5648 35.8223 94.7493C35.5842 94.8098 35.369 94.8674 35.1768 94.9164C34.6862 95.0461 34.3304 95.1384 34.0694 95.1758C33.9288 95.196 33.8284 95.245 33.7681 95.3314C33.6706 95.4669 33.6993 95.6427 33.7251 95.7955L33.8083 96.3978C33.8513 96.7149 34.0579 96.7725 34.3132 96.8474C34.5255 96.908 34.7493 97.1674 34.9444 97.5766C34.9616 97.617 34.9817 97.666 35.0046 97.7178C35.2083 98.2337 35.5928 99.1992 38.0486 99.0407C38.7888 98.9917 39.5032 98.9197 40.1688 98.8246C41.3192 98.6632 42.3491 98.4355 43.2328 98.1473C44.1795 97.836 44.4722 97.0578 44.7332 96.3719C44.9599 95.7753 45.155 95.2565 45.7374 95.1758C46.3198 95.0951 46.6468 95.539 47.0284 96.0491C47.4645 96.6399 47.9579 97.3057 48.9535 97.346C49.8801 97.3806 50.9359 97.3172 52.0863 97.1558C52.7519 97.0636 53.4577 96.9339 54.1864 96.7783C56.5935 96.2537 56.6939 95.219 56.7484 94.6657C56.7512 94.6109 56.7599 94.5619 56.7656 94.5187C56.8402 94.0749 56.9865 93.7636 57.1787 93.6397C57.391 93.5071 57.5746 93.3918 57.5316 93.0719L57.4599 92.5531C57.457 92.5243 57.4513 92.4955 57.4484 92.4666C57.4312 92.311 57.414 92.1352 57.282 92.0343H57.2849ZM56.0139 93.8328L56.0311 94.0662C56.1172 95.0058 56.0598 95.7551 54.5336 96.1644C53.8393 96.3488 53.0647 96.5016 52.2327 96.6197C51.4007 96.7379 50.5314 96.81 49.7883 96.8301C48.4485 96.8647 48.0297 96.4094 47.7772 95.9108C47.4903 95.3516 47.4645 94.6743 47.562 94.2853C47.671 93.8443 48.5662 93.4667 49.3522 93.3025C50.2933 93.1036 51.6704 92.8298 52.8954 92.6569C53.6442 92.5531 54.2467 92.4983 54.6913 92.4926C55.9107 92.4811 55.9451 92.9595 56.0111 93.8299L56.0139 93.8328ZM43.7348 94.8242C43.9357 95.1701 44.0963 95.8243 43.973 96.4468C43.864 96.9915 43.5857 97.5449 42.2889 97.8821C41.5659 98.0694 40.7081 98.2366 39.8761 98.3519C39.0441 98.4672 38.258 98.5335 37.5408 98.5479C35.9686 98.5738 35.7047 97.8677 35.5297 96.9397L35.4866 96.7149C35.3145 95.856 35.2198 95.3833 36.3932 95.0634C36.8207 94.9452 37.4146 94.83 38.1634 94.7262C39.3884 94.5533 40.7884 94.438 41.7495 94.3717C42.55 94.3141 43.5139 94.4322 43.7377 94.8271L43.7348 94.8242Z" fill="#263238"/>
<g style="mix-blend-mode:multiply" opacity="0.34">
<path d="M45.5226 102.084C45.4509 102.084 45.3763 102.058 45.3189 102.003C45.2013 101.891 45.1927 101.709 45.2988 101.588C45.3218 101.562 45.887 100.954 47.1206 101.326C47.2784 101.375 47.3673 101.542 47.3186 101.697C47.2698 101.856 47.1063 101.945 46.9485 101.896C46.0993 101.637 45.7521 101.974 45.7378 101.988C45.6804 102.049 45.6001 102.078 45.5226 102.078V102.084Z" fill="#A3673A"/>
</g>
<g style="mix-blend-mode:multiply" opacity="0.37">
<path d="M54.2861 104.583C54.2861 104.583 54.4697 103.762 53.4225 103.989C52.3753 104.217 50.6482 106.09 50.6482 106.09C50.6482 106.09 49.1019 103.03 47.1481 100.609C46.4567 99.7498 46.2243 99.5192 45.7854 99.4673C45.5186 99.4356 44.7526 99.6518 45.2862 100.427C46.6948 102.482 47.2887 104.128 47.2887 104.128C47.2887 104.128 46.8928 103.721 46.2415 104.22C45.7481 104.595 45.8772 105.318 45.8772 105.318C45.8772 105.318 45.4526 105.157 45.1026 105.41C44.6034 105.776 44.7382 106.278 44.7382 106.278C44.7382 106.278 43.9636 106.552 44.0554 107.191C44.0984 107.488 44.4513 108.327 44.9161 109.215C45.8227 109.379 46.7551 109.408 47.699 109.275C49.122 109.073 50.4245 108.526 51.5634 107.733C52.4758 106.015 54.2861 104.589 54.2861 104.589V104.583Z" fill="#E2A479"/>
</g>
<g style="mix-blend-mode:multiply" opacity="0.29">
<path d="M62.3228 113.266C63.2666 114.163 63.4015 117.235 63.347 118.662C63.149 123.947 61.2354 129.936 58.3378 134.118C54.2352 140.041 48.2621 136.721 50.0867 131.101C51.1913 127.697 53.5524 126.706 56.0799 118.425C56.5992 116.731 57.6378 115.125 58.7595 114.235C59.4136 113.716 61.6973 112.673 62.3199 113.263L62.3228 113.266Z" fill="#243F47"/>
</g>
<path d="M61.8557 111.39C62.7996 112.29 63.3476 113.408 63.296 114.832C63.098 120.117 60.6307 126.988 56.6945 133.583C53.4182 139.07 48.1192 135.96 49.9439 130.34C51.0484 126.936 53.7711 123.809 56.2986 115.529C56.8179 113.834 57.8564 112.229 58.9782 111.338C59.6323 110.82 61.236 110.797 61.8586 111.387L61.8557 111.39Z" fill="#243F47"/>
<g style="mix-blend-mode:multiply" opacity="0.22">
<path d="M55.2244 118.717C53.0468 124.657 50.9123 127.386 49.9541 130.294C50.1894 131.871 50.4332 133.199 50.6828 134.029C52.0054 138.453 54.5961 134.744 55.5973 133.632C56.4236 132.712 56.6875 129.009 56.3432 126.4C55.9932 123.755 55.5858 121.017 55.2244 118.717Z" fill="#152429"/>
</g>
<g style="mix-blend-mode:multiply" opacity="0.3">
<path d="M59.1537 139.306C59.1537 139.306 60.0431 138.854 59.782 138.159C59.5582 137.569 58.7062 137.822 58.7062 137.822C58.7062 137.822 59.3861 137.462 59.2369 136.848C59.0992 136.289 58.5512 136.263 58.2271 136.326C54.0671 137.11 52.5322 136.773 52.3945 136.845C52.3342 136.877 53.39 135.165 53.7228 134.758C54.0527 134.352 54.1101 133.943 53.7372 133.64C53.3212 133.306 52.6728 133.92 52.6728 133.92C52.6728 133.92 50.5411 135.482 49.471 136.635L49.4567 136.473L48.53 136.617C48.5243 136.491 48.5214 136.401 48.5243 136.361L39.6621 135.727C39.7711 138.638 39.817 141.211 39.817 141.211L39.906 143.434C43.825 143.128 49.0464 142.269 49.0464 142.269C49.0464 142.269 49.0378 142.189 49.0235 142.047L49.976 141.969L49.9387 141.592C51.0145 141.92 52.647 142.255 53.4388 142.307C55.0368 142.413 56.8528 142.333 58.3418 141.632C59.3517 141.16 59.0332 140.603 59.0332 140.603C59.0332 140.603 59.7562 140.263 59.6128 139.739C59.5009 139.324 59.1537 139.306 59.1537 139.306Z" fill="#0D2528"/>
</g>
<path d="M48.4138 138.096C48.3622 137.373 48.4626 136.848 49.1827 135.932C50.0921 134.779 52.6713 132.888 52.6713 132.888C52.6713 132.888 53.3197 132.274 53.7357 132.608C54.1115 132.911 54.0513 133.32 53.7214 133.727C53.3886 134.133 52.3328 135.845 52.393 135.813C52.5307 135.741 54.0685 136.079 58.2256 135.295C58.5498 135.234 59.0978 135.257 59.2355 135.816C59.3847 136.427 58.7047 136.79 58.7047 136.79C58.7047 136.79 59.5597 136.537 59.7806 137.13C60.0416 137.828 59.1523 138.278 59.1523 138.278C59.1523 138.278 59.4994 138.298 59.6113 138.71C59.7547 139.237 59.0318 139.575 59.0318 139.575C59.0318 139.575 59.3531 140.131 58.3404 140.603C56.8514 141.301 55.0353 141.384 53.4373 141.278C52.3213 141.203 49.527 140.566 48.9933 140.183C48.2388 139.641 48.4597 138.765 48.4109 138.099L48.4138 138.096Z" fill="#E8AD85"/>
<path d="M48.2642 135.629L49.4548 135.441L49.977 140.94L48.1523 141.09L48.2642 135.629Z" fill="white"/>
<path d="M48.5258 135.329L31.249 134.095C31.249 134.095 30.2449 136.974 30.9506 139.145C31.7597 141.629 34.5483 142.52 37.6525 142.511C41.3764 142.499 49.0451 141.24 49.0451 141.24C49.0451 141.24 48.4856 135.741 48.5229 135.329H48.5258Z" fill="#008183"/>
<path d="M52.4762 115.371C52.4762 115.371 51.4032 110.627 51.6327 109.436C52.0573 107.223 54.8144 105.05 54.8144 105.05C54.8144 105.05 54.9951 104.228 53.9508 104.456C52.9037 104.684 51.1766 106.557 51.1766 106.557C51.1766 106.557 49.6302 103.496 47.6765 101.075C46.9822 100.217 46.7527 99.986 46.3137 99.9341C46.0469 99.9024 45.2809 100.119 45.8145 100.894C47.2232 102.949 47.817 104.594 47.817 104.594C47.817 104.594 47.4211 104.188 46.7699 104.687C46.2764 105.061 46.4055 105.785 46.4055 105.785C46.4055 105.785 45.9809 105.623 45.6309 105.877C45.1317 106.243 45.2665 106.745 45.2665 106.745C45.2665 106.745 44.4919 107.018 44.5837 107.658C44.6468 108.114 45.4473 109.851 46.2678 111.085C47.0855 112.319 48.4052 112.638 48.4052 112.638L49.1884 115.933L52.4762 115.374V115.371Z" fill="#FFD2B3"/>
<path d="M52.6678 114.333C52.7166 114.134 52.2719 112.238 52.2719 112.238L47.3574 113.434L47.7046 115.777L52.6678 114.33V114.333Z" fill="#D8EAEF"/>
<path d="M56.5415 131.689L52.8664 113.085L47.1084 114.682C47.1084 114.682 48.2502 129.343 49.4408 133.335C50.7634 137.759 53.6611 136.577 55.2505 135.231C56.5185 134.156 56.5415 131.689 56.5415 131.689Z" fill="#263238"/>
<path d="M80.9404 169.284H81.9273V168.54C81.9273 167.722 82.59 167.056 83.4048 167.056H89.9632C90.778 167.056 91.4407 167.722 91.4407 168.54V169.229H92.4276V168.54C92.4276 167.177 91.3231 166.064 89.9632 166.064H83.4048C82.0449 166.064 80.9375 167.177 80.9375 168.54V169.284H80.9404Z" fill="#0E3C54"/>
<path d="M90.7344 170.33C90.7344 170.514 90.8807 170.661 91.0643 170.661H92.7627C92.9435 170.661 93.0926 170.514 93.0926 170.33V169.229C93.0926 169.047 92.9435 168.9 92.7627 168.9H91.0643C90.8836 168.9 90.7344 169.047 90.7344 169.229V170.33Z" fill="#F99920"/>
<path d="M80.5409 168.897H82.2393C82.4201 168.897 82.5693 169.044 82.5693 169.229V170.33C82.5693 170.511 82.423 170.658 82.2422 170.658H80.5409C80.3602 170.658 80.2139 170.511 80.2139 170.33V169.229C80.2139 169.047 80.3602 168.9 80.5409 168.9V168.897Z" fill="#F99920"/>
<path d="M72.0547 189.017C72.0547 190.113 72.9383 191 74.0285 191H99.1748C100.265 191 101.149 190.115 101.149 189.017V171.186C101.149 170.638 100.707 170.194 100.162 170.194H73.0416C72.4965 170.194 72.0547 170.638 72.0547 171.186V189.017Z" fill="#234354"/>
<path d="M73.0904 171.186H100.211C100.753 171.186 101.195 171.629 101.195 172.177V178.12C101.195 180.307 99.4273 182.083 97.2498 182.083H88.0806V183.1C88.0806 183.922 87.4179 184.587 86.6002 184.587C85.7826 184.587 85.1199 183.922 85.1199 183.1V182.083H76.0454C73.8679 182.083 72.1006 180.307 72.1006 178.12V172.177C72.1006 171.632 72.5424 171.186 73.0875 171.186H73.0904Z" fill="#082633"/>
<path d="M72.1035 177.129C72.1035 179.316 73.8708 181.092 76.0483 181.092H97.2527C99.4302 181.092 101.197 179.316 101.197 177.129V171.186C101.197 170.638 100.756 170.194 100.213 170.194H73.0933C72.5482 170.194 72.1064 170.638 72.1064 171.186V177.129H72.1035Z" fill="#366377"/>
<path d="M85.123 182.109C85.123 182.931 85.7858 183.597 86.6034 183.597C87.4211 183.597 88.0838 182.931 88.0838 182.109V179.743H85.1259V182.109H85.123Z" fill="#F99920"/>
<path d="M85.4531 182.011C85.4531 182.651 85.9695 183.167 86.6036 183.167C87.2376 183.167 87.754 182.651 87.754 182.011V180.169H85.4531V182.011Z" fill="#FFAF57"/>
<path d="M87.9366 181.097H85.4033V181.495H87.9366V181.097Z" fill="#F99920"/>
</svg>
