<svg width="141" height="181" viewBox="0 0 141 181" fill="none" xmlns="http://www.w3.org/2000/svg">
<path d="M76.2509 156.137C76.2509 156.137 74.0039 170.511 75.7382 180.056H123.91C123.91 180.056 124.11 165.993 122.087 153.749L76.2475 156.141L76.2509 156.137Z" fill="#263238"/>
<path d="M91.8597 85.8007C91.8597 85.8007 80.8344 86.4201 75.3699 89.7167C69.9089 93.0133 53.2126 113.419 51.7708 122.693C50.329 131.967 66.0961 150.002 67.6412 151.034C69.1863 152.063 73.8249 145.339 74.2378 144.437C74.6473 143.536 65.7864 126.919 65.7864 123.725C65.7864 120.532 76.7085 109.71 76.7085 109.71C76.7085 109.71 77.0182 143.821 74.957 157.011C74.957 157.011 101.03 168.243 123.597 159.072C123.597 159.072 120.813 139.492 121.329 127.228L131.477 123.508C129.881 113.626 124.774 96.4372 121.543 92.5797C118.315 88.7222 105.559 86.3168 105.559 86.3168C105.559 86.3168 94.74 83.9459 94.4303 84.1524C94.1206 84.3589 91.8529 85.8007 91.8529 85.8007H91.8597Z" fill="#008183"/>
<path d="M66.0961 145.573C64.5511 145.883 70.105 152.706 72.0733 153.818C74.4443 155.156 76.9184 153.818 78.8764 154.644C80.8344 155.469 82.0698 156.602 82.8956 156.705C83.7215 156.808 84.131 156.498 84.0278 155.676C84.0278 155.676 85.9858 156.192 85.6761 154.234C85.6761 154.234 87.0628 154.079 86.5019 152.173C86.5019 152.173 87.634 152.07 86.9149 150.421C86.1957 148.773 84.2342 146.815 81.557 145.886C78.8764 144.957 76.7739 145.267 75.4353 145.576C74.0967 145.886 72.4897 141.867 71.7671 141.66C71.0444 141.454 72.18 142.28 71.0444 141.454C69.9123 140.628 66.0996 145.576 66.0996 145.576L66.0961 145.573Z" fill="#ECC5AE"/>
<path d="M93.3012 79.0007C93.3012 79.0007 92.3721 83.5361 91.8594 85.8038C91.8594 85.8038 99.6914 89.823 106.904 85.907C106.904 85.907 105.975 80.1363 105.875 79.0041C105.772 77.872 93.3012 79.0041 93.3012 79.0041V79.0007Z" fill="#ECC5AE"/>
<path d="M109.055 78.5055C109.055 78.5055 117.228 74.1731 118.133 62.9689C119.43 46.9092 108.556 44.1804 108.556 44.1804C108.556 44.1804 105.263 38.5129 103.371 39.0359C101.475 39.5624 101.974 41.5548 101.974 41.5548C101.974 41.5548 95.6901 36.8302 92.9957 37.9864C90.3013 39.1426 90.6007 42.6044 90.6007 42.6044C90.6007 42.6044 85.4149 37.5666 82.4212 40.6085C79.4274 43.6539 82.6208 50.1611 82.6208 50.1611C82.6208 50.1611 77.7344 58.3475 82.4212 69.0562C87.108 79.7615 93.3949 80.288 97.6825 79.4484C101.974 78.6087 109.055 78.5021 109.055 78.5021V78.5055Z" fill="#263238"/>
<path d="M87.8128 63.6017C87.8128 63.6017 84.4129 63.292 84.6194 66.8982C84.8259 70.5045 87.8128 70.6078 87.8128 70.6078C87.8128 70.6078 90.311 82.5037 101.133 82.194C111.952 81.8843 112.159 70.2396 112.159 70.2396C112.159 70.2396 115.004 69.2348 114.736 66.53C114.468 63.8253 112.365 64.0559 112.365 64.0559C112.365 64.0559 108.552 60.1399 107.726 56.3271C107.726 56.3271 96.4947 57.769 91.5464 56.6368C91.5464 56.6368 89.6641 62.3629 87.8093 63.5982L87.8128 63.6017Z" fill="#FFBF9D"/>
<path d="M111.852 95.7974C110.39 93.4713 109.688 91.5718 109.275 88.3784C108.862 85.1851 110.923 80.4432 109.997 78.7949C109.068 77.1466 107.626 78.7949 106.598 79.927C105.569 81.0592 104.949 83.7398 104.64 83.843C104.33 83.9462 95.6755 77.8658 93.3046 76.6304C90.9337 75.3951 89.8015 77.4563 91.0369 79.2078C92.2723 80.9594 95.0561 83.7432 95.0561 83.7432C95.0561 83.7432 94.9529 84.8685 94.9529 86.6303C94.9529 87.4562 94.127 88.5883 94.6432 89.6172C95.1593 90.6461 94.3335 91.2655 95.3658 92.6041C96.3947 93.9427 100.62 98.2716 103.611 100.23C106.598 102.188 111.856 95.7974 111.856 95.7974H111.852Z" fill="#FFBF9D"/>
<path d="M101.959 99.8159C101.701 100.153 113.088 127.538 118.656 132.073C124.22 136.608 131.126 134.96 131.742 126.199C132.362 117.438 115.356 98.3741 112.266 94.1484C112.266 94.1484 103.711 97.5483 101.959 99.8159Z" fill="#008183"/>
<path d="M74.2379 144.44C74.4134 144.055 72.8786 140.762 71.0686 136.884C70.8243 137.011 70.5869 137.142 70.3494 137.283C68.9799 138.095 67.7239 139.1 66.633 140.26C65.4046 141.564 64.3825 143.067 63.6324 144.695C63.4362 145.125 63.2573 145.576 63.1162 146.037C65.3564 148.804 67.1664 150.72 67.6413 151.034C69.1863 152.063 73.825 145.339 74.2379 144.437V144.44Z" fill="#C8C8C8"/>
<path d="M126.305 119.937C126.047 119.462 125.751 119.007 125.476 118.546C124.963 117.689 124.451 116.833 123.941 115.972C122.919 114.262 121.901 112.552 120.865 110.852C118.838 107.524 116.897 104.166 115.455 100.536C115.049 99.517 114.671 98.4881 114.292 97.4626C114.107 96.9637 113.917 96.4647 113.731 95.9657C113.673 95.8143 113.621 95.6629 113.563 95.5184C113.838 95.3326 113.931 94.9541 113.776 94.6203C113.177 93.3402 111.223 94.314 110.332 94.6684C109.736 94.9059 109.186 95.2156 108.604 95.4771C108.036 95.7317 107.476 96.0002 106.922 96.2858C105.813 96.8536 104.733 97.4833 103.69 98.1646C103.167 98.5053 102.655 98.8597 102.152 99.2279C101.918 99.3965 101.688 99.572 101.46 99.7441C101.347 99.8301 101.233 99.9127 101.123 100.006C101.01 100.102 100.896 100.264 100.769 100.333C100.494 100.484 100.487 100.749 100.614 100.942C101.048 103.295 102.066 105.549 102.995 107.748C103.945 109.995 104.967 112.211 106.065 114.393C108.264 118.77 110.803 122.941 113.645 126.929C114.451 128.061 115.283 129.176 116.133 130.274C116.543 130.8 116.945 131.333 117.393 131.829C117.647 132.111 117.923 132.362 118.267 132.528C118.587 132.682 118.931 132.703 119.248 132.851C119.375 132.91 119.537 132.813 119.492 132.662C119.416 132.4 119.437 132.149 119.392 131.881C119.341 131.567 119.224 131.258 119.051 130.989C118.707 130.442 118.263 129.947 117.857 129.444C117.124 128.543 116.409 127.631 115.71 126.702C114.244 124.758 112.851 122.762 111.533 120.714C108.924 116.667 106.526 112.48 104.485 108.12C103.911 106.891 103.36 105.652 102.833 104.4C102.365 103.285 101.918 102.174 101.361 101.103C101.767 100.948 102.145 100.58 102.479 100.346C102.95 100.016 103.429 99.6959 103.914 99.3897C104.908 98.7634 105.93 98.1818 106.98 97.6553C107.999 97.1426 109.031 96.6333 110.129 96.3271C110.679 96.1722 111.213 95.9417 111.756 95.7662C111.98 95.6939 112.228 95.5941 112.469 95.5735C112.503 95.7455 112.562 95.9176 112.62 96.0999C112.789 96.6058 112.957 97.1116 113.129 97.6175C113.439 98.5294 113.756 99.4413 114.082 100.346C114.75 102.191 115.49 104.004 116.347 105.769C118.085 109.338 120.149 112.751 122.148 116.179L123.821 119.045C124.106 119.534 124.392 120.026 124.678 120.515C124.97 121.014 125.304 121.633 125.927 121.726C126.24 121.774 126.484 121.65 126.598 121.344C126.784 120.848 126.553 120.37 126.316 119.933L126.305 119.937Z" fill="#C8C8C8"/>
<path d="M88.3298 66.7574C88.3263 66.2791 88.1508 65.8387 87.848 65.4739C87.7 65.295 87.5073 65.1401 87.3043 65.0265C87.1907 64.9612 87.0669 64.9095 86.9464 64.8683C86.7812 64.8098 86.6402 64.827 86.475 64.8545C86.3201 64.8786 86.2031 65.0506 86.1859 65.1917C86.1618 65.3603 86.241 65.5014 86.3786 65.5943C86.3786 65.5943 86.413 65.6184 86.4268 65.6287C86.444 65.6425 86.4647 65.6597 86.4991 65.6838C86.5369 65.701 86.5713 65.7148 86.6092 65.732C86.6195 65.7354 86.6161 65.732 86.623 65.7354C86.6505 65.7526 86.6815 65.7629 86.709 65.7802C86.764 65.8111 86.8157 65.849 86.8707 65.8799C86.8982 65.904 86.9292 65.9316 86.9567 65.9556C86.998 65.9969 87.0359 66.0417 87.0772 66.083C87.0772 66.083 87.0772 66.083 87.0806 66.0899C87.0978 66.1174 87.115 66.1449 87.1322 66.1724C87.1632 66.2275 87.1907 66.2826 87.2183 66.3376C87.2183 66.3411 87.2183 66.3445 87.2183 66.3479C87.2183 66.3583 87.2252 66.3651 87.2286 66.3755C87.2011 66.3927 87.1735 66.4099 87.1494 66.4305C87.0324 66.5269 86.9671 66.6714 86.9292 66.8125C86.9292 66.8194 86.9258 66.8262 86.9223 66.8366C86.7778 67.0155 86.6539 67.2082 86.5886 67.4319C86.4853 67.7829 86.6264 68.1786 86.9292 68.3782C87.1495 68.5227 87.4936 68.509 87.6794 68.3059C87.6794 68.3059 87.8033 68.1786 87.7654 68.2061C87.8205 68.1476 87.8721 68.0788 87.9203 68.0134C88.1921 67.659 88.3366 67.1945 88.3332 66.7471L88.3298 66.7574Z" fill="#E1A484"/>
<path d="M112.819 66.8161C112.826 66.7885 112.833 66.7576 112.843 66.73C112.857 66.6853 112.874 66.6371 112.891 66.5924C112.898 66.5752 112.905 66.5614 112.912 66.5442C112.912 66.5442 112.912 66.5442 112.912 66.5408C112.953 66.4513 112.994 66.3653 113.043 66.2792C113.091 66.1932 113.142 66.1106 113.197 66.0315C113.208 66.0143 113.311 65.8732 113.246 65.9627C113.318 65.8663 113.366 65.794 113.397 65.677C113.449 65.4981 113.376 65.302 113.232 65.1919C113.077 65.0714 112.891 65.0714 112.719 65.1574C112.495 65.2676 112.337 65.536 112.21 65.7459C112.086 65.9489 111.986 66.1657 111.9 66.3859C111.731 66.8126 111.635 67.3391 111.797 67.783C111.976 68.2751 112.378 68.5951 112.901 68.6398C113.425 68.6811 113.917 68.2889 113.948 67.7555C113.982 67.1705 113.404 66.5717 112.819 66.8195V66.8161Z" fill="#E1A484"/>
<path d="M84.0442 155.838C83.7965 155.132 83.1495 154.768 82.5749 154.348C81.928 153.876 81.281 153.395 80.5894 152.988C79.9596 152.62 79.2714 152.324 78.5591 152.152C77.9225 152.001 77.1414 151.908 76.5701 152.297C76.522 152.328 76.5323 152.393 76.5839 152.414C77.1964 152.641 77.864 152.679 78.4868 152.889C79.1613 153.112 79.7876 153.47 80.376 153.859C80.9816 154.258 81.5494 154.709 82.1207 155.153C82.6575 155.569 83.2046 156.058 83.9341 155.975C83.9995 155.968 84.0649 155.91 84.0408 155.838H84.0442Z" fill="#E1A484"/>
<path d="M85.1041 152.689C84.0512 151.984 83.0188 151.186 81.8936 150.601C81.2845 150.284 80.6307 150.067 79.9528 149.964C79.3403 149.871 78.566 149.775 78.0086 150.115C77.8572 150.208 77.9053 150.408 78.0533 150.466C78.6108 150.694 79.2955 150.621 79.8805 150.745C80.4862 150.872 81.0505 151.093 81.5804 151.409C82.7057 152.077 83.7071 152.944 84.7738 153.698C85.0319 153.88 85.7029 154.293 85.9472 153.87C86.2328 153.381 85.3966 152.889 85.1007 152.693L85.1041 152.689Z" fill="#E1A484"/>
<path d="M84.8195 150.174C84.3343 149.73 83.8043 149.334 83.2503 148.98C82.6997 148.629 82.1216 148.319 81.5263 148.061C81.2269 147.93 80.9344 147.827 80.6213 147.744C80.3426 147.672 80.0019 147.589 79.7335 147.734C79.6681 147.768 79.6509 147.854 79.6853 147.92C79.8161 148.164 80.1086 148.284 80.346 148.398C80.6316 148.536 80.9172 148.67 81.2028 148.804C81.7637 149.069 82.304 149.379 82.8167 149.723C83.326 150.067 83.8078 150.452 84.262 150.865C84.6715 151.24 85.0982 151.894 85.6969 151.942C85.8243 151.953 85.9069 151.832 85.9172 151.722C85.9757 151.096 85.2358 150.542 84.8263 150.167L84.8195 150.174Z" fill="#E1A484"/>
<path d="M104.819 83.4299C104.702 83.2234 104.623 82.9997 104.485 82.807C104.347 82.6109 104.158 82.4698 103.979 82.3184C103.601 81.9984 103.215 81.6887 102.823 81.3859C102.042 80.7802 101.24 80.209 100.414 79.6687C98.6866 78.5469 96.8525 77.5525 94.984 76.6887C94.1822 76.3171 93.2909 76.0418 92.4135 76.3137C91.5601 76.5786 90.9957 77.2806 90.9372 78.1753C90.8718 79.1147 91.3914 79.9303 91.9764 80.6185C92.6715 81.4375 93.4079 82.2221 94.1237 83.0238C94.4472 83.3852 94.7706 83.7568 95.0941 84.1215C94.6708 84.3659 94.4024 84.8786 94.3164 85.35C94.1994 85.9866 94.2923 86.6198 94.5676 87.2048C94.5951 87.2667 94.633 87.3218 94.6674 87.3837C94.5676 87.4147 94.4712 87.4697 94.4059 87.5317C94.1787 87.7554 94.0858 88.096 94.0549 88.4023C93.9826 89.0871 94.2269 89.8235 94.5332 90.4257C94.8429 91.0279 95.2868 91.5853 95.8133 92.0155C96.0955 92.246 96.474 92.5179 96.849 92.5488C96.9936 92.5592 97.1347 92.5592 97.2792 92.5695C97.4719 92.5798 97.5648 92.5351 97.6956 92.4318C97.7334 92.4009 97.7403 92.3424 97.73 92.3011C97.6956 92.1669 97.6715 92.0912 97.5648 92.0017C97.4925 91.9432 97.4272 91.8778 97.3618 91.8159C97.0521 91.4236 96.6357 91.2137 96.2813 90.8764C95.9234 90.5392 95.6584 90.1813 95.4313 89.7443C95.2145 89.328 95.0872 88.8737 94.9771 88.4023C94.9358 88.2302 94.9289 88.0754 94.9943 87.9033C95.2558 88.2543 95.5586 88.5778 95.8787 88.8634C96.1608 89.1146 96.4705 89.3727 96.8284 89.5103C97.1347 89.6273 97.6508 89.586 97.73 89.1869C97.7437 89.1146 97.7197 89.063 97.6612 89.0217C97.6508 89.0148 97.6371 89.0079 97.6267 89.001C97.5097 88.798 97.3136 88.595 97.145 88.447C96.9351 88.2612 96.7217 88.0788 96.5049 87.8964C96.0954 87.5489 95.7135 87.1669 95.4554 86.6921C95.2661 86.3411 95.1767 85.9178 95.2317 85.5118C95.2765 85.1814 95.4107 84.9199 95.5758 84.6549C95.8408 84.944 96.1092 85.2261 96.3914 85.498C96.7665 85.8559 97.176 86.2241 97.6508 86.4409C98.1154 86.6508 98.7004 86.6852 99.2062 86.7265C99.3542 86.7368 99.368 86.5475 99.275 86.4753C98.9344 86.2172 98.6763 85.9144 98.3735 85.615C98.0741 85.3156 97.7128 85.0747 97.3996 84.7891C96.7596 84.2076 96.1987 83.54 95.6206 82.8965C94.9909 82.1945 94.3611 81.496 93.7314 80.794C93.2015 80.2056 92.5029 79.5965 92.2208 78.836C91.9833 78.1994 92.1863 77.5525 92.8952 77.4114C93.6695 77.26 94.4472 77.728 95.1113 78.0583C96.6976 78.8463 98.2874 79.6515 99.805 80.5669C100.634 81.0658 101.439 81.5992 102.224 82.1636C102.634 82.4595 103.036 82.7623 103.432 83.0789C103.601 83.2131 103.755 83.3507 103.948 83.4471C104.161 83.5538 104.399 83.5985 104.623 83.688C104.77 83.7499 104.887 83.5538 104.819 83.4333V83.4299Z" fill="#E1A484"/>
<path d="M110.132 79.2665C109.802 78.0621 108.622 77.2465 107.403 77.7627C106.189 78.2789 105.71 79.6829 105.28 80.8219C104.995 81.5823 104.75 82.3635 104.565 83.1584C104.386 83.9051 104.258 84.6897 104.417 85.4502C104.458 85.6429 104.747 85.6773 104.84 85.5052C105.184 84.8548 105.335 84.1288 105.525 83.4199C105.721 82.6801 105.951 81.9506 106.227 81.2382C106.474 80.5948 106.736 79.8824 107.152 79.3215C107.496 78.8604 108.143 78.4372 108.673 78.8811C109.207 79.325 109.183 80.1199 109.138 80.7427C109.079 81.5376 108.98 82.3291 108.9 83.1205C108.818 83.9257 108.739 84.731 108.656 85.5327C108.618 85.9113 108.591 86.2795 108.615 86.658C108.639 87.0812 108.739 87.415 108.869 87.8142C108.897 87.9002 109.021 87.9243 109.069 87.8417C109.244 87.5355 109.403 87.2774 109.503 86.9402C109.609 86.5823 109.671 86.2279 109.716 85.8562C109.805 85.1061 109.871 84.3559 109.946 83.6023C110.022 82.8521 110.101 82.102 110.177 81.3484C110.249 80.6567 110.325 79.9444 110.139 79.2596L110.132 79.2665Z" fill="#E1A484"/>
<path d="M115.094 63.4714C114.894 63.4438 114.732 63.3716 114.519 63.3716C114.299 63.3716 114.082 63.3957 113.862 63.3888C113.428 63.3785 112.991 63.2339 112.606 63.0378C111.78 62.6214 111.098 61.9469 110.531 61.2243C109.942 60.4742 109.467 59.6345 109.034 58.788C108.81 58.351 108.611 57.8968 108.383 57.4632C108.277 57.2567 108.16 57.0571 108.029 56.8644C107.971 56.7784 107.902 56.6924 107.833 56.6029C107.933 56.5823 108.032 56.5582 108.129 56.5306C108.301 56.4825 108.459 56.4205 108.593 56.2966C108.748 56.1556 108.82 55.9663 108.965 55.8183C109.01 55.7702 108.986 55.7013 108.927 55.6807C108.738 55.6084 108.607 55.4673 108.418 55.402C108.218 55.3331 108.015 55.3572 107.812 55.3916C107.392 55.4605 106.976 55.5568 106.56 55.636C105.723 55.7908 104.884 55.925 104.041 56.042C102.382 56.2691 100.71 56.4171 99.034 56.4928C97.3719 56.5685 95.7064 56.5685 94.0409 56.4997C93.2735 56.4687 92.5027 56.4102 91.7526 56.2381C91.5461 56.19 91.3396 56.1349 91.1332 56.0764C91.1297 56.042 91.1228 56.0076 91.1194 55.9732C91.1091 55.8837 91.0058 55.8527 90.9508 55.9284C90.9301 55.9594 90.9061 55.9835 90.882 56.011C90.8028 55.9904 90.7237 55.9663 90.6445 55.9491C90.5619 55.9078 90.4794 55.8871 90.3864 55.8837C90.2832 55.839 90.2281 55.8699 90.2281 55.9697C90.2247 55.9732 90.2247 55.9732 90.2213 55.9766C90.235 55.9147 90.2006 55.8493 90.1593 55.7977C90.0939 55.722 89.9494 55.7013 89.8668 55.7598C89.4814 56.0282 89.8359 56.4928 90.1077 56.7096C90.1559 56.7474 90.211 56.7853 90.2626 56.8197C90.1662 57.009 90.118 57.212 90.0595 57.4288C89.9184 57.9449 89.7774 58.4611 89.6191 58.9738C89.3025 59.9821 88.8964 60.9731 88.2702 61.83C87.7196 62.5836 86.9316 63.1858 86.0403 63.4782C85.6274 63.6124 85.1938 63.6985 84.774 63.7983C84.6536 63.8258 83.9894 63.7742 83.9825 63.9875C83.9722 64.3144 84.6501 64.4865 84.8807 64.5656C85.3762 64.7342 85.9543 64.6345 86.4429 64.483C87.434 64.1733 88.3424 63.5264 88.9962 62.7246C89.7326 61.8196 90.2144 60.7598 90.5826 59.6586C90.765 59.108 90.9198 58.5471 91.0712 57.9862C91.1332 57.7522 91.233 57.4907 91.2708 57.2361C91.4807 57.2911 91.6906 57.3359 91.8902 57.3737C93.215 57.6318 94.5846 57.6628 95.9301 57.6834C98.8 57.7281 101.67 57.5423 104.516 57.1535C105.331 57.0434 106.147 56.9126 106.959 56.7646C107.052 56.7474 107.148 56.7302 107.244 56.7165C107.176 57.0021 107.244 57.3221 107.351 57.6421C107.54 58.1858 107.802 58.7089 108.053 59.225C108.549 60.2436 109.106 61.2174 109.815 62.1052C110.5 62.9621 111.343 63.7329 112.358 64.1733C112.864 64.3936 113.421 64.5381 113.979 64.5209C114.257 64.5106 114.54 64.4658 114.78 64.3248C115.028 64.1802 115.101 64.0219 115.221 63.7811C115.273 63.6744 115.238 63.4954 115.097 63.4748L115.094 63.4714Z" fill="#6B6B6B"/>
<path d="M107.624 53.6297C106.86 53.7674 106.082 53.8121 105.308 53.8913C104.568 53.9635 103.835 54.084 103.095 54.1631C101.585 54.3214 100.067 54.3421 98.5529 54.1975C95.5454 53.9119 92.5998 52.9897 89.9639 51.5169C89.2413 51.1108 88.529 50.6841 87.8339 50.2334C87.4897 50.0097 87.1422 49.786 86.7946 49.5658C86.4712 49.3628 86.1718 49.1184 85.7864 49.0771C85.7657 49.0771 85.752 49.0978 85.7554 49.115C85.8758 49.7791 86.6329 50.34 87.1009 50.7771C87.6721 51.3104 88.3397 51.7612 89.0004 52.1776C90.339 53.0172 91.8049 53.671 93.2949 54.1906C96.2818 55.2264 99.5095 55.6428 102.662 55.3675C103.529 55.2918 104.434 55.1989 105.26 54.9133C106.116 54.6208 106.894 54.2182 107.689 53.7949C107.785 53.7433 107.713 53.6125 107.62 53.6297H107.624Z" fill="#6B6B6B"/>
<path d="M107.235 51.3727C105.972 51.6548 104.558 51.2281 103.309 51.0113C102.063 50.7946 100.818 50.5674 99.5822 50.2922C97.115 49.7416 94.6856 49.0052 92.4351 47.8421C91.8191 47.5255 91.2135 47.1917 90.6319 46.8166C90.3429 46.6308 90.0504 46.4416 89.7717 46.242C89.4792 46.0321 88.9768 45.774 88.8666 45.4161C88.846 45.3507 88.7668 45.3473 88.729 45.3989C88.4021 45.86 89.0456 46.4003 89.3415 46.6928C89.8267 47.1779 90.3463 47.6184 90.9038 48.0176C92.0393 48.8331 93.285 49.456 94.5823 49.9687C97.2285 51.0079 100.026 51.5722 102.813 52.0678C104.379 52.3465 105.979 52.5736 107.308 51.5C107.369 51.4484 107.301 51.3623 107.235 51.3761V51.3727Z" fill="#6B6B6B"/>
<path d="M108.274 48.8879C107.376 48.5747 106.523 48.148 105.614 47.8487C104.734 47.5596 103.856 47.2602 103.006 46.8817C102.156 46.5032 101.33 46.0903 100.529 45.6188C99.7164 45.1439 98.9731 44.5693 98.1542 44.1082C98.1301 44.0944 98.0991 44.1219 98.1163 44.146C98.6394 44.9512 99.3723 45.5603 100.116 46.1556C100.876 46.7647 101.709 47.3118 102.573 47.7592C103.45 48.2134 104.376 48.616 105.329 48.8776C106.303 49.146 107.252 49.1116 108.25 49.0599C108.354 49.0531 108.371 48.9188 108.274 48.8844V48.8879Z" fill="#6B6B6B"/>
<path d="M84.6528 55.261C84.6528 55.1337 84.6218 55.0133 84.5496 54.9066C84.5324 54.8825 84.4945 54.8584 84.4636 54.8722C84.3431 54.9204 84.2502 54.9961 84.1711 55.089C84.1091 55.1268 84.0575 55.1819 84.0059 55.2473C83.9199 55.3539 83.8545 55.4606 83.7891 55.5363C83.6136 55.7359 83.4829 55.9905 83.3383 56.2142C83.2041 56.4207 83.063 56.6272 82.9185 56.8267C82.9185 56.8267 82.9185 56.8267 82.9151 56.8302C82.9151 56.8302 82.9151 56.8302 82.9116 56.8336C82.8944 56.8543 82.8807 56.8749 82.8635 56.8921C82.8256 56.9368 82.7877 56.985 82.7499 57.0298C82.6673 57.1261 82.5813 57.2225 82.4918 57.3154C82.2544 57.57 81.9584 57.9485 82.2131 58.2892C82.4952 58.6677 82.9804 58.3752 83.2385 58.1309C83.4175 57.9623 83.5723 57.7627 83.7237 57.57C83.8923 57.3532 84.0609 57.1296 84.202 56.8921C84.3534 56.6375 84.4877 56.3587 84.5771 56.0766C84.6012 55.9974 84.6115 55.8632 84.6219 55.815C84.615 55.8529 84.6322 55.7738 84.6322 55.7772C84.6425 55.7359 84.6494 55.6946 84.6597 55.6533C84.6838 55.526 84.701 55.3815 84.6597 55.261H84.6528Z" fill="#6B6B6B"/>
<path d="M87 55.5981C86.8933 55.5465 86.7281 55.5602 86.6696 55.6841C86.6455 55.7357 86.6249 55.7736 86.6111 55.8286C86.6111 55.839 86.6111 55.8458 86.6146 55.8527C86.5561 56.0385 86.4081 56.2553 86.3324 56.4136C86.1982 56.6923 86.0984 56.9814 85.9642 57.2601C85.7027 57.8073 85.4274 58.3406 85.097 58.8534C84.7839 59.3454 84.4432 59.8169 84.0853 60.278C83.6965 60.777 83.2492 61.2553 83.0737 61.8712C82.998 62.1396 83.2629 62.4218 83.5382 62.3358C84.1955 62.1259 84.6359 61.4032 85.0351 60.8802C85.448 60.3365 85.8438 59.779 86.1948 59.194C86.5492 58.6056 86.8589 57.9931 87.0757 57.3393C87.2133 56.9229 87.5402 55.863 86.9965 55.5981H87Z" fill="#6B6B6B"/>
<path d="M115.838 59.6795C115.769 59.6313 115.687 59.7242 115.725 59.793C115.766 59.8619 115.945 59.9513 115.793 59.8687C115.69 59.8137 115.759 59.8859 115.615 59.7827C115.467 59.676 115.305 59.59 115.14 59.5074C114.851 59.3629 114.558 59.2287 114.272 59.0842C113.681 58.7882 113.092 58.4579 112.593 58.0174C112.06 57.5494 111.699 56.992 111.375 56.3657C111.196 56.0216 111.045 55.6534 110.818 55.3368C110.735 55.2198 110.405 54.7931 110.222 54.8998C110.105 54.972 110.098 55.1613 110.095 55.2817C110.085 55.5467 110.14 55.7945 110.212 56.0491C110.336 56.5033 110.511 56.9541 110.721 57.3774C111.114 58.1654 111.764 58.7917 112.473 59.2975C113.151 59.7827 113.901 60.1612 114.665 60.4847C115.071 60.6568 115.645 60.8013 115.948 60.3643C116.083 60.1681 116.031 59.8102 115.835 59.676L115.838 59.6795Z" fill="#6B6B6B"/>
<path d="M116.592 57.8419H116.595C116.575 57.8075 116.547 57.7765 116.52 57.7421C116.478 57.6939 116.454 57.6389 116.413 57.5907C116.372 57.5425 116.33 57.5081 116.303 57.4462C116.244 57.312 116.22 57.164 116.169 57.0298C116.141 56.9575 116.045 56.9713 116.038 57.047C116.024 57.1675 116.031 57.2913 116.021 57.4118C115.862 57.3361 115.704 57.2638 115.549 57.1812C115.381 57.0918 115.219 56.992 115.06 56.8887C114.985 56.8371 114.913 56.7855 114.837 56.7304C114.796 56.7029 114.758 56.6719 114.716 56.6444C114.703 56.6341 114.696 56.6306 114.689 56.6238C114.682 56.6169 114.675 56.6134 114.661 56.6031C114.369 56.3622 114.083 56.1042 113.825 55.8289C113.698 55.6912 113.584 55.5777 113.443 55.4538C113.295 55.323 113.113 55.2508 112.961 55.1338C112.948 55.1234 112.927 55.1303 112.927 55.1475C112.917 55.3437 112.886 55.5157 112.92 55.7153C112.955 55.9252 113.047 56.1351 113.154 56.3175C113.371 56.6891 113.636 57.0229 113.949 57.3189C114.255 57.6114 114.603 57.866 114.971 58.0759C115.343 58.2893 115.907 58.6196 116.347 58.451C116.606 58.3512 116.726 58.0759 116.592 57.8419Z" fill="#6B6B6B"/>
<path d="M94.7986 63.7466C94.7638 63.7292 94.7638 63.7327 94.7986 63.7466V63.7466Z" fill="#D88439"/>
<path d="M96.6564 63.5918C96.6874 63.5264 96.6839 63.461 96.6426 63.4094C96.6254 63.3578 96.5945 63.3131 96.5635 63.2683C96.4087 62.9036 95.9854 62.6834 95.6516 62.5113C95.2146 62.2876 94.7638 62.1603 94.2717 62.2567C93.5422 62.4012 92.9159 63.0481 92.503 63.6331C92.3584 63.8396 92.503 64.1768 92.7439 64.2284C93.1706 64.3144 93.5525 64.1321 93.9207 63.9394C93.9964 63.8981 94.0721 63.8568 94.1478 63.812C94.1926 63.7845 94.3199 63.6847 94.3715 63.6916C94.2889 63.726 94.2717 63.7329 94.3199 63.7122C94.344 63.7019 94.3646 63.695 94.3887 63.6882C94.4197 63.6778 94.4506 63.671 94.4816 63.6606C94.4816 63.6606 94.4816 63.6606 94.4851 63.6606C94.4954 63.6606 94.5126 63.6606 94.5298 63.6537C94.5504 63.6572 94.5711 63.6606 94.5917 63.6675C94.633 63.6778 94.6743 63.6916 94.7156 63.7088C94.7569 63.7226 94.7948 63.7467 94.8361 63.757C94.8189 63.7535 94.8085 63.7467 94.7948 63.7432C94.8051 63.7467 94.812 63.7501 94.8257 63.757C95.0081 63.8465 95.1802 63.9531 95.366 64.0288C95.6137 64.1321 95.9682 64.1665 96.2228 64.0598C96.2985 64.0288 96.357 63.9875 96.419 63.9359C96.4086 63.9394 96.5257 63.8396 96.5429 63.8155C96.5842 63.7639 96.591 63.7535 96.5635 63.7845C96.5807 63.7604 96.6013 63.7363 96.6186 63.7122C96.6358 63.6847 96.7115 63.4473 96.653 63.5815L96.6564 63.5918Z" fill="#D88439"/>
<path d="M96.4229 63.9433C96.4229 63.9433 96.4298 63.9363 96.4508 63.9224C96.4403 63.9293 96.4333 63.9363 96.4229 63.9433Z" fill="#D88439"/>
<path d="M107.826 63.5851C107.826 63.4853 107.809 63.3959 107.771 63.303C107.712 63.1619 107.616 63.0414 107.502 62.9382C107.334 62.7834 107.114 62.6732 106.904 62.5803C106.463 62.3876 106.012 62.2741 105.531 62.2638C105.107 62.2534 104.664 62.3188 104.268 62.4633C103.765 62.6457 103.222 62.9382 103.16 63.5232C103.139 63.7193 103.328 63.9809 103.531 64.0118C103.724 64.0394 103.855 64.0325 104.041 63.9602C103.927 64.005 104.151 63.9292 104.185 63.9155C104.254 63.8914 104.323 63.8604 104.388 63.8329C104.388 63.8329 104.423 63.8157 104.447 63.8054C104.471 63.795 104.509 63.7813 104.519 63.7778C104.56 63.7641 104.602 63.7503 104.643 63.7365C104.719 63.7125 104.794 63.6953 104.87 63.6781C104.918 63.6677 104.963 63.6608 105.011 63.6505C105.183 63.6436 105.355 63.6299 105.527 63.6402C105.562 63.6402 105.596 63.6471 105.634 63.6505C105.716 63.6712 105.806 63.6815 105.889 63.7021C105.975 63.7228 106.057 63.7434 106.143 63.771C106.181 63.7813 106.271 63.8191 106.295 63.826C106.436 63.8948 106.566 63.9774 106.708 64.0497C106.831 64.1151 106.955 64.1701 107.093 64.1873C107.155 64.2011 107.22 64.1977 107.282 64.1873L107.41 64.1701C107.571 64.0979 107.592 64.091 107.465 64.1564C107.681 64.1254 107.802 63.8845 107.819 63.6918C107.802 63.8983 107.826 63.6264 107.826 63.5851Z" fill="#D88439"/>
<path d="M95.9296 67.9379C95.9606 67.8312 95.9744 67.6867 95.9778 67.5766C95.9778 67.4734 95.9468 67.3288 95.9262 67.2084C95.9055 67.0949 95.8883 66.9779 95.8677 66.8643C95.8298 66.7714 95.7885 66.6785 95.7507 66.5856C95.6784 66.4479 95.5752 66.3378 95.4479 66.2552C95.4066 66.2139 95.3584 66.1795 95.3068 66.152C95.2242 66.0866 95.1347 66.0281 95.0349 65.9971C94.9455 65.9455 94.8491 65.918 94.7459 65.918C94.5945 65.8836 94.4396 65.8905 94.2882 65.9386C94.0989 66.0006 93.9269 66.1004 93.7824 66.2346C93.6688 66.3378 93.5931 66.4617 93.5449 66.6028C93.4727 66.7404 93.4417 66.8884 93.4451 67.0432C93.4451 67.2394 93.4451 67.4321 93.4451 67.6282C93.4383 67.6661 93.4314 67.7005 93.4211 67.7383C93.3729 67.8932 93.366 68.048 93.4004 68.2029C93.4039 68.2924 93.4279 68.3818 93.4589 68.4644C93.4727 68.5573 93.4968 68.6502 93.5415 68.7363C93.5862 68.8773 93.6654 68.9978 93.7755 69.101C93.8787 69.2111 93.9992 69.2903 94.1402 69.335C94.2744 69.4073 94.419 69.4383 94.5738 69.4314C94.8663 69.4176 95.1691 69.3213 95.3722 69.101C95.5408 68.9152 95.644 68.7053 95.6853 68.4644C95.7576 68.3715 95.8057 68.2717 95.847 68.165C95.8815 68.0928 95.9124 68.0205 95.9331 67.9448L95.9296 67.9379Z" fill="#70313A"/>
<path d="M106.467 67.9379C106.498 67.8312 106.511 67.6867 106.515 67.5766C106.515 67.4734 106.484 67.3288 106.463 67.2084C106.443 67.0949 106.425 66.9779 106.405 66.8643C106.367 66.7714 106.326 66.6785 106.288 66.5856C106.216 66.4479 106.112 66.3378 105.985 66.2552C105.944 66.2139 105.896 66.1795 105.844 66.152C105.761 66.0866 105.672 66.0281 105.572 65.9971C105.483 65.9455 105.386 65.918 105.283 65.918C105.132 65.8836 104.977 65.8905 104.825 65.9386C104.636 66.0006 104.464 66.1004 104.319 66.2346C104.206 66.3378 104.13 66.4617 104.082 66.6028C104.01 66.7404 103.979 66.8884 103.982 67.0432C103.982 67.2394 103.982 67.4321 103.982 67.6282C103.975 67.6661 103.968 67.7005 103.958 67.7383C103.91 67.8932 103.903 68.048 103.938 68.2029C103.941 68.2924 103.965 68.3818 103.996 68.4644C104.01 68.5573 104.034 68.6502 104.079 68.7363C104.123 68.8773 104.202 68.9978 104.313 69.101C104.416 69.2111 104.536 69.2903 104.677 69.335C104.812 69.4073 104.956 69.4383 105.111 69.4314C105.403 69.4176 105.706 69.3213 105.909 69.101C106.078 68.9152 106.181 68.7053 106.222 68.4644C106.295 68.3715 106.343 68.2717 106.384 68.165C106.419 68.0928 106.45 68.0205 106.47 67.9448L106.467 67.9379Z" fill="#70313A"/>
<path d="M101.296 71.169C101.268 71.0898 101.168 71.052 101.103 71.1174C101.065 71.1552 101.031 71.1759 100.986 71.2034C100.986 71.2034 100.986 71.2034 100.979 71.2034C100.958 71.2034 100.938 71.2103 100.917 71.2137C100.89 71.2171 100.862 71.2206 100.838 71.224C100.907 71.2068 100.58 71.3204 100.745 71.2653C100.721 71.2722 100.7 71.2825 100.676 71.2894C100.659 71.2963 100.404 71.3754 100.404 71.4064C100.398 71.4064 100.394 71.4099 100.387 71.4133C100.336 71.4339 100.281 71.4649 100.226 71.4856C100.188 71.4959 100.139 71.5131 100.119 71.5165C100.084 71.5269 100.05 71.5337 100.016 71.5406C99.964 71.5268 99.8504 71.5509 99.8023 71.5475C99.7851 71.5475 99.7334 71.5475 99.73 71.5475C99.6749 71.5406 99.6199 71.5337 99.5614 71.5303C99.5339 71.5303 99.5029 71.5268 99.4754 71.5234C99.465 71.5234 99.4375 71.5165 99.4169 71.5131C99.2586 71.4821 99.1072 71.4167 98.9523 71.3789C98.7975 71.341 98.6392 71.2756 98.4809 71.2516C98.3949 71.2378 98.1574 71.1862 98.123 71.3066C98.0645 71.4993 98.1815 71.6851 98.2951 71.8365C98.4293 72.012 98.5635 72.1669 98.7493 72.2942C99.1072 72.5385 99.5235 72.7106 99.964 72.6865C100.38 72.6659 100.811 72.5385 101.113 72.2426C101.265 72.0946 101.399 71.8434 101.392 71.6266C101.389 71.4752 101.337 71.3135 101.289 71.1724L101.296 71.169Z" fill="#E1A484"/>
<path d="M101.977 76.2724C101.853 76.0866 101.723 75.9386 101.53 75.8216C101.372 75.7287 101.206 75.6565 101.027 75.6152C100.683 75.5326 100.319 75.4982 99.9711 75.5395C99.5857 75.5842 99.2416 75.6806 98.9043 75.8767C98.7254 75.9799 98.5602 76.1004 98.4363 76.2655C98.3331 76.4032 98.2884 76.558 98.2299 76.7094C98.161 76.8918 98.3778 77.1155 98.5602 77.0398C98.6738 76.9916 98.7908 76.9779 98.9078 76.9434C99.0041 76.9159 99.0936 76.8781 99.1831 76.8368C99.2003 76.8264 99.2209 76.8196 99.2381 76.8127C99.245 76.8127 99.2691 76.8024 99.2897 76.792C99.4136 76.7473 99.5444 76.7129 99.6751 76.6888C99.7405 76.675 99.8059 76.6647 99.8713 76.6509C99.8782 76.6509 99.8816 76.6509 99.8885 76.6475C99.9229 76.6475 99.9573 76.6406 99.9917 76.6372C100.126 76.6269 100.26 76.6269 100.394 76.6372C100.425 76.6372 100.453 76.6441 100.484 76.6475C100.353 76.6372 100.46 76.6475 100.487 76.6475C100.553 76.6578 100.618 76.675 100.683 76.6922C100.818 76.7267 100.952 76.7714 101.086 76.8127C101.148 76.8333 101.21 76.8609 101.272 76.8746C101.303 76.8815 101.485 76.909 101.358 76.8849C101.399 76.8918 101.44 76.8987 101.482 76.909C101.833 76.9813 102.201 76.6062 101.977 76.2655V76.2724Z" fill="#E1A484"/>
<path d="M77.7584 107.163C77.5141 107.156 77.2629 107.442 77.1424 107.635C77.0289 107.817 76.9153 107.999 76.8155 108.192C76.7192 108.378 76.6194 108.56 76.5127 108.739C76.3854 108.953 76.2409 109.19 76.1686 109.424C76.0723 109.727 76.0172 110.136 76.3372 110.322C76.671 110.518 77.0771 110.25 77.2835 109.981C77.5829 109.593 77.7722 109.152 77.958 108.698C78.0475 108.481 78.0991 108.257 78.1404 108.03C78.1954 107.734 78.1644 107.174 77.7584 107.163Z" fill="#194C78"/>
<path d="M94.6547 87.0808C94.6375 87.0395 94.6547 87.0499 94.6203 86.981C94.6134 86.9673 94.6031 86.9535 94.6065 86.9604C94.5652 86.8847 94.5687 86.864 94.517 86.7952C94.4861 86.7574 94.4585 86.7298 94.4207 86.7023C94.3725 86.661 94.3209 86.6232 94.2727 86.5819C94.1901 86.5165 94.1179 86.4752 94.025 86.4373C94.0525 86.4477 94.1489 86.4889 94.025 86.4373C93.9596 86.4098 93.8977 86.3788 93.8357 86.3513C93.5948 86.2343 93.3505 86.1311 93.1165 86.0037C92.8515 85.8592 92.5969 85.7319 92.301 85.6528C91.9534 85.5598 91.6541 85.9453 91.8364 86.2584C92.0876 86.692 92.5006 86.9569 92.9307 87.1978C93.1441 87.3183 93.3746 87.4077 93.6051 87.4903C93.8598 87.5798 94.2349 87.6039 94.4654 87.4318C94.5549 87.3905 94.6478 87.3355 94.6788 87.2494C94.7029 87.1909 94.6788 87.1428 94.6581 87.0843L94.6547 87.0808Z" fill="#194C78"/>
<path d="M102.624 170.628C102.531 169.399 102.407 168.174 102.235 166.953C102.153 166.371 102.073 165.793 101.943 165.218C101.833 164.73 101.726 164.021 101.289 163.718C101.199 163.656 101.041 163.677 100.969 163.759C100.635 164.138 100.683 164.833 100.676 165.311C100.666 165.903 100.69 166.488 100.7 167.08C100.725 168.288 100.745 169.499 100.731 170.707C100.721 171.677 100.714 172.648 100.697 173.618C100.683 173.601 100.669 173.58 100.652 173.563C100.301 173.188 99.8643 172.889 99.4926 172.534C98.801 171.874 98.1678 171.11 97.8374 170.198C97.4279 169.066 97.3213 167.834 97.1114 166.653C96.9978 166.024 96.9221 165.37 96.7638 164.747C96.6915 164.458 96.3646 163.543 95.8795 163.856C95.353 164.196 95.5319 164.957 95.5973 165.477C95.6799 166.123 95.759 166.774 95.8519 167.417C96.0309 168.653 96.141 169.926 96.6365 171.086C97.046 172.042 97.6826 172.878 98.4155 173.608C98.7941 173.983 99.1932 174.368 99.6406 174.657C99.8849 174.816 100.171 174.946 100.449 175.019C100.518 175.036 100.583 175.046 100.649 175.05C100.635 175.377 100.625 175.7 100.638 176.024C100.663 176.64 100.807 177.366 101.347 177.73C101.492 177.83 101.688 177.806 101.836 177.73C102.39 177.441 102.607 176.681 102.665 176.103C102.727 175.487 102.727 174.867 102.727 174.248C102.731 173.037 102.713 171.825 102.624 170.614V170.628Z" fill="#C8C8C8"/>
<path d="M85.2906 161.182C85.2217 160.879 85.0497 160.762 84.8122 160.6C84.6574 160.497 84.4337 160.548 84.3133 160.683C84.2582 160.71 84.2032 160.745 84.1584 160.793C84.0827 160.865 84.0311 160.965 83.9657 161.044C83.8384 161.199 83.687 161.33 83.5597 161.484C83.2362 161.88 82.9678 162.324 82.6753 162.74C82.1247 163.518 81.5329 164.255 80.8894 164.957C80.2665 165.634 79.5714 166.243 78.7765 166.715C78.3326 166.976 77.8681 167.204 77.3967 167.403C77.1523 167.506 76.8977 167.592 76.6602 167.703C76.4297 167.809 76.3368 167.95 76.1682 168.126C76.151 168.146 76.1578 168.171 76.175 168.188C76.3815 168.339 76.4916 168.453 76.7669 168.494C77.0353 168.535 77.345 168.508 77.6134 168.477C78.226 168.411 78.8109 168.236 79.3718 167.992C80.4042 167.544 81.3126 166.877 82.1282 166.113C82.9403 165.349 83.6251 164.433 84.2789 163.535C84.6195 163.071 85.0325 162.592 85.208 162.035C85.2906 161.773 85.3491 161.46 85.2906 161.189V161.182Z" fill="#C8C8C8"/>
<path d="M122.276 169.801C122.087 169.22 121.554 169.075 121.075 168.862C120.666 168.68 120.26 168.494 119.868 168.274C119.131 167.864 118.443 167.379 117.817 166.815C117.187 166.247 116.588 165.641 116.086 164.953C115.821 164.592 115.583 164.213 115.356 163.824C115.126 163.432 114.93 163.012 114.647 162.654C114.348 162.276 113.639 162.585 113.68 163.053C113.76 163.979 114.317 164.925 114.802 165.7C115.318 166.526 115.931 167.32 116.629 167.995C117.325 168.666 118.102 169.265 118.925 169.764C119.358 170.025 119.806 170.266 120.274 170.459C120.776 170.669 121.423 170.985 121.932 170.634C122.194 170.452 122.38 170.121 122.273 169.795L122.276 169.801Z" fill="#C8C8C8"/>
<path d="M16.6059 160.822C16.6059 160.822 15.8173 172.498 17.4218 180.251H58.2694C58.2694 180.251 59.4301 169.036 58.9658 158.879L16.6059 160.822Z" fill="#263238"/>
<path d="M29.8937 51.7945C29.8937 51.7945 21.1644 52.7265 18.7405 66.8465C16.3166 80.9665 10.8202 83.1411 12.9197 91.5189C15.0227 99.9001 6.28991 103.003 14.3741 116.348C22.4582 129.693 52.9718 129.267 57.8196 118.404C62.6708 107.54 60.6088 100.986 57.5362 95.5541C54.4637 90.1226 59.7997 82.2091 55.918 75.5349C52.0364 68.8607 58.1815 44.656 29.8903 51.7945H29.8937Z" fill="#263238"/>
<path d="M23.3389 98.0601C14.8041 99.6135 12.1652 104.734 9.68324 111.562C7.20132 118.39 6.26932 128.01 7.51199 132.51C7.51199 132.51 15.4255 138.095 15.8932 138.095C16.3609 138.095 18.6857 140.577 18.6857 140.577C18.6857 140.577 16.8286 154.007 14.8109 163.007C14.8109 163.007 41.0298 172.542 61.3597 161.836C61.3597 161.836 56.3925 152.369 55.9282 141.663C55.9282 141.663 62.4454 140.731 64.6166 135.146C66.7879 129.56 62.2815 105.53 59.3421 102.403C56.8602 99.7637 53.6272 99.2413 49.4008 97.7153C45.1778 96.1893 33.27 99.6101 32.8057 99.6101C32.3414 99.6101 23.3389 98.0567 23.3389 98.0567V98.0601Z" fill="#93C4E5"/>
<path d="M25.0456 128.939C25.0456 128.939 21.0103 123.972 18.8391 122.886C16.6678 121.801 16.2001 122.886 16.6678 123.972C16.6678 123.972 13.8752 123.508 14.4966 125.679C14.4966 125.679 13.1003 126.921 14.4966 128.471C15.8928 130.025 17.5998 131.885 17.5998 131.885C17.5998 131.885 21.2971 131.336 22.2564 131.11C23.2157 130.885 25.049 128.939 25.049 128.939H25.0456Z" fill="#ECC5AE"/>
<path d="M43.9766 125.836C43.9766 125.836 45.2466 124.74 49.0975 124.439C52.9484 124.136 55.1504 125.993 55.1504 125.993C55.1504 125.993 54.9968 127.7 54.0648 130.028C54.0648 130.028 50.1865 130.492 46.7726 131.581C43.3587 132.667 43.2051 130.496 43.2051 130.028C43.2051 129.56 43.98 125.839 43.98 125.839L43.9766 125.836Z" fill="#ECC5AE"/>
<path d="M31.0943 87.8186C30.9407 88.4399 31.0533 92.0928 30.3194 94.0251C29.5854 95.9574 23.3379 98.0604 23.3379 98.0604C23.3379 98.0604 27.5268 104.424 35.9079 104.424C44.2891 104.424 49.3998 97.719 49.3998 97.719C49.3998 97.719 45.0641 96.0461 43.0464 94.1821C41.0288 92.3216 41.3395 85.958 41.3395 85.958L31.0977 87.8186H31.0943Z" fill="#FFBF9D"/>
<path d="M45.0609 124.129C45.0609 124.129 48.6285 129.403 48.3212 132.51C48.3212 132.51 29.234 142.288 17.2853 142.598C9.60737 142.796 7.50781 132.51 7.50781 132.51C7.50781 132.51 35.9048 125.529 45.0609 124.129Z" fill="#93C4E5"/>
<path d="M41.7878 91.5769C41.6103 90.8327 41.4976 90.0339 41.4294 89.2794L36.2641 86.876L31.0988 87.8148C30.9452 88.4361 31.0579 92.089 30.3239 94.0213C30.2658 94.1749 30.1668 94.332 30.0439 94.489C30.4195 94.5778 30.7984 94.6392 31.1808 94.6734C32.6522 94.8065 34.1304 94.5812 35.5813 94.2978C37.8174 93.8609 40.2243 93.1132 41.7912 91.5735L41.7878 91.5769Z" fill="#E0A283"/>
<path d="M48.1653 73.603C48.1653 73.603 50.6472 73.9137 50.9579 76.8633C51.2686 79.8129 48.1653 80.8986 48.1653 80.8986C48.1653 80.8986 44.4783 92.383 36.6809 92.383C28.2485 92.383 24.8858 80.5879 24.8858 80.5879C24.8858 80.5879 21.7826 80.4343 21.9362 76.7097C22.0898 72.9851 24.8858 73.2958 24.8858 73.2958C24.8858 73.2958 25.8554 70.9743 27.873 69.421C29.8906 67.8676 31.3586 67.1131 31.9799 64.9419C31.9799 64.9419 36.1722 65.5154 37.8792 68.1544C39.5861 70.7934 46.1443 68.489 48.1619 73.6098L48.1653 73.603Z" fill="#FFBF9D"/>
<path d="M25.0761 76.7266C25.001 76.2111 24.861 75.6444 24.4889 75.2621C24.069 74.8285 23.4101 74.6988 22.9322 75.0709C22.8468 75.1392 22.8434 75.2894 22.8912 75.3747C22.9527 75.4771 23.0619 75.5079 23.1746 75.4908C23.236 75.4805 23.3009 75.4874 23.3623 75.4908C23.3282 75.4908 23.4238 75.5079 23.3794 75.4908C23.4306 75.5079 23.4852 75.5386 23.533 75.5591C23.4852 75.5386 23.5876 75.5864 23.5876 75.5864C23.6218 75.6034 23.6559 75.6273 23.6866 75.6478C23.6866 75.6478 23.7379 75.6922 23.7447 75.6956C23.7686 75.7161 23.7925 75.74 23.8164 75.7639C23.8232 75.7707 23.8881 75.8527 23.8539 75.8083C23.8812 75.8424 23.9051 75.88 23.929 75.9175C23.9734 75.9858 24.011 76.0575 24.0451 76.1292C24.0588 76.1565 24.0588 76.1565 24.0451 76.1292C24.0519 76.1497 24.0622 76.1702 24.069 76.1906C24.0827 76.2316 24.0963 76.276 24.11 76.317C24.1339 76.4023 24.1578 76.4911 24.1748 76.5764C24.1748 76.5867 24.1748 76.5901 24.1782 76.6003C23.8881 76.631 23.6423 76.8803 23.4784 77.1022C23.3179 77.3172 23.236 77.5835 23.2155 77.8498C23.2019 78.0239 23.2121 78.239 23.3487 78.3619C23.4852 78.4882 23.6696 78.5428 23.8505 78.5565C24.0997 78.577 24.366 78.495 24.5674 78.3448C25.0898 77.9556 25.1615 77.3309 25.0761 76.7266Z" fill="#E0A283"/>
<path d="M49.8612 77.3409C49.6188 77.1599 49.3354 77.1189 49.0453 77.0985C49.0282 76.9448 49.0316 76.7946 49.0521 76.6376C49.0726 76.4908 49.1204 76.3064 49.1852 76.1528C49.2467 76.006 49.3491 75.8353 49.4071 75.6646C49.4822 75.4393 49.192 75.2003 48.9872 75.3437C48.6458 75.5861 48.4751 76.0367 48.4034 76.4396C48.3283 76.8527 48.3386 77.2828 48.4683 77.6822C48.5912 78.0748 48.8097 78.4572 49.1989 78.6347C49.4208 78.7371 49.6666 78.7576 49.8885 78.6381C50.107 78.5221 50.2265 78.2763 50.2265 78.0373C50.2265 77.7573 50.0865 77.5013 49.8646 77.334L49.8612 77.3409Z" fill="#E0A283"/>
<path d="M20.699 127.437C20.518 127.048 20.1869 126.7 19.9069 126.379C19.6202 126.051 19.3129 125.744 18.9886 125.454C18.3536 124.887 17.6094 124.327 16.7935 124.061C16.6296 124.006 16.4828 124.245 16.6193 124.358C16.9437 124.627 17.2919 124.863 17.6299 125.119C17.9576 125.365 18.2683 125.635 18.5687 125.911C18.8759 126.191 19.1627 126.488 19.4358 126.802C19.6816 127.085 19.8865 127.406 20.1357 127.686C20.1323 127.724 20.1254 127.775 20.1186 127.785C20.0811 127.857 20.1527 127.918 20.2244 127.891C20.262 127.867 20.2995 127.864 20.3371 127.878C20.3542 127.878 20.3644 127.877 20.3747 127.874C20.6341 127.936 20.798 127.656 20.6956 127.437H20.699Z" fill="#E0A283"/>
<path d="M19.4195 129.359C19.382 129.274 19.3922 129.175 19.3546 129.089C19.3171 128.994 19.2488 128.919 19.184 128.84C19.044 128.673 18.8869 128.526 18.7299 128.376C18.4158 128.079 18.0949 127.785 17.7638 127.505C17.4429 127.232 17.1117 126.969 16.7771 126.713C16.4289 126.447 16.0636 126.174 15.6608 125.996C15.4935 125.925 15.3262 126.109 15.4594 126.256C15.7427 126.56 16.0841 126.816 16.4084 127.079C16.7362 127.345 17.0571 127.615 17.3712 127.898C17.6784 128.171 17.9788 128.448 18.2724 128.734C18.4295 128.885 18.5763 129.045 18.7401 129.185C18.8187 129.253 18.8904 129.322 18.9791 129.373C19.0815 129.431 19.1976 129.424 19.3 129.475C19.3785 129.516 19.4502 129.438 19.4161 129.359H19.4195Z" fill="#E0A283"/>
<path d="M55.2561 119.537C55.1673 118.834 55.0444 118.137 54.8839 117.447C54.761 116.929 54.6586 115.993 54.1875 115.672C54.1772 115.665 54.1602 115.672 54.1568 115.679C54.0339 115.928 54.0919 116.191 54.1226 116.457C54.1602 116.795 54.225 117.13 54.2728 117.468C54.3787 118.202 54.4538 118.943 54.5118 119.68C54.6176 121.076 54.6347 122.483 54.5323 123.879C54.324 126.771 53.6037 129.495 52.5454 132.182H52.5556C52.5488 132.209 52.5454 132.237 52.542 132.264C52.5147 132.274 52.4874 132.284 52.46 132.295C52.0572 132.438 51.6441 132.551 51.2242 132.633C50.8418 132.704 50.4561 132.738 50.0669 132.756C49.8552 132.766 49.6401 132.773 49.4251 132.79C49.408 132.79 49.3909 132.796 49.3739 132.796C49.2032 130.54 48.3326 128.283 47.0319 126.453C46.3833 125.545 45.5912 124.439 44.4066 124.269C43.7955 124.18 43.1878 124.316 42.5938 124.443C41.8769 124.593 41.1634 124.743 40.4465 124.893C34.7452 126.088 29.044 127.28 23.3461 128.481C21.7314 128.823 20.1063 129.144 18.4984 129.516C16.9041 129.884 15.2552 130.236 13.7223 130.806C13.6233 130.844 13.6267 131.011 13.7496 131.008C15.0879 130.936 16.4227 130.659 17.7439 130.444C19.1334 130.216 20.5126 129.908 21.8918 129.625C24.599 129.068 27.3063 128.512 30.0135 127.949C32.7447 127.382 35.4792 126.815 38.2103 126.249C39.5623 125.969 40.9176 125.689 42.2695 125.409C42.8977 125.279 43.5804 125.057 44.2291 125.136C44.806 125.207 45.2123 125.617 45.5776 126.037C47.2163 127.915 48.1244 130.229 48.4282 132.67C48.121 132.592 47.8205 132.752 47.4791 132.872C46.9944 133.039 46.513 133.203 46.0282 133.37C45.0348 133.708 44.0413 134.049 43.0513 134.387C41.1156 135.046 39.1799 135.702 37.2408 136.354C33.3387 137.668 29.4332 138.959 25.5276 140.259C24.4557 140.618 23.3803 140.973 22.322 141.365C21.2739 141.755 20.1029 142.099 19.1607 142.707C19.0992 142.745 19.1197 142.854 19.1982 142.85C20.1883 142.796 21.1817 142.454 22.1308 142.195C23.1174 141.925 24.0938 141.625 25.0633 141.314C26.3265 140.908 27.5862 140.491 28.846 140.082C30.3481 140.741 31.9936 141.113 33.5913 141.458C35.3119 141.833 37.0428 142.154 38.7873 142.403C42.2558 142.898 45.7688 143.134 49.268 142.885C50.2239 142.816 51.1798 142.71 52.1289 142.571C52.6103 142.499 53.0882 142.417 53.5662 142.325C53.7983 142.28 54.0612 142.256 54.2763 142.154C54.5016 142.045 54.5562 141.867 54.703 141.679C54.7303 141.645 54.7371 141.584 54.6859 141.56C54.5528 141.495 54.4401 141.386 54.3036 141.338C54.1295 141.28 53.9451 141.318 53.7744 141.348C53.3204 141.434 52.8697 141.529 52.4157 141.604C51.5724 141.744 50.7258 141.85 49.8757 141.929C48.1688 142.082 46.455 142.12 44.7446 142.062C41.2726 141.946 37.828 141.437 34.4209 140.775C32.8095 140.461 31.1845 140.041 29.5458 139.853C30.0204 139.696 30.4949 139.546 30.966 139.389C34.8749 138.098 38.7771 136.794 42.6758 135.476C43.7716 135.108 44.8675 134.736 45.9599 134.363C46.5198 134.172 47.0797 133.981 47.6396 133.79C47.9229 133.694 48.2268 133.633 48.4521 133.486C48.5375 133.541 48.6194 133.599 48.7081 133.653C48.9027 133.769 49.1451 133.705 49.2817 133.551C49.3158 133.561 49.3534 133.568 49.3909 133.575C49.6094 133.609 49.8382 133.629 50.0566 133.626C50.4697 133.626 50.8828 133.575 51.2891 133.51C51.7124 133.442 52.1255 133.343 52.5317 133.21C52.8868 133.093 53.6174 132.93 53.4808 132.414C53.4706 132.37 53.4535 132.336 53.4364 132.305C54.5801 129.697 55.2083 126.788 55.3755 123.954C55.4643 122.48 55.4302 121.005 55.2424 119.54L55.2561 119.537Z" fill="#65A0C1"/>
<path d="M49.3146 97.4596C48.9697 97.2035 48.6318 97.6166 48.4508 97.8693C47.8602 98.6852 47.1945 99.4397 46.4469 100.116C43.3777 102.895 39.2435 104.212 35.1331 103.949C32.6444 103.789 30.1864 103.069 27.9912 101.894C26.9329 101.328 25.9292 100.662 25.0416 99.8493C24.6114 99.4567 24.2359 99.03 23.8672 98.5828C23.7272 98.4121 23.3039 97.7498 23.0035 97.999C22.4402 98.4735 23.8501 99.8186 24.1779 100.153C24.9084 100.897 25.7517 101.532 26.6393 102.082C28.4794 103.222 30.5414 104.038 32.6615 104.475C36.8025 105.325 41.1689 104.701 44.7877 102.478C46.4605 101.45 47.9319 100.116 49.0961 98.5315C49.2804 98.2823 49.7003 97.7395 49.318 97.4562L49.3146 97.4596Z" fill="#65A0C1"/>
<path d="M32.3239 77.8499C32.3239 77.8499 32.3239 77.8328 32.3239 77.8225C32.3239 77.7577 32.3239 77.6928 32.3239 77.6279C32.3239 77.604 32.3171 77.5836 32.3171 77.5597C32.3171 77.4129 32.3171 77.2695 32.3171 77.1227C32.3205 77.0134 32.3 76.9144 32.2659 76.8154C32.242 76.7369 32.2113 76.6618 32.1703 76.5901C32.1259 76.5014 32.0713 76.4228 31.9996 76.3511C31.9006 76.2453 31.7845 76.1702 31.648 76.1258C31.5183 76.0575 31.3783 76.0268 31.2281 76.0336C30.9447 76.0473 30.6545 76.1395 30.4565 76.3511C30.2619 76.5628 30.1356 76.8257 30.139 77.1227C30.139 77.2729 30.139 77.4231 30.139 77.5699C30.139 77.5904 30.1322 77.6075 30.1322 77.6279C30.1322 77.6894 30.1322 77.7508 30.1322 77.8123C30.1322 77.8225 30.1322 77.8294 30.1322 77.8396C30.1322 77.9386 30.1322 78.041 30.1322 78.14C30.1288 78.2493 30.1493 78.3483 30.1834 78.4473C30.2039 78.5122 30.2278 78.5736 30.2585 78.6351C30.2927 78.7136 30.3234 78.7921 30.3575 78.8706C30.4224 78.9867 30.5077 79.0823 30.617 79.154C30.6784 79.2154 30.7535 79.2598 30.8389 79.2837C30.9584 79.3451 31.0881 79.3759 31.2281 79.369C31.4056 79.3622 31.5763 79.3144 31.7367 79.2325C31.8528 79.1676 31.9484 79.0823 32.0201 78.973C32.1089 78.8774 32.1703 78.7614 32.201 78.6316C32.2796 78.4814 32.3274 78.321 32.3239 78.1435C32.3239 78.0479 32.3239 77.9523 32.3239 77.8567V77.8499Z" fill="#0B2E4A"/>
<path d="M43.5964 77.8499C43.5964 77.8499 43.5964 77.8328 43.5964 77.8225C43.5964 77.7577 43.5964 77.6928 43.5964 77.6279C43.5964 77.604 43.593 77.5836 43.5896 77.5597C43.5896 77.4129 43.5896 77.2695 43.5896 77.1227C43.593 77.0134 43.5725 76.9144 43.5384 76.8154C43.5145 76.7369 43.4837 76.6618 43.4428 76.5901C43.3984 76.5014 43.3438 76.4228 43.2721 76.3511C43.1731 76.2453 43.057 76.1702 42.9204 76.1258C42.7907 76.0575 42.6507 76.0268 42.5005 76.0336C42.2172 76.0473 41.927 76.1395 41.729 76.3511C41.5344 76.5628 41.4081 76.8257 41.4115 77.1227C41.4115 77.2729 41.4115 77.4231 41.4115 77.5699C41.4115 77.5904 41.4047 77.6075 41.4047 77.6279C41.4047 77.6894 41.4047 77.7508 41.4047 77.8123C41.4047 77.8225 41.4047 77.8294 41.4047 77.8396C41.4047 77.9386 41.4047 78.041 41.4047 78.14C41.4013 78.2493 41.4217 78.3483 41.4559 78.4473C41.4764 78.5122 41.5003 78.5736 41.531 78.6351C41.5651 78.7136 41.5958 78.7921 41.63 78.8706C41.6949 78.9867 41.7802 79.0823 41.8894 79.154C41.9509 79.2154 42.026 79.2598 42.1113 79.2837C42.2308 79.3451 42.3606 79.3759 42.5005 79.369C42.6781 79.3622 42.8488 79.3144 43.0092 79.2325C43.1253 79.1676 43.2209 79.0823 43.2926 78.973C43.3813 78.8774 43.4428 78.7614 43.4735 78.6316C43.552 78.4814 43.5998 78.321 43.5964 78.1435C43.5964 78.0479 43.5964 77.9523 43.5964 77.8567V77.8499Z" fill="#0B2E4A"/>
<path d="M38.131 80.8304C38.1242 80.7621 38.0491 80.7006 37.9808 80.745C37.8955 80.8031 37.8101 80.8372 37.7111 80.8645C37.636 80.8884 37.5643 80.9191 37.4961 80.9567C37.4722 80.9669 37.4517 80.9772 37.4278 80.9908C37.5097 80.9533 37.4005 80.9977 37.3902 81.0011C37.3083 81.0318 37.2434 81.0762 37.1683 81.1137C37.1444 81.1274 37.1205 81.1376 37.0966 81.1479C37.0864 81.1513 37.0761 81.1547 37.0659 81.1615C37.0044 81.182 36.943 81.1991 36.8815 81.2127C36.8679 81.2127 36.8372 81.2196 36.8303 81.223C36.8133 81.223 36.7928 81.223 36.7757 81.2264C36.7177 81.2298 36.6596 81.2332 36.6016 81.2332C36.5709 81.2332 36.5367 81.2264 36.506 81.2298C36.4992 81.2298 36.5026 81.2298 36.4992 81.2298C36.4958 81.2298 36.4958 81.2298 36.4889 81.2298C36.4275 81.2161 36.3626 81.2025 36.3012 81.1854C36.2705 81.1752 36.2397 81.1649 36.2124 81.1547C36.2124 81.1547 36.2124 81.1547 36.2056 81.1547C36.1988 81.1547 36.1953 81.1479 36.1851 81.1444C36.1476 81.124 36.1066 81.1069 36.069 81.0898C36.0759 81.0898 36.0246 81.0728 36.0008 81.0625C35.9461 81.0386 35.8915 81.0113 35.8403 80.9806C35.7379 80.9191 35.6355 80.8611 35.533 80.7996C35.4101 80.728 35.2326 80.8167 35.2394 80.9669C35.277 81.7009 36.0998 82.1686 36.7757 82.1447C36.9464 82.1379 37.1273 82.1038 37.2912 82.0457C37.4687 81.9809 37.6975 81.8955 37.834 81.7555C37.9535 81.6292 38.0901 81.4483 38.1242 81.2742C38.1515 81.1308 38.1515 80.9806 38.1379 80.8338L38.131 80.8304Z" fill="#E0A283"/>
<path d="M52.4739 73.4697C52.0881 73.4765 51.7023 73.4458 51.3166 73.4594C50.8523 73.4765 50.4153 73.4936 49.9578 73.3912C49.1043 73.1966 48.582 72.7732 48.0904 72.0666C47.2472 70.858 46.0728 70.1275 44.6594 69.7383C43.1914 69.332 41.6552 69.3798 40.1838 69.0179C39.3508 68.8097 38.6953 68.4 38.1013 67.7855C37.5824 67.2495 37.1249 66.6623 36.5548 66.1776C35.8925 65.6143 35.1585 65.1773 34.3528 64.8564C33.612 64.5594 32.7107 64.2931 31.9016 64.3477C31.8504 64.276 31.7992 64.2043 31.748 64.1326C31.6899 64.0507 31.5431 64.0712 31.5466 64.1872C31.5568 64.4808 31.41 64.6754 31.3349 64.952C31.2564 65.2524 31.2052 65.5357 31.055 65.8157C30.7511 66.3858 30.28 66.8501 29.7508 67.2154C28.6925 67.9425 27.4738 68.4717 26.6408 69.4856C25.958 70.3152 25.5073 71.3223 24.944 72.2338C24.6675 72.6811 24.3056 73.0464 23.8004 73.2375C23.0766 73.5141 22.2675 73.3775 21.513 73.3912C20.3967 73.4151 18.9287 73.9545 18.9287 75.2791C18.9287 75.6717 19.4818 75.6512 19.5261 75.2791C19.5944 74.6987 20.1543 74.3505 20.6664 74.2003C21.3458 74.0023 22.0661 74.1286 22.7591 74.1252C23.9813 74.1183 24.9748 73.5994 25.7053 72.6196C26.3506 71.7525 26.7056 70.6908 27.4567 69.8987C28.3614 68.9497 29.645 68.4854 30.6589 67.666C31.212 67.2222 31.6831 66.6487 31.9665 65.9932C32.0791 65.7303 32.1815 65.4367 32.1918 65.1465C32.8131 65.2729 33.4208 65.3787 34.0182 65.6382C34.7386 65.9488 35.4282 66.3756 36.0154 66.8979C36.606 67.4236 37.0771 68.062 37.6404 68.6151C38.2174 69.1818 38.8899 69.5949 39.6649 69.8339C41.1431 70.2845 42.7306 70.2128 44.2259 70.602C44.9223 70.7829 45.5948 71.039 46.1923 71.4452C46.8477 71.889 47.2233 72.5411 47.7285 73.1317C48.3191 73.8247 49.176 74.1661 50.0602 74.2822C50.9991 74.4085 51.8184 74.289 52.5353 73.6404C52.5968 73.5858 52.549 73.4765 52.4671 73.4765L52.4739 73.4697Z" fill="#6B6B6B"/>
<path d="M30.1457 58.3697C30.1013 58.2741 29.975 58.3322 29.9682 58.4175C29.9135 59.0081 29.736 59.5578 29.637 60.1381C29.538 60.7185 29.4219 61.2784 29.1966 61.8246C28.7596 62.8829 28.029 63.8525 27.1005 64.5318C26.6191 64.8835 26.0968 65.1464 25.5335 65.3444C24.919 65.5594 24.4035 65.8428 24.045 66.4027C23.4271 67.3688 23.5397 68.6729 22.7648 69.5503C22.3688 70.0009 21.8123 70.3423 21.2353 70.5028C20.9179 70.5916 20.5969 70.6223 20.2692 70.6052C19.9893 70.5916 19.7298 70.4891 19.4738 70.6325C19.426 70.6598 19.3918 70.7281 19.4123 70.7827C19.583 71.2641 20.3682 71.3017 20.8018 71.3017C21.4197 71.3017 22.0683 71.1412 22.6043 70.8339C23.1301 70.5301 23.5875 70.0658 23.8811 69.5332C24.202 68.9495 24.3284 68.2906 24.5332 67.6624C24.7483 66.9933 25.0487 66.5529 25.7281 66.3071C26.3562 66.0818 26.9537 65.8223 27.5033 65.44C28.5616 64.706 29.4219 63.6818 29.9613 62.5108C30.2652 61.8553 30.4837 61.1657 30.5792 60.4488C30.6782 59.7182 30.4461 59.015 30.1388 58.3595L30.1457 58.3697Z" fill="#6B6B6B"/>
<path d="M51.8858 68.2085C51.64 68.4031 51.4147 68.2631 51.1279 68.2119C50.8582 68.1641 50.5885 68.0822 50.353 67.9456C49.7555 67.594 49.3424 66.9932 48.7279 66.6586C47.9427 66.2353 47.2224 66.4128 46.3962 66.5903C45.7203 66.7371 44.9795 66.6449 44.3513 66.3616C43.6787 66.0577 43.1974 65.5627 42.8014 64.9448C42.3849 64.2927 42.0128 63.6031 41.3983 63.1149C40.217 62.1795 38.6774 62.1966 37.2981 61.7562C36.5198 61.5104 35.7789 61.0939 35.1644 60.5545C34.8504 60.278 34.5602 59.9707 34.311 59.6327C34.0686 59.3084 33.8876 58.9636 33.6009 58.6734C33.5223 58.5949 33.3687 58.6495 33.3721 58.769C33.396 59.5098 33.9218 60.1858 34.3826 60.732C34.8674 61.309 35.4683 61.8211 36.1306 62.1898C36.8475 62.5926 37.6429 62.7974 38.4384 62.9852C39.1826 63.1593 39.9644 63.313 40.6062 63.7499C41.3095 64.2279 41.627 65.0575 42.0776 65.7471C42.5214 66.423 43.112 66.9897 43.8494 67.3414C44.5732 67.6862 45.3789 67.8637 46.1812 67.7749C46.6284 67.7271 47.0551 67.5599 47.4989 67.5155C47.8915 67.4779 48.2124 67.6486 48.5129 67.8842C49.1786 68.4065 49.7111 69.0756 50.5851 69.2532C50.9572 69.3283 51.3976 69.3146 51.6844 69.0381C51.8687 68.8606 52.0326 68.5704 52.0906 68.3212C52.1214 68.1949 51.9814 68.13 51.8892 68.2051L51.8858 68.2085Z" fill="#6B6B6B"/>
<path d="M51.5652 63.3368C50.5786 63.2036 49.5407 63.2617 48.6292 62.7837C48.1683 62.5413 47.7928 62.2068 47.489 61.7834C47.1544 61.3191 46.8506 60.8241 46.3726 60.4896C45.3006 59.7419 44.0136 60.2062 42.8221 60.1994C41.6273 60.1926 40.6406 59.3971 39.8589 58.5675C39.3638 58.0418 38.9234 57.4717 38.4933 56.8913C38.2577 56.5772 38.0153 56.2665 37.79 55.9456C37.6057 55.6828 37.435 55.3994 37.1619 55.2151C37.0731 55.1536 36.9502 55.2355 36.9502 55.3345C36.9639 55.9525 37.4418 56.6353 37.7525 57.1508C38.1041 57.7414 38.5343 58.2944 38.9644 58.827C39.7325 59.7795 40.6816 60.6842 41.8765 61.0494C42.4944 61.2372 43.1294 61.2236 43.7644 61.1587C44.3618 61.0972 45.0651 60.9641 45.625 61.2509C46.161 61.524 46.4409 62.159 46.7959 62.613C47.1442 63.0602 47.5846 63.429 48.0864 63.6952C48.6395 63.9888 49.3188 64.2312 49.9538 64.1937C50.5171 64.1595 51.2306 63.9479 51.5993 63.4938C51.6369 63.446 51.6369 63.3436 51.5584 63.3334L51.5652 63.3368Z" fill="#6B6B6B"/>
<path d="M27.6946 56.1816C26.7217 55.9699 26.2779 57.4959 26.0799 58.1753C25.9092 58.7523 25.8136 59.3565 25.7863 59.9574C25.7658 60.4626 25.9126 61.1932 25.4927 61.5756C25.141 61.8965 24.5777 61.9921 24.1578 62.2003C23.6935 62.4325 23.2634 62.7602 22.9049 63.1357C22.2221 63.8527 21.792 64.7676 22.0822 65.7645C22.1095 65.86 22.229 65.8669 22.2802 65.7918C22.5362 65.4231 22.8127 65.0646 23.0551 64.6925C23.3078 64.3067 23.5604 63.938 23.8984 63.6239C24.2193 63.3235 24.5914 63.1016 24.9942 62.9275C25.4346 62.7363 25.8648 62.5656 26.1789 62.1798C26.8207 61.3878 26.4964 60.2237 26.5954 59.2917C26.7046 58.2777 27.0426 57.1955 27.7698 56.4581C27.8517 56.3728 27.821 56.2089 27.6981 56.1816H27.6946Z" fill="#6B6B6B"/>
<path d="M16.8223 87.0982C16.754 85.8487 16.8701 84.5924 17.1739 83.3804C17.348 82.6908 17.5768 82.0149 17.867 81.3662C18.1367 80.7654 18.5736 80.1748 18.6351 79.5125C18.6487 79.3623 18.4644 79.2837 18.3483 79.3486C17.8328 79.6354 17.5597 80.2123 17.3071 80.7278C17.0442 81.2638 16.8189 81.8203 16.6311 82.387C16.2453 83.5545 16.0268 84.787 15.9825 86.016C15.9347 87.2757 16.0917 88.5286 16.399 89.7508C16.7301 91.072 17.092 92.3352 16.9827 93.7144C16.9281 94.4074 16.7608 95.0799 16.5424 95.7388C16.4297 96.087 16.2727 96.4216 16.1771 96.7732C16.0849 97.1181 16.0439 97.4765 15.9722 97.8281C15.9517 97.9271 16.061 98.0432 16.16 97.9715C16.655 97.6131 17.0647 97.2341 17.3037 96.6606C17.546 96.0836 17.7099 95.493 17.8055 94.8717C18.0035 93.5676 17.9045 92.2703 17.5973 90.9901C17.2866 89.6928 16.894 88.4433 16.8189 87.1016L16.8223 87.0982Z" fill="#6B6B6B"/>
<path d="M21.6901 90.1297C21.4101 89.5016 21.2087 88.8632 21.178 88.1701C21.1472 87.46 21.2462 86.7534 21.3828 86.0569C21.5125 85.3775 21.673 84.6982 21.8437 84.029C21.9324 83.6808 22.0349 83.336 22.127 82.9912C22.1953 82.7318 22.2465 82.4382 22.0792 82.206C22.0349 82.1446 21.9563 82.0968 21.8778 82.1241C21.3316 82.3153 21.236 83.179 21.0994 83.6638C20.9185 84.3056 20.7512 84.9508 20.6078 85.6029C20.3177 86.8933 20.1333 88.2623 20.5225 89.5528C20.8741 90.7169 21.6218 91.7445 21.6491 92.994C21.6593 93.5436 21.5637 94.0865 21.3726 94.602C21.2701 94.8785 21.1404 95.1414 21.0414 95.4179C20.9458 95.6808 20.9526 95.8924 20.9322 96.1655C20.9253 96.2509 21.0209 96.3157 21.1029 96.2953C21.3726 96.2167 21.5501 96.1724 21.7515 95.9675C21.9632 95.7524 22.1066 95.5032 22.2226 95.2267C22.4377 94.7214 22.5504 94.1718 22.5879 93.6256C22.6801 92.359 22.1953 91.2597 21.6935 90.1331L21.6901 90.1297Z" fill="#6B6B6B"/>
<path d="M25.7789 89.9042C25.8028 89.7676 25.8165 89.4979 25.6389 89.4433C25.1849 89.3033 24.9118 90.0885 24.8025 90.3958C24.625 90.8976 24.567 91.478 24.6011 92.0072C24.6353 92.5602 24.7513 93.1064 24.8059 93.6561C24.8572 94.1682 24.9698 94.6905 24.683 95.1582C24.6387 95.2299 24.7308 95.3323 24.8059 95.2811C25.1747 95.0114 25.4785 94.6052 25.5877 94.1545C25.7277 93.581 25.5604 92.9835 25.4717 92.4134C25.3829 91.8535 25.3966 91.3005 25.5365 90.7508C25.6082 90.4709 25.7311 90.1875 25.7823 89.9076L25.7789 89.9042Z" fill="#6B6B6B"/>
<path d="M46.1948 92.3793C46.0924 92.0618 45.9831 91.7614 45.9114 91.4303C45.8466 91.1332 45.8227 90.8328 45.8363 90.5256C45.85 90.2012 45.9217 89.8906 45.8841 89.5662C45.8636 89.4092 45.7032 89.3307 45.5769 89.4399C45.2867 89.6892 45.1809 90.034 45.116 90.3992C45.0477 90.7748 45.0204 91.164 45.058 91.5463C45.0955 91.9287 45.1911 92.352 45.372 92.6968C45.4608 92.8641 45.6008 93.0416 45.751 93.1543C45.8944 93.2601 46.0514 93.3284 46.2084 93.4137C46.2904 93.4581 46.3928 93.383 46.3689 93.2908C46.2904 92.9904 46.2938 92.6797 46.1982 92.3793H46.1948Z" fill="#6B6B6B"/>
<path d="M52.1832 92.9426C51.8077 91.601 50.8927 90.6519 50.0154 89.6141C49.1858 88.6343 48.7044 87.5111 48.5849 86.2309C48.5269 85.6198 48.5576 84.9984 48.6908 84.3976C48.7556 84.1108 48.841 83.8309 48.9434 83.5578C49.039 83.3017 49.1312 82.9057 49.3428 82.7179C49.3872 82.6804 49.377 82.6155 49.3428 82.5746C48.9707 82.1239 48.5098 82.9057 48.3699 83.1788C48.066 83.7592 47.8783 84.4078 47.7793 85.0531C47.5812 86.3674 47.7861 87.6852 48.3801 88.8767C49.0219 90.1671 50.2202 91.0581 50.8723 92.335C51.1966 92.9699 51.3502 93.6835 51.3502 94.3935C51.3502 95.0285 51.1625 95.6738 51.4526 96.278C51.4799 96.3361 51.5516 96.3395 51.5994 96.3156C52.7397 95.8069 52.4495 93.8815 52.1832 92.9392V92.9426Z" fill="#6B6B6B"/>
<path d="M55.7207 94.7214C55.4339 93.2842 54.3961 92.2463 53.9215 90.8978C52.9759 88.2008 54.3824 85.3297 54.0888 82.5747C53.9591 81.3525 53.5938 79.8163 52.4433 79.1608C52.3819 79.1232 52.317 79.1949 52.3477 79.2564C52.6106 79.7719 52.8974 80.2806 53.0612 80.837C53.2251 81.3832 53.2865 81.9465 53.29 82.5133C53.2968 83.7491 53.0578 84.961 52.8325 86.1696C52.573 87.5556 52.3716 88.9656 52.6106 90.3721C52.8427 91.7513 53.6962 92.7755 54.2459 94.0216C54.5326 94.6736 54.6453 95.3871 54.6077 96.1007C54.5873 96.4591 54.5292 96.7971 54.4609 97.1487C54.4268 97.3263 54.3892 97.5106 54.3927 97.6881C54.3961 97.8895 54.5156 98.0432 54.5326 98.2446C54.5395 98.3231 54.618 98.3812 54.6965 98.3368C54.9833 98.1729 55.2188 98.1388 55.4066 97.8349C55.5978 97.5243 55.6865 97.159 55.7548 96.8039C55.8811 96.1143 55.8572 95.4145 55.7207 94.7283V94.7214Z" fill="#6B6B6B"/>
<path d="M20.895 113.33C20.796 113.18 20.5194 113.091 20.4102 113.286C20.3829 113.337 20.3692 113.539 20.4887 113.498C20.3829 113.535 20.4341 113.464 20.3556 113.552C20.3078 113.607 20.2941 113.781 20.2736 113.853C20.2224 114.054 20.1712 114.256 20.12 114.457C20.021 114.86 19.9322 115.266 19.8537 115.676C19.6899 116.499 19.5533 117.328 19.4679 118.161C19.3826 118.987 19.3314 119.82 19.3143 120.653C19.3041 121.07 19.3041 121.486 19.3143 121.903C19.3211 122.309 19.2768 122.777 19.4133 123.163C19.5192 123.456 19.98 123.507 20.062 123.163C20.1849 122.647 20.0722 122.043 20.0688 121.514C20.0688 120.94 20.079 120.37 20.1064 119.796C20.1644 118.636 20.2805 117.475 20.4512 116.324C20.5365 115.758 20.6355 115.194 20.7516 114.631C20.8233 114.29 21.1135 113.662 20.895 113.33Z" fill="#65A0C1"/>
<path d="M75.0409 9.70921C71.3486 4.05007 64.1715 2.05806 57.8049 3.55946C52.3723 4.83695 44.7159 9.77097 46.0788 16.2102C46.4327 17.8789 48.5064 18.5074 49.9356 18.1155C52.1757 17.4969 53.7652 15.3959 55.6505 14.0974C57.3798 12.9018 59.3614 12.1739 61.4862 12.1161C65.7337 12.0112 68.5326 14.7443 68.333 18.9967C68.1331 23.3052 63.4044 27.4472 61.1582 30.8294C58.0633 35.4983 56.46 41.4403 58.0394 46.935C59.8246 53.1238 68.6699 50.7719 68.6561 44.8235C68.6491 41.2479 68.8173 38.8436 70.7727 35.7276C72.5474 32.8891 74.8496 30.3276 76.0775 27.197C78.2201 21.7479 78.3372 14.725 75.0625 9.71364L75.0409 9.70921Z" fill="#263238"/>
<path d="M70.1828 62.1648C70.1565 61.4176 69.9616 60.7257 69.5849 60.0975C69.3186 59.4246 68.9092 58.846 68.3439 58.3701C67.9442 58.0182 67.514 57.7051 67.036 57.4607C66.3492 57.0835 65.6334 56.9027 64.8668 56.9138C64.1269 56.7954 63.4032 56.8715 62.6957 57.1419L61.4077 57.7764C60.7666 58.1616 60.2672 58.6771 59.9119 59.3122C59.5753 59.6926 59.3506 60.1297 59.2508 60.6149C58.9384 61.315 58.8222 62.0442 58.898 62.824L59.1776 64.2526C59.4944 65.1719 60.0171 65.9649 60.7455 66.6317C61.5126 67.3288 61.8488 67.4428 62.6871 67.7388C62.9177 67.8199 63.2171 67.9488 63.4845 68.015L64.9802 68.1201C65.7274 68.0938 66.4193 67.8989 67.0475 67.5222C67.5082 67.3584 67.8982 67.1014 68.2305 66.7425C68.8244 66.3139 69.2764 65.7549 69.5952 65.0786C69.7596 64.6067 69.9241 64.1347 70.0885 63.6627C70.1235 63.1641 70.1586 62.6656 70.1936 62.167L70.1828 62.1648Z" fill="#263238"/>
<path d="M50.0776 147.484C49.7431 147.798 49.3129 148.057 48.9476 148.347C48.5789 148.641 48.2 148.928 47.8347 149.228C47.1314 149.802 46.4042 150.344 45.6532 150.86C44.0998 151.925 42.468 153.021 40.6279 153.509C38.7024 154.021 36.6746 153.748 34.7799 153.239C32.9773 152.758 31.2635 152.034 29.6043 151.191C28.7065 150.734 27.8291 150.232 26.979 149.692C26.5421 149.416 26.1153 149.129 25.692 148.835C25.255 148.532 24.8317 148.177 24.3537 147.944C24.2001 147.869 24.0704 148.047 24.1762 148.177C24.76 148.893 25.651 149.45 26.4021 149.989C27.2044 150.566 28.0271 151.109 28.8772 151.608C30.5159 152.574 32.274 153.342 34.0971 153.888C36.0669 154.479 38.163 154.83 40.208 154.475C42.1573 154.137 43.8814 153.072 45.5064 151.997C46.4042 151.403 47.285 150.785 48.1078 150.088C48.5277 149.733 48.9237 149.361 49.2685 148.931C49.4426 148.716 49.6167 148.508 49.767 148.272C49.9206 148.037 50.0196 147.781 50.1698 147.545C50.2039 147.49 50.1288 147.436 50.081 147.477L50.0776 147.484Z" fill="#65A0C1"/>
<path d="M52.4799 150.586C51.285 151.498 50.0355 152.348 48.8133 153.225C48.2056 153.659 47.5843 154.082 46.9562 154.488C46.6421 154.69 46.328 154.895 46.0173 155.103C45.6793 155.328 45.3926 155.591 45.0683 155.837C45.0068 155.885 45.0375 156.008 45.1263 155.977C45.4779 155.854 45.8125 155.765 46.1539 155.601C46.4919 155.441 46.8196 155.26 47.1405 155.069C47.8199 154.663 48.4856 154.232 49.1308 153.775C50.3974 152.874 51.5001 151.819 52.5413 150.668C52.5789 150.627 52.5277 150.552 52.4799 150.59V150.586Z" fill="#65A0C1"/>
<path d="M29.8627 80.3421C29.7534 80.1953 29.6681 80.1031 29.5213 79.9973C29.4837 79.97 29.4462 79.9461 29.4086 79.9222C29.2789 79.8505 29.1355 79.7993 28.9921 79.7685C28.7566 79.7207 28.5039 79.6866 28.265 79.7037C27.787 79.7344 27.3056 79.8641 26.9096 80.1407C26.6433 80.3284 26.4658 80.5776 26.4658 80.9156C26.4658 81.2331 26.6365 81.5301 26.9096 81.6906C27.2408 81.8852 27.6061 82.032 27.985 82.09C28.2103 82.1241 28.4391 82.1549 28.6678 82.148C28.9273 82.1412 29.2038 82.1105 29.4223 81.9603C29.6612 81.7964 29.8558 81.5813 29.9241 81.2911C29.948 81.1887 29.9514 81.0897 29.9446 80.9907C30.0061 80.7757 29.9958 80.5162 29.8627 80.3421Z" fill="#D78381"/>
<path d="M44 80.3421C44.1092 80.1953 44.1946 80.1031 44.3413 79.9973C44.3789 79.97 44.4165 79.9461 44.454 79.9222C44.5837 79.8505 44.7271 79.7993 44.8705 79.7685C45.1061 79.7207 45.3587 79.6866 45.5977 79.7037C46.0756 79.7344 46.557 79.8641 46.953 80.1407C47.2193 80.3284 47.3968 80.5776 47.3968 80.9156C47.3968 81.2331 47.2261 81.5301 46.953 81.6906C46.6218 81.8852 46.2566 82.032 45.8776 82.09C45.6523 82.1241 45.4236 82.1549 45.1948 82.148C44.9354 82.1412 44.6588 82.1105 44.4404 81.9603C44.2014 81.7964 44.0068 81.5813 43.9385 81.2911C43.9146 81.1887 43.9112 81.0897 43.918 80.9907C43.8566 80.7757 43.8668 80.5162 44 80.3421Z" fill="#D78381"/>
<path d="M32.9594 72.9475C32.8195 72.8211 32.6761 72.7324 32.4917 72.6778C32.3859 72.647 32.2801 72.6231 32.1708 72.6061C31.9011 72.5651 31.6382 72.5446 31.3651 72.5753C30.8087 72.6368 30.1907 72.7904 29.8869 73.3093C29.7503 73.5449 29.9176 73.9443 30.2283 73.9034C30.457 73.876 30.6653 73.8283 30.8804 73.7566C30.9862 73.7224 31.092 73.6951 31.1978 73.6746C31.2047 73.6746 31.2183 73.6712 31.232 73.6678C31.2798 73.6576 31.3344 73.6576 31.3822 73.6541C31.4778 73.6473 31.5734 73.6473 31.669 73.6541C31.7202 73.6541 31.7816 73.6541 31.8328 73.6678C31.8567 73.6746 31.8806 73.6815 31.8909 73.6815C31.9865 73.7019 32.0786 73.7258 32.1674 73.7566C32.304 73.8044 32.4405 73.8214 32.5873 73.8351C32.7887 73.8556 32.9902 73.6883 33.0618 73.5142C33.1404 73.3298 33.1096 73.084 32.9526 72.944L32.9594 72.9475Z" fill="#0B2E4A"/>
<path d="M43.4914 73.0907C43.2148 72.9747 42.9212 72.92 42.6242 72.903C42.3375 72.8859 42.037 72.9235 41.7639 73.0054C41.6103 73.0498 41.4601 73.1146 41.3167 73.1863C41.1358 73.2785 41.0197 73.4185 40.9139 73.5858C40.6988 73.934 41.0538 74.3368 41.4225 74.2481C41.5659 74.2139 41.6922 74.1764 41.8288 74.1115C41.8288 74.1115 41.8288 74.1115 41.822 74.1115C41.8322 74.1115 41.8424 74.1047 41.8561 74.1013C41.8663 74.0944 41.88 74.091 41.8902 74.0876C41.9414 74.0705 41.9927 74.0535 42.0473 74.0398C42.1053 74.0261 42.1634 74.0159 42.218 74.0022C42.2385 74.0022 42.2589 73.9988 42.2794 73.9954C42.3955 73.9886 42.5116 73.9886 42.6242 73.9954C42.6311 73.9954 42.6413 73.9954 42.6515 73.9954C42.6618 73.9954 42.672 73.9988 42.6754 73.9988C42.7301 74.0091 42.7813 74.0193 42.8359 74.033C42.8871 74.0466 42.9417 74.0637 42.9929 74.0808C43.0134 74.0876 43.0373 74.0978 43.0578 74.1047C43.0578 74.1047 43.0578 74.1047 43.0612 74.1047C43.1909 74.1695 43.3138 74.2446 43.4504 74.2993C43.4538 74.2993 43.4777 74.3095 43.4948 74.3163C43.5016 74.3163 43.505 74.3197 43.5153 74.3232C43.5767 74.3573 43.645 74.3709 43.7201 74.3675C43.7952 74.3675 43.8703 74.3471 43.942 74.33C44.1332 74.2822 44.2254 74.1115 44.2458 73.9306C44.2971 73.4697 43.8567 73.2273 43.4982 73.0771L43.4914 73.0907Z" fill="#0B2E4A"/>
<path d="M41.8325 74.1083C41.8325 74.1083 41.8325 74.1083 41.8291 74.1083C41.8944 74.1014 41.891 74.0911 41.8566 74.098C41.8497 74.098 41.8429 74.098 41.836 74.1048L41.8325 74.1083Z" fill="#0B2E4A"/>
<path d="M37.5987 85.9921C37.5885 85.9238 37.5578 85.8726 37.5066 85.8248C37.4929 85.8111 37.4792 85.7975 37.4622 85.7838C37.4315 85.7599 37.4553 85.7838 37.4656 85.8009C37.3939 85.6678 37.2198 85.62 37.0798 85.5927C36.9672 85.5722 36.8545 85.5722 36.7418 85.5824C36.5438 85.5995 36.3424 85.6302 36.1512 85.6917C36.0283 85.7326 35.9191 85.7872 35.8269 85.876C35.7484 85.9511 35.7108 86.0433 35.6767 86.1457C35.646 86.2345 35.7108 86.3335 35.7962 86.3574C35.844 86.371 35.8918 86.3881 35.9396 86.3983C36.0283 86.4154 36.1512 86.4052 36.2434 86.3881C36.298 86.3779 36.3527 86.3574 36.4073 86.3471C36.4448 86.3403 36.4824 86.3335 36.5165 86.3266H36.5438C36.5848 86.3164 36.5814 86.3164 36.5336 86.3266C36.5438 86.3198 36.6053 86.3198 36.6189 86.3198C36.6531 86.3198 36.6838 86.3164 36.7179 86.3164C36.7794 86.3164 36.8408 86.3164 36.9023 86.3164C36.9672 86.3198 37.032 86.3164 37.1003 86.313C37.1276 86.313 37.1549 86.313 37.1822 86.3096C37.2369 86.3027 37.2812 86.2925 37.3222 86.272C37.4212 86.2413 37.5373 86.214 37.5817 86.1116L37.5748 86.1184C37.6021 86.0808 37.6056 86.0399 37.5987 85.9955V85.9921Z" fill="#E0A283"/>
<path d="M25.0821 166.724C24.7168 166.929 24.3515 167.127 23.9657 167.288C23.539 167.465 23.2693 167.909 22.9791 168.254C22.4806 168.844 22.0232 169.589 21.3916 170.049C20.7908 170.486 20.0124 170.616 19.3194 170.841C19.0462 170.93 17.4588 171.36 17.7216 171.879C17.865 172.159 18.3566 172.156 18.6229 172.156C19.077 172.156 19.531 172.067 19.9817 172.006C20.7703 171.9 21.6101 171.64 22.2553 171.162C22.9449 170.654 23.4741 169.947 24.0169 169.288C24.3105 168.933 24.7646 168.534 24.8704 168.076C24.966 167.653 25.0889 167.247 25.2289 166.834C25.2562 166.752 25.1572 166.687 25.0889 166.724H25.0821Z" fill="#C8C8C8"/>
<path d="M57.2182 171.664C56.7403 171.422 56.2828 171.23 55.8561 170.899C55.3918 170.541 54.9412 170.155 54.5008 169.769C53.9955 169.329 53.5312 168.858 53.043 168.4C52.8348 168.206 52.6368 168.008 52.4763 167.769C52.3944 167.642 52.3056 167.523 52.2271 167.393C52.1554 167.274 52.0666 167.199 51.9779 167.093C51.9096 167.007 51.7491 167.014 51.6809 167.093C51.5136 167.284 51.4351 167.431 51.4316 167.694C51.4316 168.011 51.5306 168.284 51.6774 168.557C51.954 169.076 52.3534 169.513 52.7528 169.937C53.579 170.817 54.47 171.674 55.4669 172.367C55.9585 172.712 56.614 173.053 57.2251 172.849C57.4743 172.763 57.7167 172.538 57.7064 172.255C57.6962 171.975 57.4504 171.78 57.2217 171.664H57.2182Z" fill="#C8C8C8"/>
<path d="M39.9652 178.813C39.9311 178.611 39.9243 178.577 39.9038 178.369C39.8833 178.185 39.8697 178 39.8594 177.816C39.8389 177.447 39.815 177.079 39.8184 176.706C39.8184 176.331 39.8253 175.908 39.6682 175.559C39.5624 175.324 39.2005 175.303 39.0401 175.477C38.7635 175.771 38.6645 176.232 38.6099 176.621C38.5553 177.017 38.5075 177.413 38.5143 177.816C38.5212 178.185 38.5485 178.553 38.5928 178.922C38.6475 179.362 38.6714 180.069 39.1561 180.274C39.3849 180.37 39.6682 180.39 39.8526 180.185C40.211 179.782 40.0438 179.291 39.9652 178.816V178.813Z" fill="#C8C8C8"/>
<path d="M140.477 179.993C140.477 180.041 109.027 180.079 70.2432 180.079C31.4596 180.079 0 180.041 0 179.993C0 179.945 31.4437 179.907 70.2432 179.907C109.043 179.907 140.477 179.945 140.477 179.993Z" fill="#263238"/>
</svg>
