<svg width="156" height="177" viewBox="0 0 156 177" fill="none" xmlns="http://www.w3.org/2000/svg">
<g clip-path="url(#clip0_1005_3569)">
<path fill-rule="evenodd" clip-rule="evenodd" d="M24.9012 170.553C24.8187 170.388 25.9728 172.283 25.9728 172.283C25.9728 172.283 32.1023 175.204 32.1023 176.039C32.1023 176.873 20.498 176.208 20.498 176.208L20.7163 172.085L24.8963 170.548L24.9012 170.553Z" fill="#1C2225"/>
<path fill-rule="evenodd" clip-rule="evenodd" d="M7.19627 170.628C7.28841 170.463 6.12459 172.353 6.12459 172.353C6.12459 172.353 0 175.28 0 176.114C0 176.948 11.6042 176.279 11.6042 176.279L11.386 172.165L7.20112 170.628H7.19627Z" fill="#1C2225"/>
<path fill-rule="evenodd" clip-rule="evenodd" d="M36.0542 110.477C36.1124 110.638 37.4266 115.185 36.4519 115.859C35.482 116.528 32.2912 115.666 32.2524 115.355C32.2185 115.044 32.0681 110.953 32.267 110.859C32.7373 109.606 36.0591 110.482 36.0591 110.482L36.0542 110.477Z" fill="#F8C67C"/>
<path fill-rule="evenodd" clip-rule="evenodd" d="M30.4245 113.522C30.4245 113.206 30.6961 112.951 31.021 112.956C32.5339 112.97 36.5588 113.017 38.1881 113.032C38.3724 113.032 38.5518 113.107 38.6828 113.234C38.8137 113.361 38.8864 113.536 38.8816 113.715C38.867 114.978 38.8379 117.556 38.8379 117.556L37.7517 117.541C37.8002 116.585 37.8293 115.176 37.8438 114.511C37.8438 114.412 37.805 114.318 37.7372 114.247C37.6644 114.177 37.5674 114.134 37.4656 114.134C36.3212 114.12 32.9461 114.082 31.8453 114.068C31.6514 114.068 31.4865 114.219 31.4865 114.408C31.4719 115.27 31.4331 117.466 31.4331 117.466L30.3809 117.452C30.3809 117.452 30.4148 114.723 30.4294 113.507L30.4245 113.522Z" fill="#3D3938"/>
<path fill-rule="evenodd" clip-rule="evenodd" d="M52.2407 116.735L51.6152 138.394L48.7687 138.555L20.7158 137.768L21.3705 116.113C31.3211 116.245 39.3999 116.726 49.2293 116.618C49.7094 116.613 51.7509 116.749 52.2407 116.74V116.735Z" fill="#2F2C2B"/>
<path fill-rule="evenodd" clip-rule="evenodd" d="M49.229 116.613L48.7683 138.55L18.834 137.796L19.4886 116.142C29.929 116.278 38.7789 116.787 49.229 116.613Z" fill="#3D3938"/>
<mask id="mask0_1005_3569" style="mask-type:luminance" maskUnits="userSpaceOnUse" x="18" y="116" width="32" height="23">
<path d="M49.229 116.613L48.7683 138.55L18.834 137.796L19.4886 116.142C29.929 116.278 38.7789 116.787 49.229 116.613Z" fill="white"/>
</mask>
<g mask="url(#mask0_1005_3569)">
<path fill-rule="evenodd" clip-rule="evenodd" d="M36.8879 108.894C36.8879 108.894 32.703 114.78 35.0209 125.242C37.3388 135.704 47.7308 142.245 47.7308 142.245L23.6543 141.444L25.0024 110.053L36.8927 108.889L36.8879 108.894Z" fill="#353130"/>
</g>
<path fill-rule="evenodd" clip-rule="evenodd" d="M29.0566 69.0254C29.2215 68.639 30.2399 65.5852 31.1612 65.7831C32.0826 65.9764 35.0697 67.9368 35.4334 83.559C35.7922 99.1718 36.4517 111.189 36.4517 111.189L31.6122 111.415L29.0566 69.0254Z" fill="#316263"/>
<path fill-rule="evenodd" clip-rule="evenodd" d="M5.12598 104.671L6.19766 172L11.4251 172.938L17.7825 122.452L20.7211 172.09L25.9729 172.283L30.3663 106.448L5.12598 104.671Z" fill="#263238"/>
<path fill-rule="evenodd" clip-rule="evenodd" d="M16.056 63.1112C15.5759 63.1112 5.07731 66.3016 5.07731 66.3016C5.07731 66.3016 3.96684 103.592 6.68241 106.721C9.42708 107.409 23.8972 109.94 30.2643 107.169C32.1312 96.7543 31.1808 82.0086 30.5649 66.7728C28.5767 65.1281 25.3956 65.6654 23.4171 64.0207C20.9634 63.7144 18.5097 63.4128 16.056 63.1064V63.1112Z" fill="#F9D888"/>
<path fill-rule="evenodd" clip-rule="evenodd" d="M17.8553 66.4805L17.3364 67.6633L15.5713 105.039L18.4323 109.935L21.6668 105.274L19.3149 67.6633L17.8553 66.4805Z" fill="#263238"/>
<path fill-rule="evenodd" clip-rule="evenodd" d="M13.9614 63.6621C13.6025 81.2872 17.5741 95.0856 14.2087 112.951C13.3892 117.305 2.87117 117.093 2.95361 116.542C3.03119 116 3.23001 71.3625 3.23001 71.3625L4.42293 66.4048L13.9614 63.6621Z" fill="#008183"/>
<path fill-rule="evenodd" clip-rule="evenodd" d="M14.0144 63.7095L14.8145 92.2112L8.94691 75.2694L11.677 73.2477L8.47168 66.2307L10.8624 64.553L12.9863 63.8886L14.0144 63.7095Z" fill="#76AAAB"/>
<path fill-rule="evenodd" clip-rule="evenodd" d="M22.874 63.813L24.901 112.334C27.2965 117.131 28.3585 116.391 31.3747 115.854C32.107 103.667 33.0477 76.8527 31.1614 65.7781L22.874 63.813Z" fill="#008183"/>
<path fill-rule="evenodd" clip-rule="evenodd" d="M22.9756 63.7046L23.926 92.1733L28.0382 75.2693L25.3178 73.2429L28.3243 66.4662L25.7106 64.4963L22.9756 63.7046Z" fill="#76AAAB"/>
<path fill-rule="evenodd" clip-rule="evenodd" d="M43.6289 76.0798C43.818 75.9196 44.5988 75.1703 45.5831 74.4917C46.5724 73.8178 47.5568 73.7047 47.712 73.6953C47.872 73.6764 50.83 71.7961 50.83 72.3145C50.83 72.8329 49.3365 74.6661 49.3365 74.6661C49.3365 74.6661 53.4535 73.4314 54.3457 73.257C55.238 73.0873 56.1739 73.1345 55.8926 73.6481C55.6065 74.1712 50.4809 76.4144 50.4809 76.4144C50.4809 76.4144 44.9867 78.2476 44.9043 78.1392C44.8315 78.0261 43.6289 76.0846 43.6289 76.0846V76.0798Z" fill="#FAD6A1"/>
<path fill-rule="evenodd" clip-rule="evenodd" d="M5.07757 66.3012C2.23107 66.042 -0.615436 72.3427 2.9924 76.2353C6.59538 80.1279 18.0978 87.4749 20.503 86.6973C22.9082 85.9197 45.1517 79.52 45.1517 79.52L44.594 75.1043L20.7212 78.323C19.2616 77.6114 7.92892 66.5698 5.08242 66.3012H5.07757Z" fill="#316263"/>
<path fill-rule="evenodd" clip-rule="evenodd" d="M24.8421 47.3664C25.3512 47.6727 26.1708 49.9441 26.2968 54.9159C26.4229 59.883 21.8743 61.5465 21.8743 61.5465C21.9422 62.5645 22.0004 63.5918 22.0683 64.6144C19.4691 66.2591 16.5062 65.8491 14.3289 64.0631C14.3871 61.5607 13.0342 51.9706 13.2184 48.8414C13.4124 45.7075 17.3888 44.3032 20.6717 45.4012C23.9546 46.5087 24.8421 47.3664 24.8421 47.3664Z" fill="#FAD6A1"/>
<mask id="mask1_1005_3569" style="mask-type:luminance" maskUnits="userSpaceOnUse" x="13" y="45" width="14" height="21">
<path d="M24.8421 47.3664C25.3512 47.6727 26.1708 49.9441 26.2968 54.9159C26.4229 59.883 21.8743 61.5465 21.8743 61.5465C21.9422 62.5645 22.0004 63.5918 22.0683 64.6144C19.4691 66.2591 16.5062 65.8491 14.3289 64.0631C14.3871 61.5607 13.0342 51.9706 13.2184 48.8414C13.4124 45.7075 17.3888 44.3032 20.6717 45.4012C23.9546 46.5087 24.8421 47.3664 24.8421 47.3664Z" fill="white"/>
</mask>
<g mask="url(#mask1_1005_3569)">
<path fill-rule="evenodd" clip-rule="evenodd" d="M26.6368 59.2843C26.6368 59.2843 22.9756 61.5369 19.4841 60.9997C13.3644 60.0571 14.8386 55.3398 14.8386 55.3398L12.5352 57.1589C12.5352 57.1589 11.9969 60.9855 12.0988 61.4097C12.2006 61.8338 15.1926 66.3155 15.1926 66.3155C15.1926 66.3155 19.8624 67.5784 21.3802 66.0327C22.898 64.487 26.4622 61.2164 26.4622 61.2164L26.6319 59.289L26.6368 59.2843Z" fill="#F8C273"/>
</g>
<path fill-rule="evenodd" clip-rule="evenodd" d="M21.5741 47.6725C22.7088 48.1626 24.5418 48.4077 25.7057 47.3662C26.8743 46.3247 27.0683 44.5716 26.37 44.0815C25.6717 43.5914 24.9831 43.8365 24.9831 43.8365C24.9831 43.8365 24.5418 43.073 23.4605 42.5829C22.3888 42.0881 20.968 43.1013 20.968 43.1013C20.968 43.1013 20.2115 42.3049 18.7858 42.5169C17.3698 42.7337 16.7637 43.8082 16.7637 43.8082C16.7637 43.8082 14.5573 43.5631 13.8008 44.2653C13.0443 44.9722 12.7582 46.7488 12.7582 46.7488C12.7582 46.7488 11.6477 47.4887 11.2743 48.5349C10.8912 49.5764 10.8282 51.862 11.3568 52.9977C11.895 54.1335 12.4284 54.6 12.4284 54.6C12.4284 54.6 10.9155 55.9195 12.1908 56.7631C14.4457 58.2428 15.2022 54.944 15.4204 54.0911C15.8278 52.5312 17.2971 51.3012 17.4862 50.3445C17.6802 49.3973 16.9528 48.1343 18.1845 47.6489C19.4162 47.1541 21.5644 47.6772 21.5644 47.6772L21.5741 47.6725Z" fill="#52372D"/>
<path fill-rule="evenodd" clip-rule="evenodd" d="M14.0818 52.1492C14.7365 51.5649 15.8227 51.8476 16.5113 52.7854C17.1999 53.7138 17.2387 54.9391 16.584 55.5234C15.9294 56.1078 14.8383 55.8156 14.1497 54.8872C13.4611 53.9589 13.4272 52.7242 14.0818 52.1492Z" fill="#FAD6A1"/>
<path fill-rule="evenodd" clip-rule="evenodd" d="M36.5295 115.383C36.5295 115.383 36.1562 113.258 35.71 113.017C35.2687 112.777 34.779 113.286 34.779 113.286C34.779 113.286 34.391 112.951 33.9691 112.956C33.5521 112.965 33.2903 113.281 33.2903 113.281C33.2903 113.281 32.8296 112.923 32.558 112.951C32.2865 112.975 32.1458 113.328 32.1458 113.328C32.1458 113.328 32.1458 113.003 31.7288 113.182C31.3069 113.357 31.5057 114.686 31.7288 115.425C31.947 116.161 32.3447 116.175 32.718 116.278C32.946 116.344 34.1292 116.415 34.9535 116.321C35.133 116.302 35.3124 116.283 35.4724 116.269C35.7197 116.241 36.064 116.217 36.161 116.146C36.6023 115.821 36.5295 115.388 36.5295 115.388V115.383Z" fill="#FAD6A1"/>
<path fill-rule="evenodd" clip-rule="evenodd" d="M36.0249 111.208L36.0394 113.145L35.637 114.309C35.3266 114.968 34.0125 116.538 33.9058 115.27C33.8621 114.973 34.798 113.3 34.4877 112.928C33.6294 111.91 33.964 111.316 34.0028 111.297C34.1288 111.236 36.0249 111.203 36.0249 111.203V111.208Z" fill="#FAD6A1"/>
<path fill-rule="evenodd" clip-rule="evenodd" d="M19.2176 64.8403L17.3943 64.7979L16.0898 66.763L17.3749 67.6584L19.237 67.6254L20.2602 66.5132L19.2176 64.8403Z" fill="#3D3938"/>
<path d="M19.2176 64.8403L17.3943 64.7979L16.0898 66.763L17.3749 67.6584L19.237 67.6254L20.2602 66.5132L19.2176 64.8403Z" stroke="#221815" stroke-width="0.25" stroke-miterlimit="2"/>
<path fill-rule="evenodd" clip-rule="evenodd" d="M17.6657 64.7794C17.462 64.9726 15.2944 68.3845 15.2944 68.2667C15.2944 68.1489 12.9619 63.9453 12.9619 63.9453L14.2373 62.0791L17.6657 64.7794Z" fill="#F5E1A6"/>
<path fill-rule="evenodd" clip-rule="evenodd" d="M18.5918 64.68C18.7906 64.8732 20.9631 68.2851 20.9631 68.1673C20.9631 68.0495 23.2713 64.0061 23.2713 64.0061L21.9184 62.3096L18.5918 64.68Z" fill="#F5E1A6"/>
<path fill-rule="evenodd" clip-rule="evenodd" d="M95.0698 70.7498C94.8807 70.3115 93.2562 66.2823 93.2223 66.155C93.1593 65.9241 91.4329 65.5801 91.4329 65.5848C91.2438 65.8299 87.8687 62.008 87.1656 62.4886C86.4673 62.9599 90.1333 66.631 90.1333 66.631C90.1333 66.631 88.9841 66.1126 88.5864 66.532C88.1839 66.9515 88.6058 67.4934 88.6058 67.4934C88.6058 67.4934 88.0433 67.4369 87.8348 67.8987C87.6214 68.3652 88.1985 68.7988 88.1985 68.7988C88.1985 68.7988 87.7426 68.7422 87.6505 69.1617C87.4371 70.0948 89.7551 71.1834 90.5019 71.3153C90.5019 71.3153 91.205 71.9751 91.6996 72.1966C92.1943 72.4228 95.0698 70.7498 95.0698 70.7498Z" fill="#FFBF9D"/>
<path fill-rule="evenodd" clip-rule="evenodd" d="M121.087 171.01C121.169 170.845 120.01 172.744 120.01 172.744C120.01 172.744 113.876 175.671 113.876 176.51C113.876 177.349 125.495 176.675 125.495 176.675L125.272 172.551L121.087 171.015V171.01Z" fill="#1C2225"/>
<path fill-rule="evenodd" clip-rule="evenodd" d="M138.815 171.081C138.728 170.916 139.887 172.815 139.887 172.815C139.887 172.815 146.026 175.742 146.026 176.581C146.026 177.419 134.407 176.75 134.407 176.75L134.63 172.622L138.815 171.086V171.081Z" fill="#1C2225"/>
<path fill-rule="evenodd" clip-rule="evenodd" d="M140.895 105.024L139.819 172.462L134.582 173.395L128.423 120.237L125.271 172.546L120.01 172.74L115.611 106.81L140.895 105.024Z" fill="#263238"/>
<path fill-rule="evenodd" clip-rule="evenodd" d="M129.946 63.3983C130.426 63.3983 140.944 66.5981 140.944 66.5981C140.944 66.5981 142.054 103.936 139.334 107.075C136.589 107.763 122.1 110.303 115.723 107.517C113.851 97.0933 114.806 82.324 115.417 67.0647C117.406 65.42 120.592 65.9572 122.58 64.3125C125.038 64.0062 127.492 63.7046 129.951 63.3936L129.946 63.3983Z" fill="#EDEDED"/>
<path fill-rule="evenodd" clip-rule="evenodd" d="M128.146 66.7773L128.685 67.5785L130.43 105.392L127.569 110.293L124.33 105.628L126.75 67.7576L128.146 66.7773Z" fill="#263238"/>
<path fill-rule="evenodd" clip-rule="evenodd" d="M132.05 63.9495C132.409 81.6029 128.845 93.3372 132.215 111.226C133.093 115.873 141.904 116.65 143.339 115.684C142.093 115.043 140.304 71.6923 141.856 71.8148L141.599 66.6923L132.05 63.9448V63.9495Z" fill="#008183"/>
<path fill-rule="evenodd" clip-rule="evenodd" d="M131.992 63.9966L131.188 92.5501L137.07 75.5754L134.335 73.549L137.351 66.7629L135.028 64.8119L131.992 63.9966Z" fill="#76AAAB"/>
<path fill-rule="evenodd" clip-rule="evenodd" d="M123.113 64.105L122.895 112.602C120.495 116.179 115.811 116.985 112.983 116.631C113.313 104.968 114.618 78.0307 114.816 66.0748L123.113 64.105Z" fill="#008183"/>
<path fill-rule="evenodd" clip-rule="evenodd" d="M123.016 63.9922L122.06 92.5033L117.938 75.571L120.669 73.5446L117.657 66.7585L119.98 64.8028L123.016 63.9922Z" fill="#76AAAB"/>
<path fill-rule="evenodd" clip-rule="evenodd" d="M121.071 46.989C120.567 47.2953 119.825 50.2077 119.694 55.1889C119.563 60.1701 124.122 61.8242 124.122 61.8242C124.058 62.8516 124 63.8742 123.932 64.9015C126.536 66.5462 129.499 66.1457 131.681 64.3502C131.609 61.8431 132.976 52.2388 132.782 49.1049C132.409 42.9079 123.355 44.1897 121.071 46.989Z" fill="#FAD6A1"/>
<mask id="mask2_1005_3569" style="mask-type:luminance" maskUnits="userSpaceOnUse" x="119" y="44" width="14" height="23">
<path d="M121.156 47.0925C120.652 47.3988 119.91 50.3112 119.779 55.2924C119.648 60.2736 124.206 61.9277 124.206 61.9277C124.143 62.9551 124.085 63.9777 124.017 65.005C126.621 66.6497 129.584 66.2492 131.766 64.4537C131.694 61.9466 133.061 52.3423 132.867 49.2085C132.494 43.0114 123.44 44.2932 121.156 47.0925Z" fill="white"/>
</mask>
<g mask="url(#mask2_1005_3569)">
<path fill-rule="evenodd" clip-rule="evenodd" d="M118.918 59.3834C118.918 59.3834 122.754 61.6643 125.741 60.4532C128.728 59.2421 130.168 55.8726 130.168 55.8726L131.831 56.3438L132.059 65.1139C132.059 65.1139 125.096 65.8915 122.977 64.6097C120.858 63.3279 118.913 59.3787 118.913 59.3787L118.918 59.3834Z" fill="#FFBF9D"/>
</g>
<path fill-rule="evenodd" clip-rule="evenodd" d="M131.924 52.4224C131.27 51.838 130.179 52.1208 129.485 53.0539C128.792 53.987 128.763 55.217 129.412 55.8013C130.067 56.381 131.158 56.0982 131.852 55.1651C132.545 54.232 132.574 53.0067 131.924 52.4224Z" fill="#FAD6A1"/>
<path fill-rule="evenodd" clip-rule="evenodd" d="M126.779 65.1275L128.602 65.0898L129.912 67.0597L128.626 67.9551L126.76 67.9221L125.736 66.8099L126.779 65.1275Z" fill="#1D2637"/>
<path fill-rule="evenodd" clip-rule="evenodd" d="M128.331 65.0714C128.53 65.2646 130.697 68.6765 130.697 68.5634C130.697 68.4503 133.035 64.2326 133.035 64.2326L131.881 62.5737L128.326 65.0667L128.331 65.0714Z" fill="white"/>
<path fill-rule="evenodd" clip-rule="evenodd" d="M127.399 64.9767C127.2 65.1699 125.033 68.5818 125.033 68.4687C125.033 68.3509 122.715 64.2934 122.715 64.2934L124.068 62.6016L127.399 64.9767Z" fill="white"/>
<path fill-rule="evenodd" clip-rule="evenodd" d="M115.722 72.9791C115.189 72.423 114.82 66.0752 114.82 66.0752L105.844 82.1875L94.5263 69.1761L90.8506 72.8755C90.8506 72.8755 98.8664 82.9086 102.775 88.8558C103.415 89.8313 104.472 91.4195 106.543 91.5844C108.473 91.7352 117.531 79.9538 117.531 79.9538L115.722 72.9838V72.9791Z" fill="#008183"/>
<path fill-rule="evenodd" clip-rule="evenodd" d="M151.718 109.351C151.718 109.351 151.466 110.501 151.505 111.754C151.544 113.003 151.932 116.297 152.412 115.717C152.897 115.142 153.091 112.046 153.091 112.046C153.091 112.046 153.964 113.107 154.327 114.445C154.696 115.783 154.977 118.889 155.641 117.984C156.296 117.084 155.845 113.045 155.845 113.045L154.424 108.408L151.709 109.346L151.718 109.351Z" fill="#FFBF9D"/>
<path fill-rule="evenodd" clip-rule="evenodd" d="M138.34 75.9573C139.043 74.5294 141.599 66.6924 141.599 66.6924C148.455 82.2392 150.681 92.7106 154.609 108.993C154.609 108.993 149.828 111.306 149.673 110.251C149.522 109.19 138.34 75.9573 138.34 75.9573Z" fill="#008183"/>
<path fill-rule="evenodd" clip-rule="evenodd" d="M154.337 113.455C154.342 113.629 153.697 116.971 153.954 117.277C154.216 117.593 154.604 117.136 154.604 117.136C154.604 117.136 154.555 117.522 154.817 117.621C155.079 117.711 155.36 117.437 155.409 117.074C155.457 116.702 155.273 113.893 155.273 113.893L154.337 113.455Z" fill="#FFBF9D"/>
<path fill-rule="evenodd" clip-rule="evenodd" d="M129.043 53.4169C129.043 53.4169 128 53.0776 127.957 51.4989C127.918 49.9155 127.996 49.0107 127.996 49.0107L125.939 47.842C125.939 47.842 123.534 48.7798 120.896 47.6158C118.258 46.447 117.987 44.7552 118.995 43.9635C120.004 43.1718 121.711 43.6619 121.711 43.6619C121.711 43.6619 126.424 42.9267 128.83 42.889C131.235 42.856 132.36 45.1134 132.36 45.1134C132.36 45.1134 133.368 44.7788 134.3 46.9654C135.226 49.1473 134.494 53.5206 133.519 56.122C132.554 58.7186 131.986 59.8308 131.986 59.8308L129.038 53.4264L129.043 53.4169Z" fill="#263238"/>
<path fill-rule="evenodd" clip-rule="evenodd" d="M129.824 51.6779C130.61 51.3198 131.453 51.9465 131.706 53.0776C131.958 54.2086 131.516 55.415 130.731 55.7732C129.945 56.136 129.097 55.5093 128.845 54.383C128.597 53.2472 129.034 52.0408 129.824 51.6826V51.6779Z" fill="#FAD6A1"/>
<path d="M79.329 0C81.4384 0.221491 83.5575 0.386432 85.6475 0.768151C89.1972 1.41378 92.611 2.40813 95.4672 4.67017C97.2712 6.09808 98.4301 8.00668 99.2448 10.0896C101.257 15.2216 101.48 20.5657 101.233 25.9758C101.117 28.5206 100.801 31.0277 100.234 33.5065C99.3563 37.3425 96.8105 39.925 93.5179 41.9844C90.6374 43.7893 87.4709 45.0052 84.4013 46.4331C82.4373 47.3473 80.6577 48.5302 79.1884 50.0995C77.4863 51.9185 76.7928 54.1193 76.8268 56.5604C76.8462 57.9648 76.8365 57.9648 75.3769 57.9601C71.2308 57.9601 67.0847 57.9601 62.9434 57.9601C62.4051 57.9601 61.8766 57.9695 61.9251 57.2108C62.1384 53.8036 62.1239 50.3917 62.8658 47.0175C63.5447 43.9213 65.4747 41.9184 68.1127 40.3397C71.6332 38.2332 75.4884 36.8147 79.2611 35.236C81.6857 34.2228 83.9988 33.1106 85.5506 30.9098C86.792 29.152 87.3787 27.1633 87.563 25.0945C87.7667 22.8136 87.6357 20.5233 87.2235 18.2566C86.6125 14.8918 84.4886 13.1575 81.099 12.6533C77.5493 12.1255 73.9851 12.0218 70.4064 12.2244C68.3358 12.3423 66.2894 12.5496 64.2867 13.1575C61.9057 13.8786 60.577 15.4808 59.8884 17.7005C59.4665 19.0577 59.321 20.4573 59.2774 21.8617C59.2434 22.9927 59.2289 24.1237 59.2774 25.2547C59.3065 25.9805 59.0446 26.2161 58.2978 26.2114C54.0936 26.1878 49.8941 26.1878 45.6898 26.2114C44.9624 26.2114 44.6715 25.9946 44.6957 25.2642C44.8073 21.6261 44.8073 17.9785 45.554 14.3969C46.2717 10.9426 47.5277 7.6768 50.1705 5.16028C51.4992 3.8926 53.2158 3.06318 54.9907 2.42227C59.2143 0.904816 63.6126 0.329881 68.0836 0.108389C68.3649 0.0942517 68.6413 0.0377007 68.9177 0H79.3096L79.329 0Z" fill="#263238"/>
<path d="M62.9092 84.7698C62.3806 84.7698 61.9539 84.3551 61.9539 83.8415C61.9442 79.3315 61.9394 74.8216 61.9248 70.3116C61.9248 69.699 62.1964 69.4963 62.8025 69.5011C67.1377 69.5152 71.4778 69.5105 75.813 69.5058C76.2737 69.5058 76.6713 69.5576 76.6665 70.1514C76.6471 74.7179 76.6277 79.2797 76.6132 83.8462C76.6132 84.3598 76.1816 84.7746 75.6578 84.7746H62.9141L62.9092 84.7698Z" fill="#263238"/>
<ellipse cx="126.081" cy="51.8384" rx="0.484924" ry="0.471258" fill="#263238"/>
<ellipse cx="24.2466" cy="50.8961" rx="0.484924" ry="0.471258" fill="#263238"/>
<ellipse cx="121.715" cy="51.8384" rx="0.484924" ry="0.471258" fill="#263238"/>
<ellipse cx="19.8814" cy="50.8961" rx="0.484924" ry="0.471258" fill="#263238"/>
<path d="M121.678 56.2458C122.412 55.8107 124.155 55.3213 125.263 56.8457" stroke="black"/>
<path d="M19.8444 55.3035C20.5776 54.8683 22.321 54.379 23.4286 55.9033" stroke="black"/>
</g>
<defs>
<clipPath id="clip0_1005_3569">
<rect width="156" height="177" fill="white"/>
</clipPath>
</defs>
</svg>
